<?xml version="1.0" encoding="UTF-8" standalone="no"?>
<!-- Created with PhotoLine 23.53 (www.pl32.de) -->
<!DOCTYPE svg PUBLIC "-//W3C//DTD SVG 1.1//EN" "http://www.w3.org/Graphics/SVG/1.1/DTD/svg11.dtd">
<svg width="775" height="354" viewBox="0 0 775 354" version="1.1" xmlns="http://www.w3.org/2000/svg" xmlns:xlink="http://www.w3.org/1999/xlink">
  <defs>
    <clipPath id="clip0">
      <path clip-rule="evenodd" d="M174.5 0.5 L173.5 1.5 L163.5 1.5 L162.5 2.5 L158.5 2.5 L157.5 3.5 L154.5 3.5 L153.5 4.5 L152.5 4.5 L151.5 5.5 L149.5 5.5 L148.5 6.5 L144.5 6.5 L143.5 7.5 L140.5 7.5 L139.5 8.5 L137.5 8.5 L136.5 9.5 L134.5 9.5 L133.5 10.5 L130.5 10.5 L129.5 11.5 L127.5 11.5 L126.5 12.5 L125.5 12.5 L124.5 13.5 L121.5 13.5 L120.5 14.5 L119.5 14.5 L118.5 15.5 L116.5 15.5 L115.5 16.5 L113.5 16.5 L112.5 17.5 L111.5 17.5 L110.5 18.5 L108.5 18.5 L107.5 19.5 L105.5 19.5 L104.5 20.5 L103.5 20.5 L102.5 21.5 L100.5 21.5 L99.5 22.5 L98.5 22.5 L97.5 23.5 L95.5 23.5 L94.5 24.5 L92.5 24.5 L91.5 25.5 L89.5 25.5 L88.5 26.5 L86.5 26.5 L85.5 27.5 L82.5 27.5 L81.5 28.5 L80.5 28.5 L79.5 29.5 L76.5 29.5 L75.5 30.5 L74.5 30.5 L73.5 31.5 L72.5 31.5 L71.5 32.5 L70.5 32.5 L69.5 33.5 L65.5 33.5 L64.5 34.5 L63.5 35.5 L62.5 35.5 L61.5 36.5 L59.5 36.5 L58.5 37.5 L57.5 38.5 L56.5 39.5 L55.5 40.5 L54.5 40.5 L53.5 41.5 L52.5 41.5 L51.5 42.5 L50.5 43.5 L49.5 43.5 L48.5 44.5 L47.5 45.5 L46.5 45.5 L45.5 46.5 L44.5 47.5 L43.5 48.5 L42.5 48.5 L41.5 49.5 L40.5 50.5 L39.5 51.5 L38.5 52.5 L37.5 52.5 L36.5 53.5 L35.5 54.5 L34.5 55.5 L33.5 56.5 L32.5 57.5 L31.5 58.5 L30.5 59.5 L29.5 60.5 L28.5 61.5 L27.5 62.5 L26.5 63.5 L25.5 64.5 L24.5 65.5 L23.5 66.5 L22.5 67.5 L22.5 68.5 L21.5 69.5 L21.5 71.5 L22.5 72.5 L22.5 75.5 L21.5 76.5 L16.5 76.5 L15.5 77.5 L14.5 78.5 L14.5 79.5 L13.5 80.5 L12.5 81.5 L12.5 82.5 L11.5 83.5 L10.5 84.5 L10.5 85.5 L9.5 86.5 L9.5 87.5 L8.5 88.5 L8.5 89.5 L7.5 90.5 L7.5 91.5 L6.5 92.5 L6.5 93.5 L5.5 94.5 L5.5 95.5 L4.5 96.5 L4.5 97.5 L3.5 98.5 L3.5 100.5 L2.5 101.5 L2.5 103.5 L1.5 104.5 L1.5 107.5 L0.5 108.5 L0.5 118.5 L1.5 119.5 L1.5 123.5 L2.5 124.5 L2.5 126.5 L3.5 127.5 L3.5 129.5 L4.5 130.5 L4.5 131.5 L5.5 132.5 L5.5 133.5 L6.5 134.5 L6.5 136.5 L7.5 137.5 L7.5 138.5 L8.5 139.5 L8.5 140.5 L9.5 141.5 L9.5 142.5 L10.5 143.5 L10.5 144.5 L11.5 145.5 L12.5 146.5 L13.5 147.5 L14.5 148.5 L14.5 149.5 L15.5 150.5 L16.5 151.5 L16.5 152.5 L17.5 153.5 L18.5 154.5 L18.5 155.5 L19.5 156.5 L20.5 157.5 L21.5 158.5 L22.5 159.5 L23.5 160.5 L24.5 161.5 L25.5 162.5 L26.5 163.5 L27.5 164.5 L28.5 165.5 L29.5 166.5 L30.5 167.5 L31.5 168.5 L32.5 169.5 L33.5 170.5 L34.5 171.5 L35.5 172.5 L36.5 172.5 L37.5 173.5 L38.5 174.5 L39.5 175.5 L40.5 176.5 L41.5 176.5 L42.5 177.5 L43.5 178.5 L44.5 178.5 L45.5 179.5 L46.5 180.5 L47.5 180.5 L48.5 181.5 L49.5 182.5 L50.5 183.5 L51.5 183.5 L52.5 184.5 L53.5 185.5 L54.5 185.5 L55.5 186.5 L56.5 187.5 L57.5 188.5 L58.5 189.5 L59.5 189.5 L60.5 190.5 L61.5 190.5 L62.5 191.5 L63.5 192.5 L64.5 192.5 L65.5 193.5 L66.5 194.5 L67.5 194.5 L68.5 195.5 L69.5 195.5 L70.5 196.5 L71.5 196.5 L72.5 197.5 L73.5 198.5 L74.5 198.5 L75.5 199.5 L76.5 199.5 L77.5 200.5 L78.5 200.5 L79.5 201.5 L80.5 202.5 L81.5 202.5 L82.5 203.5 L83.5 203.5 L84.5 204.5 L85.5 205.5 L86.5 205.5 L87.5 206.5 L88.5 206.5 L89.5 207.5 L90.5 208.5 L91.5 208.5 L92.5 209.5 L93.5 210.5 L94.5 210.5 L95.5 211.5 L96.5 211.5 L97.5 212.5 L98.5 213.5 L99.5 213.5 L100.5 214.5 L101.5 215.5 L102.5 215.5 L103.5 216.5 L104.5 216.5 L105.5 217.5 L106.5 217.5 L107.5 218.5 L108.5 218.5 L109.5 219.5 L110.5 219.5 L111.5 220.5 L112.5 220.5 L113.5 221.5 L114.5 221.5 L115.5 222.5 L117.5 222.5 L118.5 223.5 L119.5 223.5 L120.5 224.5 L122.5 224.5 L123.5 225.5 L124.5 225.5 L125.5 226.5 L127.5 226.5 L128.5 227.5 L130.5 227.5 L131.5 228.5 L133.5 228.5 L134.5 229.5 L135.5 229.5 L136.5 230.5 L139.5 230.5 L140.5 231.5 L142.5 231.5 L143.5 232.5 L145.5 232.5 L146.5 233.5 L147.5 233.5 L148.5 234.5 L151.5 234.5 L152.5 235.5 L153.5 235.5 L154.5 236.5 L156.5 236.5 L157.5 237.5 L158.5 237.5 L159.5 238.5 L161.5 238.5 L162.5 239.5 L163.5 239.5 L164.5 240.5 L166.5 240.5 L167.5 241.5 L168.5 241.5 L169.5 242.5 L170.5 242.5 L171.5 243.5 L172.5 243.5 L173.5 244.5 L179.5 244.5 L180.5 245.5 L181.5 245.5 L182.5 246.5 L183.5 246.5 L184.5 247.5 L186.5 247.5 L187.5 248.5 L188.5 248.5 L189.5 249.5 L191.5 249.5 L192.5 250.5 L193.5 250.5 L194.5 251.5 L195.5 251.5 L196.5 252.5 L198.5 252.5 L199.5 253.5 L200.5 253.5 L201.5 254.5 L202.5 254.5 L203.5 255.5 L204.5 255.5 L205.5 256.5 L207.5 256.5 L208.5 257.5 L210.5 257.5 L211.5 258.5 L212.5 258.5 L213.5 259.5 L214.5 259.5 L215.5 260.5 L216.5 260.5 L217.5 261.5 L218.5 261.5 L219.5 262.5 L220.5 262.5 L221.5 263.5 L222.5 264.5 L222.5 265.5 L223.5 266.5 L224.5 267.5 L225.5 267.5 L226.5 268.5 L228.5 268.5 L229.5 269.5 L230.5 269.5 L231.5 270.5 L233.5 270.5 L234.5 271.5 L235.5 271.5 L236.5 272.5 L238.5 272.5 L239.5 273.5 L240.5 273.5 L241.5 274.5 L243.5 274.5 L244.5 275.5 L245.5 275.5 L246.5 276.5 L247.5 276.5 L248.5 277.5 L250.5 277.5 L251.5 278.5 L253.5 278.5 L254.5 279.5 L255.5 279.5 L256.5 280.5 L257.5 280.5 L258.5 281.5 L260.5 281.5 L261.5 282.5 L262.5 282.5 L263.5 283.5 L264.5 283.5 L265.5 284.5 L266.5 284.5 L267.5 285.5 L269.5 285.5 L270.5 286.5 L272.5 286.5 L273.5 287.5 L275.5 287.5 L276.5 288.5 L277.5 288.5 L278.5 289.5 L279.5 289.5 L280.5 290.5 L282.5 290.5 L283.5 291.5 L287.5 291.5 L288.5 292.5 L289.5 292.5 L290.5 293.5 L291.5 293.5 L292.5 294.5 L294.5 294.5 L295.5 295.5 L297.5 295.5 L298.5 296.5 L299.5 296.5 L300.5 297.5 L301.5 297.5 L302.5 298.5 L304.5 298.5 L305.5 299.5 L307.5 299.5 L308.5 300.5 L311.5 300.5 L312.5 301.5 L314.5 301.5 L315.5 302.5 L316.5 302.5 L317.5 303.5 L319.5 303.5 L320.5 304.5 L322.5 304.5 L323.5 305.5 L325.5 305.5 L326.5 306.5 L327.5 306.5 L328.5 307.5 L330.5 307.5 L331.5 308.5 L333.5 308.5 L334.5 309.5 L335.5 309.5 L336.5 310.5 L338.5 310.5 L339.5 311.5 L341.5 311.5 L342.5 312.5 L344.5 312.5 L345.5 313.5 L347.5 313.5 L348.5 314.5 L350.5 314.5 L351.5 315.5 L353.5 315.5 L354.5 316.5 L357.5 316.5 L358.5 317.5 L361.5 317.5 L362.5 318.5 L364.5 318.5 L365.5 319.5 L372.5 319.5 L373.5 320.5 L379.5 320.5 L380.5 321.5 L382.5 321.5 L383.5 322.5 L388.5 322.5 L389.5 323.5 L391.5 323.5 L392.5 324.5 L397.5 324.5 L398.5 323.5 L407.5 323.5 L408.5 324.5 L412.5 324.5 L413.5 325.5 L416.5 325.5 L417.5 326.5 L421.5 326.5 L422.5 327.5 L426.5 327.5 L427.5 328.5 L431.5 328.5 L432.5 329.5 L438.5 329.5 L439.5 330.5 L446.5 330.5 L447.5 331.5 L455.5 331.5 L456.5 332.5 L464.5 332.5 L465.5 333.5 L478.5 333.5 L479.5 334.5 L486.5 334.5 L487.5 335.5 L494.5 335.5 L495.5 336.5 L496.5 336.5 L497.5 337.5 L498.5 337.5 L499.5 338.5 L500.5 339.5 L501.5 339.5 L502.5 340.5 L504.5 340.5 L505.5 341.5 L509.5 341.5 L510.5 342.5 L513.5 342.5 L514.5 343.5 L517.5 343.5 L518.5 344.5 L521.5 344.5 L522.5 345.5 L527.5 345.5 L528.5 346.5 L534.5 346.5 L535.5 347.5 L539.5 347.5 L540.5 348.5 L544.5 348.5 L545.5 349.5 L549.5 349.5 L550.5 350.5 L562.5 350.5 L563.5 351.5 L568.5 351.5 L569.5 352.5 L570.5 353.5 L611.5 353.5 L612.5 352.5 L613.5 351.5 L614.5 350.5 L615.5 349.5 L619.5 349.5 L620.5 348.5 L624.5 348.5 L625.5 347.5 L634.5 347.5 L635.5 346.5 L640.5 346.5 L641.5 345.5 L644.5 345.5 L645.5 344.5 L648.5 344.5 L649.5 343.5 L651.5 343.5 L652.5 342.5 L654.5 342.5 L655.5 341.5 L658.5 341.5 L659.5 340.5 L660.5 340.5 L661.5 339.5 L664.5 339.5 L665.5 338.5 L666.5 338.5 L667.5 337.5 L670.5 337.5 L671.5 336.5 L672.5 336.5 L673.5 335.5 L675.5 335.5 L676.5 334.5 L678.5 334.5 L679.5 333.5 L681.5 333.5 L682.5 332.5 L687.5 332.5 L688.5 333.5 L691.5 333.5 L692.5 332.5 L694.5 332.5 L695.5 331.5 L696.5 331.5 L697.5 330.5 L699.5 330.5 L700.5 329.5 L702.5 329.5 L703.5 328.5 L704.5 328.5 L705.5 327.5 L708.5 327.5 L709.5 326.5 L712.5 326.5 L713.5 325.5 L716.5 325.5 L717.5 324.5 L719.5 324.5 L720.5 323.5 L722.5 323.5 L723.5 322.5 L725.5 322.5 L726.5 321.5 L727.5 321.5 L728.5 320.5 L729.5 320.5 L730.5 319.5 L731.5 318.5 L732.5 318.5 L733.5 317.5 L734.5 317.5 L735.5 316.5 L736.5 316.5 L737.5 315.5 L738.5 314.5 L739.5 313.5 L740.5 313.5 L741.5 312.5 L742.5 311.5 L743.5 310.5 L744.5 310.5 L745.5 309.5 L747.5 309.5 L748.5 308.5 L749.5 308.5 L750.5 307.5 L751.5 306.5 L752.5 306.5 L753.5 305.5 L754.5 304.5 L755.5 304.5 L756.5 303.5 L757.5 302.5 L758.5 301.5 L758.5 300.5 L759.5 299.5 L759.5 297.5 L760.5 296.5 L760.5 294.5 L761.5 293.5 L761.5 289.5 L762.5 288.5 L762.5 284.5 L763.5 283.5 L763.5 255.5 L762.5 254.5 L762.5 252.5 L761.5 251.5 L761.5 248.5 L760.5 247.5 L760.5 243.5 L761.5 242.5 L761.5 239.5 L760.5 238.5 L759.5 237.5 L759.5 236.5 L758.5 235.5 L758.5 234.5 L757.5 233.5 L757.5 231.5 L756.5 230.5 L756.5 229.5 L755.5 228.5 L755.5 227.5 L754.5 226.5 L754.5 224.5 L753.5 223.5 L753.5 222.5 L752.5 222.5 L751.5 223.5 L749.5 223.5 L748.5 222.5 L747.5 221.5 L747.5 220.5 L746.5 219.5 L746.5 218.5 L745.5 217.5 L745.5 216.5 L744.5 215.5 L743.5 214.5 L743.5 213.5 L742.5 212.5 L742.5 211.5 L741.5 210.5 L740.5 209.5 L740.5 208.5 L739.5 207.5 L738.5 206.5 L738.5 205.5 L737.5 204.5 L736.5 203.5 L736.5 202.5 L735.5 201.5 L734.5 200.5 L733.5 199.5 L732.5 198.5 L732.5 197.5 L731.5 196.5 L730.5 195.5 L729.5 194.5 L728.5 193.5 L727.5 192.5 L727.5 191.5 L726.5 190.5 L725.5 189.5 L724.5 188.5 L723.5 187.5 L722.5 186.5 L721.5 185.5 L721.5 184.5 L720.5 183.5 L719.5 182.5 L718.5 181.5 L717.5 180.5 L716.5 179.5 L715.5 178.5 L714.5 177.5 L713.5 176.5 L712.5 175.5 L711.5 174.5 L710.5 173.5 L709.5 172.5 L708.5 171.5 L707.5 170.5 L706.5 169.5 L705.5 168.5 L704.5 167.5 L703.5 166.5 L702.5 165.5 L701.5 164.5 L700.5 163.5 L699.5 162.5 L698.5 161.5 L697.5 161.5 L696.5 160.5 L695.5 159.5 L694.5 158.5 L693.5 157.5 L692.5 156.5 L691.5 155.5 L690.5 155.5 L689.5 154.5 L688.5 153.5 L687.5 152.5 L686.5 152.5 L685.5 151.5 L684.5 150.5 L683.5 150.5 L682.5 149.5 L681.5 149.5 L680.5 148.5 L679.5 147.5 L678.5 147.5 L677.5 146.5 L676.5 146.5 L675.5 145.5 L674.5 144.5 L673.5 144.5 L672.5 143.5 L671.5 142.5 L670.5 141.5 L669.5 141.5 L668.5 140.5 L667.5 140.5 L666.5 139.5 L665.5 139.5 L664.5 138.5 L663.5 137.5 L662.5 136.5 L661.5 136.5 L660.5 135.5 L659.5 134.5 L658.5 134.5 L657.5 133.5 L656.5 133.5 L655.5 132.5 L654.5 131.5 L653.5 130.5 L653.5 129.5 L652.5 129.5 L651.5 128.5 L649.5 128.5 L648.5 127.5 L644.5 127.5 L643.5 126.5 L642.5 126.5 L641.5 125.5 L640.5 125.5 L639.5 124.5 L638.5 124.5 L637.5 123.5 L636.5 123.5 L635.5 122.5 L634.5 121.5 L633.5 121.5 L632.5 120.5 L631.5 119.5 L630.5 118.5 L629.5 117.5 L628.5 117.5 L627.5 116.5 L626.5 115.5 L625.5 114.5 L624.5 113.5 L623.5 112.5 L622.5 111.5 L621.5 111.5 L620.5 110.5 L619.5 109.5 L618.5 108.5 L617.5 108.5 L616.5 107.5 L615.5 106.5 L614.5 106.5 L613.5 105.5 L612.5 104.5 L611.5 103.5 L610.5 102.5 L609.5 101.5 L608.5 100.5 L607.5 100.5 L606.5 99.5 L605.5 98.5 L604.5 98.5 L603.5 97.5 L602.5 97.5 L601.5 96.5 L593.5 96.5 L592.5 97.5 L577.5 97.5 L576.5 96.5 L573.5 96.5 L572.5 95.5 L570.5 95.5 L569.5 94.5 L564.5 94.5 L563.5 93.5 L561.5 93.5 L560.5 92.5 L558.5 92.5 L557.5 91.5 L556.5 91.5 L555.5 90.5 L554.5 90.5 L553.5 89.5 L552.5 89.5 L551.5 88.5 L550.5 87.5 L549.5 87.5 L548.5 86.5 L547.5 86.5 L546.5 85.5 L545.5 85.5 L544.5 84.5 L543.5 83.5 L542.5 83.5 L541.5 82.5 L540.5 82.5 L539.5 81.5 L538.5 81.5 L537.5 80.5 L536.5 79.5 L535.5 79.5 L534.5 78.5 L533.5 78.5 L532.5 77.5 L531.5 76.5 L530.5 76.5 L529.5 75.5 L528.5 75.5 L527.5 74.5 L526.5 74.5 L525.5 73.5 L523.5 73.5 L522.5 72.5 L521.5 72.5 L520.5 71.5 L519.5 71.5 L518.5 70.5 L516.5 70.5 L515.5 69.5 L514.5 69.5 L513.5 68.5 L512.5 68.5 L511.5 67.5 L509.5 67.5 L508.5 66.5 L507.5 66.5 L506.5 65.5 L504.5 65.5 L503.5 64.5 L502.5 64.5 L501.5 63.5 L500.5 63.5 L499.5 62.5 L497.5 62.5 L496.5 61.5 L494.5 61.5 L493.5 60.5 L492.5 60.5 L491.5 59.5 L489.5 59.5 L488.5 58.5 L487.5 58.5 L486.5 57.5 L484.5 57.5 L483.5 56.5 L481.5 56.5 L480.5 55.5 L477.5 55.5 L476.5 54.5 L474.5 54.5 L473.5 53.5 L471.5 53.5 L470.5 52.5 L468.5 52.5 L467.5 51.5 L465.5 51.5 L464.5 50.5 L462.5 50.5 L461.5 49.5 L459.5 49.5 L458.5 48.5 L457.5 48.5 L456.5 47.5 L454.5 47.5 L453.5 46.5 L451.5 46.5 L450.5 45.5 L447.5 45.5 L446.5 44.5 L444.5 44.5 L443.5 43.5 L440.5 43.5 L439.5 42.5 L437.5 42.5 L436.5 41.5 L431.5 41.5 L430.5 40.5 L422.5 40.5 L421.5 41.5 L416.5 41.5 L415.5 42.5 L412.5 42.5 L411.5 41.5 L410.5 41.5 L409.5 40.5 L408.5 39.5 L407.5 38.5 L406.5 37.5 L405.5 37.5 L404.5 36.5 L403.5 36.5 L402.5 35.5 L401.5 34.5 L400.5 34.5 L399.5 33.5 L398.5 32.5 L397.5 31.5 L396.5 31.5 L395.5 30.5 L394.5 29.5 L393.5 28.5 L392.5 27.5 L391.5 26.5 L390.5 25.5 L389.5 24.5 L388.5 24.5 L387.5 23.5 L384.5 23.5 L383.5 22.5 L382.5 22.5 L381.5 21.5 L379.5 21.5 L378.5 20.5 L376.5 20.5 L375.5 19.5 L372.5 19.5 L371.5 18.5 L368.5 18.5 L367.5 17.5 L363.5 17.5 L362.5 16.5 L358.5 16.5 L357.5 15.5 L354.5 15.5 L353.5 14.5 L349.5 14.5 L348.5 13.5 L344.5 13.5 L343.5 12.5 L339.5 12.5 L338.5 11.5 L334.5 11.5 L333.5 10.5 L328.5 10.5 L327.5 9.5 L320.5 9.5 L319.5 8.5 L315.5 8.5 L314.5 7.5 L309.5 7.5 L308.5 6.5 L305.5 6.5 L304.5 5.5 L299.5 5.5 L298.5 4.5 L294.5 4.5 L293.5 3.5 L287.5 3.5 L286.5 2.5 L281.5 2.5 L280.5 1.5 L276.5 1.5 L275.5 2.5 L273.5 2.5 L272.5 3.5 L270.5 3.5 L269.5 4.5 L267.5 4.5 L266.5 5.5 L264.5 5.5 L263.5 6.5 L261.5 6.5 L260.5 7.5 L256.5 7.5 L255.5 8.5 L252.5 8.5 L251.5 9.5 L240.5 9.5 L239.5 8.5 L236.5 8.5 L235.5 7.5 L230.5 7.5 L229.5 6.5 L221.5 6.5 L220.5 5.5 L205.5 5.5 L204.5 6.5 L196.5 6.5 L195.5 7.5 L190.5 7.5 L189.5 6.5 L187.5 6.5 L186.5 5.5 L185.5 4.5 L184.5 4.5 L183.5 3.5 L182.5 3.5 L181.5 2.5 L180.5 2.5 L179.5 1.5 L177.5 1.5 L176.5 0.5 Z M774.5 277.5 L774.5 290.5 Z"/>
    </clipPath>
  </defs>
  <g id="shape">
    <g id="bread">
      <g clip-path="url(#clip0)">
        <path stroke-width="0" stroke-linejoin="bevel" stroke-miterlimit="10" stroke="#000000" d="M165.5 3.5 L164.5 4.5 L160.5 4.5 L159.5 5.5 L156.5 5.5 L155.5 6.5 L154.5 6.5 L153.5 7.5 L151.5 7.5 L150.5 8.5 L146.5 8.5 L145.5 9.5 L142.5 9.5 L141.5 10.5 L139.5 10.5 L138.5 11.5 L136.5 11.5 L135.5 12.5 L132.5 12.5 L131.5 13.5 L129.5 13.5 L128.5 14.5 L127.5 14.5 L126.5 15.5 L123.5 15.5 L122.5 16.5 L121.5 16.5 L120.5 17.5 L118.5 17.5 L117.5 18.5 L115.5 18.5 L114.5 19.5 L113.5 19.5 L112.5 20.5 L110.5 20.5 L109.5 21.5 L107.5 21.5 L106.5 22.5 L105.5 22.5 L104.5 23.5 L102.5 23.5 L101.5 24.5 L100.5 24.5 L99.5 25.5 L97.5 25.5 L96.5 26.5 L94.5 26.5 L93.5 27.5 L91.5 27.5 L90.5 28.5 L88.5 28.5 L87.5 29.5 L84.5 29.5 L83.5 30.5 L82.5 30.5 L81.5 31.5 L78.5 31.5 L77.5 32.5 L76.5 32.5 L75.5 33.5 L74.5 33.5 L73.5 34.5 L72.5 34.5 L71.5 35.5 L67.5 35.5 L66.5 36.5 L65.5 37.5 L64.5 37.5 L63.5 38.5 L61.5 38.5 L60.5 39.5 L59.5 40.5 L58.5 41.5 L57.5 42.5 L56.5 42.5 L55.5 43.5 L54.5 43.5 L53.5 44.5 L52.5 45.5 L51.5 45.5 L50.5 46.5 L49.5 47.5 L48.5 47.5 L47.5 48.5 L46.5 49.5 L45.5 50.5 L44.5 50.5 L43.5 51.5 L42.5 52.5 L41.5 53.5 L40.5 54.5 L39.5 54.5 L38.5 55.5 L37.5 56.5 L36.5 57.5 L35.5 58.5 L34.5 59.5 L33.5 60.5 L32.5 61.5 L31.5 62.5 L30.5 63.5 L29.5 64.5 L28.5 65.5 L27.5 66.5 L26.5 67.5 L25.5 68.5 L25.5 75.5 L24.5 76.5 L24.5 77.5 L23.5 78.5 L22.5 79.5 L21.5 79.5 L20.5 80.5 L17.5 80.5 L16.5 81.5 L15.5 82.5 L14.5 83.5 L14.5 84.5 L13.5 85.5 L12.5 86.5 L12.5 87.5 L11.5 88.5 L11.5 89.5 L10.5 90.5 L10.5 91.5 L9.5 92.5 L9.5 93.5 L8.5 94.5 L8.5 95.5 L7.5 96.5 L7.5 97.5 L6.5 98.5 L6.5 99.5 L5.5 100.5 L5.5 102.5 L4.5 103.5 L4.5 105.5 L3.5 106.5 L3.5 108.5 L2.5 109.5 L1.5 110.5 L0.5 111.5 L0.5 115.5 L1.5 116.5 L2.5 117.5 L3.5 118.5 L3.5 121.5 L4.5 122.5 L4.5 124.5 L5.5 125.5 L5.5 127.5 L6.5 128.5 L6.5 129.5 L7.5 130.5 L7.5 131.5 L8.5 132.5 L8.5 134.5 L9.5 135.5 L9.5 136.5 L10.5 137.5 L10.5 138.5 L11.5 139.5 L11.5 140.5 L12.5 141.5 L12.5 142.5 L13.5 143.5 L14.5 144.5 L15.5 145.5 L16.5 146.5 L16.5 147.5 L17.5 148.5 L18.5 149.5 L18.5 150.5 L19.5 151.5 L20.5 152.5 L20.5 153.5 L21.5 154.5 L22.5 155.5 L23.5 156.5 L24.5 157.5 L25.5 158.5 L26.5 159.5 L27.5 160.5 L28.5 161.5 L29.5 162.5 L30.5 163.5 L31.5 164.5 L32.5 165.5 L33.5 166.5 L34.5 167.5 L35.5 168.5 L36.5 169.5 L37.5 170.5 L38.5 170.5 L39.5 171.5 L40.5 172.5 L41.5 173.5 L42.5 174.5 L43.5 174.5 L44.5 175.5 L45.5 176.5 L46.5 176.5 L47.5 177.5 L48.5 178.5 L49.5 178.5 L50.5 179.5 L51.5 180.5 L52.5 181.5 L53.5 181.5 L54.5 182.5 L55.5 183.5 L56.5 183.5 L57.5 184.5 L58.5 185.5 L59.5 186.5 L60.5 187.5 L61.5 187.5 L62.5 188.5 L63.5 188.5 L64.5 189.5 L65.5 190.5 L66.5 190.5 L67.5 191.5 L68.5 192.5 L69.5 192.5 L70.5 193.5 L71.5 193.5 L72.5 194.5 L73.5 194.5 L74.5 195.5 L75.5 196.5 L76.5 196.5 L77.5 197.5 L78.5 197.5 L79.5 198.5 L80.5 198.5 L81.5 199.5 L82.5 200.5 L83.5 200.5 L84.5 201.5 L85.5 201.5 L86.5 202.5 L87.5 203.5 L88.5 203.5 L89.5 204.5 L90.5 204.5 L91.5 205.5 L92.5 206.5 L93.5 206.5 L94.5 207.5 L95.5 208.5 L96.5 208.5 L97.5 209.5 L98.5 209.5 L99.5 210.5 L100.5 211.5 L101.5 211.5 L102.5 212.5 L103.5 213.5 L104.5 213.5 L105.5 214.5 L106.5 214.5 L107.5 215.5 L108.5 215.5 L109.5 216.5 L110.5 216.5 L111.5 217.5 L112.5 217.5 L113.5 218.5 L114.5 218.5 L115.5 219.5 L116.5 219.5 L117.5 220.5 L119.5 220.5 L120.5 221.5 L121.5 221.5 L122.5 222.5 L124.5 222.5 L125.5 223.5 L126.5 223.5 L127.5 224.5 L129.5 224.5 L130.5 225.5 L132.5 225.5 L133.5 226.5 L135.5 226.5 L136.5 227.5 L137.5 227.5 L138.5 228.5 L141.5 228.5 L142.5 229.5 L144.5 229.5 L145.5 230.5 L147.5 230.5 L148.5 231.5 L149.5 231.5 L150.5 232.5 L153.5 232.5 L154.5 233.5 L155.5 233.5 L156.5 234.5 L158.5 234.5 L159.5 235.5 L160.5 235.5 L161.5 236.5 L163.5 236.5 L164.5 237.5 L165.5 237.5 L166.5 238.5 L168.5 238.5 L169.5 239.5 L170.5 239.5 L171.5 240.5 L172.5 240.5 L173.5 241.5 L174.5 241.5 L175.5 242.5 L181.5 242.5 L182.5 243.5 L183.5 243.5 L184.5 244.5 L185.5 244.5 L186.5 245.5 L188.5 245.5 L189.5 246.5 L190.5 246.5 L191.5 247.5 L193.5 247.5 L194.5 248.5 L195.5 248.5 L196.5 249.5 L197.5 249.5 L198.5 250.5 L200.5 250.5 L201.5 251.5 L202.5 251.5 L203.5 252.5 L204.5 252.5 L205.5 253.5 L206.5 253.5 L207.5 254.5 L209.5 254.5 L210.5 255.5 L212.5 255.5 L213.5 256.5 L214.5 256.5 L215.5 257.5 L216.5 257.5 L217.5 258.5 L218.5 258.5 L219.5 259.5 L220.5 259.5 L221.5 260.5 L222.5 260.5 L223.5 261.5 L224.5 262.5 L224.5 263.5 L225.5 264.5 L226.5 265.5 L227.5 265.5 L228.5 266.5 L230.5 266.5 L231.5 267.5 L232.5 267.5 L233.5 268.5 L235.5 268.5 L236.5 269.5 L237.5 269.5 L238.5 270.5 L240.5 270.5 L241.5 271.5 L242.5 271.5 L243.5 272.5 L245.5 272.5 L246.5 273.5 L247.5 273.5 L248.5 274.5 L249.5 274.5 L250.5 275.5 L252.5 275.5 L253.5 276.5 L255.5 276.5 L256.5 277.5 L257.5 277.5 L258.5 278.5 L259.5 278.5 L260.5 279.5 L262.5 279.5 L263.5 280.5 L264.5 280.5 L265.5 281.5 L266.5 281.5 L267.5 282.5 L268.5 282.5 L269.5 283.5 L271.5 283.5 L272.5 284.5 L274.5 284.5 L275.5 285.5 L277.5 285.5 L278.5 286.5 L279.5 286.5 L280.5 287.5 L281.5 287.5 L282.5 288.5 L284.5 288.5 L285.5 289.5 L289.5 289.5 L290.5 290.5 L291.5 290.5 L292.5 291.5 L293.5 291.5 L294.5 292.5 L296.5 292.5 L297.5 293.5 L299.5 293.5 L300.5 294.5 L301.5 294.5 L302.5 295.5 L303.5 295.5 L304.5 296.5 L306.5 296.5 L307.5 297.5 L309.5 297.5 L310.5 298.5 L313.5 298.5 L314.5 299.5 L316.5 299.5 L317.5 300.5 L318.5 300.5 L319.5 301.5 L321.5 301.5 L322.5 302.5 L324.5 302.5 L325.5 303.5 L327.5 303.5 L328.5 304.5 L329.5 304.5 L330.5 305.5 L332.5 305.5 L333.5 306.5 L335.5 306.5 L336.5 307.5 L337.5 307.5 L338.5 308.5 L340.5 308.5 L341.5 309.5 L343.5 309.5 L344.5 310.5 L346.5 310.5 L347.5 311.5 L349.5 311.5 L350.5 312.5 L352.5 312.5 L353.5 313.5 L355.5 313.5 L356.5 314.5 L359.5 314.5 L360.5 315.5 L363.5 315.5 L364.5 316.5 L366.5 316.5 L367.5 317.5 L374.5 317.5 L375.5 318.5 L381.5 318.5 L382.5 319.5 L384.5 319.5 L385.5 320.5 L390.5 320.5 L391.5 321.5 L398.5 321.5 L399.5 320.5 L403.5 320.5 L404.5 321.5 L409.5 321.5 L410.5 322.5 L414.5 322.5 L415.5 323.5 L418.5 323.5 L419.5 324.5 L423.5 324.5 L424.5 325.5 L428.5 325.5 L429.5 326.5 L433.5 326.5 L434.5 327.5 L440.5 327.5 L441.5 328.5 L448.5 328.5 L449.5 329.5 L457.5 329.5 L458.5 330.5 L466.5 330.5 L467.5 331.5 L480.5 331.5 L481.5 332.5 L488.5 332.5 L489.5 333.5 L496.5 333.5 L497.5 334.5 L498.5 334.5 L499.5 335.5 L500.5 335.5 L501.5 336.5 L502.5 337.5 L503.5 337.5 L504.5 338.5 L506.5 338.5 L507.5 339.5 L511.5 339.5 L512.5 340.5 L515.5 340.5 L516.5 341.5 L519.5 341.5 L520.5 342.5 L523.5 342.5 L524.5 343.5 L529.5 343.5 L530.5 344.5 L536.5 344.5 L537.5 345.5 L541.5 345.5 L542.5 346.5 L546.5 346.5 L547.5 347.5 L551.5 347.5 L552.5 348.5 L564.5 348.5 L565.5 349.5 L570.5 349.5 L571.5 350.5 L572.5 351.5 L573.5 352.5 L573.5 353.5 L609.5 353.5 L609.5 351.5 L610.5 350.5 L611.5 349.5 L612.5 348.5 L613.5 347.5 L617.5 347.5 L618.5 346.5 L622.5 346.5 L623.5 345.5 L632.5 345.5 L633.5 344.5 L638.5 344.5 L639.5 343.5 L642.5 343.5 L643.5 342.5 L646.5 342.5 L647.5 341.5 L649.5 341.5 L650.5 340.5 L652.5 340.5 L653.5 339.5 L656.5 339.5 L657.5 338.5 L658.5 338.5 L659.5 337.5 L662.5 337.5 L663.5 336.5 L664.5 336.5 L665.5 335.5 L668.5 335.5 L669.5 334.5 L670.5 334.5 L671.5 333.5 L673.5 333.5 L674.5 332.5 L676.5 332.5 L677.5 331.5 L679.5 331.5 L680.5 330.5 L692.5 330.5 L693.5 329.5 L694.5 329.5 L695.5 328.5 L697.5 328.5 L698.5 327.5 L700.5 327.5 L701.5 326.5 L702.5 326.5 L703.5 325.5 L706.5 325.5 L707.5 324.5 L710.5 324.5 L711.5 323.5 L714.5 323.5 L715.5 322.5 L717.5 322.5 L718.5 321.5 L720.5 321.5 L721.5 320.5 L723.5 320.5 L724.5 319.5 L725.5 319.5 L726.5 318.5 L727.5 318.5 L728.5 317.5 L729.5 316.5 L730.5 316.5 L731.5 315.5 L732.5 315.5 L733.5 314.5 L734.5 314.5 L735.5 313.5 L736.5 312.5 L737.5 311.5 L738.5 311.5 L739.5 310.5 L740.5 309.5 L741.5 308.5 L742.5 308.5 L743.5 307.5 L745.5 307.5 L746.5 306.5 L747.5 306.5 L748.5 305.5 L749.5 304.5 L750.5 304.5 L751.5 303.5 L752.5 302.5 L753.5 302.5 L754.5 301.5 L755.5 300.5 L756.5 299.5 L756.5 298.5 L757.5 297.5 L757.5 295.5 L758.5 294.5 L758.5 292.5 L759.5 291.5 L759.5 287.5 L760.5 286.5 L760.5 282.5 L761.5 281.5 L761.5 257.5 L760.5 256.5 L760.5 254.5 L759.5 253.5 L759.5 250.5 L758.5 249.5 L758.5 241.5 L757.5 240.5 L757.5 238.5 L756.5 237.5 L756.5 236.5 L755.5 235.5 L755.5 233.5 L754.5 232.5 L754.5 231.5 L753.5 230.5 L753.5 229.5 L752.5 228.5 L752.5 227.5 L751.5 227.5 L750.5 226.5 L748.5 226.5 L747.5 225.5 L746.5 224.5 L745.5 223.5 L745.5 222.5 L744.5 221.5 L744.5 220.5 L743.5 219.5 L743.5 218.5 L742.5 217.5 L741.5 216.5 L741.5 215.5 L740.5 214.5 L740.5 213.5 L739.5 212.5 L738.5 211.5 L738.5 210.5 L737.5 209.5 L736.5 208.5 L736.5 207.5 L735.5 206.5 L734.5 205.5 L734.5 204.5 L733.5 203.5 L732.5 202.5 L731.5 201.5 L730.5 200.5 L730.5 199.5 L729.5 198.5 L728.5 197.5 L727.5 196.5 L726.5 195.5 L725.5 194.5 L725.5 193.5 L724.5 192.5 L723.5 191.5 L722.5 190.5 L721.5 189.5 L720.5 188.5 L719.5 187.5 L719.5 186.5 L718.5 185.5 L717.5 184.5 L716.5 183.5 L715.5 182.5 L714.5 181.5 L713.5 180.5 L712.5 179.5 L711.5 178.5 L710.5 177.5 L709.5 176.5 L708.5 175.5 L707.5 174.5 L706.5 173.5 L705.5 172.5 L704.5 171.5 L703.5 170.5 L702.5 169.5 L701.5 168.5 L700.5 167.5 L699.5 166.5 L698.5 165.5 L697.5 164.5 L696.5 163.5 L695.5 163.5 L694.5 162.5 L693.5 161.5 L692.5 160.5 L691.5 159.5 L690.5 158.5 L689.5 157.5 L688.5 157.5 L687.5 156.5 L686.5 155.5 L685.5 154.5 L684.5 154.5 L683.5 153.5 L682.5 152.5 L681.5 152.5 L680.5 151.5 L679.5 151.5 L678.5 150.5 L677.5 149.5 L676.5 149.5 L675.5 148.5 L674.5 148.5 L673.5 147.5 L672.5 146.5 L671.5 146.5 L670.5 145.5 L669.5 144.5 L668.5 143.5 L667.5 143.5 L666.5 142.5 L665.5 142.5 L664.5 141.5 L663.5 141.5 L662.5 140.5 L661.5 139.5 L660.5 138.5 L659.5 138.5 L658.5 137.5 L657.5 136.5 L656.5 136.5 L655.5 135.5 L654.5 135.5 L653.5 134.5 L652.5 133.5 L651.5 132.5 L650.5 131.5 L649.5 130.5 L647.5 130.5 L646.5 129.5 L642.5 129.5 L641.5 128.5 L640.5 128.5 L639.5 127.5 L638.5 127.5 L637.5 126.5 L636.5 126.5 L635.5 125.5 L634.5 125.5 L633.5 124.5 L632.5 123.5 L631.5 123.5 L630.5 122.5 L629.5 121.5 L628.5 120.5 L627.5 119.5 L626.5 119.5 L625.5 118.5 L624.5 117.5 L623.5 116.5 L622.5 115.5 L621.5 114.5 L620.5 113.5 L619.5 113.5 L618.5 112.5 L617.5 111.5 L616.5 110.5 L615.5 110.5 L614.5 109.5 L613.5 108.5 L612.5 108.5 L611.5 107.5 L610.5 106.5 L609.5 105.5 L608.5 104.5 L607.5 103.5 L606.5 102.5 L605.5 102.5 L604.5 101.5 L603.5 100.5 L602.5 100.5 L601.5 99.5 L600.5 99.5 L599.5 98.5 L595.5 98.5 L594.5 99.5 L575.5 99.5 L574.5 98.5 L571.5 98.5 L570.5 97.5 L568.5 97.5 L567.5 96.5 L562.5 96.5 L561.5 95.5 L559.5 95.5 L558.5 94.5 L556.5 94.5 L555.5 93.5 L554.5 93.5 L553.5 92.5 L552.5 92.5 L551.5 91.5 L550.5 91.5 L549.5 90.5 L548.5 89.5 L547.5 89.5 L546.5 88.5 L545.5 88.5 L544.5 87.5 L543.5 87.5 L542.5 86.5 L541.5 85.5 L540.5 85.5 L539.5 84.5 L538.5 84.5 L537.5 83.5 L536.5 83.5 L535.5 82.5 L534.5 81.5 L533.5 81.5 L532.5 80.5 L531.5 80.5 L530.5 79.5 L529.5 78.5 L528.5 78.5 L527.5 77.5 L526.5 77.5 L525.5 76.5 L524.5 76.5 L523.5 75.5 L521.5 75.5 L520.5 74.5 L519.5 74.5 L518.5 73.5 L517.5 73.5 L516.5 72.5 L514.5 72.5 L513.5 71.5 L512.5 71.5 L511.5 70.5 L510.5 70.5 L509.5 69.5 L507.5 69.5 L506.5 68.5 L505.5 68.5 L504.5 67.5 L502.5 67.5 L501.5 66.5 L500.5 66.5 L499.5 65.5 L498.5 65.5 L497.5 64.5 L495.5 64.5 L494.5 63.5 L492.5 63.5 L491.5 62.5 L490.5 62.5 L489.5 61.5 L487.5 61.5 L486.5 60.5 L485.5 60.5 L484.5 59.5 L482.5 59.5 L481.5 58.5 L479.5 58.5 L478.5 57.5 L475.5 57.5 L474.5 56.5 L472.5 56.5 L471.5 55.5 L469.5 55.5 L468.5 54.5 L466.5 54.5 L465.5 53.5 L463.5 53.5 L462.5 52.5 L460.5 52.5 L459.5 51.5 L457.5 51.5 L456.5 50.5 L455.5 50.5 L454.5 49.5 L452.5 49.5 L451.5 48.5 L449.5 48.5 L448.5 47.5 L445.5 47.5 L444.5 46.5 L442.5 46.5 L441.5 45.5 L438.5 45.5 L437.5 44.5 L435.5 44.5 L434.5 43.5 L429.5 43.5 L428.5 42.5 L424.5 42.5 L423.5 43.5 L418.5 43.5 L417.5 44.5 L410.5 44.5 L409.5 43.5 L408.5 43.5 L407.5 42.5 L406.5 41.5 L405.5 40.5 L404.5 40.5 L403.5 39.5 L402.5 38.5 L401.5 38.5 L400.5 37.5 L399.5 36.5 L398.5 36.5 L397.5 35.5 L396.5 34.5 L395.5 33.5 L394.5 33.5 L393.5 32.5 L392.5 31.5 L391.5 30.5 L390.5 29.5 L389.5 28.5 L388.5 27.5 L387.5 26.5 L386.5 26.5 L385.5 25.5 L382.5 25.5 L381.5 24.5 L380.5 24.5 L379.5 23.5 L377.5 23.5 L376.5 22.5 L374.5 22.5 L373.5 21.5 L370.5 21.5 L369.5 20.5 L366.5 20.5 L365.5 19.5 L361.5 19.5 L360.5 18.5 L356.5 18.5 L355.5 17.5 L352.5 17.5 L351.5 16.5 L347.5 16.5 L346.5 15.5 L342.5 15.5 L341.5 14.5 L337.5 14.5 L336.5 13.5 L332.5 13.5 L331.5 12.5 L326.5 12.5 L325.5 11.5 L318.5 11.5 L317.5 10.5 L313.5 10.5 L312.5 9.5 L307.5 9.5 L306.5 8.5 L303.5 8.5 L302.5 7.5 L297.5 7.5 L296.5 6.5 L292.5 6.5 L291.5 5.5 L285.5 5.5 L284.5 4.5 L275.5 4.5 L274.5 5.5 L272.5 5.5 L271.5 6.5 L269.5 6.5 L268.5 7.5 L266.5 7.5 L265.5 8.5 L263.5 8.5 L262.5 9.5 L258.5 9.5 L257.5 10.5 L254.5 10.5 L253.5 11.5 L238.5 11.5 L237.5 10.5 L234.5 10.5 L233.5 9.5 L228.5 9.5 L227.5 8.5 L219.5 8.5 L218.5 7.5 L207.5 7.5 L206.5 8.5 L198.5 8.5 L197.5 9.5 L188.5 9.5 L187.5 8.5 L185.5 8.5 L184.5 7.5 L183.5 6.5 L182.5 6.5 L181.5 5.5 L180.5 5.5 L179.5 4.5 L178.5 4.5 L177.5 3.5 Z"/>
        <path stroke-width="0" stroke-linejoin="bevel" stroke-miterlimit="10" fill="#393939" stroke="#393939" d="M174.5 2.5 L175.5 2.5 Z M307.5 8.5 Z M382.5 24.5 Z M398.5 35.5 Z M429.5 42.5 Z M536.5 82.5 Z M556.5 93.5 Z M559.5 94.5 Z M562.5 95.5 L563.5 95.5 Z M571.5 97.5 Z M575.5 98.5 Z M642.5 128.5 Z M7.5 132.5 Z M674.5 147.5 Z M41.5 188.5 L41.5 189.5 L42.5 189.5 L43.5 190.5 L43.5 189.5 L42.5 188.5 Z M193.5 248.5 Z M409.5 322.5 Z M414.5 323.5 Z M418.5 324.5 Z M423.5 325.5 Z M428.5 326.5 Z M433.5 327.5 Z M440.5 328.5 Z M448.5 329.5 Z M457.5 330.5 Z M466.5 331.5 Z M480.5 332.5 Z M488.5 333.5 Z M496.5 334.5 Z M665.5 336.5 Z M659.5 338.5 Z M653.5 340.5 Z M633.5 345.5 Z M623.5 346.5 Z"/>
        <path stroke-width="0" stroke-linejoin="bevel" stroke-miterlimit="10" fill="#efefef" stroke="#efefef" d="M176.5 2.5 Z M178.5 3.5 Z M436.5 328.5 L439.5 328.5 Z M443.5 329.5 L447.5 329.5 Z M451.5 330.5 L454.5 330.5 Z M473.5 332.5 L479.5 332.5 Z M492.5 334.5 L495.5 334.5 Z M624.5 346.5 Z"/>
        <path stroke-width="0" stroke-linejoin="bevel" stroke-miterlimit="10" fill="#f1f1f1" stroke="#f1f1f1" d="M663.5 140.5 Z M408.5 322.5 Z M422.5 325.5 Z M455.5 330.5 L456.5 330.5 Z M460.5 331.5 L465.5 331.5 Z M469.5 332.5 L472.5 332.5 Z M483.5 333.5 L487.5 333.5 Z M491.5 334.5 Z M634.5 345.5 Z M625.5 346.5 L628.5 346.5 Z"/>
        <path stroke-width="0" stroke-linejoin="bevel" stroke-miterlimit="10" fill="#262626" stroke="#262626" d="M164.5 3.5 Z M159.5 4.5 Z M153.5 6.5 Z M185.5 7.5 Z M206.5 7.5 Z M219.5 7.5 Z M145.5 8.5 Z M197.5 8.5 Z M228.5 8.5 Z M141.5 9.5 Z M234.5 9.5 Z M257.5 9.5 Z M238.5 10.5 Z M253.5 10.5 Z M326.5 11.5 Z M332.5 12.5 Z M337.5 13.5 Z M370.5 20.5 Z M394.5 32.5 Z M65.5 36.5 Z M400.5 36.5 L401.5 37.5 Z M63.5 37.5 Z M58.5 40.5 L57.5 41.5 Z M52.5 44.5 Z M49.5 46.5 Z M45.5 49.5 Z M40.5 53.5 Z M24.5 75.5 Z M23.5 77.5 L22.5 78.5 Z M531.5 79.5 Z M538.5 83.5 Z M13.5 84.5 Z M543.5 86.5 Z M550.5 90.5 Z M602.5 99.5 Z M605.5 101.5 Z M612.5 107.5 Z M615.5 109.5 Z M619.5 112.5 Z M626.5 118.5 Z M631.5 122.5 Z M634.5 124.5 Z M651.5 131.5 L652.5 132.5 L653.5 133.5 L654.5 134.5 L653.5 133.5 L652.5 132.5 Z M659.5 137.5 Z M665.5 141.5 Z M671.5 145.5 Z M15.5 146.5 Z M676.5 148.5 Z M17.5 149.5 Z M679.5 150.5 Z M19.5 152.5 Z M684.5 153.5 Z M688.5 156.5 Z M695.5 162.5 Z M38.5 171.5 Z M43.5 175.5 Z M46.5 177.5 Z M49.5 179.5 Z M53.5 182.5 Z M56.5 184.5 Z M720.5 187.5 Z M63.5 189.5 Z M66.5 191.5 Z M726.5 194.5 Z M73.5 195.5 Z M80.5 199.5 Z M731.5 200.5 Z M85.5 202.5 Z M90.5 205.5 Z M735.5 205.5 Z M93.5 207.5 Z M737.5 208.5 Z M98.5 210.5 Z M739.5 211.5 Z M101.5 212.5 Z M106.5 215.5 Z M742.5 216.5 Z M748.5 225.5 Z M751.5 226.5 Z M756.5 235.5 Z M758.5 240.5 Z M200.5 251.5 Z M222.5 261.5 L223.5 262.5 Z M752.5 303.5 Z M749.5 305.5 Z M743.5 308.5 Z M741.5 309.5 Z M737.5 312.5 Z M729.5 317.5 Z M399.5 321.5 L403.5 321.5 Z M671.5 334.5 Z M669.5 335.5 Z M500.5 336.5 Z M663.5 337.5 Z M657.5 339.5 Z M647.5 342.5 Z M643.5 343.5 Z M639.5 344.5 Z M635.5 345.5 Z M570.5 350.5 Z M572.5 352.5 Z"/>
        <path stroke-width="0" stroke-linejoin="bevel" stroke-miterlimit="10" fill="#0b0c0b" stroke="#0b0c0b" d="M177.5 2.5 Z M163.5 3.5 Z M179.5 3.5 L180.5 4.5 Z M278.5 3.5 Z M158.5 4.5 Z M274.5 4.5 Z M285.5 4.5 Z M155.5 5.5 Z M182.5 5.5 Z M271.5 5.5 Z M292.5 5.5 Z M268.5 6.5 Z M297.5 6.5 Z M150.5 7.5 Z M186.5 7.5 Z M205.5 7.5 Z M220.5 7.5 Z M265.5 7.5 Z M303.5 7.5 Z M144.5 8.5 Z M188.5 8.5 Z M196.5 8.5 Z M229.5 8.5 Z M262.5 8.5 Z M308.5 8.5 Z M235.5 9.5 Z M256.5 9.5 Z M313.5 9.5 Z M138.5 10.5 Z M239.5 10.5 Z M252.5 10.5 Z M318.5 10.5 Z M135.5 11.5 Z M327.5 11.5 Z M131.5 12.5 Z M333.5 12.5 Z M128.5 13.5 Z M338.5 13.5 Z M125.5 14.5 L126.5 14.5 Z M342.5 14.5 Z M347.5 15.5 Z M120.5 16.5 Z M352.5 16.5 Z M117.5 17.5 Z M356.5 17.5 Z M114.5 18.5 Z M361.5 18.5 Z M112.5 19.5 Z M366.5 19.5 Z M109.5 20.5 Z M371.5 20.5 Z M106.5 21.5 Z M374.5 21.5 Z M104.5 22.5 Z M377.5 22.5 Z M101.5 23.5 Z M380.5 23.5 Z M99.5 24.5 Z M383.5 24.5 Z M96.5 25.5 Z M386.5 25.5 Z M93.5 26.5 Z M90.5 27.5 Z M87.5 28.5 Z M80.5 30.5 L81.5 30.5 Z M77.5 31.5 Z M393.5 31.5 Z M75.5 32.5 Z M73.5 33.5 Z M70.5 34.5 L71.5 34.5 Z M397.5 34.5 Z M64.5 36.5 Z M62.5 37.5 Z M403.5 38.5 L404.5 39.5 Z M59.5 39.5 Z M407.5 41.5 L408.5 42.5 Z M55.5 42.5 Z M423.5 42.5 Z M430.5 42.5 Z M53.5 43.5 Z M410.5 43.5 L411.5 43.5 Z M417.5 43.5 Z M435.5 43.5 Z M438.5 44.5 Z M50.5 45.5 Z M442.5 45.5 Z M445.5 46.5 Z M449.5 47.5 Z M46.5 48.5 Z M452.5 48.5 Z M455.5 49.5 Z M457.5 50.5 Z M460.5 51.5 Z M41.5 52.5 Z M463.5 52.5 Z M466.5 53.5 Z M469.5 54.5 Z M472.5 55.5 Z M475.5 56.5 Z M479.5 57.5 Z M482.5 58.5 Z M485.5 59.5 Z M487.5 60.5 Z M490.5 61.5 Z M492.5 62.5 Z M495.5 63.5 Z M498.5 64.5 Z M500.5 65.5 Z M502.5 66.5 Z M505.5 67.5 Z M507.5 68.5 L508.5 68.5 Z M24.5 69.5 L24.5 72.5 Z M512.5 70.5 Z M514.5 71.5 Z M517.5 72.5 Z M519.5 73.5 Z M24.5 74.5 Z M521.5 74.5 Z M524.5 75.5 Z M526.5 76.5 Z M528.5 77.5 Z M530.5 78.5 Z M16.5 80.5 L15.5 81.5 L14.5 82.5 L15.5 81.5 Z M533.5 80.5 Z M535.5 81.5 Z M537.5 82.5 Z M539.5 83.5 L540.5 84.5 Z M12.5 85.5 Z M542.5 85.5 Z M11.5 87.5 Z M545.5 87.5 L546.5 87.5 L547.5 88.5 L546.5 87.5 Z M10.5 89.5 Z M549.5 89.5 Z M9.5 91.5 Z M552.5 91.5 L553.5 91.5 L554.5 92.5 L553.5 91.5 Z M8.5 93.5 Z M557.5 93.5 Z M560.5 94.5 Z M7.5 95.5 Z M568.5 96.5 Z M6.5 97.5 Z M572.5 97.5 Z M576.5 98.5 Z M594.5 98.5 Z M5.5 99.5 Z M604.5 100.5 Z M4.5 102.5 Z M3.5 105.5 Z M611.5 106.5 Z M614.5 108.5 Z M618.5 111.5 Z M625.5 117.5 Z M2.5 118.5 Z M630.5 121.5 Z M3.5 122.5 Z M633.5 123.5 Z M4.5 125.5 Z M636.5 125.5 L637.5 125.5 L638.5 126.5 L637.5 125.5 Z M640.5 127.5 Z M5.5 128.5 Z M643.5 128.5 Z M647.5 129.5 Z M6.5 130.5 Z M650.5 130.5 Z M7.5 133.5 Z M8.5 135.5 Z M656.5 135.5 Z M658.5 136.5 Z M9.5 137.5 Z M10.5 139.5 Z M662.5 139.5 Z M664.5 140.5 Z M11.5 141.5 Z M666.5 141.5 L667.5 142.5 Z M670.5 144.5 Z M14.5 145.5 Z M673.5 146.5 Z M675.5 147.5 Z M16.5 148.5 Z M678.5 149.5 Z M18.5 151.5 Z M681.5 151.5 Z M683.5 152.5 Z M687.5 155.5 Z M694.5 161.5 Z M39.5 172.5 Z M44.5 176.5 Z M47.5 178.5 Z M50.5 180.5 Z M54.5 183.5 Z M57.5 185.5 Z M61.5 188.5 Z M721.5 188.5 Z M64.5 190.5 Z M67.5 192.5 Z M69.5 193.5 L70.5 194.5 L71.5 194.5 L70.5 194.5 Z M727.5 195.5 Z M74.5 196.5 Z M76.5 197.5 L77.5 198.5 L78.5 198.5 L77.5 198.5 Z M81.5 200.5 Z M83.5 201.5 Z M732.5 201.5 Z M86.5 203.5 Z M88.5 204.5 Z M91.5 206.5 Z M736.5 206.5 Z M94.5 208.5 Z M96.5 209.5 Z M738.5 209.5 Z M99.5 211.5 Z M740.5 212.5 Z M102.5 213.5 Z M104.5 214.5 Z M741.5 214.5 Z M107.5 216.5 L108.5 216.5 Z M110.5 217.5 Z M743.5 217.5 Z M112.5 218.5 Z M114.5 219.5 Z M744.5 219.5 Z M116.5 220.5 Z M119.5 221.5 Z M745.5 221.5 Z M121.5 222.5 Z M124.5 223.5 Z M746.5 223.5 L747.5 224.5 Z M126.5 224.5 Z M129.5 225.5 Z M749.5 225.5 L750.5 225.5 Z M132.5 226.5 Z M135.5 227.5 Z M753.5 228.5 Z M141.5 229.5 Z M144.5 230.5 Z M754.5 230.5 Z M147.5 231.5 Z M755.5 232.5 Z M152.5 233.5 L153.5 233.5 Z M155.5 234.5 Z M158.5 235.5 Z M160.5 236.5 Z M163.5 237.5 Z M165.5 238.5 Z M168.5 239.5 Z M758.5 239.5 Z M170.5 240.5 Z M172.5 241.5 Z M180.5 243.5 L181.5 243.5 Z M183.5 244.5 Z M185.5 245.5 Z M188.5 246.5 Z M190.5 247.5 Z M192.5 248.5 Z M195.5 249.5 Z M759.5 249.5 Z M197.5 250.5 Z M204.5 253.5 Z M760.5 253.5 Z M206.5 254.5 Z M209.5 255.5 Z M212.5 256.5 Z M761.5 256.5 Z M214.5 257.5 Z M216.5 258.5 Z M218.5 259.5 Z M227.5 266.5 Z M230.5 267.5 Z M232.5 268.5 Z M235.5 269.5 Z M237.5 270.5 Z M240.5 271.5 Z M242.5 272.5 Z M245.5 273.5 Z M247.5 274.5 Z M249.5 275.5 Z M252.5 276.5 Z M255.5 277.5 Z M257.5 278.5 Z M259.5 279.5 Z M262.5 280.5 Z M264.5 281.5 Z M266.5 282.5 Z M761.5 282.5 Z M268.5 283.5 Z M271.5 284.5 Z M274.5 285.5 Z M277.5 286.5 Z M279.5 287.5 Z M760.5 287.5 Z M281.5 288.5 Z M284.5 289.5 Z M288.5 290.5 L289.5 290.5 Z M291.5 291.5 Z M293.5 292.5 Z M759.5 292.5 Z M296.5 293.5 Z M299.5 294.5 Z M301.5 295.5 Z M758.5 295.5 Z M303.5 296.5 Z M306.5 297.5 Z M309.5 298.5 Z M757.5 298.5 Z M313.5 299.5 Z M316.5 300.5 Z M756.5 300.5 L755.5 301.5 L754.5 302.5 L755.5 301.5 Z M318.5 301.5 Z M321.5 302.5 Z M324.5 303.5 Z M327.5 304.5 Z M751.5 304.5 Z M329.5 305.5 Z M332.5 306.5 Z M748.5 306.5 Z M335.5 307.5 Z M746.5 307.5 Z M337.5 308.5 Z M744.5 308.5 Z M340.5 309.5 Z M343.5 310.5 Z M740.5 310.5 Z M346.5 311.5 Z M349.5 312.5 Z M352.5 313.5 Z M736.5 313.5 L735.5 314.5 Z M355.5 314.5 Z M359.5 315.5 Z M733.5 315.5 L732.5 316.5 L731.5 316.5 L732.5 316.5 Z M363.5 316.5 Z M366.5 317.5 Z M374.5 318.5 Z M728.5 318.5 Z M381.5 319.5 Z M726.5 319.5 Z M384.5 320.5 Z M724.5 320.5 Z M390.5 321.5 Z M721.5 321.5 Z M393.5 322.5 L396.5 322.5 Z M406.5 322.5 L407.5 322.5 Z M718.5 322.5 Z M413.5 323.5 Z M715.5 323.5 Z M417.5 324.5 Z M711.5 324.5 Z M421.5 325.5 Z M707.5 325.5 Z M427.5 326.5 Z M703.5 326.5 L704.5 326.5 Z M432.5 327.5 Z M701.5 327.5 Z M698.5 328.5 Z M695.5 329.5 Z M693.5 330.5 Z M680.5 331.5 Z M677.5 332.5 Z M674.5 333.5 Z M498.5 335.5 L499.5 336.5 L500.5 337.5 L501.5 337.5 L500.5 337.5 L499.5 336.5 Z M666.5 336.5 Z M503.5 338.5 Z M660.5 338.5 Z M506.5 339.5 Z M511.5 340.5 Z M654.5 340.5 Z M515.5 341.5 Z M650.5 341.5 Z M519.5 342.5 Z M523.5 343.5 Z M644.5 343.5 Z M529.5 344.5 Z M640.5 344.5 Z M536.5 345.5 Z M636.5 345.5 Z M541.5 346.5 Z M546.5 347.5 Z M618.5 347.5 Z M551.5 348.5 Z M613.5 348.5 L612.5 349.5 L611.5 350.5 L610.5 351.5 L610.5 352.5 L610.5 351.5 L611.5 350.5 L612.5 349.5 Z M614.5 348.5 L613.5 348.5 L612.5 349.5 L611.5 350.5 L610.5 351.5 L610.5 352.5 L610.5 351.5 L611.5 350.5 L612.5 349.5 L613.5 348.5 Z M564.5 349.5 Z M569.5 350.5 Z M571.5 351.5 Z M572.5 353.5 Z"/>
        <path stroke-width="0" stroke-linejoin="bevel" stroke-miterlimit="10" fill="#f5f5f5" stroke="#f5f5f5" d="M173.5 2.5 Z M401.5 36.5 L402.5 37.5 Z M404.5 38.5 Z M532.5 79.5 Z M544.5 86.5 Z M551.5 90.5 Z M555.5 92.5 Z M564.5 95.5 L565.5 95.5 Z M2.5 119.5 Z M641.5 127.5 Z M644.5 128.5 Z M651.5 130.5 L652.5 131.5 Z M6.5 131.5 Z M9.5 138.5 Z M10.5 140.5 Z M674.5 146.5 Z M677.5 148.5 Z M680.5 150.5 Z M149.5 232.5 Z M380.5 319.5 Z M389.5 321.5 Z M397.5 322.5 Z M405.5 322.5 Z M411.5 323.5 L412.5 323.5 Z M712.5 324.5 Z M420.5 325.5 Z M425.5 326.5 L426.5 326.5 Z M430.5 327.5 L431.5 327.5 Z M435.5 328.5 Z M442.5 329.5 Z M450.5 330.5 Z M681.5 331.5 Z M678.5 332.5 Z M482.5 333.5 Z M675.5 333.5 Z M672.5 334.5 Z M501.5 338.5 L502.5 338.5 Z M645.5 343.5 Z M641.5 344.5 Z M637.5 345.5 Z M629.5 346.5 L631.5 346.5 Z M619.5 347.5 Z M615.5 348.5 Z"/>
        <path stroke-width="0" stroke-linejoin="bevel" stroke-miterlimit="10" fill="#1b1b1b" stroke="#1b1b1b" d="M172.5 2.5 Z M162.5 3.5 Z M280.5 3.5 Z M157.5 4.5 Z M286.5 4.5 Z M154.5 5.5 Z M293.5 5.5 Z M152.5 6.5 Z M184.5 6.5 Z M298.5 6.5 Z M149.5 7.5 Z M204.5 7.5 Z M221.5 7.5 Z M304.5 7.5 Z M143.5 8.5 Z M189.5 8.5 L190.5 8.5 Z M195.5 8.5 Z M230.5 8.5 Z M261.5 8.5 Z M309.5 8.5 L310.5 8.5 Z M140.5 9.5 Z M236.5 9.5 Z M255.5 9.5 Z M314.5 9.5 Z M240.5 10.5 Z M251.5 10.5 Z M319.5 10.5 Z M134.5 11.5 Z M328.5 11.5 Z M334.5 12.5 Z M339.5 13.5 Z M343.5 14.5 Z M121.5 15.5 L122.5 15.5 Z M348.5 15.5 Z M119.5 16.5 Z M353.5 16.5 Z M357.5 17.5 Z M362.5 18.5 Z M111.5 19.5 Z M367.5 19.5 Z M103.5 22.5 Z M98.5 24.5 Z M384.5 24.5 Z M86.5 28.5 Z M82.5 29.5 L83.5 29.5 Z M79.5 30.5 Z M76.5 31.5 Z M74.5 32.5 Z M72.5 33.5 Z M69.5 34.5 Z M66.5 35.5 Z M60.5 38.5 Z M405.5 39.5 L406.5 40.5 Z M56.5 41.5 Z M54.5 42.5 Z M409.5 42.5 Z M422.5 42.5 Z M431.5 42.5 L432.5 42.5 Z M412.5 43.5 L416.5 43.5 Z M439.5 44.5 Z M49.5 45.5 Z M446.5 46.5 Z M458.5 50.5 Z M476.5 56.5 Z M488.5 60.5 Z M493.5 62.5 Z M501.5 65.5 Z M503.5 66.5 Z M515.5 71.5 Z M24.5 73.5 Z M520.5 73.5 Z M522.5 74.5 Z M23.5 76.5 Z M527.5 76.5 Z M531.5 78.5 Z M17.5 79.5 L20.5 79.5 Z M15.5 80.5 L14.5 81.5 Z M534.5 80.5 Z M536.5 81.5 Z M538.5 82.5 Z M540.5 83.5 L541.5 84.5 Z M543.5 85.5 Z M545.5 86.5 Z M547.5 87.5 L548.5 88.5 Z M10.5 88.5 Z M550.5 89.5 Z M9.5 90.5 Z M552.5 90.5 Z M554.5 91.5 Z M8.5 92.5 Z M556.5 92.5 Z M558.5 93.5 Z M7.5 94.5 Z M6.5 96.5 Z M577.5 98.5 L578.5 98.5 Z M593.5 98.5 Z M605.5 100.5 Z M2.5 108.5 Z M615.5 108.5 Z M1.5 117.5 Z M634.5 123.5 L635.5 124.5 Z M639.5 126.5 Z M642.5 127.5 Z M648.5 129.5 Z M650.5 129.5 Z M6.5 132.5 Z M653.5 132.5 Z M7.5 134.5 Z M655.5 134.5 Z M657.5 135.5 Z M8.5 136.5 Z M676.5 147.5 Z M16.5 149.5 Z M679.5 149.5 Z M682.5 151.5 Z M18.5 152.5 Z M43.5 176.5 Z M46.5 178.5 Z M53.5 183.5 Z M60.5 188.5 Z M62.5 189.5 L63.5 190.5 Z M72.5 195.5 Z M79.5 199.5 Z M82.5 201.5 Z M84.5 202.5 Z M87.5 204.5 Z M89.5 205.5 L90.5 206.5 Z M736.5 205.5 Z M738.5 208.5 Z M95.5 209.5 Z M97.5 210.5 L98.5 211.5 Z M741.5 213.5 Z M103.5 214.5 Z M105.5 215.5 Z M742.5 215.5 Z M109.5 217.5 Z M111.5 218.5 Z M113.5 219.5 Z M745.5 220.5 Z M118.5 221.5 Z M746.5 222.5 Z M123.5 223.5 Z M748.5 224.5 Z M752.5 226.5 L753.5 227.5 Z M134.5 227.5 Z M136.5 228.5 L137.5 228.5 Z M140.5 229.5 Z M754.5 229.5 Z M146.5 231.5 Z M148.5 232.5 Z M151.5 233.5 Z M157.5 235.5 Z M162.5 237.5 Z M167.5 239.5 Z M169.5 240.5 Z M171.5 241.5 Z M174.5 242.5 Z M759.5 242.5 L759.5 243.5 Z M179.5 243.5 Z M182.5 244.5 Z M187.5 246.5 Z M189.5 247.5 Z M759.5 248.5 Z M194.5 249.5 Z M202.5 252.5 Z M760.5 252.5 Z M211.5 256.5 Z M213.5 257.5 Z M215.5 258.5 Z M224.5 264.5 L225.5 265.5 Z M229.5 267.5 Z M234.5 269.5 Z M239.5 271.5 Z M244.5 273.5 Z M246.5 274.5 Z M254.5 277.5 Z M256.5 278.5 Z M261.5 280.5 Z M263.5 281.5 Z M265.5 282.5 Z M761.5 283.5 Z M276.5 286.5 Z M278.5 287.5 Z M760.5 288.5 Z M287.5 290.5 Z M290.5 291.5 Z M298.5 294.5 Z M300.5 295.5 Z M312.5 299.5 Z M315.5 300.5 Z M755.5 302.5 Z M753.5 303.5 L752.5 304.5 Z M326.5 304.5 Z M334.5 307.5 Z M742.5 309.5 Z M739.5 311.5 L738.5 312.5 Z M358.5 315.5 Z M362.5 316.5 Z M730.5 317.5 Z M373.5 318.5 Z M378.5 319.5 L379.5 319.5 Z M387.5 321.5 L388.5 321.5 Z M404.5 322.5 Z M410.5 323.5 Z M415.5 324.5 L416.5 324.5 Z M419.5 325.5 Z M708.5 325.5 Z M424.5 326.5 Z M429.5 327.5 Z M696.5 329.5 Z M682.5 331.5 L684.5 331.5 Z M670.5 335.5 Z M667.5 336.5 L668.5 336.5 Z M664.5 337.5 Z M661.5 338.5 L662.5 338.5 Z M658.5 339.5 Z M510.5 340.5 Z M655.5 340.5 L656.5 340.5 Z M514.5 341.5 Z M518.5 342.5 Z M648.5 342.5 Z M522.5 343.5 Z M646.5 343.5 Z M528.5 344.5 Z M642.5 344.5 Z M535.5 345.5 Z M638.5 345.5 Z M540.5 346.5 Z M545.5 347.5 Z M620.5 347.5 L621.5 347.5 Z M550.5 348.5 Z M616.5 348.5 Z M563.5 349.5 Z M613.5 349.5 Z M568.5 350.5 Z"/>
        <path stroke-width="0" stroke-linejoin="bevel" stroke-miterlimit="10" fill="#181818" stroke="#181818" d="M174.5 1.5 L176.5 1.5 Z M178.5 2.5 Z M751.5 225.5 Z"/>
        <path stroke-width="0" stroke-linejoin="bevel" stroke-miterlimit="10" fill="#323232" stroke="#323232" d="M181.5 4.5 Z M183.5 5.5 Z M389.5 27.5 Z M396.5 33.5 Z M398.5 34.5 L399.5 35.5 Z M403.5 37.5 Z M52.5 43.5 L51.5 44.5 Z M48.5 46.5 L47.5 47.5 Z M43.5 50.5 L42.5 51.5 Z M38.5 54.5 L37.5 55.5 Z M25.5 67.5 Z M529.5 77.5 Z M533.5 79.5 Z M13.5 83.5 L12.5 84.5 Z M11.5 86.5 Z M606.5 101.5 L607.5 102.5 L608.5 103.5 L607.5 102.5 Z M2.5 107.5 Z M613.5 107.5 Z M1.5 109.5 L0.5 110.5 Z M616.5 109.5 L617.5 110.5 Z M621.5 113.5 L622.5 114.5 Z M0.5 116.5 L0.5 117.5 L1.5 118.5 L0.5 117.5 Z M628.5 119.5 L629.5 120.5 Z M2.5 120.5 Z M632.5 122.5 Z M659.5 136.5 L660.5 137.5 L661.5 138.5 L660.5 137.5 Z M663.5 139.5 Z M11.5 142.5 L12.5 143.5 L13.5 144.5 L12.5 143.5 Z M668.5 142.5 L669.5 143.5 Z M671.5 144.5 L672.5 145.5 Z M678.5 148.5 Z M17.5 150.5 Z M681.5 150.5 Z M684.5 152.5 L685.5 153.5 L686.5 154.5 L685.5 153.5 Z M19.5 153.5 L20.5 154.5 L21.5 155.5 L20.5 154.5 Z M690.5 157.5 L691.5 158.5 Z M697.5 163.5 L698.5 164.5 Z M35.5 169.5 L36.5 170.5 Z M40.5 173.5 L41.5 174.5 L42.5 175.5 L41.5 174.5 Z M45.5 177.5 Z M51.5 181.5 L52.5 182.5 Z M718.5 184.5 L719.5 185.5 Z M58.5 186.5 L59.5 187.5 Z M65.5 191.5 L66.5 192.5 Z M724.5 191.5 L725.5 192.5 Z M68.5 193.5 Z M73.5 196.5 Z M75.5 197.5 Z M729.5 197.5 L730.5 198.5 Z M80.5 200.5 Z M733.5 202.5 L734.5 203.5 L735.5 204.5 L734.5 203.5 Z M85.5 203.5 Z M92.5 207.5 L93.5 208.5 Z M737.5 207.5 Z M70.5 209.5 Z M739.5 210.5 L740.5 211.5 Z M100.5 212.5 L101.5 213.5 Z M743.5 216.5 Z M744.5 218.5 Z M759.5 241.5 Z M759.5 244.5 Z M203.5 253.5 Z M224.5 265.5 Z M750.5 305.5 L749.5 306.5 Z M741.5 310.5 Z M737.5 313.5 L736.5 314.5 Z M734.5 315.5 Z M729.5 318.5 Z M727.5 319.5 Z"/>
        <path stroke-width="0" stroke-linejoin="bevel" stroke-miterlimit="10" fill="#535353" stroke="#535353" d="M42.5 190.5 Z M69.5 208.5 L69.5 209.5 Z"/>
        <path stroke-width="0" stroke-linejoin="bevel" stroke-miterlimit="10" fill="#373737" stroke="#373737" d="M406.5 39.5 L407.5 40.5 L408.5 41.5 L407.5 40.5 Z M510.5 69.5 L511.5 69.5 Z M513.5 70.5 Z M600.5 98.5 L601.5 98.5 Z M603.5 99.5 Z M43.5 188.5 L44.5 189.5 L44.5 190.5 L43.5 191.5 L44.5 191.5 L45.5 192.5 L46.5 193.5 L47.5 194.5 L48.5 194.5 L49.5 195.5 L50.5 195.5 L51.5 196.5 L52.5 197.5 L53.5 197.5 L54.5 198.5 L55.5 198.5 L56.5 199.5 L57.5 199.5 L58.5 200.5 L59.5 201.5 L60.5 202.5 L61.5 202.5 L62.5 203.5 L63.5 204.5 L64.5 203.5 L63.5 202.5 L62.5 201.5 L61.5 201.5 L60.5 200.5 L59.5 199.5 L58.5 199.5 L57.5 198.5 L56.5 198.5 L55.5 197.5 L54.5 196.5 L53.5 196.5 L52.5 195.5 L51.5 194.5 L50.5 193.5 L49.5 193.5 L48.5 192.5 L47.5 191.5 L46.5 191.5 L45.5 190.5 L44.5 189.5 Z M68.5 208.5 L68.5 209.5 Z M70.5 210.5 Z M201.5 252.5 Z M217.5 259.5 Z M220.5 260.5 L221.5 261.5 Z M497.5 335.5 Z M499.5 337.5 Z"/>
        <path stroke-width="0" stroke-linejoin="bevel" stroke-miterlimit="10" fill="#242424" stroke="#242424" d="M277.5 3.5 Z M279.5 3.5 Z M281.5 3.5 Z M287.5 4.5 Z M294.5 5.5 Z M299.5 6.5 Z M305.5 7.5 Z M315.5 9.5 Z M137.5 10.5 Z M320.5 10.5 Z M133.5 11.5 Z M130.5 12.5 Z M124.5 14.5 Z M344.5 14.5 Z M349.5 15.5 Z M354.5 16.5 Z M358.5 17.5 Z M363.5 18.5 Z M368.5 19.5 Z M372.5 20.5 Z M375.5 21.5 Z M381.5 23.5 Z M385.5 24.5 Z M387.5 25.5 L388.5 26.5 Z M421.5 42.5 Z M443.5 45.5 Z M450.5 47.5 Z M480.5 57.5 Z M499.5 64.5 Z M509.5 68.5 Z M566.5 95.5 Z M573.5 97.5 L574.5 97.5 Z M592.5 98.5 Z M2.5 121.5 Z M645.5 128.5 Z M649.5 129.5 Z M150.5 233.5 Z M757.5 237.5 Z M173.5 242.5 Z M184.5 245.5 Z M759.5 247.5 Z M191.5 248.5 Z M196.5 250.5 Z M199.5 251.5 Z M761.5 284.5 Z M760.5 289.5 Z M308.5 298.5 Z M354.5 314.5 Z M357.5 315.5 Z M372.5 318.5 Z M392.5 322.5 Z M394.5 323.5 L395.5 323.5 Z M409.5 323.5 Z M716.5 323.5 Z M413.5 324.5 L414.5 324.5 Z M713.5 324.5 L714.5 324.5 Z M418.5 325.5 Z M709.5 325.5 Z M423.5 326.5 Z M705.5 326.5 Z M428.5 327.5 Z M434.5 328.5 Z M441.5 329.5 Z M449.5 330.5 Z M459.5 331.5 Z M687.5 331.5 L690.5 331.5 Z M468.5 332.5 Z M679.5 332.5 Z M481.5 333.5 Z M676.5 333.5 Z M490.5 334.5 Z M673.5 334.5 Z M509.5 340.5 Z M513.5 341.5 Z M651.5 341.5 L652.5 341.5 Z M517.5 342.5 Z M521.5 343.5 Z M527.5 344.5 Z M534.5 345.5 Z M539.5 346.5 Z M544.5 347.5 Z M549.5 348.5 Z M617.5 348.5 Z M562.5 349.5 Z"/>
        <path stroke-width="0" stroke-linejoin="bevel" stroke-miterlimit="10" fill="#878787" stroke="#878787" d="M767.5 266.5 L767.5 267.5 L768.5 268.5 L768.5 269.5 L769.5 270.5 L770.5 271.5 L771.5 271.5 L770.5 270.5 L769.5 269.5 L769.5 268.5 L768.5 267.5 L768.5 266.5 Z"/>
        <path stroke-width="0" stroke-linejoin="bevel" stroke-miterlimit="10" fill="#121312" stroke="#121312" d="M161.5 3.5 Z M276.5 3.5 Z M282.5 3.5 Z M156.5 4.5 Z M273.5 4.5 Z M288.5 4.5 Z M270.5 5.5 Z M295.5 5.5 Z M185.5 6.5 Z M267.5 6.5 Z M300.5 6.5 Z M147.5 7.5 L148.5 7.5 Z M187.5 7.5 Z M203.5 7.5 Z M222.5 7.5 Z M264.5 7.5 Z M306.5 7.5 L307.5 7.5 Z M142.5 8.5 Z M194.5 8.5 Z M231.5 8.5 Z M259.5 8.5 L260.5 8.5 Z M311.5 8.5 Z M139.5 9.5 Z M237.5 9.5 Z M254.5 9.5 Z M316.5 9.5 Z M136.5 10.5 Z M241.5 10.5 Z M250.5 10.5 Z M321.5 10.5 Z M132.5 11.5 Z M329.5 11.5 Z M335.5 12.5 Z M127.5 13.5 Z M340.5 13.5 Z M123.5 14.5 Z M345.5 14.5 Z M350.5 15.5 Z M355.5 16.5 Z M116.5 17.5 Z M359.5 17.5 Z M113.5 18.5 Z M364.5 18.5 Z M369.5 19.5 Z M108.5 20.5 Z M373.5 20.5 Z M105.5 21.5 Z M378.5 22.5 Z M100.5 23.5 Z M382.5 23.5 Z M95.5 25.5 Z M92.5 26.5 Z M89.5 27.5 Z M84.5 28.5 L85.5 28.5 Z M390.5 28.5 L391.5 29.5 L392.5 30.5 L391.5 29.5 Z M78.5 30.5 Z M394.5 31.5 L395.5 32.5 Z M397.5 33.5 Z M68.5 34.5 Z M399.5 34.5 L400.5 35.5 L401.5 35.5 L402.5 36.5 L401.5 35.5 L400.5 35.5 Z M63.5 36.5 Z M61.5 37.5 Z M58.5 39.5 L57.5 40.5 Z M410.5 42.5 Z M420.5 42.5 Z M433.5 42.5 Z M436.5 43.5 Z M50.5 44.5 Z M440.5 44.5 L441.5 44.5 Z M47.5 46.5 L46.5 47.5 L45.5 48.5 L44.5 49.5 L45.5 48.5 L46.5 47.5 Z M447.5 46.5 L448.5 46.5 Z M453.5 48.5 Z M456.5 49.5 Z M42.5 50.5 L41.5 51.5 L40.5 52.5 L39.5 53.5 L40.5 52.5 L41.5 51.5 Z M461.5 51.5 Z M464.5 52.5 Z M467.5 53.5 Z M37.5 54.5 Z M470.5 54.5 Z M473.5 55.5 Z M36.5 56.5 L35.5 57.5 L34.5 58.5 L33.5 59.5 L32.5 60.5 L31.5 61.5 L30.5 62.5 L29.5 63.5 L28.5 64.5 L27.5 65.5 L26.5 66.5 L27.5 65.5 L28.5 64.5 L29.5 63.5 L30.5 62.5 L31.5 61.5 L32.5 60.5 L33.5 59.5 L34.5 58.5 L35.5 57.5 Z M477.5 56.5 L478.5 56.5 Z M483.5 58.5 Z M486.5 59.5 Z M491.5 61.5 Z M496.5 63.5 Z M506.5 67.5 Z M24.5 68.5 Z M510.5 68.5 Z M512.5 69.5 Z M518.5 72.5 Z M23.5 75.5 Z M525.5 75.5 Z M22.5 77.5 L21.5 78.5 Z M16.5 79.5 Z M535.5 80.5 Z M13.5 82.5 Z M542.5 84.5 Z M549.5 88.5 Z M559.5 93.5 Z M562.5 94.5 L563.5 94.5 Z M569.5 96.5 Z M575.5 97.5 Z M5.5 98.5 Z M579.5 98.5 Z M591.5 98.5 Z M602.5 98.5 Z M604.5 99.5 Z M4.5 101.5 Z M607.5 101.5 L608.5 102.5 Z M3.5 104.5 Z M609.5 104.5 L610.5 105.5 Z M2.5 106.5 Z M612.5 106.5 Z M614.5 107.5 Z M1.5 108.5 L0.5 109.5 Z M616.5 108.5 L617.5 109.5 L618.5 110.5 L619.5 111.5 L620.5 112.5 L619.5 111.5 L618.5 110.5 L617.5 109.5 Z M622.5 113.5 Z M623.5 115.5 L624.5 116.5 Z M626.5 117.5 L627.5 118.5 Z M0.5 118.5 L1.5 119.5 Z M629.5 119.5 L630.5 120.5 L631.5 121.5 L630.5 120.5 Z M633.5 122.5 Z M3.5 123.5 Z M636.5 124.5 Z M4.5 126.5 Z M643.5 127.5 Z M646.5 128.5 Z M5.5 129.5 Z M651.5 129.5 L652.5 130.5 L653.5 131.5 L652.5 130.5 Z M654.5 133.5 Z M661.5 137.5 L662.5 138.5 Z M665.5 140.5 Z M670.5 143.5 Z M672.5 144.5 L673.5 145.5 L674.5 145.5 L675.5 146.5 L674.5 145.5 L673.5 145.5 Z M13.5 145.5 L14.5 146.5 L15.5 147.5 L15.5 148.5 L15.5 147.5 L14.5 146.5 Z M677.5 147.5 Z M680.5 149.5 Z M17.5 151.5 Z M683.5 151.5 Z M686.5 153.5 L687.5 154.5 L688.5 155.5 L689.5 156.5 L688.5 155.5 L687.5 154.5 Z M19.5 154.5 L20.5 155.5 Z M22.5 156.5 L23.5 157.5 L24.5 158.5 L25.5 159.5 L26.5 160.5 L27.5 161.5 L28.5 162.5 L29.5 163.5 L30.5 164.5 L31.5 165.5 L32.5 166.5 L33.5 167.5 L34.5 168.5 L33.5 167.5 L32.5 166.5 L31.5 165.5 L30.5 164.5 L29.5 163.5 L28.5 162.5 L27.5 161.5 L26.5 160.5 L25.5 159.5 L24.5 158.5 L23.5 157.5 Z M691.5 157.5 Z M692.5 159.5 L693.5 160.5 Z M695.5 161.5 L696.5 162.5 Z M698.5 163.5 Z M699.5 165.5 L700.5 166.5 L701.5 167.5 L702.5 168.5 L703.5 169.5 L704.5 170.5 L705.5 171.5 L706.5 172.5 L707.5 173.5 L708.5 174.5 L709.5 175.5 L710.5 176.5 L711.5 177.5 L712.5 178.5 L713.5 179.5 L714.5 180.5 L715.5 181.5 L716.5 182.5 L717.5 183.5 L716.5 182.5 L715.5 181.5 L714.5 180.5 L713.5 179.5 L712.5 178.5 L711.5 177.5 L710.5 176.5 L709.5 175.5 L708.5 174.5 L707.5 173.5 L706.5 172.5 L705.5 171.5 L704.5 170.5 L703.5 169.5 L702.5 168.5 L701.5 167.5 L700.5 166.5 Z M35.5 170.5 Z M37.5 171.5 L38.5 172.5 L39.5 173.5 L40.5 174.5 L41.5 175.5 L40.5 174.5 L39.5 173.5 L38.5 172.5 Z M44.5 177.5 Z M47.5 179.5 L48.5 179.5 L49.5 180.5 L50.5 181.5 L51.5 182.5 L50.5 181.5 L49.5 180.5 L48.5 179.5 Z M54.5 184.5 L55.5 184.5 L56.5 185.5 L57.5 186.5 L56.5 185.5 L55.5 184.5 Z M719.5 184.5 Z M720.5 186.5 L721.5 187.5 Z M61.5 189.5 Z M722.5 189.5 L723.5 190.5 Z M64.5 191.5 Z M725.5 191.5 Z M726.5 193.5 L727.5 194.5 Z M71.5 195.5 Z M728.5 196.5 Z M730.5 197.5 Z M78.5 199.5 Z M731.5 199.5 L732.5 200.5 L733.5 201.5 L734.5 202.5 L735.5 203.5 L734.5 202.5 L733.5 201.5 L732.5 200.5 Z M83.5 202.5 Z M88.5 205.5 Z M737.5 206.5 Z M91.5 207.5 Z M739.5 209.5 Z M96.5 210.5 Z M99.5 212.5 Z M742.5 214.5 Z M104.5 215.5 Z M106.5 216.5 Z M115.5 220.5 Z M120.5 222.5 Z M747.5 223.5 Z M125.5 224.5 Z M749.5 224.5 Z M128.5 225.5 Z M131.5 226.5 Z M138.5 229.5 L139.5 229.5 Z M143.5 230.5 Z M755.5 231.5 Z M154.5 234.5 Z M756.5 234.5 L757.5 235.5 L757.5 236.5 L757.5 235.5 Z M159.5 236.5 Z M164.5 238.5 Z M758.5 238.5 L759.5 239.5 L759.5 240.5 L759.5 239.5 Z M178.5 243.5 Z M759.5 245.5 L759.5 246.5 Z M186.5 246.5 Z M193.5 249.5 Z M760.5 250.5 L760.5 251.5 Z M198.5 251.5 Z M200.5 252.5 Z M202.5 253.5 Z M205.5 254.5 Z M208.5 255.5 Z M761.5 255.5 Z M219.5 260.5 Z M222.5 262.5 L223.5 263.5 L223.5 264.5 L223.5 263.5 Z M226.5 266.5 Z M231.5 268.5 Z M236.5 270.5 Z M241.5 272.5 Z M248.5 275.5 Z M251.5 276.5 Z M258.5 279.5 Z M267.5 283.5 Z M270.5 284.5 Z M273.5 285.5 Z M761.5 285.5 Z M280.5 288.5 Z M283.5 289.5 Z M286.5 290.5 Z M760.5 290.5 Z M292.5 292.5 Z M295.5 293.5 Z M759.5 293.5 Z M302.5 296.5 Z M758.5 296.5 Z M305.5 297.5 Z M310.5 299.5 L311.5 299.5 Z M757.5 299.5 Z M317.5 301.5 Z M320.5 302.5 Z M323.5 303.5 Z M754.5 303.5 Z M328.5 305.5 Z M751.5 305.5 Z M331.5 306.5 Z M747.5 307.5 Z M336.5 308.5 Z M339.5 309.5 Z M743.5 309.5 Z M342.5 310.5 Z M345.5 311.5 Z M740.5 311.5 L739.5 312.5 Z M348.5 312.5 Z M351.5 313.5 Z M356.5 315.5 Z M360.5 316.5 L361.5 316.5 Z M365.5 317.5 Z M731.5 317.5 Z M371.5 318.5 Z M377.5 319.5 Z M383.5 320.5 Z M725.5 320.5 Z M386.5 321.5 Z M722.5 321.5 Z M398.5 322.5 Z M719.5 322.5 Z M396.5 323.5 Z M408.5 323.5 Z M715.5 324.5 Z M417.5 325.5 Z M710.5 325.5 L711.5 325.5 Z M422.5 326.5 Z M706.5 326.5 Z M427.5 327.5 Z M702.5 327.5 Z M432.5 328.5 L433.5 328.5 Z M699.5 328.5 Z M439.5 329.5 L440.5 329.5 Z M447.5 330.5 L448.5 330.5 Z M694.5 330.5 Z M685.5 331.5 L686.5 331.5 Z M691.5 331.5 Z M680.5 332.5 L681.5 332.5 Z M479.5 333.5 L480.5 333.5 Z M677.5 333.5 Z M674.5 334.5 Z M495.5 335.5 L496.5 335.5 Z M671.5 335.5 Z M498.5 336.5 Z M665.5 337.5 Z M500.5 338.5 Z M505.5 339.5 Z M659.5 339.5 Z M508.5 340.5 Z M512.5 341.5 Z M653.5 341.5 L654.5 341.5 Z M516.5 342.5 Z M649.5 342.5 L650.5 342.5 Z M520.5 343.5 Z M647.5 343.5 Z M526.5 344.5 Z M643.5 344.5 Z M533.5 345.5 Z M538.5 346.5 Z M543.5 347.5 Z M622.5 347.5 Z M548.5 348.5 Z M618.5 348.5 Z M561.5 349.5 Z M614.5 349.5 Z M570.5 351.5 L571.5 352.5 Z M611.5 351.5 Z M610.5 353.5 Z"/>
        <path stroke-width="0" stroke-linejoin="bevel" stroke-miterlimit="10" fill="#ffffff" stroke="#ffffff" d="M0.5 0.5 L0.5 108.5 L1.5 107.5 L1.5 106.5 L2.5 105.5 L2.5 104.5 L3.5 103.5 L3.5 101.5 L4.5 100.5 L4.5 98.5 L5.5 97.5 L5.5 96.5 L6.5 95.5 L6.5 94.5 L7.5 93.5 L7.5 92.5 L8.5 91.5 L8.5 90.5 L9.5 89.5 L9.5 88.5 L10.5 87.5 L10.5 86.5 L11.5 85.5 L11.5 84.5 L12.5 83.5 L12.5 82.5 L13.5 81.5 L14.5 80.5 L15.5 79.5 L16.5 78.5 L20.5 78.5 L21.5 77.5 L22.5 76.5 L22.5 75.5 L23.5 74.5 L23.5 68.5 L24.5 67.5 L25.5 66.5 L26.5 65.5 L27.5 64.5 L28.5 63.5 L29.5 62.5 L30.5 61.5 L31.5 60.5 L32.5 59.5 L33.5 58.5 L34.5 57.5 L35.5 56.5 L36.5 55.5 L36.5 54.5 L37.5 53.5 L38.5 53.5 L39.5 52.5 L40.5 51.5 L41.5 50.5 L42.5 49.5 L43.5 49.5 L44.5 48.5 L45.5 47.5 L46.5 46.5 L47.5 45.5 L48.5 45.5 L49.5 44.5 L50.5 43.5 L51.5 43.5 L52.5 42.5 L53.5 42.5 L54.5 41.5 L55.5 41.5 L56.5 40.5 L57.5 39.5 L58.5 38.5 L59.5 38.5 L60.5 37.5 L61.5 36.5 L62.5 36.5 L63.5 35.5 L65.5 35.5 L66.5 34.5 L67.5 34.5 L68.5 33.5 L71.5 33.5 L72.5 32.5 L73.5 32.5 L74.5 31.5 L75.5 31.5 L76.5 30.5 L77.5 30.5 L78.5 29.5 L81.5 29.5 L82.5 28.5 L83.5 28.5 L84.5 27.5 L88.5 27.5 L89.5 26.5 L91.5 26.5 L92.5 25.5 L94.5 25.5 L95.5 24.5 L97.5 24.5 L98.5 23.5 L99.5 23.5 L100.5 22.5 L102.5 22.5 L103.5 21.5 L104.5 21.5 L105.5 20.5 L107.5 20.5 L108.5 19.5 L110.5 19.5 L111.5 18.5 L112.5 18.5 L113.5 17.5 L115.5 17.5 L116.5 16.5 L118.5 16.5 L119.5 15.5 L120.5 15.5 L121.5 14.5 L122.5 14.5 L123.5 13.5 L126.5 13.5 L127.5 12.5 L129.5 12.5 L130.5 11.5 L131.5 11.5 L132.5 10.5 L135.5 10.5 L136.5 9.5 L138.5 9.5 L139.5 8.5 L141.5 8.5 L142.5 7.5 L146.5 7.5 L147.5 6.5 L151.5 6.5 L152.5 5.5 L153.5 5.5 L154.5 4.5 L155.5 4.5 L156.5 3.5 L160.5 3.5 L161.5 2.5 L171.5 2.5 L172.5 1.5 L173.5 1.5 L174.5 0.5 L176.5 0.5 L177.5 1.5 L178.5 1.5 L179.5 2.5 L180.5 3.5 L181.5 3.5 L182.5 4.5 L183.5 4.5 L184.5 5.5 L185.5 5.5 L186.5 6.5 L187.5 6.5 L188.5 7.5 L190.5 7.5 L191.5 8.5 L193.5 8.5 L194.5 7.5 L202.5 7.5 L203.5 6.5 L222.5 6.5 L223.5 7.5 L231.5 7.5 L232.5 8.5 L237.5 8.5 L238.5 9.5 L241.5 9.5 L242.5 10.5 L249.5 10.5 L250.5 9.5 L253.5 9.5 L254.5 8.5 L258.5 8.5 L259.5 7.5 L263.5 7.5 L264.5 6.5 L266.5 6.5 L267.5 5.5 L269.5 5.5 L270.5 4.5 L272.5 4.5 L273.5 3.5 L275.5 3.5 L276.5 2.5 L282.5 2.5 L283.5 3.5 L288.5 3.5 L289.5 4.5 L295.5 4.5 L296.5 5.5 L300.5 5.5 L301.5 6.5 L307.5 6.5 L308.5 7.5 L311.5 7.5 L312.5 8.5 L316.5 8.5 L317.5 9.5 L321.5 9.5 L322.5 10.5 L329.5 10.5 L330.5 11.5 L335.5 11.5 L336.5 12.5 L340.5 12.5 L341.5 13.5 L345.5 13.5 L346.5 14.5 L350.5 14.5 L351.5 15.5 L355.5 15.5 L356.5 16.5 L359.5 16.5 L360.5 17.5 L364.5 17.5 L365.5 18.5 L369.5 18.5 L370.5 19.5 L373.5 19.5 L374.5 20.5 L375.5 20.5 L376.5 21.5 L378.5 21.5 L379.5 22.5 L382.5 22.5 L383.5 23.5 L385.5 23.5 L386.5 24.5 L387.5 24.5 L388.5 25.5 L389.5 26.5 L390.5 27.5 L391.5 28.5 L392.5 29.5 L393.5 30.5 L394.5 30.5 L395.5 31.5 L396.5 32.5 L397.5 32.5 L398.5 33.5 L399.5 33.5 L400.5 34.5 L401.5 34.5 L402.5 35.5 L403.5 36.5 L404.5 37.5 L405.5 38.5 L406.5 38.5 L407.5 39.5 L408.5 40.5 L409.5 41.5 L410.5 41.5 L411.5 42.5 L419.5 42.5 L420.5 41.5 L433.5 41.5 L434.5 42.5 L436.5 42.5 L437.5 43.5 L441.5 43.5 L442.5 44.5 L443.5 44.5 L444.5 45.5 L448.5 45.5 L449.5 46.5 L450.5 46.5 L451.5 47.5 L453.5 47.5 L454.5 48.5 L456.5 48.5 L457.5 49.5 L458.5 49.5 L459.5 50.5 L461.5 50.5 L462.5 51.5 L464.5 51.5 L465.5 52.5 L467.5 52.5 L468.5 53.5 L470.5 53.5 L471.5 54.5 L473.5 54.5 L474.5 55.5 L478.5 55.5 L479.5 56.5 L480.5 56.5 L481.5 57.5 L483.5 57.5 L484.5 58.5 L486.5 58.5 L487.5 59.5 L488.5 59.5 L489.5 60.5 L491.5 60.5 L492.5 61.5 L493.5 61.5 L494.5 62.5 L496.5 62.5 L497.5 63.5 L499.5 63.5 L500.5 64.5 L501.5 64.5 L502.5 65.5 L503.5 65.5 L504.5 66.5 L506.5 66.5 L507.5 67.5 L510.5 67.5 L511.5 68.5 L512.5 68.5 L513.5 69.5 L514.5 70.5 L515.5 70.5 L516.5 71.5 L518.5 71.5 L519.5 72.5 L520.5 72.5 L521.5 73.5 L522.5 73.5 L523.5 74.5 L525.5 74.5 L526.5 75.5 L527.5 75.5 L528.5 76.5 L529.5 76.5 L530.5 77.5 L531.5 77.5 L532.5 78.5 L533.5 78.5 L534.5 79.5 L535.5 79.5 L536.5 80.5 L537.5 81.5 L538.5 81.5 L539.5 82.5 L540.5 82.5 L541.5 83.5 L542.5 83.5 L543.5 84.5 L544.5 85.5 L545.5 85.5 L546.5 86.5 L547.5 86.5 L548.5 87.5 L549.5 87.5 L550.5 88.5 L551.5 89.5 L552.5 89.5 L553.5 90.5 L554.5 90.5 L555.5 91.5 L556.5 91.5 L557.5 92.5 L559.5 92.5 L560.5 93.5 L561.5 94.5 L562.5 93.5 L563.5 93.5 L564.5 94.5 L566.5 94.5 L567.5 95.5 L569.5 95.5 L570.5 96.5 L575.5 96.5 L576.5 97.5 L579.5 97.5 L580.5 98.5 L590.5 98.5 L591.5 97.5 L602.5 97.5 L603.5 98.5 L604.5 98.5 L605.5 99.5 L606.5 100.5 L607.5 100.5 L608.5 101.5 L609.5 102.5 L609.5 103.5 L610.5 104.5 L611.5 105.5 L612.5 105.5 L613.5 106.5 L614.5 106.5 L615.5 107.5 L616.5 107.5 L617.5 108.5 L618.5 109.5 L619.5 110.5 L620.5 111.5 L621.5 112.5 L622.5 112.5 L623.5 113.5 L623.5 114.5 L624.5 115.5 L625.5 116.5 L626.5 116.5 L627.5 117.5 L628.5 118.5 L629.5 118.5 L630.5 119.5 L631.5 120.5 L632.5 121.5 L633.5 121.5 L634.5 122.5 L635.5 123.5 L636.5 123.5 L637.5 124.5 L638.5 125.5 L639.5 125.5 L640.5 126.5 L643.5 126.5 L644.5 127.5 L646.5 127.5 L647.5 128.5 L651.5 128.5 L652.5 129.5 L653.5 130.5 L654.5 131.5 L654.5 132.5 L655.5 133.5 L656.5 134.5 L657.5 134.5 L658.5 135.5 L659.5 135.5 L660.5 136.5 L661.5 136.5 L662.5 137.5 L663.5 138.5 L664.5 139.5 L665.5 139.5 L666.5 140.5 L667.5 141.5 L668.5 141.5 L669.5 142.5 L670.5 142.5 L671.5 143.5 L672.5 143.5 L673.5 144.5 L674.5 144.5 L675.5 145.5 L676.5 146.5 L677.5 146.5 L678.5 147.5 L679.5 148.5 L680.5 148.5 L681.5 149.5 L682.5 150.5 L683.5 150.5 L684.5 151.5 L685.5 152.5 L686.5 152.5 L687.5 153.5 L688.5 154.5 L689.5 155.5 L690.5 156.5 L691.5 156.5 L692.5 157.5 L692.5 158.5 L693.5 159.5 L694.5 160.5 L695.5 160.5 L696.5 161.5 L697.5 162.5 L698.5 162.5 L699.5 163.5 L699.5 164.5 L700.5 165.5 L701.5 166.5 L702.5 167.5 L703.5 168.5 L704.5 169.5 L705.5 170.5 L706.5 171.5 L707.5 172.5 L708.5 173.5 L709.5 174.5 L710.5 175.5 L711.5 176.5 L712.5 177.5 L713.5 178.5 L714.5 179.5 L715.5 180.5 L716.5 181.5 L717.5 182.5 L718.5 183.5 L719.5 183.5 L720.5 184.5 L720.5 185.5 L721.5 186.5 L722.5 187.5 L722.5 188.5 L723.5 189.5 L724.5 190.5 L725.5 190.5 L726.5 191.5 L726.5 192.5 L727.5 193.5 L728.5 194.5 L728.5 195.5 L729.5 196.5 L730.5 196.5 L731.5 197.5 L731.5 198.5 L732.5 199.5 L733.5 200.5 L734.5 201.5 L735.5 202.5 L736.5 203.5 L736.5 204.5 L737.5 205.5 L738.5 206.5 L738.5 207.5 L739.5 208.5 L740.5 209.5 L740.5 210.5 L741.5 211.5 L741.5 212.5 L742.5 213.5 L743.5 214.5 L743.5 215.5 L744.5 216.5 L744.5 217.5 L745.5 218.5 L745.5 219.5 L746.5 220.5 L746.5 221.5 L747.5 222.5 L748.5 223.5 L749.5 223.5 L750.5 224.5 L751.5 224.5 L752.5 225.5 L753.5 226.5 L754.5 227.5 L754.5 228.5 L755.5 229.5 L755.5 230.5 L756.5 231.5 L756.5 233.5 L757.5 234.5 L758.5 235.5 L758.5 237.5 L759.5 238.5 L760.5 239.5 L760.5 249.5 L761.5 250.5 L761.5 254.5 L762.5 255.5 L762.5 285.5 L761.5 286.5 L761.5 290.5 L760.5 291.5 L760.5 293.5 L759.5 294.5 L759.5 296.5 L758.5 297.5 L758.5 299.5 L757.5 300.5 L756.5 301.5 L756.5 302.5 L755.5 303.5 L754.5 304.5 L753.5 304.5 L752.5 305.5 L751.5 306.5 L750.5 306.5 L749.5 307.5 L748.5 307.5 L747.5 308.5 L745.5 308.5 L744.5 309.5 L743.5 310.5 L742.5 310.5 L741.5 311.5 L740.5 312.5 L739.5 313.5 L738.5 313.5 L737.5 314.5 L736.5 315.5 L735.5 315.5 L734.5 316.5 L733.5 316.5 L732.5 317.5 L731.5 318.5 L730.5 318.5 L729.5 319.5 L728.5 319.5 L727.5 320.5 L726.5 320.5 L725.5 321.5 L723.5 321.5 L722.5 322.5 L720.5 322.5 L719.5 323.5 L717.5 323.5 L716.5 324.5 L715.5 325.5 L712.5 325.5 L711.5 326.5 L707.5 326.5 L706.5 327.5 L703.5 327.5 L702.5 328.5 L700.5 328.5 L699.5 329.5 L697.5 329.5 L696.5 330.5 L695.5 330.5 L694.5 331.5 L692.5 331.5 L691.5 332.5 L682.5 332.5 L681.5 333.5 L678.5 333.5 L677.5 334.5 L675.5 334.5 L674.5 335.5 L672.5 335.5 L671.5 336.5 L669.5 336.5 L668.5 337.5 L666.5 337.5 L665.5 338.5 L663.5 338.5 L662.5 339.5 L660.5 339.5 L659.5 340.5 L657.5 340.5 L656.5 341.5 L655.5 341.5 L654.5 342.5 L651.5 342.5 L650.5 343.5 L648.5 343.5 L647.5 344.5 L644.5 344.5 L643.5 345.5 L639.5 345.5 L638.5 346.5 L632.5 346.5 L631.5 347.5 L623.5 347.5 L622.5 348.5 L619.5 348.5 L618.5 349.5 L615.5 349.5 L614.5 350.5 L612.5 350.5 L612.5 351.5 L611.5 352.5 L611.5 353.5 L774.5 353.5 L774.5 0.5 Z M0.5 119.5 L0.5 353.5 L571.5 353.5 L570.5 352.5 L569.5 351.5 L568.5 351.5 L567.5 350.5 L561.5 350.5 L560.5 349.5 L548.5 349.5 L547.5 348.5 L543.5 348.5 L542.5 347.5 L538.5 347.5 L537.5 346.5 L533.5 346.5 L532.5 345.5 L526.5 345.5 L525.5 344.5 L520.5 344.5 L519.5 343.5 L516.5 343.5 L515.5 342.5 L512.5 342.5 L511.5 341.5 L508.5 341.5 L507.5 340.5 L505.5 340.5 L504.5 339.5 L500.5 339.5 L499.5 338.5 L498.5 337.5 L497.5 336.5 L495.5 336.5 L494.5 335.5 L490.5 335.5 L489.5 334.5 L479.5 334.5 L478.5 333.5 L468.5 333.5 L467.5 332.5 L459.5 332.5 L458.5 331.5 L447.5 331.5 L446.5 330.5 L439.5 330.5 L438.5 329.5 L432.5 329.5 L431.5 328.5 L427.5 328.5 L426.5 327.5 L422.5 327.5 L421.5 326.5 L417.5 326.5 L416.5 325.5 L413.5 325.5 L412.5 324.5 L408.5 324.5 L407.5 323.5 L404.5 323.5 L403.5 322.5 L399.5 322.5 L398.5 323.5 L397.5 323.5 L396.5 324.5 L394.5 324.5 L393.5 323.5 L392.5 323.5 L391.5 322.5 L386.5 322.5 L385.5 321.5 L383.5 321.5 L382.5 320.5 L377.5 320.5 L376.5 319.5 L371.5 319.5 L370.5 318.5 L365.5 318.5 L364.5 317.5 L360.5 317.5 L359.5 316.5 L356.5 316.5 L355.5 315.5 L354.5 315.5 L353.5 314.5 L351.5 314.5 L350.5 313.5 L348.5 313.5 L347.5 312.5 L345.5 312.5 L344.5 311.5 L342.5 311.5 L341.5 310.5 L339.5 310.5 L338.5 309.5 L336.5 309.5 L335.5 308.5 L334.5 308.5 L333.5 307.5 L331.5 307.5 L330.5 306.5 L328.5 306.5 L327.5 305.5 L326.5 305.5 L325.5 304.5 L323.5 304.5 L322.5 303.5 L320.5 303.5 L319.5 302.5 L317.5 302.5 L316.5 301.5 L315.5 301.5 L314.5 300.5 L310.5 300.5 L309.5 299.5 L308.5 299.5 L307.5 298.5 L305.5 298.5 L304.5 297.5 L302.5 297.5 L301.5 296.5 L300.5 296.5 L299.5 295.5 L298.5 295.5 L297.5 294.5 L295.5 294.5 L294.5 293.5 L292.5 293.5 L291.5 292.5 L290.5 292.5 L289.5 291.5 L286.5 291.5 L285.5 290.5 L283.5 290.5 L282.5 289.5 L280.5 289.5 L279.5 288.5 L278.5 288.5 L277.5 287.5 L276.5 287.5 L275.5 286.5 L273.5 286.5 L272.5 285.5 L270.5 285.5 L269.5 284.5 L267.5 284.5 L266.5 283.5 L265.5 283.5 L264.5 282.5 L263.5 282.5 L262.5 281.5 L261.5 281.5 L260.5 280.5 L258.5 280.5 L257.5 279.5 L256.5 279.5 L255.5 278.5 L254.5 278.5 L253.5 277.5 L251.5 277.5 L250.5 276.5 L248.5 276.5 L247.5 275.5 L246.5 275.5 L245.5 274.5 L244.5 274.5 L243.5 273.5 L241.5 273.5 L240.5 272.5 L239.5 272.5 L238.5 271.5 L236.5 271.5 L235.5 270.5 L234.5 270.5 L233.5 269.5 L231.5 269.5 L230.5 268.5 L229.5 268.5 L228.5 267.5 L226.5 267.5 L225.5 266.5 L224.5 266.5 L223.5 265.5 L222.5 264.5 L222.5 263.5 L221.5 262.5 L220.5 261.5 L219.5 261.5 L218.5 260.5 L217.5 260.5 L216.5 259.5 L215.5 259.5 L214.5 258.5 L213.5 258.5 L212.5 257.5 L211.5 257.5 L210.5 256.5 L208.5 256.5 L207.5 255.5 L205.5 255.5 L204.5 254.5 L202.5 254.5 L201.5 253.5 L200.5 253.5 L199.5 252.5 L198.5 252.5 L197.5 251.5 L196.5 251.5 L195.5 250.5 L193.5 250.5 L192.5 249.5 L191.5 249.5 L190.5 248.5 L189.5 248.5 L188.5 247.5 L186.5 247.5 L185.5 246.5 L184.5 246.5 L183.5 245.5 L182.5 245.5 L181.5 244.5 L178.5 244.5 L177.5 243.5 L173.5 243.5 L172.5 242.5 L171.5 242.5 L170.5 241.5 L169.5 241.5 L168.5 240.5 L167.5 240.5 L166.5 239.5 L164.5 239.5 L163.5 238.5 L162.5 238.5 L161.5 237.5 L159.5 237.5 L158.5 236.5 L157.5 236.5 L156.5 235.5 L154.5 235.5 L153.5 234.5 L150.5 234.5 L149.5 233.5 L148.5 233.5 L147.5 232.5 L146.5 232.5 L145.5 231.5 L143.5 231.5 L142.5 230.5 L138.5 230.5 L137.5 229.5 L136.5 229.5 L135.5 228.5 L134.5 228.5 L133.5 227.5 L131.5 227.5 L130.5 226.5 L128.5 226.5 L127.5 225.5 L125.5 225.5 L124.5 224.5 L123.5 224.5 L122.5 223.5 L120.5 223.5 L119.5 222.5 L118.5 222.5 L117.5 221.5 L115.5 221.5 L114.5 220.5 L113.5 220.5 L112.5 219.5 L111.5 219.5 L110.5 218.5 L109.5 218.5 L108.5 217.5 L106.5 217.5 L105.5 216.5 L104.5 216.5 L103.5 215.5 L102.5 214.5 L101.5 214.5 L100.5 213.5 L99.5 213.5 L98.5 212.5 L97.5 211.5 L96.5 211.5 L95.5 210.5 L94.5 209.5 L93.5 209.5 L92.5 208.5 L91.5 208.5 L90.5 207.5 L89.5 206.5 L88.5 206.5 L87.5 205.5 L86.5 204.5 L85.5 204.5 L84.5 203.5 L83.5 203.5 L82.5 202.5 L81.5 201.5 L80.5 201.5 L79.5 200.5 L78.5 200.5 L77.5 199.5 L76.5 198.5 L75.5 198.5 L74.5 197.5 L73.5 197.5 L72.5 196.5 L71.5 196.5 L70.5 195.5 L69.5 194.5 L68.5 194.5 L67.5 193.5 L66.5 193.5 L65.5 192.5 L64.5 192.5 L63.5 191.5 L62.5 190.5 L61.5 190.5 L60.5 189.5 L59.5 188.5 L58.5 187.5 L57.5 187.5 L56.5 186.5 L55.5 185.5 L54.5 185.5 L53.5 184.5 L52.5 183.5 L51.5 183.5 L50.5 182.5 L49.5 181.5 L48.5 180.5 L47.5 180.5 L46.5 179.5 L45.5 178.5 L44.5 178.5 L43.5 177.5 L42.5 176.5 L41.5 176.5 L40.5 175.5 L39.5 174.5 L38.5 173.5 L37.5 172.5 L36.5 171.5 L35.5 171.5 L34.5 170.5 L34.5 169.5 L33.5 168.5 L32.5 167.5 L31.5 166.5 L30.5 165.5 L29.5 164.5 L28.5 163.5 L27.5 162.5 L26.5 161.5 L25.5 160.5 L24.5 159.5 L23.5 158.5 L22.5 157.5 L21.5 156.5 L20.5 156.5 L19.5 155.5 L18.5 154.5 L18.5 153.5 L17.5 152.5 L16.5 151.5 L16.5 150.5 L15.5 149.5 L14.5 148.5 L14.5 147.5 L13.5 146.5 L12.5 145.5 L12.5 144.5 L11.5 143.5 L10.5 142.5 L10.5 141.5 L9.5 140.5 L9.5 139.5 L8.5 138.5 L8.5 137.5 L7.5 136.5 L7.5 135.5 L6.5 134.5 L6.5 133.5 L5.5 132.5 L5.5 130.5 L4.5 129.5 L4.5 127.5 L3.5 126.5 L3.5 124.5 L2.5 123.5 L2.5 122.5 L1.5 121.5 L1.5 120.5 Z M11.5 157.5 L12.5 156.5 L14.5 156.5 L15.5 157.5 L16.5 158.5 L17.5 159.5 L18.5 160.5 L19.5 161.5 L20.5 162.5 L21.5 163.5 L22.5 164.5 L22.5 166.5 L23.5 167.5 L23.5 168.5 L24.5 169.5 L25.5 170.5 L26.5 171.5 L26.5 172.5 L27.5 173.5 L28.5 174.5 L29.5 175.5 L30.5 176.5 L31.5 177.5 L32.5 178.5 L32.5 179.5 L33.5 180.5 L34.5 181.5 L35.5 182.5 L36.5 183.5 L37.5 184.5 L38.5 185.5 L38.5 186.5 L39.5 187.5 L40.5 188.5 L40.5 189.5 L41.5 190.5 L40.5 191.5 L39.5 191.5 L38.5 190.5 L37.5 190.5 L36.5 189.5 L35.5 188.5 L35.5 187.5 L34.5 187.5 L33.5 186.5 L32.5 185.5 L31.5 184.5 L30.5 183.5 L29.5 182.5 L28.5 181.5 L27.5 180.5 L26.5 179.5 L25.5 178.5 L24.5 177.5 L23.5 176.5 L22.5 175.5 L21.5 174.5 L21.5 173.5 L20.5 172.5 L19.5 172.5 L18.5 171.5 L17.5 170.5 L16.5 169.5 L15.5 168.5 L15.5 167.5 L14.5 166.5 L13.5 165.5 L13.5 164.5 L12.5 163.5 L11.5 162.5 L11.5 161.5 L10.5 160.5 L10.5 158.5 Z M44.5 188.5 L45.5 189.5 L46.5 190.5 L47.5 190.5 L48.5 191.5 L49.5 192.5 L50.5 192.5 L51.5 193.5 L52.5 194.5 L53.5 195.5 L54.5 195.5 L55.5 196.5 L56.5 197.5 L57.5 197.5 L58.5 198.5 L59.5 198.5 L60.5 199.5 L61.5 200.5 L62.5 200.5 L63.5 201.5 L64.5 202.5 L65.5 203.5 L64.5 204.5 L63.5 205.5 L62.5 204.5 L61.5 203.5 L60.5 203.5 L59.5 202.5 L58.5 201.5 L57.5 200.5 L56.5 200.5 L55.5 199.5 L54.5 199.5 L53.5 198.5 L52.5 198.5 L51.5 197.5 L50.5 196.5 L49.5 196.5 L48.5 195.5 L47.5 195.5 L46.5 194.5 L45.5 193.5 L44.5 192.5 L43.5 192.5 L42.5 191.5 L41.5 190.5 L40.5 189.5 L40.5 188.5 L41.5 187.5 L43.5 187.5 Z M55.5 201.5 L56.5 200.5 L57.5 200.5 L58.5 201.5 L59.5 202.5 L58.5 203.5 L57.5 203.5 L56.5 202.5 Z M67.5 208.5 L68.5 207.5 L69.5 207.5 L70.5 208.5 L71.5 209.5 L71.5 210.5 L70.5 211.5 L69.5 210.5 L68.5 210.5 L67.5 209.5 Z M72.5 211.5 L73.5 210.5 L74.5 210.5 L75.5 211.5 L77.5 211.5 L78.5 212.5 L79.5 212.5 L80.5 213.5 L81.5 213.5 L82.5 214.5 L83.5 214.5 L84.5 215.5 L85.5 216.5 L86.5 216.5 L87.5 217.5 L88.5 218.5 L89.5 218.5 L90.5 219.5 L91.5 219.5 L92.5 220.5 L93.5 221.5 L94.5 221.5 L95.5 222.5 L96.5 223.5 L96.5 224.5 L95.5 225.5 L94.5 226.5 L92.5 226.5 L91.5 225.5 L90.5 225.5 L89.5 224.5 L88.5 224.5 L87.5 223.5 L86.5 222.5 L85.5 222.5 L84.5 221.5 L83.5 220.5 L82.5 220.5 L81.5 219.5 L80.5 219.5 L79.5 218.5 L78.5 217.5 L77.5 217.5 L76.5 216.5 L75.5 216.5 L74.5 215.5 L73.5 215.5 L72.5 214.5 L72.5 213.5 L71.5 212.5 Z M766.5 266.5 L767.5 265.5 L768.5 265.5 L769.5 266.5 L769.5 267.5 L770.5 268.5 L770.5 269.5 L771.5 270.5 L772.5 271.5 L771.5 272.5 L770.5 272.5 L769.5 271.5 L768.5 270.5 L767.5 269.5 L767.5 268.5 L766.5 267.5 Z M768.5 296.5 L769.5 295.5 L770.5 295.5 L771.5 296.5 L772.5 297.5 L771.5 298.5 L770.5 299.5 L769.5 300.5 L768.5 301.5 L767.5 302.5 L766.5 303.5 L765.5 304.5 L764.5 304.5 L763.5 305.5 L762.5 304.5 L762.5 302.5 L763.5 301.5 L764.5 300.5 L765.5 299.5 L766.5 298.5 L767.5 297.5 Z"/>
        <path stroke-width="0" stroke-linejoin="bevel" stroke-miterlimit="10" fill="#777777" stroke="#777777" d="M12.5 157.5 L11.5 158.5 L11.5 160.5 L12.5 161.5 L12.5 162.5 L13.5 163.5 L14.5 164.5 L14.5 165.5 L15.5 166.5 L16.5 167.5 L16.5 168.5 L17.5 169.5 L18.5 170.5 L19.5 171.5 L20.5 171.5 L21.5 172.5 L22.5 173.5 L22.5 174.5 L23.5 175.5 L24.5 176.5 L23.5 175.5 L23.5 174.5 L22.5 173.5 L22.5 172.5 L21.5 171.5 L21.5 169.5 L20.5 169.5 L19.5 168.5 L18.5 168.5 L17.5 167.5 L16.5 166.5 L16.5 165.5 L15.5 164.5 L14.5 163.5 L14.5 162.5 L13.5 161.5 L12.5 160.5 L12.5 158.5 L13.5 157.5 Z M36.5 184.5 Z M36.5 187.5 L36.5 188.5 L37.5 189.5 L38.5 189.5 L39.5 190.5 L40.5 190.5 L39.5 189.5 L39.5 188.5 L38.5 187.5 L39.5 188.5 L38.5 189.5 L37.5 189.5 L36.5 188.5 Z M77.5 216.5 L78.5 216.5 L79.5 217.5 L80.5 218.5 L81.5 218.5 L82.5 219.5 L83.5 219.5 L84.5 220.5 L85.5 221.5 L86.5 221.5 L87.5 222.5 L88.5 223.5 L89.5 223.5 L90.5 224.5 L91.5 224.5 L92.5 225.5 L94.5 225.5 L95.5 224.5 L92.5 224.5 L91.5 223.5 L90.5 222.5 L89.5 222.5 L88.5 221.5 L86.5 221.5 L85.5 220.5 L84.5 220.5 L83.5 219.5 L82.5 219.5 L81.5 218.5 L80.5 217.5 L79.5 217.5 L78.5 216.5 Z M94.5 222.5 Z"/>
        <path stroke-width="0" stroke-linejoin="bevel" stroke-miterlimit="10" fill="#2c2c2c" stroke="#2c2c2c" d="M73.5 211.5 L74.5 211.5 Z"/>
        <path stroke-width="0" stroke-linejoin="bevel" stroke-miterlimit="10" fill="#5a5a5a" stroke="#5a5a5a" d="M14.5 157.5 L13.5 158.5 L13.5 160.5 L14.5 161.5 L15.5 162.5 L15.5 163.5 L16.5 164.5 L17.5 165.5 L17.5 166.5 L18.5 167.5 L19.5 167.5 L20.5 168.5 L21.5 168.5 L22.5 169.5 L21.5 168.5 L21.5 167.5 L20.5 167.5 L19.5 166.5 L20.5 165.5 L21.5 165.5 L21.5 164.5 L20.5 163.5 L19.5 162.5 L18.5 161.5 L17.5 160.5 L16.5 159.5 L15.5 158.5 Z M18.5 164.5 L19.5 163.5 L20.5 163.5 L21.5 164.5 L20.5 165.5 L19.5 165.5 Z M22.5 171.5 Z M37.5 185.5 Z M56.5 201.5 L57.5 202.5 L58.5 202.5 L59.5 203.5 L58.5 202.5 L57.5 201.5 Z M72.5 212.5 L73.5 213.5 L73.5 214.5 L73.5 213.5 Z M76.5 212.5 L77.5 212.5 Z M79.5 213.5 Z M81.5 214.5 Z M75.5 215.5 L76.5 215.5 Z M83.5 215.5 L84.5 216.5 L85.5 217.5 L86.5 217.5 L87.5 218.5 L87.5 219.5 L86.5 220.5 L85.5 219.5 L84.5 219.5 L83.5 218.5 L82.5 218.5 L81.5 217.5 L82.5 218.5 L83.5 218.5 L84.5 219.5 L85.5 219.5 L86.5 220.5 L87.5 220.5 L87.5 218.5 L86.5 217.5 L85.5 217.5 L84.5 216.5 Z M79.5 216.5 Z M89.5 219.5 L90.5 220.5 L89.5 221.5 L90.5 221.5 L91.5 222.5 L92.5 223.5 L95.5 223.5 L94.5 223.5 L93.5 222.5 L92.5 221.5 L91.5 220.5 L90.5 220.5 Z"/>
        <path stroke-width="0" stroke-linejoin="bevel" stroke-miterlimit="10" fill="#818181" stroke="#818181" d="M20.5 166.5 Z M34.5 186.5 L36.5 186.5 L37.5 187.5 L37.5 188.5 L38.5 188.5 L37.5 187.5 L37.5 186.5 Z M82.5 217.5 L83.5 217.5 L84.5 218.5 L85.5 218.5 L86.5 219.5 L86.5 218.5 L85.5 218.5 L84.5 217.5 Z"/>
        <path stroke-width="0" stroke-linejoin="bevel" stroke-miterlimit="10" fill="#6c6c6c" stroke="#6c6c6c" d="M19.5 164.5 Z M25.5 171.5 L24.5 172.5 L23.5 172.5 L23.5 173.5 L24.5 174.5 L24.5 175.5 L25.5 176.5 L25.5 177.5 L26.5 178.5 L27.5 179.5 L28.5 180.5 L29.5 181.5 L30.5 182.5 L31.5 183.5 L32.5 184.5 L33.5 185.5 L36.5 185.5 L35.5 184.5 L35.5 183.5 L34.5 182.5 L33.5 181.5 L32.5 180.5 L31.5 179.5 L31.5 178.5 L30.5 177.5 L30.5 178.5 L29.5 179.5 L28.5 178.5 L27.5 178.5 L26.5 177.5 L25.5 176.5 L24.5 175.5 L24.5 173.5 L25.5 172.5 Z M73.5 212.5 L74.5 213.5 L74.5 214.5 L76.5 214.5 L77.5 215.5 L79.5 215.5 L80.5 216.5 L83.5 216.5 L82.5 215.5 L81.5 215.5 L80.5 214.5 L79.5 214.5 L78.5 213.5 L76.5 213.5 L75.5 212.5 Z M88.5 219.5 L88.5 220.5 L89.5 220.5 Z"/>
        <path stroke-width="0" stroke-linejoin="bevel" stroke-miterlimit="10" fill="#919191" stroke="#919191" d="M769.5 296.5 L768.5 297.5 L767.5 298.5 L766.5 299.5 L765.5 300.5 L764.5 301.5 L763.5 302.5 L763.5 304.5 L764.5 303.5 L765.5 303.5 L766.5 302.5 L767.5 301.5 L768.5 300.5 L769.5 299.5 L770.5 298.5 L771.5 297.5 L770.5 296.5 Z"/>
        <path stroke-width="0" stroke-linejoin="bevel" stroke-miterlimit="10" fill="#4b4b4b" stroke="#4b4b4b" d="M20.5 164.5 Z M21.5 166.5 L22.5 167.5 L22.5 168.5 L23.5 169.5 L22.5 170.5 L23.5 171.5 L24.5 171.5 L24.5 170.5 L23.5 169.5 L22.5 168.5 L22.5 167.5 Z M25.5 173.5 L25.5 175.5 L26.5 176.5 L27.5 177.5 L28.5 177.5 L29.5 178.5 L29.5 176.5 L28.5 175.5 L27.5 174.5 L26.5 173.5 Z"/>
      </g>
    </g>
  </g>
</svg>
