<?xml version="1.0" encoding="UTF-8" standalone="no"?>
<!-- Created with PhotoLine 23.53 (www.pl32.de) -->
<!DOCTYPE svg PUBLIC "-//W3C//DTD SVG 1.1//EN" "http://www.w3.org/Graphics/SVG/1.1/DTD/svg11.dtd">
<svg width="1024" height="1024" viewBox="0 0 1024 1024" version="1.1" xmlns="http://www.w3.org/2000/svg" xmlns:xlink="http://www.w3.org/1999/xlink">
  <defs>
    <clipPath id="clip0">
      <path clip-rule="evenodd" d="M303.5 33.5 L302.5 34.5 L301.5 34.5 L300.5 35.5 L299.5 36.5 L298.5 36.5 L297.5 37.5 L296.5 38.5 L295.5 39.5 L294.5 40.5 L293.5 41.5 L293.5 42.5 L292.5 43.5 L292.5 44.5 L291.5 45.5 L290.5 46.5 L289.5 47.5 L288.5 48.5 L283.5 48.5 L282.5 47.5 L281.5 46.5 L281.5 45.5 L280.5 44.5 L279.5 43.5 L271.5 43.5 L270.5 44.5 L266.5 44.5 L265.5 45.5 L264.5 46.5 L263.5 47.5 L262.5 48.5 L261.5 49.5 L259.5 49.5 L258.5 48.5 L254.5 48.5 L253.5 49.5 L252.5 50.5 L251.5 50.5 L251.5 51.5 L250.5 52.5 L249.5 52.5 L248.5 53.5 L247.5 53.5 L246.5 54.5 L243.5 54.5 L242.5 55.5 L241.5 55.5 L240.5 56.5 L239.5 56.5 L238.5 57.5 L238.5 58.5 L237.5 59.5 L235.5 59.5 L234.5 58.5 L232.5 58.5 L231.5 59.5 L224.5 59.5 L223.5 60.5 L216.5 60.5 L215.5 61.5 L203.5 61.5 L202.5 60.5 L197.5 60.5 L196.5 59.5 L179.5 59.5 L178.5 58.5 L175.5 58.5 L174.5 57.5 L170.5 57.5 L169.5 58.5 L168.5 59.5 L167.5 60.5 L166.5 60.5 L165.5 61.5 L164.5 61.5 L163.5 62.5 L162.5 62.5 L161.5 63.5 L160.5 64.5 L159.5 64.5 L158.5 65.5 L157.5 66.5 L156.5 66.5 L155.5 67.5 L154.5 67.5 L153.5 68.5 L152.5 69.5 L147.5 69.5 L146.5 70.5 L145.5 70.5 L144.5 71.5 L143.5 72.5 L142.5 72.5 L141.5 73.5 L140.5 74.5 L139.5 75.5 L139.5 79.5 L140.5 80.5 L141.5 81.5 L142.5 82.5 L143.5 83.5 L143.5 86.5 L142.5 87.5 L141.5 88.5 L140.5 89.5 L139.5 90.5 L139.5 91.5 L138.5 92.5 L138.5 93.5 L137.5 94.5 L137.5 95.5 L136.5 96.5 L136.5 99.5 L135.5 100.5 L135.5 105.5 L134.5 106.5 L134.5 108.5 L133.5 109.5 L133.5 110.5 L132.5 111.5 L132.5 112.5 L131.5 113.5 L130.5 113.5 L129.5 114.5 L129.5 115.5 L128.5 116.5 L128.5 117.5 L127.5 118.5 L127.5 119.5 L126.5 120.5 L125.5 120.5 L125.5 121.5 L124.5 122.5 L124.5 124.5 L123.5 125.5 L122.5 126.5 L121.5 127.5 L120.5 128.5 L119.5 129.5 L117.5 129.5 L116.5 130.5 L115.5 130.5 L115.5 131.5 L114.5 132.5 L113.5 133.5 L112.5 134.5 L111.5 135.5 L110.5 136.5 L110.5 138.5 L109.5 139.5 L108.5 140.5 L107.5 140.5 L106.5 141.5 L105.5 141.5 L104.5 142.5 L103.5 143.5 L102.5 144.5 L101.5 145.5 L100.5 146.5 L99.5 147.5 L97.5 147.5 L96.5 148.5 L95.5 149.5 L95.5 151.5 L94.5 152.5 L94.5 154.5 L93.5 155.5 L93.5 156.5 L92.5 157.5 L92.5 158.5 L91.5 159.5 L91.5 160.5 L90.5 161.5 L89.5 162.5 L88.5 163.5 L88.5 165.5 L87.5 166.5 L86.5 167.5 L86.5 168.5 L85.5 169.5 L84.5 170.5 L84.5 171.5 L83.5 172.5 L83.5 173.5 L82.5 174.5 L81.5 175.5 L80.5 174.5 L78.5 174.5 L77.5 175.5 L76.5 176.5 L76.5 180.5 L75.5 181.5 L75.5 182.5 L74.5 183.5 L74.5 184.5 L73.5 185.5 L73.5 186.5 L72.5 187.5 L72.5 189.5 L73.5 190.5 L73.5 196.5 L74.5 197.5 L75.5 198.5 L76.5 199.5 L79.5 199.5 L80.5 198.5 L81.5 199.5 L82.5 199.5 L83.5 200.5 L84.5 200.5 L85.5 201.5 L86.5 202.5 L88.5 202.5 L89.5 203.5 L91.5 203.5 L92.5 204.5 L93.5 205.5 L93.5 207.5 L94.5 208.5 L94.5 211.5 L93.5 212.5 L93.5 219.5 L92.5 220.5 L92.5 225.5 L91.5 226.5 L91.5 230.5 L90.5 231.5 L90.5 252.5 L89.5 253.5 L89.5 259.5 L88.5 260.5 L88.5 266.5 L87.5 267.5 L87.5 268.5 L86.5 269.5 L86.5 271.5 L85.5 272.5 L84.5 273.5 L83.5 274.5 L83.5 276.5 L84.5 277.5 L84.5 278.5 L83.5 279.5 L83.5 282.5 L84.5 283.5 L84.5 285.5 L85.5 286.5 L86.5 287.5 L86.5 291.5 L87.5 292.5 L87.5 296.5 L88.5 297.5 L89.5 297.5 L90.5 298.5 L91.5 299.5 L92.5 300.5 L92.5 301.5 L93.5 302.5 L94.5 303.5 L95.5 304.5 L96.5 305.5 L96.5 306.5 L97.5 307.5 L97.5 308.5 L98.5 309.5 L98.5 311.5 L97.5 312.5 L97.5 314.5 L96.5 315.5 L95.5 316.5 L94.5 317.5 L93.5 317.5 L92.5 318.5 L91.5 318.5 L90.5 319.5 L90.5 320.5 L89.5 321.5 L89.5 322.5 L88.5 323.5 L88.5 324.5 L87.5 325.5 L87.5 326.5 L86.5 327.5 L85.5 328.5 L84.5 329.5 L83.5 330.5 L82.5 331.5 L82.5 334.5 L81.5 335.5 L81.5 336.5 L80.5 337.5 L79.5 337.5 L78.5 338.5 L77.5 339.5 L76.5 339.5 L75.5 340.5 L75.5 341.5 L74.5 342.5 L74.5 345.5 L75.5 346.5 L75.5 348.5 L76.5 349.5 L77.5 350.5 L82.5 350.5 L83.5 351.5 L84.5 352.5 L85.5 353.5 L85.5 354.5 L86.5 355.5 L86.5 356.5 L87.5 357.5 L87.5 358.5 L88.5 359.5 L89.5 360.5 L89.5 361.5 L90.5 362.5 L90.5 373.5 L89.5 374.5 L89.5 376.5 L88.5 377.5 L88.5 384.5 L89.5 385.5 L89.5 386.5 L90.5 387.5 L90.5 389.5 L91.5 390.5 L91.5 392.5 L92.5 393.5 L92.5 396.5 L93.5 397.5 L93.5 399.5 L94.5 400.5 L94.5 403.5 L95.5 404.5 L96.5 403.5 L101.5 403.5 L102.5 404.5 L106.5 404.5 L107.5 405.5 L108.5 406.5 L108.5 407.5 L109.5 408.5 L109.5 411.5 L108.5 412.5 L108.5 413.5 L107.5 414.5 L101.5 414.5 L100.5 415.5 L99.5 416.5 L99.5 418.5 L98.5 419.5 L98.5 422.5 L97.5 423.5 L97.5 428.5 L96.5 429.5 L96.5 436.5 L95.5 437.5 L95.5 438.5 L96.5 439.5 L97.5 440.5 L97.5 441.5 L98.5 442.5 L99.5 443.5 L100.5 444.5 L101.5 445.5 L102.5 446.5 L103.5 446.5 L104.5 447.5 L104.5 448.5 L105.5 449.5 L105.5 450.5 L106.5 451.5 L106.5 453.5 L105.5 454.5 L105.5 458.5 L106.5 459.5 L107.5 460.5 L107.5 461.5 L108.5 462.5 L109.5 463.5 L109.5 465.5 L110.5 466.5 L110.5 468.5 L111.5 469.5 L111.5 473.5 L110.5 474.5 L110.5 477.5 L111.5 478.5 L111.5 480.5 L112.5 481.5 L112.5 484.5 L113.5 485.5 L113.5 490.5 L114.5 491.5 L114.5 492.5 L115.5 493.5 L115.5 494.5 L116.5 495.5 L116.5 497.5 L115.5 498.5 L115.5 499.5 L114.5 500.5 L114.5 502.5 L113.5 503.5 L113.5 514.5 L112.5 515.5 L112.5 518.5 L113.5 519.5 L113.5 522.5 L112.5 523.5 L112.5 524.5 L111.5 525.5 L110.5 526.5 L110.5 529.5 L109.5 530.5 L109.5 532.5 L108.5 533.5 L108.5 535.5 L107.5 536.5 L107.5 537.5 L106.5 538.5 L106.5 539.5 L105.5 540.5 L105.5 541.5 L104.5 542.5 L103.5 543.5 L102.5 544.5 L102.5 546.5 L101.5 547.5 L101.5 551.5 L102.5 552.5 L102.5 554.5 L103.5 555.5 L103.5 557.5 L104.5 558.5 L105.5 559.5 L105.5 560.5 L106.5 561.5 L107.5 562.5 L107.5 566.5 L106.5 567.5 L105.5 568.5 L104.5 569.5 L103.5 570.5 L102.5 571.5 L101.5 571.5 L100.5 572.5 L99.5 572.5 L98.5 573.5 L97.5 574.5 L95.5 574.5 L94.5 575.5 L93.5 576.5 L93.5 579.5 L92.5 580.5 L92.5 587.5 L91.5 588.5 L91.5 594.5 L90.5 595.5 L89.5 596.5 L89.5 608.5 L90.5 609.5 L90.5 611.5 L91.5 612.5 L91.5 613.5 L92.5 614.5 L92.5 624.5 L93.5 625.5 L94.5 625.5 L95.5 626.5 L96.5 627.5 L97.5 628.5 L97.5 630.5 L98.5 631.5 L98.5 632.5 L99.5 633.5 L99.5 640.5 L100.5 641.5 L100.5 644.5 L101.5 645.5 L101.5 648.5 L102.5 649.5 L102.5 651.5 L101.5 652.5 L101.5 654.5 L100.5 655.5 L99.5 656.5 L98.5 657.5 L98.5 662.5 L97.5 663.5 L97.5 664.5 L96.5 665.5 L96.5 667.5 L95.5 668.5 L95.5 670.5 L94.5 671.5 L94.5 674.5 L93.5 675.5 L93.5 681.5 L92.5 682.5 L92.5 693.5 L91.5 694.5 L91.5 699.5 L90.5 700.5 L90.5 703.5 L89.5 704.5 L89.5 708.5 L88.5 709.5 L88.5 712.5 L87.5 713.5 L87.5 719.5 L86.5 720.5 L86.5 723.5 L85.5 724.5 L85.5 725.5 L84.5 726.5 L84.5 727.5 L83.5 728.5 L82.5 728.5 L81.5 729.5 L80.5 729.5 L79.5 728.5 L78.5 729.5 L77.5 730.5 L76.5 731.5 L75.5 732.5 L74.5 733.5 L73.5 734.5 L72.5 735.5 L71.5 736.5 L70.5 736.5 L70.5 745.5 L71.5 746.5 L71.5 749.5 L72.5 750.5 L72.5 751.5 L73.5 752.5 L73.5 754.5 L74.5 755.5 L74.5 763.5 L75.5 764.5 L75.5 770.5 L76.5 771.5 L76.5 774.5 L77.5 775.5 L77.5 777.5 L78.5 778.5 L78.5 779.5 L79.5 780.5 L79.5 781.5 L80.5 782.5 L80.5 783.5 L81.5 784.5 L81.5 785.5 L82.5 786.5 L83.5 787.5 L83.5 788.5 L84.5 789.5 L84.5 790.5 L85.5 791.5 L85.5 792.5 L86.5 793.5 L86.5 794.5 L87.5 795.5 L87.5 796.5 L88.5 797.5 L89.5 798.5 L89.5 799.5 L90.5 800.5 L91.5 801.5 L91.5 802.5 L92.5 803.5 L93.5 804.5 L93.5 805.5 L94.5 806.5 L94.5 808.5 L95.5 809.5 L95.5 810.5 L96.5 811.5 L96.5 812.5 L97.5 813.5 L97.5 814.5 L98.5 815.5 L98.5 817.5 L99.5 818.5 L99.5 822.5 L98.5 823.5 L98.5 824.5 L99.5 825.5 L100.5 826.5 L100.5 830.5 L101.5 831.5 L101.5 833.5 L100.5 834.5 L100.5 840.5 L101.5 841.5 L102.5 842.5 L103.5 842.5 L104.5 843.5 L105.5 843.5 L106.5 844.5 L107.5 845.5 L108.5 846.5 L109.5 847.5 L110.5 847.5 L111.5 848.5 L112.5 849.5 L113.5 850.5 L114.5 851.5 L114.5 852.5 L115.5 853.5 L116.5 854.5 L117.5 855.5 L117.5 856.5 L118.5 857.5 L119.5 858.5 L119.5 859.5 L120.5 860.5 L120.5 861.5 L121.5 862.5 L122.5 863.5 L122.5 864.5 L123.5 865.5 L124.5 866.5 L125.5 867.5 L126.5 867.5 L127.5 868.5 L128.5 869.5 L128.5 870.5 L129.5 871.5 L131.5 871.5 L132.5 870.5 L138.5 870.5 L139.5 869.5 L146.5 869.5 L147.5 868.5 L169.5 868.5 L170.5 869.5 L175.5 869.5 L176.5 870.5 L179.5 870.5 L180.5 871.5 L183.5 871.5 L184.5 872.5 L186.5 872.5 L187.5 873.5 L189.5 873.5 L190.5 874.5 L195.5 874.5 L196.5 875.5 L198.5 875.5 L199.5 876.5 L201.5 876.5 L202.5 877.5 L203.5 877.5 L204.5 878.5 L206.5 878.5 L207.5 879.5 L208.5 880.5 L209.5 880.5 L210.5 881.5 L211.5 881.5 L212.5 882.5 L213.5 883.5 L214.5 883.5 L215.5 884.5 L217.5 884.5 L218.5 885.5 L219.5 885.5 L220.5 886.5 L221.5 886.5 L222.5 887.5 L223.5 887.5 L224.5 888.5 L225.5 888.5 L226.5 889.5 L227.5 890.5 L228.5 890.5 L229.5 891.5 L230.5 891.5 L231.5 892.5 L232.5 892.5 L233.5 893.5 L234.5 893.5 L235.5 894.5 L236.5 894.5 L237.5 895.5 L238.5 895.5 L239.5 896.5 L240.5 896.5 L241.5 897.5 L243.5 897.5 L244.5 898.5 L245.5 898.5 L246.5 899.5 L247.5 899.5 L248.5 900.5 L249.5 900.5 L250.5 901.5 L252.5 901.5 L253.5 902.5 L254.5 902.5 L255.5 903.5 L256.5 903.5 L257.5 904.5 L258.5 904.5 L259.5 905.5 L260.5 905.5 L261.5 906.5 L262.5 907.5 L263.5 907.5 L264.5 908.5 L265.5 909.5 L266.5 910.5 L267.5 911.5 L268.5 912.5 L269.5 912.5 L270.5 913.5 L271.5 914.5 L272.5 915.5 L273.5 916.5 L274.5 917.5 L275.5 918.5 L275.5 919.5 L276.5 920.5 L277.5 921.5 L277.5 922.5 L278.5 923.5 L279.5 924.5 L280.5 925.5 L282.5 925.5 L283.5 926.5 L288.5 926.5 L289.5 927.5 L291.5 927.5 L292.5 928.5 L293.5 929.5 L295.5 929.5 L296.5 930.5 L297.5 930.5 L298.5 931.5 L300.5 931.5 L301.5 932.5 L302.5 932.5 L303.5 933.5 L304.5 933.5 L305.5 934.5 L306.5 934.5 L307.5 935.5 L308.5 935.5 L309.5 936.5 L310.5 937.5 L311.5 938.5 L312.5 939.5 L313.5 939.5 L314.5 940.5 L315.5 940.5 L316.5 941.5 L317.5 942.5 L318.5 943.5 L319.5 944.5 L320.5 945.5 L321.5 946.5 L322.5 947.5 L323.5 948.5 L323.5 949.5 L324.5 950.5 L324.5 951.5 L325.5 952.5 L326.5 952.5 L327.5 953.5 L330.5 953.5 L331.5 954.5 L333.5 954.5 L334.5 953.5 L335.5 953.5 L336.5 954.5 L337.5 953.5 L338.5 952.5 L339.5 952.5 L340.5 951.5 L341.5 951.5 L341.5 949.5 L342.5 948.5 L343.5 948.5 L344.5 947.5 L345.5 946.5 L346.5 946.5 L346.5 945.5 L347.5 944.5 L348.5 944.5 L349.5 943.5 L349.5 941.5 L350.5 940.5 L351.5 939.5 L351.5 937.5 L352.5 936.5 L352.5 935.5 L353.5 934.5 L358.5 934.5 L358.5 933.5 L359.5 932.5 L361.5 932.5 L362.5 931.5 L363.5 930.5 L364.5 930.5 L365.5 929.5 L373.5 929.5 L374.5 928.5 L376.5 928.5 L377.5 927.5 L380.5 927.5 L381.5 926.5 L382.5 926.5 L383.5 925.5 L384.5 925.5 L385.5 924.5 L386.5 924.5 L387.5 923.5 L388.5 923.5 L389.5 922.5 L390.5 921.5 L392.5 921.5 L393.5 920.5 L394.5 920.5 L395.5 919.5 L396.5 919.5 L397.5 918.5 L399.5 918.5 L400.5 917.5 L403.5 917.5 L404.5 916.5 L412.5 916.5 L413.5 917.5 L414.5 916.5 L415.5 917.5 L416.5 917.5 L417.5 918.5 L418.5 919.5 L422.5 919.5 L423.5 920.5 L424.5 920.5 L425.5 919.5 L429.5 919.5 L430.5 920.5 L431.5 919.5 L433.5 919.5 L434.5 920.5 L439.5 920.5 L440.5 921.5 L446.5 921.5 L447.5 922.5 L451.5 922.5 L452.5 923.5 L453.5 923.5 L454.5 924.5 L456.5 924.5 L457.5 925.5 L460.5 925.5 L461.5 924.5 L462.5 924.5 L463.5 923.5 L464.5 923.5 L465.5 922.5 L468.5 922.5 L469.5 923.5 L471.5 923.5 L471.5 922.5 L472.5 921.5 L473.5 921.5 L474.5 920.5 L475.5 920.5 L476.5 919.5 L477.5 919.5 L478.5 920.5 L479.5 921.5 L481.5 921.5 L482.5 920.5 L483.5 919.5 L484.5 918.5 L485.5 917.5 L486.5 916.5 L488.5 916.5 L489.5 915.5 L490.5 914.5 L491.5 914.5 L492.5 913.5 L494.5 913.5 L495.5 912.5 L497.5 912.5 L498.5 913.5 L498.5 914.5 L499.5 914.5 L500.5 913.5 L501.5 912.5 L502.5 912.5 L503.5 911.5 L504.5 912.5 L505.5 911.5 L506.5 911.5 L507.5 910.5 L508.5 910.5 L508.5 909.5 L509.5 908.5 L513.5 908.5 L514.5 907.5 L516.5 907.5 L517.5 906.5 L520.5 906.5 L521.5 905.5 L522.5 904.5 L523.5 904.5 L524.5 903.5 L526.5 903.5 L527.5 902.5 L531.5 902.5 L532.5 903.5 L533.5 903.5 L534.5 904.5 L540.5 904.5 L541.5 903.5 L542.5 902.5 L543.5 903.5 L544.5 903.5 L545.5 904.5 L546.5 904.5 L547.5 905.5 L548.5 905.5 L549.5 906.5 L550.5 906.5 L551.5 907.5 L553.5 907.5 L554.5 908.5 L555.5 908.5 L556.5 909.5 L558.5 909.5 L559.5 908.5 L560.5 907.5 L561.5 908.5 L563.5 908.5 L564.5 909.5 L565.5 910.5 L568.5 910.5 L569.5 911.5 L581.5 911.5 L582.5 912.5 L584.5 912.5 L585.5 911.5 L588.5 911.5 L588.5 910.5 L589.5 909.5 L590.5 908.5 L591.5 907.5 L592.5 906.5 L595.5 906.5 L596.5 907.5 L598.5 907.5 L599.5 906.5 L606.5 906.5 L607.5 907.5 L611.5 907.5 L612.5 906.5 L614.5 906.5 L615.5 907.5 L617.5 907.5 L618.5 908.5 L620.5 908.5 L621.5 909.5 L623.5 909.5 L624.5 910.5 L625.5 910.5 L626.5 911.5 L626.5 912.5 L628.5 912.5 L629.5 913.5 L631.5 913.5 L632.5 914.5 L634.5 914.5 L635.5 915.5 L636.5 915.5 L637.5 916.5 L639.5 916.5 L640.5 917.5 L641.5 917.5 L642.5 918.5 L643.5 918.5 L644.5 919.5 L645.5 919.5 L646.5 920.5 L648.5 920.5 L649.5 921.5 L650.5 922.5 L654.5 922.5 L655.5 923.5 L659.5 923.5 L660.5 924.5 L661.5 924.5 L662.5 925.5 L663.5 926.5 L664.5 926.5 L665.5 927.5 L670.5 927.5 L671.5 928.5 L672.5 928.5 L673.5 929.5 L675.5 929.5 L676.5 930.5 L677.5 930.5 L678.5 931.5 L681.5 931.5 L682.5 932.5 L683.5 932.5 L684.5 933.5 L684.5 934.5 L686.5 934.5 L687.5 935.5 L688.5 935.5 L689.5 936.5 L691.5 936.5 L692.5 935.5 L693.5 934.5 L694.5 933.5 L698.5 933.5 L699.5 934.5 L700.5 935.5 L701.5 936.5 L702.5 935.5 L702.5 934.5 L703.5 933.5 L704.5 932.5 L705.5 931.5 L706.5 931.5 L707.5 932.5 L708.5 932.5 L708.5 930.5 L709.5 929.5 L710.5 929.5 L711.5 928.5 L712.5 928.5 L713.5 927.5 L714.5 927.5 L715.5 926.5 L716.5 926.5 L717.5 925.5 L718.5 925.5 L719.5 924.5 L720.5 924.5 L721.5 923.5 L722.5 923.5 L723.5 922.5 L724.5 922.5 L725.5 921.5 L726.5 920.5 L727.5 920.5 L728.5 919.5 L729.5 919.5 L730.5 918.5 L732.5 918.5 L733.5 917.5 L735.5 917.5 L736.5 916.5 L737.5 916.5 L738.5 915.5 L740.5 915.5 L741.5 914.5 L743.5 914.5 L744.5 913.5 L745.5 913.5 L746.5 912.5 L747.5 911.5 L748.5 911.5 L749.5 910.5 L750.5 910.5 L751.5 909.5 L753.5 909.5 L754.5 908.5 L756.5 908.5 L757.5 907.5 L758.5 906.5 L759.5 906.5 L760.5 905.5 L761.5 904.5 L762.5 904.5 L763.5 903.5 L764.5 903.5 L765.5 902.5 L766.5 901.5 L767.5 901.5 L768.5 900.5 L769.5 899.5 L770.5 899.5 L771.5 898.5 L772.5 897.5 L773.5 897.5 L774.5 896.5 L775.5 896.5 L776.5 895.5 L777.5 895.5 L778.5 894.5 L780.5 894.5 L781.5 893.5 L783.5 893.5 L784.5 892.5 L788.5 892.5 L789.5 891.5 L791.5 891.5 L792.5 890.5 L794.5 890.5 L795.5 889.5 L797.5 889.5 L798.5 888.5 L800.5 888.5 L801.5 887.5 L803.5 887.5 L804.5 886.5 L806.5 886.5 L807.5 885.5 L809.5 885.5 L810.5 884.5 L812.5 884.5 L813.5 883.5 L817.5 883.5 L818.5 882.5 L824.5 882.5 L825.5 881.5 L829.5 881.5 L830.5 880.5 L834.5 880.5 L835.5 879.5 L839.5 879.5 L840.5 878.5 L844.5 878.5 L845.5 877.5 L854.5 877.5 L855.5 876.5 L858.5 876.5 L859.5 875.5 L864.5 875.5 L865.5 874.5 L868.5 874.5 L869.5 873.5 L870.5 872.5 L871.5 872.5 L872.5 871.5 L873.5 870.5 L874.5 870.5 L875.5 869.5 L876.5 868.5 L877.5 868.5 L878.5 867.5 L879.5 867.5 L880.5 866.5 L881.5 866.5 L882.5 865.5 L886.5 865.5 L887.5 864.5 L889.5 864.5 L890.5 865.5 L895.5 865.5 L896.5 866.5 L897.5 866.5 L898.5 867.5 L899.5 867.5 L900.5 868.5 L901.5 869.5 L902.5 869.5 L903.5 870.5 L904.5 871.5 L905.5 872.5 L906.5 872.5 L907.5 873.5 L913.5 873.5 L913.5 872.5 L912.5 871.5 L912.5 869.5 L911.5 868.5 L911.5 865.5 L910.5 864.5 L910.5 862.5 L909.5 861.5 L909.5 859.5 L910.5 858.5 L910.5 854.5 L909.5 853.5 L909.5 847.5 L908.5 846.5 L908.5 820.5 L907.5 819.5 L907.5 816.5 L906.5 815.5 L906.5 813.5 L905.5 812.5 L905.5 809.5 L904.5 808.5 L904.5 803.5 L903.5 802.5 L903.5 785.5 L904.5 784.5 L904.5 779.5 L905.5 778.5 L905.5 776.5 L906.5 775.5 L906.5 773.5 L907.5 772.5 L907.5 770.5 L908.5 769.5 L908.5 768.5 L909.5 767.5 L909.5 766.5 L910.5 765.5 L910.5 764.5 L911.5 763.5 L911.5 762.5 L912.5 761.5 L913.5 760.5 L913.5 759.5 L914.5 758.5 L915.5 757.5 L915.5 756.5 L916.5 755.5 L916.5 754.5 L917.5 753.5 L917.5 752.5 L918.5 751.5 L919.5 750.5 L919.5 748.5 L920.5 747.5 L921.5 748.5 L921.5 745.5 L922.5 744.5 L922.5 741.5 L923.5 740.5 L923.5 739.5 L924.5 738.5 L924.5 737.5 L925.5 736.5 L925.5 735.5 L926.5 734.5 L926.5 732.5 L927.5 731.5 L927.5 727.5 L928.5 726.5 L928.5 725.5 L929.5 724.5 L929.5 723.5 L930.5 722.5 L930.5 721.5 L931.5 720.5 L931.5 719.5 L932.5 718.5 L932.5 716.5 L933.5 715.5 L933.5 713.5 L934.5 712.5 L934.5 711.5 L935.5 710.5 L936.5 709.5 L936.5 708.5 L937.5 707.5 L937.5 706.5 L938.5 705.5 L939.5 704.5 L939.5 703.5 L940.5 702.5 L940.5 700.5 L941.5 699.5 L941.5 697.5 L942.5 696.5 L942.5 693.5 L943.5 692.5 L943.5 689.5 L944.5 688.5 L943.5 687.5 L942.5 686.5 L942.5 685.5 L941.5 684.5 L941.5 668.5 L942.5 667.5 L942.5 665.5 L941.5 664.5 L940.5 663.5 L939.5 662.5 L938.5 661.5 L937.5 660.5 L937.5 659.5 L936.5 658.5 L935.5 657.5 L934.5 656.5 L933.5 655.5 L931.5 655.5 L930.5 654.5 L929.5 653.5 L928.5 652.5 L927.5 651.5 L926.5 650.5 L925.5 649.5 L925.5 648.5 L924.5 647.5 L923.5 646.5 L923.5 644.5 L922.5 643.5 L922.5 639.5 L921.5 638.5 L921.5 637.5 L922.5 636.5 L922.5 631.5 L923.5 630.5 L923.5 629.5 L924.5 628.5 L925.5 627.5 L925.5 626.5 L926.5 625.5 L927.5 624.5 L928.5 623.5 L929.5 622.5 L930.5 622.5 L931.5 621.5 L932.5 620.5 L933.5 620.5 L934.5 619.5 L935.5 619.5 L936.5 618.5 L937.5 618.5 L938.5 617.5 L944.5 617.5 L943.5 616.5 L942.5 615.5 L941.5 615.5 L940.5 614.5 L940.5 612.5 L939.5 611.5 L938.5 610.5 L938.5 609.5 L937.5 608.5 L936.5 607.5 L935.5 606.5 L934.5 606.5 L933.5 605.5 L932.5 604.5 L931.5 603.5 L930.5 602.5 L929.5 601.5 L928.5 600.5 L927.5 599.5 L926.5 598.5 L926.5 597.5 L925.5 596.5 L925.5 595.5 L924.5 594.5 L924.5 593.5 L923.5 592.5 L922.5 591.5 L921.5 590.5 L920.5 589.5 L920.5 588.5 L919.5 587.5 L919.5 585.5 L918.5 584.5 L918.5 578.5 L919.5 577.5 L919.5 570.5 L918.5 569.5 L919.5 568.5 L919.5 559.5 L920.5 558.5 L920.5 553.5 L919.5 552.5 L919.5 547.5 L918.5 546.5 L918.5 543.5 L917.5 542.5 L917.5 540.5 L916.5 539.5 L916.5 537.5 L915.5 536.5 L915.5 533.5 L914.5 532.5 L914.5 530.5 L913.5 529.5 L913.5 526.5 L914.5 525.5 L914.5 521.5 L915.5 520.5 L915.5 517.5 L916.5 516.5 L916.5 514.5 L917.5 513.5 L917.5 510.5 L918.5 509.5 L918.5 505.5 L919.5 504.5 L919.5 498.5 L920.5 497.5 L920.5 493.5 L921.5 492.5 L921.5 490.5 L922.5 489.5 L923.5 488.5 L924.5 487.5 L925.5 486.5 L926.5 485.5 L927.5 484.5 L928.5 484.5 L928.5 483.5 L929.5 482.5 L930.5 481.5 L931.5 480.5 L932.5 479.5 L933.5 478.5 L933.5 476.5 L934.5 475.5 L934.5 471.5 L935.5 470.5 L935.5 460.5 L934.5 459.5 L934.5 443.5 L935.5 442.5 L935.5 435.5 L936.5 434.5 L936.5 432.5 L937.5 431.5 L937.5 429.5 L938.5 428.5 L938.5 426.5 L939.5 425.5 L939.5 423.5 L940.5 422.5 L940.5 421.5 L939.5 420.5 L939.5 416.5 L938.5 415.5 L938.5 413.5 L937.5 412.5 L937.5 411.5 L936.5 410.5 L936.5 408.5 L935.5 407.5 L935.5 405.5 L934.5 404.5 L934.5 402.5 L933.5 401.5 L933.5 397.5 L932.5 396.5 L932.5 392.5 L931.5 391.5 L931.5 384.5 L930.5 383.5 L930.5 368.5 L931.5 367.5 L931.5 351.5 L930.5 350.5 L930.5 342.5 L931.5 341.5 L932.5 340.5 L933.5 339.5 L934.5 339.5 L935.5 338.5 L936.5 337.5 L937.5 337.5 L938.5 336.5 L939.5 336.5 L940.5 335.5 L941.5 334.5 L942.5 334.5 L943.5 333.5 L944.5 332.5 L945.5 331.5 L945.5 330.5 L946.5 329.5 L946.5 328.5 L947.5 327.5 L947.5 326.5 L948.5 325.5 L948.5 323.5 L949.5 322.5 L949.5 312.5 L948.5 311.5 L948.5 309.5 L947.5 308.5 L947.5 307.5 L946.5 306.5 L946.5 305.5 L945.5 304.5 L945.5 303.5 L944.5 302.5 L944.5 301.5 L943.5 300.5 L942.5 299.5 L942.5 298.5 L941.5 297.5 L941.5 296.5 L940.5 295.5 L940.5 294.5 L939.5 293.5 L938.5 292.5 L938.5 291.5 L937.5 290.5 L936.5 289.5 L936.5 288.5 L935.5 287.5 L934.5 286.5 L933.5 285.5 L932.5 284.5 L931.5 283.5 L930.5 282.5 L929.5 282.5 L928.5 281.5 L927.5 280.5 L926.5 279.5 L925.5 278.5 L924.5 277.5 L923.5 276.5 L922.5 275.5 L921.5 274.5 L921.5 273.5 L920.5 272.5 L919.5 271.5 L919.5 269.5 L918.5 268.5 L918.5 265.5 L917.5 264.5 L917.5 254.5 L916.5 253.5 L916.5 231.5 L917.5 230.5 L917.5 228.5 L916.5 227.5 L916.5 224.5 L915.5 223.5 L916.5 222.5 L916.5 221.5 L917.5 220.5 L917.5 219.5 L918.5 218.5 L918.5 217.5 L919.5 216.5 L919.5 214.5 L920.5 213.5 L920.5 210.5 L921.5 209.5 L921.5 208.5 L922.5 207.5 L923.5 206.5 L924.5 205.5 L925.5 204.5 L925.5 200.5 L926.5 199.5 L927.5 198.5 L927.5 197.5 L928.5 196.5 L928.5 194.5 L929.5 193.5 L929.5 192.5 L930.5 191.5 L930.5 189.5 L931.5 188.5 L931.5 181.5 L932.5 180.5 L932.5 178.5 L933.5 177.5 L934.5 176.5 L935.5 175.5 L935.5 174.5 L936.5 173.5 L936.5 172.5 L937.5 171.5 L937.5 170.5 L938.5 169.5 L939.5 168.5 L940.5 167.5 L941.5 166.5 L941.5 164.5 L942.5 163.5 L943.5 162.5 L943.5 153.5 L944.5 152.5 L944.5 149.5 L943.5 148.5 L943.5 146.5 L942.5 145.5 L942.5 144.5 L941.5 143.5 L941.5 141.5 L940.5 140.5 L940.5 139.5 L939.5 138.5 L939.5 137.5 L938.5 136.5 L938.5 135.5 L937.5 134.5 L937.5 133.5 L936.5 132.5 L935.5 131.5 L935.5 130.5 L934.5 129.5 L933.5 128.5 L932.5 127.5 L932.5 126.5 L931.5 125.5 L930.5 124.5 L929.5 123.5 L928.5 122.5 L927.5 121.5 L926.5 120.5 L925.5 119.5 L924.5 118.5 L923.5 117.5 L922.5 116.5 L921.5 115.5 L920.5 114.5 L919.5 113.5 L918.5 112.5 L917.5 112.5 L916.5 111.5 L915.5 110.5 L914.5 109.5 L913.5 108.5 L912.5 107.5 L911.5 106.5 L910.5 105.5 L909.5 104.5 L908.5 103.5 L907.5 102.5 L906.5 101.5 L905.5 100.5 L904.5 99.5 L903.5 98.5 L903.5 97.5 L902.5 96.5 L901.5 95.5 L900.5 94.5 L899.5 93.5 L898.5 92.5 L897.5 91.5 L896.5 90.5 L895.5 89.5 L894.5 89.5 L893.5 88.5 L892.5 88.5 L891.5 87.5 L890.5 86.5 L889.5 85.5 L888.5 85.5 L887.5 84.5 L885.5 84.5 L884.5 83.5 L881.5 83.5 L880.5 82.5 L877.5 82.5 L876.5 81.5 L872.5 81.5 L871.5 80.5 L869.5 80.5 L868.5 79.5 L866.5 79.5 L865.5 78.5 L863.5 78.5 L862.5 77.5 L860.5 77.5 L859.5 76.5 L858.5 76.5 L857.5 75.5 L854.5 75.5 L853.5 74.5 L851.5 74.5 L850.5 73.5 L849.5 73.5 L848.5 72.5 L846.5 72.5 L845.5 71.5 L844.5 71.5 L843.5 70.5 L842.5 70.5 L841.5 69.5 L840.5 68.5 L839.5 67.5 L838.5 67.5 L837.5 66.5 L836.5 65.5 L835.5 65.5 L834.5 64.5 L834.5 63.5 L833.5 62.5 L833.5 61.5 L832.5 60.5 L832.5 59.5 L831.5 58.5 L830.5 58.5 L829.5 57.5 L828.5 57.5 L827.5 56.5 L826.5 56.5 L825.5 55.5 L824.5 54.5 L823.5 54.5 L822.5 53.5 L821.5 52.5 L820.5 51.5 L819.5 50.5 L817.5 50.5 L816.5 49.5 L815.5 49.5 L814.5 48.5 L813.5 47.5 L811.5 47.5 L810.5 48.5 L804.5 48.5 L803.5 47.5 L791.5 47.5 L790.5 48.5 L771.5 48.5 L770.5 47.5 L765.5 47.5 L764.5 48.5 L761.5 48.5 L760.5 47.5 L752.5 47.5 L751.5 46.5 L746.5 46.5 L745.5 45.5 L743.5 45.5 L742.5 44.5 L737.5 44.5 L736.5 43.5 L735.5 42.5 L733.5 42.5 L732.5 41.5 L729.5 41.5 L728.5 42.5 L727.5 43.5 L725.5 43.5 L724.5 44.5 L723.5 44.5 L722.5 45.5 L721.5 46.5 L720.5 47.5 L720.5 50.5 L719.5 51.5 L719.5 52.5 L718.5 53.5 L717.5 54.5 L715.5 54.5 L714.5 53.5 L713.5 52.5 L710.5 52.5 L709.5 51.5 L702.5 51.5 L701.5 50.5 L700.5 50.5 L699.5 49.5 L698.5 49.5 L697.5 50.5 L696.5 50.5 L695.5 51.5 L694.5 52.5 L694.5 53.5 L693.5 54.5 L692.5 55.5 L692.5 57.5 L691.5 58.5 L691.5 61.5 L690.5 62.5 L690.5 64.5 L689.5 65.5 L689.5 66.5 L688.5 67.5 L687.5 68.5 L686.5 68.5 L685.5 69.5 L684.5 69.5 L683.5 70.5 L682.5 71.5 L681.5 72.5 L680.5 73.5 L679.5 74.5 L665.5 74.5 L664.5 73.5 L663.5 72.5 L662.5 72.5 L661.5 73.5 L648.5 73.5 L647.5 74.5 L639.5 74.5 L638.5 75.5 L637.5 75.5 L636.5 76.5 L635.5 77.5 L634.5 78.5 L633.5 78.5 L632.5 79.5 L631.5 79.5 L630.5 80.5 L629.5 80.5 L628.5 81.5 L627.5 81.5 L626.5 80.5 L622.5 80.5 L621.5 79.5 L609.5 79.5 L608.5 78.5 L601.5 78.5 L600.5 77.5 L595.5 77.5 L594.5 76.5 L581.5 76.5 L580.5 75.5 L577.5 75.5 L576.5 74.5 L574.5 74.5 L573.5 73.5 L571.5 73.5 L570.5 72.5 L568.5 72.5 L567.5 71.5 L565.5 71.5 L564.5 70.5 L562.5 70.5 L561.5 69.5 L558.5 69.5 L557.5 68.5 L555.5 68.5 L554.5 67.5 L545.5 67.5 L544.5 68.5 L541.5 68.5 L540.5 69.5 L538.5 69.5 L537.5 70.5 L535.5 70.5 L534.5 71.5 L531.5 71.5 L530.5 72.5 L527.5 72.5 L526.5 73.5 L504.5 73.5 L503.5 74.5 L502.5 74.5 L501.5 75.5 L500.5 76.5 L499.5 76.5 L498.5 77.5 L496.5 77.5 L495.5 76.5 L494.5 75.5 L494.5 73.5 L493.5 72.5 L493.5 69.5 L492.5 68.5 L489.5 68.5 L488.5 69.5 L486.5 69.5 L485.5 68.5 L484.5 67.5 L483.5 67.5 L482.5 66.5 L480.5 66.5 L479.5 65.5 L478.5 65.5 L477.5 64.5 L476.5 64.5 L475.5 63.5 L474.5 63.5 L473.5 62.5 L472.5 61.5 L471.5 61.5 L470.5 62.5 L469.5 62.5 L468.5 63.5 L467.5 64.5 L466.5 64.5 L465.5 65.5 L464.5 65.5 L463.5 66.5 L462.5 66.5 L461.5 67.5 L460.5 67.5 L459.5 68.5 L455.5 68.5 L454.5 67.5 L453.5 67.5 L452.5 66.5 L450.5 66.5 L449.5 65.5 L448.5 64.5 L445.5 64.5 L444.5 65.5 L443.5 65.5 L442.5 66.5 L441.5 65.5 L440.5 65.5 L439.5 64.5 L438.5 63.5 L437.5 63.5 L436.5 62.5 L435.5 61.5 L433.5 61.5 L432.5 60.5 L431.5 59.5 L431.5 58.5 L430.5 57.5 L430.5 56.5 L429.5 55.5 L428.5 54.5 L427.5 53.5 L423.5 53.5 L422.5 54.5 L421.5 55.5 L421.5 56.5 L420.5 57.5 L420.5 59.5 L419.5 60.5 L418.5 60.5 L417.5 59.5 L416.5 58.5 L416.5 57.5 L415.5 57.5 L414.5 56.5 L413.5 56.5 L412.5 55.5 L411.5 55.5 L410.5 54.5 L403.5 54.5 L402.5 55.5 L397.5 55.5 L396.5 54.5 L393.5 54.5 L392.5 53.5 L389.5 53.5 L388.5 52.5 L385.5 52.5 L384.5 53.5 L383.5 53.5 L382.5 54.5 L381.5 55.5 L380.5 55.5 L379.5 56.5 L378.5 57.5 L377.5 58.5 L376.5 59.5 L375.5 60.5 L374.5 61.5 L373.5 62.5 L371.5 62.5 L370.5 63.5 L369.5 63.5 L368.5 64.5 L367.5 64.5 L366.5 65.5 L365.5 64.5 L364.5 64.5 L363.5 63.5 L362.5 63.5 L361.5 62.5 L360.5 61.5 L359.5 61.5 L358.5 62.5 L351.5 62.5 L350.5 61.5 L349.5 61.5 L348.5 60.5 L347.5 59.5 L346.5 58.5 L345.5 58.5 L344.5 57.5 L344.5 56.5 L343.5 55.5 L343.5 54.5 L342.5 53.5 L342.5 51.5 L341.5 50.5 L340.5 49.5 L338.5 49.5 L337.5 50.5 L336.5 50.5 L335.5 51.5 L335.5 53.5 L334.5 54.5 L333.5 54.5 L332.5 55.5 L331.5 56.5 L330.5 57.5 L329.5 58.5 L328.5 59.5 L327.5 60.5 L326.5 60.5 L325.5 61.5 L320.5 61.5 L319.5 60.5 L318.5 59.5 L317.5 58.5 L317.5 57.5 L316.5 56.5 L315.5 55.5 L314.5 55.5 L313.5 54.5 L312.5 53.5 L311.5 52.5 L311.5 50.5 L310.5 49.5 L310.5 44.5 L309.5 43.5 L309.5 40.5 L308.5 39.5 L308.5 35.5 L307.5 34.5 L307.5 33.5 Z M908.5 857.5 L909.5 856.5 L910.5 857.5 L910.5 858.5 L909.5 859.5 L908.5 858.5 Z M527.5 905.5 Z M360.5 935.5 L359.5 936.5 Z M695.5 935.5 L695.5 937.5 L696.5 937.5 L696.5 935.5 Z M866.5 970.5 L865.5 971.5 L849.5 971.5 L865.5 971.5 Z M872.5 970.5 L866.5 970.5 L865.5 971.5 L849.5 971.5 L865.5 971.5 L866.5 970.5 Z M1019.5 993.5 L1018.5 994.5 L1018.5 1002.5 L1017.5 1003.5 L1017.5 1006.5 L1016.5 1007.5 L1016.5 1010.5 L1015.5 1011.5 L1015.5 1014.5 L1014.5 1015.5 L1014.5 1018.5 L1013.5 1019.5 L1013.5 1022.5 L1012.5 1023.5 L1023.5 1023.5 L1023.5 996.5 L1022.5 995.5 L1021.5 994.5 L1020.5 994.5 Z M0.5 1009.5 L0.5 1023.5 L24.5 1023.5 L25.5 1022.5 L24.5 1021.5 L22.5 1021.5 L21.5 1020.5 L20.5 1019.5 L20.5 1018.5 L19.5 1017.5 L18.5 1016.5 L17.5 1016.5 L16.5 1015.5 L15.5 1015.5 L14.5 1016.5 L11.5 1016.5 L10.5 1015.5 L10.5 1014.5 L9.5 1013.5 L6.5 1013.5 L5.5 1012.5 L4.5 1011.5 L3.5 1010.5 L2.5 1009.5 Z"/>
    </clipPath>
  </defs>
  <g id="shape">
    <g clip-path="url(#clip0)">
      <path stroke-width="0" stroke-linejoin="bevel" stroke-miterlimit="10" stroke="#000000" d="M303.5 34.5 L302.5 35.5 L301.5 36.5 L300.5 36.5 L299.5 37.5 L298.5 37.5 L297.5 38.5 L296.5 39.5 L295.5 40.5 L295.5 42.5 L294.5 43.5 L294.5 44.5 L293.5 45.5 L292.5 46.5 L291.5 46.5 L290.5 47.5 L282.5 47.5 L281.5 46.5 L280.5 46.5 L279.5 45.5 L278.5 44.5 L269.5 44.5 L268.5 45.5 L267.5 45.5 L266.5 46.5 L265.5 46.5 L264.5 47.5 L263.5 48.5 L262.5 48.5 L261.5 49.5 L260.5 50.5 L259.5 51.5 L258.5 51.5 L257.5 50.5 L253.5 50.5 L252.5 51.5 L251.5 52.5 L250.5 52.5 L249.5 53.5 L248.5 53.5 L247.5 52.5 L246.5 52.5 L245.5 53.5 L244.5 52.5 L244.5 51.5 L240.5 51.5 L239.5 52.5 L236.5 52.5 L235.5 53.5 L229.5 53.5 L228.5 54.5 L220.5 54.5 L219.5 55.5 L201.5 55.5 L200.5 54.5 L175.5 54.5 L175.5 55.5 L174.5 56.5 L173.5 56.5 L178.5 56.5 L179.5 57.5 L183.5 57.5 L184.5 58.5 L199.5 58.5 L200.5 59.5 L202.5 59.5 L203.5 60.5 L216.5 60.5 L217.5 59.5 L222.5 59.5 L223.5 58.5 L230.5 58.5 L231.5 57.5 L234.5 57.5 L235.5 58.5 L236.5 57.5 L237.5 56.5 L239.5 56.5 L240.5 55.5 L241.5 54.5 L242.5 55.5 L242.5 56.5 L241.5 57.5 L240.5 58.5 L239.5 59.5 L238.5 59.5 L238.5 60.5 L237.5 61.5 L236.5 62.5 L234.5 62.5 L233.5 63.5 L226.5 63.5 L225.5 64.5 L221.5 64.5 L220.5 63.5 L217.5 63.5 L216.5 64.5 L214.5 64.5 L213.5 65.5 L205.5 65.5 L204.5 64.5 L197.5 64.5 L196.5 63.5 L178.5 63.5 L177.5 62.5 L176.5 62.5 L175.5 61.5 L174.5 60.5 L173.5 60.5 L172.5 59.5 L171.5 59.5 L170.5 58.5 L169.5 59.5 L168.5 59.5 L167.5 60.5 L166.5 60.5 L165.5 61.5 L164.5 62.5 L163.5 63.5 L162.5 63.5 L161.5 64.5 L160.5 64.5 L159.5 65.5 L158.5 65.5 L157.5 66.5 L156.5 67.5 L155.5 68.5 L154.5 68.5 L153.5 69.5 L151.5 69.5 L150.5 70.5 L147.5 70.5 L146.5 71.5 L145.5 71.5 L144.5 72.5 L143.5 72.5 L143.5 73.5 L142.5 74.5 L141.5 74.5 L141.5 75.5 L140.5 76.5 L139.5 77.5 L139.5 81.5 L138.5 82.5 L137.5 83.5 L137.5 85.5 L136.5 86.5 L136.5 87.5 L135.5 88.5 L135.5 89.5 L134.5 90.5 L133.5 91.5 L133.5 92.5 L132.5 93.5 L132.5 94.5 L131.5 95.5 L131.5 97.5 L130.5 98.5 L130.5 101.5 L129.5 102.5 L129.5 104.5 L128.5 105.5 L128.5 106.5 L127.5 107.5 L127.5 108.5 L126.5 109.5 L125.5 110.5 L125.5 111.5 L124.5 112.5 L123.5 113.5 L123.5 114.5 L122.5 115.5 L121.5 116.5 L121.5 117.5 L120.5 118.5 L120.5 119.5 L119.5 120.5 L118.5 121.5 L117.5 122.5 L116.5 123.5 L115.5 124.5 L114.5 125.5 L113.5 126.5 L112.5 126.5 L111.5 127.5 L110.5 128.5 L109.5 129.5 L108.5 130.5 L107.5 131.5 L107.5 132.5 L106.5 133.5 L105.5 134.5 L104.5 135.5 L103.5 136.5 L102.5 137.5 L101.5 138.5 L100.5 139.5 L99.5 140.5 L98.5 141.5 L97.5 142.5 L96.5 143.5 L96.5 144.5 L95.5 145.5 L95.5 146.5 L98.5 146.5 L99.5 145.5 L100.5 144.5 L101.5 143.5 L102.5 142.5 L103.5 141.5 L104.5 140.5 L105.5 140.5 L106.5 139.5 L107.5 139.5 L108.5 138.5 L109.5 137.5 L109.5 136.5 L110.5 135.5 L111.5 134.5 L111.5 133.5 L112.5 132.5 L113.5 131.5 L114.5 130.5 L115.5 129.5 L116.5 128.5 L120.5 128.5 L121.5 127.5 L122.5 126.5 L122.5 125.5 L123.5 124.5 L123.5 121.5 L124.5 120.5 L125.5 119.5 L125.5 118.5 L126.5 117.5 L127.5 116.5 L127.5 115.5 L128.5 114.5 L129.5 113.5 L130.5 112.5 L131.5 111.5 L132.5 110.5 L133.5 109.5 L133.5 100.5 L134.5 99.5 L134.5 98.5 L135.5 97.5 L135.5 94.5 L136.5 93.5 L136.5 92.5 L137.5 91.5 L138.5 90.5 L138.5 89.5 L139.5 88.5 L140.5 87.5 L141.5 86.5 L142.5 85.5 L143.5 84.5 L144.5 85.5 L145.5 86.5 L144.5 87.5 L144.5 89.5 L143.5 90.5 L143.5 92.5 L142.5 93.5 L142.5 96.5 L141.5 97.5 L141.5 99.5 L140.5 100.5 L140.5 103.5 L139.5 104.5 L139.5 106.5 L138.5 107.5 L138.5 109.5 L137.5 110.5 L137.5 111.5 L136.5 112.5 L136.5 113.5 L135.5 114.5 L134.5 115.5 L134.5 116.5 L133.5 117.5 L132.5 118.5 L132.5 119.5 L131.5 120.5 L130.5 121.5 L130.5 122.5 L129.5 123.5 L128.5 124.5 L127.5 125.5 L127.5 126.5 L126.5 127.5 L126.5 128.5 L125.5 129.5 L124.5 130.5 L123.5 131.5 L122.5 132.5 L121.5 132.5 L120.5 133.5 L119.5 134.5 L118.5 134.5 L117.5 135.5 L116.5 136.5 L115.5 137.5 L114.5 138.5 L114.5 139.5 L113.5 140.5 L112.5 141.5 L111.5 142.5 L110.5 143.5 L110.5 144.5 L109.5 145.5 L108.5 146.5 L107.5 146.5 L106.5 147.5 L105.5 148.5 L104.5 148.5 L103.5 149.5 L102.5 149.5 L101.5 150.5 L100.5 149.5 L98.5 149.5 L97.5 150.5 L96.5 150.5 L96.5 153.5 L97.5 154.5 L97.5 157.5 L96.5 158.5 L96.5 159.5 L95.5 160.5 L94.5 160.5 L93.5 161.5 L90.5 161.5 L90.5 163.5 L89.5 164.5 L88.5 165.5 L87.5 166.5 L87.5 167.5 L86.5 168.5 L85.5 169.5 L85.5 170.5 L84.5 171.5 L83.5 172.5 L83.5 175.5 L82.5 176.5 L81.5 176.5 L80.5 177.5 L79.5 176.5 L78.5 177.5 L76.5 177.5 L75.5 178.5 L75.5 180.5 L74.5 181.5 L73.5 181.5 L72.5 182.5 L73.5 183.5 L72.5 184.5 L72.5 186.5 L73.5 186.5 L74.5 187.5 L74.5 188.5 L75.5 188.5 L75.5 186.5 L76.5 185.5 L77.5 185.5 L78.5 184.5 L79.5 184.5 L80.5 185.5 L81.5 186.5 L81.5 188.5 L82.5 189.5 L81.5 190.5 L81.5 193.5 L80.5 194.5 L79.5 195.5 L78.5 195.5 L77.5 196.5 L76.5 196.5 L76.5 197.5 L77.5 198.5 L76.5 199.5 L77.5 199.5 L78.5 200.5 L79.5 200.5 L80.5 201.5 L80.5 202.5 L81.5 203.5 L83.5 203.5 L84.5 204.5 L85.5 205.5 L86.5 206.5 L87.5 207.5 L88.5 208.5 L88.5 209.5 L89.5 210.5 L89.5 215.5 L88.5 216.5 L88.5 221.5 L87.5 222.5 L87.5 226.5 L86.5 227.5 L86.5 233.5 L85.5 234.5 L85.5 250.5 L84.5 251.5 L84.5 257.5 L83.5 258.5 L83.5 266.5 L82.5 267.5 L82.5 270.5 L84.5 270.5 L84.5 269.5 L85.5 268.5 L85.5 267.5 L86.5 266.5 L86.5 265.5 L87.5 264.5 L88.5 263.5 L88.5 262.5 L89.5 261.5 L90.5 261.5 L91.5 262.5 L91.5 264.5 L92.5 265.5 L92.5 267.5 L91.5 268.5 L91.5 269.5 L90.5 270.5 L89.5 271.5 L89.5 273.5 L88.5 274.5 L88.5 275.5 L87.5 276.5 L86.5 277.5 L85.5 278.5 L85.5 279.5 L84.5 280.5 L83.5 280.5 L83.5 281.5 L84.5 282.5 L84.5 283.5 L85.5 284.5 L85.5 285.5 L86.5 286.5 L86.5 289.5 L87.5 290.5 L87.5 291.5 L88.5 292.5 L88.5 293.5 L89.5 294.5 L89.5 295.5 L90.5 296.5 L90.5 297.5 L91.5 298.5 L92.5 299.5 L93.5 300.5 L93.5 301.5 L94.5 302.5 L95.5 303.5 L95.5 304.5 L96.5 305.5 L97.5 306.5 L97.5 307.5 L96.5 308.5 L95.5 309.5 L94.5 309.5 L94.5 311.5 L93.5 312.5 L93.5 313.5 L92.5 314.5 L94.5 314.5 L95.5 313.5 L96.5 313.5 L97.5 314.5 L96.5 315.5 L95.5 316.5 L92.5 316.5 L91.5 317.5 L90.5 317.5 L90.5 318.5 L91.5 317.5 L92.5 318.5 L92.5 319.5 L91.5 320.5 L90.5 320.5 L89.5 321.5 L89.5 322.5 L88.5 323.5 L87.5 324.5 L86.5 325.5 L86.5 327.5 L85.5 328.5 L85.5 329.5 L84.5 330.5 L84.5 331.5 L83.5 332.5 L82.5 331.5 L81.5 332.5 L81.5 333.5 L82.5 334.5 L82.5 341.5 L83.5 342.5 L83.5 345.5 L82.5 346.5 L81.5 347.5 L82.5 348.5 L82.5 349.5 L81.5 350.5 L78.5 350.5 L78.5 351.5 L79.5 351.5 L80.5 352.5 L80.5 354.5 L81.5 355.5 L82.5 356.5 L83.5 357.5 L84.5 358.5 L85.5 359.5 L86.5 360.5 L86.5 366.5 L88.5 366.5 L89.5 367.5 L89.5 373.5 L90.5 374.5 L90.5 376.5 L89.5 377.5 L88.5 377.5 L88.5 378.5 L87.5 379.5 L87.5 381.5 L88.5 382.5 L88.5 383.5 L89.5 383.5 L90.5 384.5 L89.5 385.5 L89.5 386.5 L90.5 387.5 L90.5 390.5 L91.5 391.5 L91.5 395.5 L92.5 396.5 L92.5 397.5 L93.5 398.5 L93.5 400.5 L94.5 400.5 L95.5 401.5 L96.5 401.5 L97.5 402.5 L97.5 404.5 L98.5 405.5 L97.5 406.5 L97.5 407.5 L98.5 408.5 L99.5 409.5 L99.5 414.5 L100.5 414.5 L101.5 413.5 L102.5 414.5 L102.5 415.5 L101.5 416.5 L100.5 417.5 L99.5 417.5 L98.5 418.5 L98.5 419.5 L97.5 420.5 L97.5 425.5 L96.5 426.5 L96.5 433.5 L97.5 434.5 L97.5 440.5 L98.5 441.5 L99.5 442.5 L100.5 443.5 L101.5 444.5 L102.5 445.5 L103.5 446.5 L104.5 446.5 L105.5 447.5 L106.5 448.5 L107.5 449.5 L107.5 451.5 L106.5 452.5 L105.5 452.5 L104.5 451.5 L103.5 450.5 L103.5 449.5 L102.5 448.5 L100.5 448.5 L100.5 449.5 L101.5 450.5 L101.5 457.5 L102.5 458.5 L102.5 461.5 L103.5 462.5 L103.5 463.5 L104.5 464.5 L104.5 468.5 L105.5 469.5 L105.5 476.5 L106.5 477.5 L106.5 480.5 L107.5 481.5 L107.5 484.5 L108.5 485.5 L108.5 489.5 L109.5 490.5 L109.5 502.5 L108.5 503.5 L108.5 522.5 L109.5 523.5 L110.5 523.5 L110.5 522.5 L111.5 521.5 L111.5 518.5 L110.5 517.5 L110.5 516.5 L111.5 515.5 L111.5 513.5 L112.5 512.5 L112.5 511.5 L113.5 510.5 L114.5 509.5 L115.5 510.5 L115.5 511.5 L116.5 512.5 L116.5 522.5 L115.5 523.5 L115.5 524.5 L114.5 525.5 L113.5 526.5 L113.5 527.5 L112.5 528.5 L111.5 529.5 L110.5 530.5 L109.5 531.5 L108.5 532.5 L108.5 536.5 L107.5 537.5 L107.5 538.5 L106.5 539.5 L106.5 540.5 L105.5 541.5 L104.5 542.5 L104.5 544.5 L103.5 545.5 L103.5 546.5 L102.5 547.5 L102.5 557.5 L101.5 558.5 L101.5 562.5 L100.5 563.5 L100.5 564.5 L99.5 565.5 L98.5 566.5 L97.5 567.5 L96.5 568.5 L95.5 569.5 L94.5 569.5 L93.5 570.5 L92.5 571.5 L92.5 572.5 L91.5 573.5 L91.5 574.5 L90.5 575.5 L89.5 576.5 L89.5 578.5 L88.5 579.5 L88.5 582.5 L87.5 583.5 L87.5 587.5 L86.5 588.5 L86.5 592.5 L85.5 593.5 L85.5 598.5 L84.5 599.5 L84.5 605.5 L85.5 606.5 L85.5 610.5 L86.5 611.5 L86.5 614.5 L87.5 615.5 L87.5 618.5 L88.5 619.5 L88.5 622.5 L90.5 622.5 L91.5 623.5 L91.5 627.5 L92.5 628.5 L92.5 629.5 L93.5 630.5 L94.5 631.5 L94.5 632.5 L95.5 633.5 L95.5 635.5 L96.5 635.5 L97.5 636.5 L98.5 637.5 L98.5 641.5 L99.5 642.5 L99.5 644.5 L98.5 645.5 L97.5 645.5 L97.5 652.5 L96.5 653.5 L96.5 655.5 L95.5 656.5 L94.5 657.5 L94.5 660.5 L93.5 661.5 L93.5 662.5 L92.5 663.5 L92.5 665.5 L91.5 666.5 L91.5 668.5 L90.5 669.5 L90.5 671.5 L89.5 672.5 L89.5 675.5 L88.5 676.5 L88.5 682.5 L87.5 683.5 L87.5 692.5 L86.5 693.5 L86.5 697.5 L85.5 698.5 L85.5 702.5 L84.5 703.5 L84.5 706.5 L83.5 707.5 L83.5 711.5 L82.5 712.5 L82.5 716.5 L81.5 717.5 L81.5 720.5 L80.5 721.5 L79.5 722.5 L78.5 723.5 L77.5 724.5 L76.5 725.5 L75.5 726.5 L74.5 727.5 L73.5 728.5 L72.5 729.5 L71.5 730.5 L70.5 731.5 L69.5 732.5 L69.5 736.5 L69.5 735.5 L70.5 734.5 L71.5 733.5 L72.5 733.5 L73.5 732.5 L74.5 731.5 L74.5 730.5 L75.5 729.5 L78.5 729.5 L79.5 730.5 L78.5 731.5 L77.5 731.5 L76.5 732.5 L75.5 733.5 L75.5 734.5 L74.5 735.5 L73.5 735.5 L73.5 736.5 L72.5 737.5 L72.5 738.5 L71.5 739.5 L70.5 738.5 L69.5 738.5 L69.5 739.5 L68.5 740.5 L66.5 740.5 L66.5 743.5 L67.5 744.5 L67.5 748.5 L68.5 749.5 L68.5 752.5 L69.5 753.5 L69.5 754.5 L70.5 755.5 L70.5 759.5 L72.5 759.5 L73.5 760.5 L73.5 765.5 L74.5 766.5 L74.5 770.5 L75.5 771.5 L75.5 776.5 L76.5 777.5 L76.5 778.5 L78.5 778.5 L79.5 779.5 L78.5 780.5 L76.5 780.5 L76.5 782.5 L77.5 783.5 L77.5 786.5 L78.5 787.5 L78.5 788.5 L79.5 789.5 L79.5 790.5 L80.5 791.5 L80.5 792.5 L81.5 793.5 L81.5 794.5 L82.5 795.5 L82.5 796.5 L83.5 797.5 L84.5 798.5 L84.5 799.5 L85.5 800.5 L85.5 801.5 L86.5 802.5 L87.5 803.5 L87.5 804.5 L88.5 805.5 L89.5 806.5 L89.5 807.5 L90.5 808.5 L90.5 810.5 L91.5 811.5 L91.5 812.5 L92.5 813.5 L92.5 814.5 L93.5 815.5 L93.5 818.5 L94.5 819.5 L94.5 825.5 L95.5 826.5 L95.5 830.5 L96.5 831.5 L96.5 837.5 L98.5 837.5 L98.5 832.5 L99.5 831.5 L100.5 830.5 L101.5 830.5 L102.5 831.5 L103.5 832.5 L103.5 833.5 L104.5 834.5 L104.5 836.5 L105.5 837.5 L105.5 838.5 L106.5 839.5 L107.5 840.5 L109.5 840.5 L110.5 841.5 L111.5 842.5 L112.5 843.5 L113.5 844.5 L114.5 845.5 L115.5 846.5 L115.5 847.5 L116.5 848.5 L116.5 849.5 L117.5 850.5 L117.5 851.5 L116.5 852.5 L115.5 853.5 L114.5 853.5 L113.5 852.5 L112.5 851.5 L111.5 850.5 L110.5 849.5 L109.5 848.5 L108.5 847.5 L107.5 846.5 L106.5 846.5 L105.5 845.5 L104.5 844.5 L103.5 844.5 L102.5 843.5 L101.5 843.5 L100.5 842.5 L99.5 843.5 L100.5 844.5 L100.5 845.5 L101.5 846.5 L102.5 847.5 L102.5 848.5 L103.5 849.5 L104.5 850.5 L105.5 851.5 L106.5 852.5 L107.5 852.5 L108.5 853.5 L109.5 854.5 L110.5 855.5 L110.5 856.5 L111.5 857.5 L112.5 858.5 L113.5 859.5 L114.5 860.5 L114.5 861.5 L115.5 862.5 L116.5 863.5 L117.5 864.5 L118.5 865.5 L118.5 866.5 L119.5 867.5 L120.5 868.5 L121.5 869.5 L122.5 870.5 L123.5 871.5 L124.5 872.5 L125.5 872.5 L126.5 873.5 L127.5 873.5 L128.5 874.5 L129.5 874.5 L130.5 875.5 L146.5 875.5 L147.5 874.5 L167.5 874.5 L168.5 875.5 L174.5 875.5 L175.5 876.5 L179.5 876.5 L180.5 877.5 L182.5 877.5 L183.5 878.5 L186.5 878.5 L187.5 879.5 L190.5 879.5 L191.5 880.5 L194.5 880.5 L195.5 881.5 L197.5 881.5 L198.5 882.5 L200.5 882.5 L201.5 883.5 L202.5 883.5 L203.5 884.5 L204.5 884.5 L205.5 885.5 L206.5 885.5 L207.5 886.5 L208.5 886.5 L209.5 887.5 L210.5 888.5 L211.5 888.5 L212.5 889.5 L213.5 889.5 L214.5 890.5 L215.5 890.5 L216.5 891.5 L217.5 891.5 L218.5 892.5 L219.5 892.5 L220.5 893.5 L221.5 893.5 L222.5 894.5 L223.5 894.5 L224.5 895.5 L225.5 895.5 L226.5 896.5 L227.5 896.5 L228.5 897.5 L229.5 897.5 L230.5 898.5 L231.5 898.5 L232.5 899.5 L233.5 899.5 L234.5 900.5 L235.5 900.5 L236.5 901.5 L237.5 901.5 L238.5 902.5 L239.5 902.5 L240.5 903.5 L241.5 903.5 L242.5 904.5 L243.5 904.5 L244.5 905.5 L246.5 905.5 L247.5 906.5 L248.5 906.5 L249.5 907.5 L250.5 907.5 L251.5 908.5 L252.5 908.5 L253.5 909.5 L254.5 909.5 L255.5 910.5 L256.5 910.5 L257.5 911.5 L258.5 911.5 L259.5 912.5 L260.5 913.5 L261.5 914.5 L262.5 914.5 L263.5 915.5 L264.5 916.5 L265.5 917.5 L266.5 918.5 L267.5 919.5 L268.5 920.5 L269.5 921.5 L270.5 922.5 L271.5 923.5 L272.5 924.5 L273.5 925.5 L274.5 926.5 L275.5 927.5 L276.5 927.5 L277.5 928.5 L278.5 929.5 L279.5 929.5 L280.5 930.5 L282.5 930.5 L283.5 931.5 L287.5 931.5 L288.5 932.5 L291.5 932.5 L292.5 933.5 L296.5 933.5 L296.5 930.5 L295.5 929.5 L296.5 928.5 L297.5 927.5 L298.5 928.5 L299.5 928.5 L300.5 929.5 L301.5 930.5 L300.5 931.5 L299.5 932.5 L300.5 932.5 L301.5 933.5 L302.5 934.5 L303.5 935.5 L304.5 936.5 L305.5 936.5 L306.5 937.5 L307.5 938.5 L308.5 939.5 L309.5 940.5 L310.5 941.5 L311.5 942.5 L312.5 943.5 L313.5 943.5 L314.5 944.5 L315.5 945.5 L316.5 946.5 L317.5 947.5 L318.5 948.5 L319.5 949.5 L319.5 950.5 L320.5 951.5 L321.5 952.5 L322.5 953.5 L323.5 954.5 L324.5 954.5 L325.5 955.5 L326.5 955.5 L327.5 956.5 L328.5 956.5 L329.5 957.5 L330.5 958.5 L342.5 958.5 L343.5 957.5 L345.5 957.5 L346.5 956.5 L347.5 956.5 L348.5 955.5 L349.5 954.5 L349.5 953.5 L350.5 952.5 L351.5 951.5 L352.5 950.5 L352.5 949.5 L353.5 948.5 L353.5 947.5 L354.5 946.5 L355.5 945.5 L355.5 944.5 L356.5 943.5 L357.5 942.5 L358.5 941.5 L359.5 940.5 L360.5 940.5 L361.5 939.5 L362.5 938.5 L363.5 937.5 L364.5 936.5 L365.5 935.5 L365.5 934.5 L366.5 933.5 L367.5 932.5 L368.5 931.5 L370.5 931.5 L371.5 930.5 L373.5 930.5 L374.5 931.5 L382.5 931.5 L383.5 930.5 L385.5 930.5 L386.5 929.5 L390.5 929.5 L391.5 928.5 L392.5 928.5 L393.5 927.5 L394.5 927.5 L395.5 926.5 L396.5 926.5 L397.5 925.5 L398.5 925.5 L399.5 924.5 L401.5 924.5 L402.5 923.5 L404.5 923.5 L405.5 922.5 L410.5 922.5 L411.5 923.5 L414.5 923.5 L415.5 924.5 L420.5 924.5 L421.5 925.5 L423.5 925.5 L424.5 926.5 L427.5 926.5 L428.5 927.5 L434.5 927.5 L435.5 928.5 L439.5 928.5 L440.5 929.5 L452.5 929.5 L453.5 928.5 L455.5 928.5 L456.5 929.5 L461.5 929.5 L462.5 928.5 L467.5 928.5 L468.5 927.5 L472.5 927.5 L473.5 926.5 L478.5 926.5 L479.5 925.5 L482.5 925.5 L483.5 924.5 L485.5 924.5 L486.5 923.5 L488.5 923.5 L489.5 922.5 L491.5 922.5 L492.5 921.5 L493.5 921.5 L494.5 920.5 L497.5 920.5 L498.5 919.5 L500.5 919.5 L501.5 918.5 L503.5 918.5 L504.5 917.5 L507.5 917.5 L508.5 916.5 L509.5 916.5 L510.5 915.5 L512.5 915.5 L513.5 914.5 L515.5 914.5 L516.5 913.5 L518.5 913.5 L519.5 912.5 L521.5 912.5 L522.5 911.5 L525.5 911.5 L526.5 910.5 L530.5 910.5 L531.5 909.5 L537.5 909.5 L538.5 910.5 L545.5 910.5 L546.5 911.5 L551.5 911.5 L552.5 912.5 L561.5 912.5 L562.5 913.5 L564.5 913.5 L565.5 914.5 L580.5 914.5 L581.5 915.5 L588.5 915.5 L589.5 914.5 L594.5 914.5 L595.5 913.5 L600.5 913.5 L601.5 912.5 L606.5 912.5 L607.5 913.5 L613.5 913.5 L614.5 914.5 L616.5 914.5 L617.5 915.5 L619.5 915.5 L620.5 916.5 L622.5 916.5 L623.5 917.5 L625.5 917.5 L626.5 918.5 L627.5 918.5 L628.5 919.5 L630.5 919.5 L631.5 920.5 L632.5 920.5 L633.5 921.5 L635.5 921.5 L636.5 922.5 L637.5 922.5 L638.5 923.5 L639.5 923.5 L640.5 924.5 L641.5 924.5 L642.5 925.5 L644.5 925.5 L645.5 926.5 L646.5 926.5 L647.5 927.5 L648.5 927.5 L649.5 928.5 L650.5 928.5 L651.5 929.5 L653.5 929.5 L654.5 930.5 L655.5 930.5 L656.5 931.5 L658.5 931.5 L659.5 932.5 L660.5 932.5 L661.5 933.5 L662.5 933.5 L663.5 934.5 L665.5 934.5 L666.5 935.5 L668.5 935.5 L669.5 936.5 L671.5 936.5 L672.5 937.5 L674.5 937.5 L675.5 936.5 L677.5 936.5 L678.5 937.5 L678.5 938.5 L680.5 938.5 L681.5 937.5 L684.5 937.5 L685.5 938.5 L687.5 938.5 L688.5 939.5 L690.5 939.5 L691.5 940.5 L698.5 940.5 L699.5 939.5 L703.5 939.5 L704.5 938.5 L705.5 938.5 L706.5 937.5 L707.5 937.5 L708.5 936.5 L709.5 936.5 L710.5 935.5 L711.5 935.5 L712.5 934.5 L713.5 933.5 L714.5 933.5 L715.5 932.5 L716.5 932.5 L717.5 931.5 L718.5 931.5 L719.5 930.5 L720.5 930.5 L721.5 929.5 L722.5 929.5 L723.5 928.5 L724.5 928.5 L725.5 927.5 L726.5 926.5 L727.5 926.5 L728.5 925.5 L729.5 925.5 L730.5 924.5 L731.5 924.5 L732.5 923.5 L733.5 923.5 L734.5 922.5 L736.5 922.5 L737.5 921.5 L739.5 921.5 L740.5 920.5 L741.5 920.5 L742.5 919.5 L744.5 919.5 L745.5 918.5 L747.5 918.5 L748.5 917.5 L749.5 917.5 L750.5 916.5 L752.5 916.5 L753.5 915.5 L754.5 915.5 L755.5 914.5 L756.5 914.5 L757.5 913.5 L758.5 913.5 L759.5 912.5 L760.5 912.5 L761.5 911.5 L762.5 911.5 L763.5 910.5 L764.5 910.5 L765.5 909.5 L766.5 908.5 L767.5 908.5 L768.5 907.5 L769.5 906.5 L770.5 906.5 L771.5 905.5 L772.5 904.5 L773.5 904.5 L774.5 903.5 L775.5 903.5 L776.5 902.5 L777.5 902.5 L778.5 901.5 L779.5 901.5 L780.5 900.5 L781.5 900.5 L782.5 899.5 L784.5 899.5 L785.5 898.5 L787.5 898.5 L788.5 897.5 L791.5 897.5 L792.5 896.5 L794.5 896.5 L795.5 895.5 L798.5 895.5 L799.5 894.5 L801.5 894.5 L802.5 893.5 L804.5 893.5 L805.5 892.5 L807.5 892.5 L808.5 891.5 L809.5 891.5 L810.5 890.5 L813.5 890.5 L814.5 889.5 L817.5 889.5 L818.5 888.5 L823.5 888.5 L824.5 887.5 L829.5 887.5 L830.5 886.5 L834.5 886.5 L835.5 885.5 L839.5 885.5 L840.5 884.5 L844.5 884.5 L845.5 883.5 L852.5 883.5 L853.5 882.5 L858.5 882.5 L859.5 881.5 L862.5 881.5 L863.5 880.5 L866.5 880.5 L867.5 879.5 L869.5 879.5 L870.5 878.5 L871.5 878.5 L872.5 877.5 L873.5 877.5 L874.5 876.5 L875.5 876.5 L876.5 875.5 L877.5 874.5 L878.5 874.5 L879.5 873.5 L880.5 873.5 L881.5 872.5 L883.5 872.5 L884.5 871.5 L893.5 871.5 L894.5 872.5 L896.5 872.5 L897.5 873.5 L901.5 873.5 L902.5 874.5 L903.5 874.5 L904.5 873.5 L904.5 872.5 L903.5 872.5 L902.5 871.5 L901.5 870.5 L900.5 869.5 L899.5 868.5 L899.5 866.5 L900.5 865.5 L903.5 865.5 L904.5 866.5 L905.5 866.5 L906.5 867.5 L907.5 866.5 L908.5 866.5 L908.5 864.5 L909.5 863.5 L910.5 864.5 L911.5 865.5 L911.5 866.5 L912.5 867.5 L912.5 868.5 L913.5 867.5 L914.5 866.5 L915.5 865.5 L915.5 846.5 L914.5 845.5 L914.5 824.5 L913.5 823.5 L913.5 816.5 L912.5 815.5 L912.5 812.5 L911.5 811.5 L911.5 808.5 L910.5 807.5 L910.5 802.5 L909.5 801.5 L909.5 786.5 L910.5 785.5 L910.5 781.5 L911.5 780.5 L911.5 777.5 L912.5 776.5 L912.5 774.5 L913.5 773.5 L913.5 772.5 L914.5 771.5 L914.5 770.5 L915.5 769.5 L915.5 768.5 L916.5 767.5 L916.5 766.5 L917.5 765.5 L917.5 764.5 L918.5 763.5 L919.5 762.5 L919.5 761.5 L920.5 760.5 L921.5 759.5 L921.5 758.5 L922.5 757.5 L923.5 756.5 L923.5 755.5 L924.5 754.5 L924.5 753.5 L925.5 752.5 L925.5 751.5 L926.5 750.5 L926.5 749.5 L927.5 748.5 L927.5 746.5 L928.5 745.5 L928.5 743.5 L929.5 742.5 L929.5 740.5 L930.5 739.5 L930.5 734.5 L931.5 733.5 L931.5 728.5 L932.5 727.5 L932.5 726.5 L933.5 725.5 L933.5 724.5 L934.5 723.5 L934.5 722.5 L935.5 721.5 L935.5 720.5 L936.5 719.5 L937.5 718.5 L937.5 717.5 L938.5 716.5 L938.5 715.5 L939.5 714.5 L940.5 713.5 L941.5 712.5 L942.5 711.5 L942.5 710.5 L943.5 709.5 L943.5 708.5 L944.5 707.5 L944.5 706.5 L945.5 705.5 L945.5 703.5 L946.5 702.5 L946.5 700.5 L947.5 699.5 L947.5 696.5 L948.5 695.5 L948.5 684.5 L947.5 683.5 L947.5 667.5 L946.5 666.5 L946.5 664.5 L945.5 663.5 L945.5 662.5 L944.5 661.5 L944.5 660.5 L943.5 659.5 L943.5 658.5 L942.5 657.5 L942.5 656.5 L941.5 655.5 L940.5 654.5 L939.5 653.5 L938.5 652.5 L937.5 651.5 L936.5 650.5 L935.5 649.5 L934.5 648.5 L933.5 648.5 L932.5 647.5 L931.5 646.5 L930.5 645.5 L929.5 644.5 L929.5 643.5 L928.5 642.5 L928.5 633.5 L929.5 632.5 L929.5 631.5 L930.5 630.5 L931.5 629.5 L932.5 628.5 L933.5 627.5 L934.5 626.5 L935.5 625.5 L936.5 624.5 L937.5 624.5 L938.5 623.5 L939.5 623.5 L940.5 622.5 L942.5 622.5 L943.5 621.5 L944.5 621.5 L945.5 620.5 L945.5 618.5 L946.5 617.5 L946.5 616.5 L947.5 615.5 L946.5 614.5 L946.5 613.5 L945.5 612.5 L945.5 611.5 L944.5 610.5 L944.5 608.5 L943.5 607.5 L942.5 606.5 L941.5 605.5 L940.5 604.5 L939.5 603.5 L938.5 602.5 L937.5 601.5 L936.5 600.5 L935.5 600.5 L934.5 599.5 L933.5 598.5 L932.5 597.5 L931.5 596.5 L931.5 595.5 L930.5 594.5 L929.5 593.5 L928.5 592.5 L928.5 591.5 L927.5 590.5 L927.5 589.5 L926.5 588.5 L926.5 587.5 L925.5 586.5 L925.5 585.5 L924.5 584.5 L924.5 578.5 L923.5 577.5 L923.5 568.5 L924.5 567.5 L924.5 559.5 L923.5 558.5 L924.5 557.5 L924.5 552.5 L923.5 551.5 L923.5 546.5 L922.5 545.5 L922.5 542.5 L921.5 541.5 L921.5 539.5 L920.5 538.5 L920.5 533.5 L919.5 532.5 L919.5 518.5 L920.5 517.5 L920.5 516.5 L919.5 515.5 L920.5 514.5 L920.5 511.5 L921.5 510.5 L921.5 506.5 L922.5 505.5 L922.5 501.5 L923.5 500.5 L924.5 500.5 L924.5 498.5 L923.5 497.5 L923.5 495.5 L924.5 494.5 L924.5 492.5 L925.5 491.5 L926.5 490.5 L927.5 489.5 L928.5 488.5 L929.5 487.5 L930.5 487.5 L931.5 486.5 L932.5 485.5 L933.5 484.5 L934.5 483.5 L935.5 482.5 L936.5 481.5 L936.5 480.5 L937.5 479.5 L937.5 478.5 L938.5 477.5 L938.5 476.5 L939.5 475.5 L939.5 469.5 L940.5 468.5 L940.5 447.5 L941.5 446.5 L941.5 435.5 L942.5 434.5 L942.5 431.5 L943.5 430.5 L943.5 427.5 L944.5 426.5 L944.5 419.5 L943.5 418.5 L943.5 417.5 L942.5 416.5 L941.5 415.5 L941.5 414.5 L940.5 413.5 L940.5 408.5 L939.5 407.5 L939.5 406.5 L940.5 405.5 L940.5 403.5 L939.5 402.5 L939.5 399.5 L938.5 398.5 L938.5 395.5 L937.5 394.5 L937.5 390.5 L936.5 389.5 L936.5 383.5 L935.5 383.5 L934.5 382.5 L934.5 380.5 L935.5 379.5 L935.5 376.5 L934.5 376.5 L933.5 375.5 L933.5 374.5 L932.5 373.5 L932.5 351.5 L933.5 350.5 L933.5 344.5 L934.5 343.5 L935.5 342.5 L936.5 341.5 L937.5 341.5 L938.5 340.5 L939.5 340.5 L940.5 339.5 L941.5 339.5 L942.5 338.5 L943.5 337.5 L944.5 337.5 L945.5 336.5 L946.5 335.5 L947.5 334.5 L948.5 333.5 L949.5 332.5 L950.5 331.5 L950.5 330.5 L951.5 329.5 L951.5 328.5 L952.5 327.5 L952.5 325.5 L953.5 324.5 L953.5 321.5 L954.5 320.5 L954.5 314.5 L953.5 313.5 L953.5 310.5 L952.5 309.5 L952.5 308.5 L951.5 307.5 L951.5 305.5 L950.5 304.5 L950.5 303.5 L949.5 302.5 L949.5 301.5 L948.5 300.5 L948.5 299.5 L947.5 298.5 L946.5 297.5 L946.5 296.5 L945.5 295.5 L944.5 294.5 L944.5 293.5 L943.5 292.5 L942.5 291.5 L942.5 290.5 L941.5 289.5 L941.5 288.5 L940.5 287.5 L940.5 286.5 L939.5 285.5 L939.5 284.5 L938.5 283.5 L937.5 282.5 L937.5 281.5 L936.5 280.5 L935.5 280.5 L934.5 279.5 L933.5 279.5 L932.5 278.5 L931.5 277.5 L931.5 276.5 L930.5 275.5 L930.5 274.5 L929.5 273.5 L928.5 272.5 L927.5 271.5 L926.5 270.5 L925.5 269.5 L925.5 268.5 L924.5 267.5 L924.5 266.5 L923.5 265.5 L923.5 264.5 L922.5 263.5 L922.5 262.5 L921.5 261.5 L921.5 259.5 L920.5 259.5 L919.5 258.5 L919.5 255.5 L918.5 254.5 L918.5 255.5 L917.5 256.5 L917.5 260.5 L916.5 261.5 L915.5 260.5 L915.5 253.5 L914.5 252.5 L914.5 249.5 L915.5 248.5 L916.5 247.5 L917.5 248.5 L917.5 249.5 L918.5 248.5 L918.5 243.5 L917.5 242.5 L917.5 233.5 L916.5 234.5 L915.5 233.5 L915.5 232.5 L914.5 231.5 L914.5 226.5 L913.5 225.5 L913.5 223.5 L914.5 222.5 L914.5 221.5 L915.5 220.5 L916.5 219.5 L916.5 218.5 L917.5 217.5 L917.5 216.5 L918.5 215.5 L919.5 216.5 L919.5 220.5 L918.5 221.5 L917.5 221.5 L917.5 226.5 L918.5 227.5 L919.5 226.5 L920.5 226.5 L920.5 223.5 L921.5 222.5 L921.5 218.5 L922.5 217.5 L922.5 216.5 L923.5 215.5 L923.5 214.5 L924.5 213.5 L924.5 212.5 L925.5 211.5 L925.5 209.5 L926.5 208.5 L926.5 207.5 L925.5 207.5 L924.5 208.5 L923.5 209.5 L922.5 210.5 L922.5 211.5 L921.5 212.5 L921.5 214.5 L920.5 215.5 L919.5 216.5 L918.5 215.5 L918.5 210.5 L919.5 209.5 L919.5 204.5 L920.5 203.5 L921.5 202.5 L921.5 201.5 L922.5 200.5 L922.5 197.5 L923.5 196.5 L924.5 195.5 L925.5 195.5 L926.5 194.5 L927.5 193.5 L926.5 192.5 L926.5 188.5 L927.5 187.5 L928.5 186.5 L928.5 185.5 L929.5 184.5 L930.5 183.5 L931.5 184.5 L932.5 184.5 L933.5 185.5 L933.5 190.5 L932.5 191.5 L931.5 192.5 L930.5 193.5 L930.5 195.5 L929.5 196.5 L929.5 198.5 L928.5 199.5 L928.5 201.5 L927.5 202.5 L927.5 203.5 L929.5 203.5 L929.5 202.5 L930.5 201.5 L930.5 199.5 L931.5 198.5 L931.5 197.5 L932.5 196.5 L932.5 194.5 L933.5 193.5 L933.5 191.5 L934.5 190.5 L934.5 189.5 L935.5 188.5 L935.5 185.5 L936.5 184.5 L936.5 181.5 L937.5 180.5 L937.5 179.5 L938.5 178.5 L938.5 177.5 L939.5 176.5 L939.5 175.5 L940.5 174.5 L940.5 173.5 L941.5 172.5 L941.5 171.5 L942.5 170.5 L942.5 169.5 L943.5 168.5 L944.5 167.5 L945.5 166.5 L946.5 165.5 L946.5 164.5 L947.5 163.5 L947.5 162.5 L948.5 161.5 L948.5 157.5 L949.5 156.5 L949.5 154.5 L948.5 153.5 L948.5 152.5 L947.5 151.5 L947.5 150.5 L948.5 149.5 L948.5 144.5 L947.5 143.5 L947.5 142.5 L946.5 141.5 L946.5 140.5 L945.5 139.5 L945.5 138.5 L944.5 137.5 L944.5 136.5 L943.5 135.5 L943.5 134.5 L942.5 133.5 L942.5 132.5 L941.5 131.5 L941.5 130.5 L940.5 129.5 L939.5 128.5 L938.5 127.5 L938.5 126.5 L937.5 125.5 L936.5 124.5 L935.5 123.5 L934.5 122.5 L933.5 121.5 L932.5 120.5 L931.5 119.5 L930.5 118.5 L929.5 117.5 L928.5 116.5 L927.5 115.5 L926.5 115.5 L925.5 114.5 L924.5 113.5 L923.5 112.5 L922.5 111.5 L921.5 111.5 L920.5 110.5 L919.5 109.5 L918.5 108.5 L917.5 108.5 L916.5 107.5 L915.5 106.5 L914.5 105.5 L913.5 104.5 L912.5 103.5 L912.5 101.5 L911.5 100.5 L911.5 99.5 L910.5 98.5 L909.5 97.5 L908.5 96.5 L907.5 95.5 L906.5 94.5 L905.5 94.5 L904.5 93.5 L903.5 92.5 L903.5 91.5 L902.5 90.5 L902.5 89.5 L901.5 88.5 L900.5 87.5 L899.5 86.5 L898.5 86.5 L897.5 85.5 L896.5 84.5 L895.5 84.5 L894.5 83.5 L893.5 83.5 L892.5 82.5 L891.5 82.5 L890.5 81.5 L889.5 81.5 L888.5 80.5 L887.5 80.5 L886.5 79.5 L883.5 79.5 L882.5 78.5 L879.5 78.5 L878.5 77.5 L874.5 77.5 L873.5 76.5 L871.5 76.5 L870.5 75.5 L868.5 75.5 L867.5 74.5 L865.5 74.5 L864.5 73.5 L862.5 73.5 L861.5 72.5 L859.5 72.5 L858.5 71.5 L856.5 71.5 L855.5 70.5 L853.5 70.5 L852.5 69.5 L851.5 69.5 L850.5 68.5 L848.5 68.5 L847.5 67.5 L846.5 67.5 L845.5 66.5 L844.5 66.5 L843.5 65.5 L842.5 64.5 L841.5 64.5 L840.5 63.5 L839.5 63.5 L838.5 62.5 L837.5 61.5 L836.5 60.5 L834.5 60.5 L833.5 59.5 L833.5 58.5 L833.5 59.5 L832.5 60.5 L831.5 60.5 L830.5 59.5 L829.5 58.5 L828.5 58.5 L827.5 57.5 L826.5 56.5 L825.5 56.5 L824.5 55.5 L823.5 54.5 L822.5 53.5 L821.5 53.5 L820.5 52.5 L819.5 51.5 L818.5 50.5 L817.5 50.5 L816.5 49.5 L815.5 49.5 L814.5 48.5 L813.5 48.5 L812.5 47.5 L811.5 47.5 L811.5 48.5 L810.5 49.5 L808.5 49.5 L807.5 48.5 L807.5 47.5 L802.5 47.5 L801.5 46.5 L792.5 46.5 L791.5 47.5 L776.5 47.5 L777.5 47.5 L778.5 48.5 L778.5 49.5 L777.5 50.5 L765.5 50.5 L764.5 49.5 L763.5 48.5 L763.5 47.5 L760.5 47.5 L759.5 46.5 L747.5 46.5 L746.5 45.5 L744.5 45.5 L743.5 44.5 L736.5 44.5 L735.5 43.5 L734.5 43.5 L733.5 42.5 L730.5 42.5 L729.5 43.5 L727.5 43.5 L726.5 44.5 L724.5 44.5 L723.5 45.5 L722.5 46.5 L721.5 47.5 L719.5 47.5 L718.5 46.5 L717.5 46.5 L716.5 47.5 L715.5 47.5 L714.5 48.5 L710.5 48.5 L710.5 49.5 L709.5 50.5 L698.5 50.5 L697.5 51.5 L696.5 51.5 L695.5 52.5 L694.5 53.5 L693.5 54.5 L693.5 64.5 L692.5 65.5 L692.5 66.5 L691.5 67.5 L690.5 68.5 L690.5 69.5 L689.5 70.5 L688.5 71.5 L687.5 72.5 L686.5 73.5 L685.5 74.5 L684.5 75.5 L683.5 76.5 L679.5 76.5 L678.5 75.5 L678.5 74.5 L679.5 73.5 L680.5 72.5 L680.5 71.5 L681.5 70.5 L682.5 69.5 L683.5 69.5 L684.5 68.5 L685.5 67.5 L686.5 66.5 L687.5 66.5 L687.5 65.5 L688.5 64.5 L688.5 59.5 L687.5 60.5 L686.5 61.5 L685.5 62.5 L684.5 63.5 L683.5 64.5 L682.5 64.5 L681.5 65.5 L680.5 66.5 L679.5 66.5 L678.5 67.5 L677.5 67.5 L676.5 68.5 L675.5 68.5 L674.5 69.5 L665.5 69.5 L664.5 70.5 L664.5 71.5 L665.5 71.5 L666.5 72.5 L668.5 72.5 L669.5 73.5 L670.5 73.5 L671.5 74.5 L674.5 74.5 L675.5 75.5 L675.5 76.5 L674.5 77.5 L666.5 77.5 L665.5 76.5 L664.5 76.5 L663.5 75.5 L662.5 76.5 L661.5 75.5 L660.5 76.5 L658.5 76.5 L657.5 75.5 L656.5 76.5 L650.5 76.5 L649.5 75.5 L647.5 75.5 L646.5 74.5 L639.5 74.5 L638.5 75.5 L637.5 76.5 L636.5 77.5 L635.5 77.5 L634.5 78.5 L633.5 79.5 L632.5 79.5 L631.5 78.5 L632.5 77.5 L632.5 76.5 L627.5 76.5 L626.5 75.5 L621.5 75.5 L620.5 74.5 L612.5 74.5 L611.5 73.5 L604.5 73.5 L603.5 72.5 L597.5 72.5 L596.5 71.5 L586.5 71.5 L585.5 70.5 L580.5 70.5 L579.5 69.5 L576.5 69.5 L575.5 68.5 L573.5 68.5 L572.5 67.5 L570.5 67.5 L569.5 66.5 L567.5 66.5 L566.5 65.5 L563.5 65.5 L562.5 64.5 L559.5 64.5 L558.5 63.5 L553.5 63.5 L552.5 62.5 L547.5 62.5 L546.5 63.5 L540.5 63.5 L539.5 64.5 L536.5 64.5 L535.5 65.5 L532.5 65.5 L531.5 66.5 L528.5 66.5 L527.5 67.5 L523.5 67.5 L522.5 68.5 L512.5 68.5 L511.5 69.5 L504.5 69.5 L503.5 70.5 L499.5 70.5 L498.5 69.5 L495.5 69.5 L494.5 68.5 L493.5 68.5 L494.5 69.5 L493.5 70.5 L492.5 71.5 L491.5 70.5 L490.5 69.5 L491.5 68.5 L491.5 67.5 L488.5 67.5 L488.5 69.5 L487.5 70.5 L486.5 70.5 L485.5 69.5 L481.5 69.5 L480.5 68.5 L479.5 68.5 L478.5 67.5 L477.5 66.5 L477.5 65.5 L478.5 64.5 L479.5 64.5 L475.5 64.5 L474.5 65.5 L467.5 65.5 L466.5 66.5 L465.5 66.5 L464.5 67.5 L463.5 67.5 L462.5 68.5 L461.5 67.5 L461.5 64.5 L455.5 64.5 L454.5 65.5 L453.5 65.5 L453.5 66.5 L452.5 67.5 L451.5 66.5 L450.5 65.5 L449.5 65.5 L448.5 64.5 L447.5 64.5 L446.5 63.5 L445.5 63.5 L444.5 62.5 L444.5 61.5 L442.5 61.5 L441.5 60.5 L440.5 60.5 L439.5 59.5 L438.5 59.5 L437.5 58.5 L436.5 57.5 L435.5 57.5 L434.5 56.5 L432.5 56.5 L431.5 57.5 L430.5 58.5 L429.5 57.5 L429.5 56.5 L428.5 56.5 L427.5 55.5 L426.5 54.5 L426.5 53.5 L425.5 52.5 L411.5 52.5 L410.5 53.5 L403.5 53.5 L403.5 55.5 L402.5 56.5 L401.5 56.5 L400.5 55.5 L400.5 54.5 L395.5 54.5 L394.5 53.5 L391.5 53.5 L390.5 52.5 L385.5 52.5 L384.5 53.5 L383.5 54.5 L382.5 55.5 L381.5 55.5 L380.5 56.5 L379.5 57.5 L378.5 58.5 L377.5 59.5 L376.5 60.5 L375.5 60.5 L374.5 61.5 L373.5 61.5 L372.5 60.5 L373.5 59.5 L374.5 58.5 L371.5 58.5 L371.5 59.5 L370.5 60.5 L364.5 60.5 L364.5 62.5 L365.5 62.5 L366.5 63.5 L366.5 64.5 L365.5 65.5 L364.5 64.5 L363.5 64.5 L362.5 63.5 L361.5 63.5 L360.5 62.5 L360.5 61.5 L347.5 61.5 L346.5 60.5 L345.5 59.5 L345.5 58.5 L344.5 57.5 L343.5 56.5 L343.5 53.5 L342.5 53.5 L341.5 52.5 L340.5 51.5 L339.5 50.5 L338.5 50.5 L337.5 51.5 L336.5 52.5 L335.5 53.5 L334.5 54.5 L334.5 55.5 L333.5 56.5 L332.5 56.5 L331.5 57.5 L330.5 57.5 L329.5 56.5 L330.5 55.5 L330.5 54.5 L327.5 54.5 L326.5 55.5 L318.5 55.5 L317.5 54.5 L316.5 53.5 L316.5 52.5 L315.5 51.5 L314.5 50.5 L314.5 51.5 L315.5 52.5 L316.5 53.5 L316.5 55.5 L317.5 56.5 L318.5 57.5 L317.5 58.5 L316.5 58.5 L315.5 57.5 L314.5 56.5 L314.5 55.5 L313.5 54.5 L312.5 53.5 L312.5 50.5 L311.5 49.5 L311.5 46.5 L310.5 45.5 L310.5 42.5 L309.5 41.5 L309.5 40.5 L308.5 39.5 L308.5 37.5 L307.5 36.5 L306.5 35.5 L305.5 34.5 Z M751.5 47.5 L752.5 46.5 L756.5 46.5 L757.5 47.5 L758.5 47.5 L759.5 48.5 L758.5 49.5 L757.5 49.5 L756.5 50.5 L754.5 50.5 L753.5 49.5 L752.5 48.5 Z M792.5 47.5 L793.5 46.5 L799.5 46.5 L800.5 47.5 L800.5 48.5 L799.5 49.5 L793.5 49.5 L792.5 48.5 Z M712.5 53.5 L713.5 52.5 L717.5 52.5 L718.5 53.5 L718.5 54.5 L717.5 55.5 L716.5 55.5 L715.5 54.5 L713.5 54.5 Z M421.5 54.5 L422.5 53.5 L423.5 53.5 L424.5 54.5 L423.5 55.5 L422.5 56.5 L421.5 55.5 Z M411.5 55.5 L412.5 54.5 L413.5 54.5 L414.5 55.5 L413.5 56.5 L412.5 56.5 Z M416.5 56.5 L417.5 57.5 L417.5 59.5 L416.5 60.5 L415.5 60.5 L414.5 59.5 L413.5 58.5 L413.5 56.5 L414.5 55.5 L415.5 55.5 Z M418.5 57.5 L419.5 56.5 L420.5 57.5 L419.5 58.5 Z M319.5 58.5 L318.5 59.5 L317.5 58.5 L318.5 57.5 Z M349.5 58.5 L349.5 59.5 L352.5 59.5 L352.5 58.5 Z M434.5 58.5 L434.5 59.5 L435.5 60.5 L434.5 61.5 L433.5 61.5 L432.5 60.5 L431.5 59.5 L430.5 58.5 L431.5 57.5 L433.5 57.5 Z M320.5 59.5 L321.5 60.5 L322.5 60.5 L323.5 61.5 L324.5 62.5 L323.5 63.5 L320.5 63.5 L319.5 62.5 L319.5 61.5 L318.5 60.5 L318.5 59.5 L319.5 58.5 Z M325.5 59.5 L326.5 58.5 L328.5 58.5 L329.5 59.5 L328.5 60.5 L327.5 61.5 L326.5 62.5 L325.5 61.5 Z M433.5 62.5 L434.5 61.5 L437.5 61.5 L438.5 62.5 L439.5 62.5 L440.5 63.5 L443.5 63.5 L444.5 64.5 L444.5 65.5 L443.5 66.5 L439.5 66.5 L438.5 65.5 L437.5 65.5 L436.5 64.5 L435.5 63.5 L434.5 63.5 Z M838.5 67.5 L839.5 66.5 L840.5 66.5 L841.5 67.5 L842.5 68.5 L843.5 68.5 L844.5 69.5 L845.5 70.5 L846.5 71.5 L845.5 72.5 L843.5 72.5 L842.5 71.5 L841.5 70.5 L840.5 70.5 L839.5 69.5 L839.5 68.5 Z M657.5 69.5 L657.5 71.5 L656.5 72.5 L655.5 72.5 L656.5 72.5 L657.5 73.5 L658.5 72.5 L659.5 71.5 L660.5 71.5 L660.5 69.5 Z M501.5 74.5 L502.5 73.5 L503.5 73.5 L504.5 74.5 L503.5 75.5 L502.5 76.5 L501.5 76.5 L500.5 77.5 L499.5 78.5 L498.5 77.5 L498.5 76.5 L499.5 75.5 L500.5 74.5 Z M850.5 74.5 L851.5 73.5 L855.5 73.5 L856.5 74.5 L857.5 75.5 L858.5 75.5 L859.5 76.5 L858.5 77.5 L853.5 77.5 L852.5 76.5 L851.5 75.5 Z M573.5 75.5 L574.5 74.5 L578.5 74.5 L579.5 75.5 L579.5 76.5 L578.5 77.5 L576.5 77.5 L575.5 76.5 L574.5 76.5 Z M495.5 76.5 L496.5 75.5 L497.5 76.5 L498.5 77.5 L498.5 78.5 L497.5 79.5 L496.5 79.5 L495.5 78.5 Z M584.5 76.5 L585.5 75.5 L593.5 75.5 L594.5 76.5 L601.5 76.5 L602.5 77.5 L607.5 77.5 L608.5 78.5 L611.5 78.5 L612.5 79.5 L619.5 79.5 L620.5 80.5 L620.5 81.5 L619.5 82.5 L609.5 82.5 L608.5 81.5 L607.5 81.5 L606.5 82.5 L605.5 82.5 L604.5 81.5 L597.5 81.5 L596.5 80.5 L587.5 80.5 L586.5 79.5 L584.5 79.5 L583.5 78.5 L583.5 77.5 Z M859.5 77.5 L860.5 76.5 L863.5 76.5 L864.5 77.5 L865.5 78.5 L866.5 79.5 L865.5 80.5 L863.5 80.5 L862.5 79.5 L861.5 79.5 L860.5 78.5 Z M141.5 79.5 L141.5 81.5 L140.5 82.5 L139.5 81.5 L139.5 79.5 L140.5 78.5 Z M630.5 79.5 L631.5 78.5 L632.5 79.5 L632.5 80.5 L631.5 81.5 L630.5 81.5 L629.5 82.5 L626.5 82.5 L625.5 81.5 L625.5 80.5 L626.5 79.5 Z M867.5 80.5 L868.5 79.5 L871.5 79.5 L872.5 80.5 L873.5 80.5 L874.5 81.5 L878.5 81.5 L879.5 82.5 L883.5 82.5 L884.5 83.5 L887.5 83.5 L888.5 84.5 L889.5 84.5 L890.5 85.5 L891.5 85.5 L892.5 86.5 L894.5 86.5 L895.5 87.5 L896.5 88.5 L897.5 89.5 L898.5 90.5 L899.5 90.5 L900.5 91.5 L900.5 92.5 L901.5 92.5 L902.5 93.5 L903.5 94.5 L903.5 96.5 L904.5 97.5 L904.5 99.5 L903.5 100.5 L900.5 100.5 L899.5 99.5 L899.5 98.5 L898.5 97.5 L897.5 96.5 L896.5 96.5 L895.5 95.5 L894.5 94.5 L893.5 93.5 L892.5 92.5 L892.5 91.5 L891.5 90.5 L890.5 89.5 L889.5 88.5 L888.5 87.5 L886.5 87.5 L885.5 86.5 L883.5 86.5 L882.5 85.5 L878.5 85.5 L877.5 84.5 L875.5 84.5 L874.5 83.5 L871.5 83.5 L870.5 82.5 L869.5 82.5 L868.5 81.5 Z M142.5 82.5 L142.5 83.5 L141.5 84.5 L140.5 83.5 L140.5 82.5 L141.5 81.5 Z M941.5 156.5 L942.5 155.5 L943.5 156.5 L943.5 158.5 L944.5 159.5 L944.5 160.5 L943.5 161.5 L943.5 165.5 L942.5 166.5 L942.5 168.5 L941.5 169.5 L940.5 170.5 L939.5 170.5 L939.5 171.5 L938.5 172.5 L938.5 173.5 L937.5 174.5 L937.5 175.5 L936.5 176.5 L936.5 177.5 L935.5 178.5 L934.5 179.5 L933.5 180.5 L932.5 181.5 L931.5 181.5 L930.5 180.5 L930.5 178.5 L931.5 177.5 L931.5 176.5 L932.5 175.5 L933.5 174.5 L934.5 173.5 L934.5 172.5 L935.5 171.5 L935.5 170.5 L936.5 169.5 L937.5 168.5 L937.5 166.5 L938.5 165.5 L939.5 164.5 L939.5 160.5 L940.5 159.5 L940.5 157.5 Z M74.5 183.5 L75.5 182.5 L76.5 183.5 L75.5 184.5 Z M72.5 193.5 L72.5 194.5 Z M80.5 199.5 L81.5 198.5 L82.5 199.5 L83.5 199.5 L84.5 200.5 L83.5 201.5 L81.5 201.5 L80.5 200.5 Z M86.5 201.5 L85.5 202.5 L84.5 202.5 L83.5 201.5 L84.5 200.5 L85.5 200.5 Z M91.5 205.5 L92.5 204.5 L93.5 205.5 L94.5 205.5 L95.5 206.5 L96.5 207.5 L96.5 208.5 L97.5 209.5 L97.5 212.5 L96.5 213.5 L96.5 214.5 L95.5 215.5 L95.5 221.5 L94.5 222.5 L93.5 222.5 L92.5 221.5 L92.5 207.5 L91.5 206.5 Z M914.5 235.5 L915.5 234.5 L916.5 234.5 L917.5 235.5 L917.5 242.5 L916.5 243.5 L915.5 244.5 L914.5 243.5 L914.5 241.5 L913.5 240.5 L914.5 239.5 Z M916.5 265.5 L917.5 264.5 L918.5 264.5 L919.5 265.5 L919.5 269.5 L918.5 270.5 L917.5 269.5 L916.5 268.5 Z M74.5 342.5 L74.5 345.5 Z M78.5 347.5 Z M81.5 352.5 L82.5 351.5 L84.5 351.5 L85.5 352.5 L85.5 353.5 L84.5 354.5 L83.5 354.5 L82.5 353.5 Z M87.5 359.5 L88.5 358.5 L89.5 359.5 L89.5 360.5 L88.5 361.5 L87.5 360.5 Z M108.5 406.5 L109.5 405.5 L110.5 406.5 L109.5 407.5 Z M105.5 413.5 L106.5 412.5 L108.5 412.5 L109.5 413.5 L108.5 414.5 L107.5 415.5 L106.5 415.5 L105.5 414.5 Z M105.5 453.5 L106.5 452.5 L107.5 453.5 L107.5 457.5 L106.5 458.5 L105.5 457.5 L104.5 456.5 L105.5 455.5 Z M105.5 459.5 L106.5 458.5 L107.5 459.5 L107.5 460.5 L106.5 461.5 L105.5 460.5 Z M109.5 463.5 L110.5 462.5 L111.5 463.5 L112.5 464.5 L113.5 465.5 L114.5 466.5 L114.5 469.5 L113.5 470.5 L112.5 471.5 L111.5 471.5 L110.5 470.5 L109.5 469.5 L109.5 467.5 L108.5 466.5 L108.5 464.5 Z M110.5 473.5 L111.5 472.5 L112.5 473.5 L112.5 474.5 L113.5 475.5 L113.5 477.5 L112.5 478.5 L112.5 479.5 L111.5 480.5 L110.5 479.5 L110.5 478.5 L109.5 477.5 L109.5 475.5 L110.5 474.5 Z M114.5 492.5 L115.5 491.5 L116.5 492.5 L116.5 493.5 L115.5 494.5 L114.5 493.5 Z M114.5 499.5 L115.5 498.5 L116.5 499.5 L116.5 503.5 L115.5 504.5 L114.5 503.5 Z M113.5 504.5 L114.5 503.5 L115.5 504.5 L115.5 505.5 L114.5 506.5 L113.5 505.5 Z M104.5 556.5 L105.5 557.5 L105.5 559.5 L104.5 560.5 L103.5 559.5 L102.5 558.5 L102.5 556.5 L103.5 555.5 Z M106.5 563.5 L107.5 562.5 L108.5 563.5 L107.5 564.5 Z M103.5 570.5 L104.5 569.5 L105.5 570.5 L106.5 571.5 L105.5 572.5 L104.5 573.5 L103.5 573.5 L102.5 574.5 L101.5 575.5 L100.5 575.5 L99.5 576.5 L98.5 576.5 L97.5 577.5 L96.5 577.5 L96.5 580.5 L95.5 581.5 L95.5 582.5 L94.5 583.5 L93.5 583.5 L92.5 582.5 L92.5 576.5 L93.5 575.5 L94.5 574.5 L96.5 574.5 L97.5 573.5 L97.5 572.5 L98.5 571.5 L101.5 571.5 L102.5 570.5 Z M919.5 587.5 L920.5 586.5 L921.5 587.5 L922.5 588.5 L922.5 589.5 L923.5 590.5 L922.5 591.5 L921.5 591.5 L920.5 590.5 L919.5 589.5 Z M88.5 599.5 L89.5 598.5 L90.5 598.5 L91.5 599.5 L91.5 601.5 L92.5 602.5 L92.5 604.5 L91.5 605.5 L91.5 607.5 L90.5 608.5 L89.5 608.5 L88.5 607.5 L88.5 605.5 L87.5 604.5 L87.5 600.5 Z M937.5 609.5 L938.5 608.5 L939.5 609.5 L940.5 609.5 L941.5 610.5 L941.5 611.5 L942.5 612.5 L943.5 613.5 L944.5 614.5 L945.5 615.5 L945.5 617.5 L944.5 618.5 L937.5 618.5 L936.5 619.5 L933.5 619.5 L932.5 618.5 L932.5 617.5 L933.5 616.5 L934.5 616.5 L934.5 615.5 L935.5 614.5 L936.5 614.5 L936.5 613.5 L937.5 612.5 Z M92.5 618.5 L93.5 617.5 L94.5 617.5 L95.5 618.5 L95.5 621.5 L94.5 622.5 L94.5 623.5 L95.5 624.5 L95.5 626.5 L96.5 627.5 L95.5 628.5 L94.5 628.5 L93.5 627.5 L93.5 626.5 L92.5 625.5 L91.5 624.5 L91.5 623.5 L92.5 622.5 Z M99.5 653.5 L100.5 652.5 L101.5 653.5 L101.5 655.5 L100.5 656.5 L99.5 655.5 Z M98.5 656.5 L99.5 655.5 L100.5 656.5 L100.5 657.5 L99.5 658.5 L98.5 658.5 L97.5 657.5 Z M96.5 661.5 L97.5 660.5 L98.5 660.5 L99.5 661.5 L99.5 663.5 L98.5 664.5 L98.5 665.5 L97.5 666.5 L96.5 665.5 Z M937.5 665.5 L938.5 664.5 L940.5 664.5 L941.5 665.5 L941.5 666.5 L940.5 667.5 L939.5 667.5 L938.5 666.5 Z M95.5 667.5 L96.5 666.5 L97.5 667.5 L97.5 670.5 L96.5 671.5 L96.5 672.5 L95.5 673.5 L94.5 672.5 L94.5 670.5 L95.5 669.5 Z M938.5 683.5 L939.5 682.5 L940.5 682.5 L941.5 683.5 L942.5 684.5 L942.5 685.5 L943.5 686.5 L944.5 687.5 L944.5 690.5 L943.5 691.5 L940.5 691.5 L939.5 690.5 L939.5 687.5 L938.5 686.5 Z M92.5 687.5 L93.5 686.5 L94.5 686.5 L95.5 687.5 L95.5 690.5 L94.5 691.5 L93.5 691.5 L92.5 690.5 Z M89.5 705.5 L90.5 704.5 L91.5 705.5 L91.5 710.5 L90.5 711.5 L90.5 720.5 L89.5 721.5 L89.5 722.5 L88.5 723.5 L87.5 723.5 L86.5 722.5 L86.5 718.5 L87.5 717.5 L87.5 712.5 L88.5 711.5 L88.5 708.5 L89.5 707.5 Z M78.5 781.5 L79.5 780.5 L80.5 781.5 L79.5 782.5 Z M79.5 783.5 L80.5 782.5 L81.5 783.5 L80.5 784.5 Z M80.5 785.5 L81.5 784.5 L83.5 784.5 L84.5 785.5 L84.5 788.5 L83.5 789.5 L82.5 788.5 L81.5 787.5 L81.5 786.5 Z M85.5 794.5 L86.5 793.5 L87.5 794.5 L86.5 795.5 Z M89.5 800.5 L90.5 799.5 L91.5 800.5 L92.5 801.5 L92.5 802.5 L91.5 803.5 L90.5 802.5 L89.5 801.5 Z M93.5 803.5 L93.5 804.5 L92.5 805.5 L91.5 804.5 L91.5 803.5 L92.5 802.5 Z M94.5 805.5 L93.5 806.5 L92.5 805.5 L93.5 804.5 Z M98.5 816.5 L99.5 815.5 L100.5 816.5 L100.5 817.5 L99.5 818.5 L98.5 817.5 Z M98.5 820.5 L99.5 819.5 L100.5 820.5 L100.5 821.5 L101.5 822.5 L101.5 826.5 L100.5 827.5 L99.5 827.5 L98.5 826.5 L97.5 825.5 L96.5 824.5 L96.5 823.5 L97.5 822.5 L97.5 821.5 Z M128.5 868.5 L129.5 867.5 L138.5 867.5 L139.5 868.5 L139.5 870.5 L138.5 871.5 L134.5 871.5 L133.5 872.5 L129.5 872.5 L128.5 871.5 L127.5 870.5 L127.5 869.5 Z M909.5 871.5 Z M555.5 909.5 L556.5 908.5 L557.5 908.5 L558.5 909.5 L557.5 910.5 L556.5 910.5 Z M563.5 910.5 L564.5 909.5 L565.5 910.5 L564.5 911.5 Z M277.5 921.5 L278.5 920.5 L279.5 921.5 L280.5 921.5 L281.5 922.5 L282.5 922.5 L283.5 923.5 L284.5 923.5 L285.5 924.5 L285.5 925.5 L284.5 926.5 L283.5 927.5 L282.5 927.5 L281.5 926.5 L280.5 926.5 L279.5 925.5 L278.5 924.5 L277.5 923.5 Z M721.5 921.5 L722.5 920.5 L723.5 920.5 L724.5 921.5 L723.5 922.5 L722.5 923.5 L721.5 923.5 L720.5 922.5 Z M294.5 927.5 L295.5 926.5 L296.5 927.5 L295.5 928.5 Z M685.5 935.5 L686.5 934.5 L687.5 935.5 L686.5 936.5 Z M1014.5 1003.5 L1013.5 1004.5 L1013.5 1005.5 L1012.5 1006.5 L1012.5 1007.5 L1011.5 1008.5 L1011.5 1010.5 L1010.5 1011.5 L1010.5 1012.5 L1009.5 1013.5 L1009.5 1016.5 L1008.5 1017.5 L1008.5 1023.5 L1011.5 1023.5 L1011.5 1021.5 L1012.5 1020.5 L1012.5 1017.5 L1013.5 1016.5 L1013.5 1013.5 L1014.5 1012.5 L1014.5 1009.5 L1015.5 1008.5 L1015.5 1003.5 Z M0.5 1005.5 L0.5 1007.5 L2.5 1007.5 L3.5 1008.5 L4.5 1008.5 L5.5 1009.5 L6.5 1010.5 L7.5 1011.5 L8.5 1011.5 L9.5 1012.5 L10.5 1013.5 L11.5 1013.5 L12.5 1014.5 L14.5 1014.5 L15.5 1013.5 L17.5 1013.5 L18.5 1014.5 L19.5 1014.5 L20.5 1015.5 L20.5 1014.5 L19.5 1013.5 L18.5 1012.5 L17.5 1011.5 L16.5 1011.5 L15.5 1010.5 L14.5 1010.5 L13.5 1009.5 L12.5 1009.5 L11.5 1008.5 L10.5 1008.5 L9.5 1007.5 L8.5 1007.5 L7.5 1006.5 L4.5 1006.5 L3.5 1005.5 Z M0.5 1015.5 L0.5 1023.5 L12.5 1023.5 L11.5 1022.5 L11.5 1021.5 L10.5 1020.5 L9.5 1020.5 L8.5 1019.5 L7.5 1018.5 L6.5 1018.5 L5.5 1017.5 L4.5 1017.5 L3.5 1016.5 L1.5 1016.5 Z M1023.5 1016.5 L1022.5 1017.5 L1021.5 1018.5 L1021.5 1019.5 L1020.5 1020.5 L1020.5 1022.5 L1019.5 1023.5 L1023.5 1023.5 Z"/>
    </g>
  </g>
</svg>
