<?xml version="1.0" encoding="UTF-8" standalone="no"?>
<!-- Created with PhotoLine 23.53 (www.pl32.de) -->
<!DOCTYPE svg PUBLIC "-//W3C//DTD SVG 1.1//EN" "http://www.w3.org/Graphics/SVG/1.1/DTD/svg11.dtd">
<svg width="1456" height="816" viewBox="0 0 1456 816" version="1.1" xmlns="http://www.w3.org/2000/svg" xmlns:xlink="http://www.w3.org/1999/xlink">
  <g id="shape">
    <g id="town" transform="matrix(1 0 0 1 72 420)">
      <path fill="#bb4" stroke-width="0" stroke-linejoin="bevel" stroke-miterlimit="10" stroke="#ffffff" d="M205.5 0.5 L205.5 1.5 L204.5 2.5 L204.5 5.5 L205.5 6.5 L205.5 7.5 L206.5 8.5 L206.5 22.5 L205.5 23.5 L205.5 24.5 L204.5 25.5 L204.5 39.5 L205.5 40.5 L205.5 48.5 L204.5 49.5 L204.5 66.5 L203.5 67.5 L203.5 68.5 L202.5 69.5 L201.5 68.5 L201.5 69.5 L200.5 70.5 L199.5 71.5 L199.5 74.5 L200.5 75.5 L200.5 84.5 L199.5 85.5 L198.5 86.5 L197.5 87.5 L196.5 86.5 L195.5 86.5 L194.5 85.5 L193.5 84.5 L192.5 83.5 L191.5 84.5 L190.5 85.5 L190.5 86.5 L191.5 87.5 L191.5 95.5 L190.5 96.5 L190.5 101.5 L189.5 102.5 L189.5 103.5 L188.5 104.5 L188.5 107.5 L187.5 108.5 L187.5 118.5 L188.5 119.5 L189.5 120.5 L190.5 121.5 L190.5 122.5 L191.5 123.5 L192.5 124.5 L192.5 127.5 L191.5 128.5 L190.5 128.5 L189.5 129.5 L186.5 129.5 L185.5 130.5 L184.5 130.5 L183.5 131.5 L182.5 131.5 L181.5 132.5 L180.5 132.5 L179.5 131.5 L178.5 130.5 L177.5 130.5 L176.5 129.5 L175.5 130.5 L173.5 130.5 L172.5 131.5 L170.5 131.5 L169.5 132.5 L168.5 132.5 L167.5 131.5 L166.5 130.5 L165.5 130.5 L164.5 131.5 L158.5 131.5 L157.5 130.5 L150.5 130.5 L149.5 131.5 L148.5 132.5 L147.5 133.5 L147.5 134.5 L146.5 135.5 L145.5 136.5 L145.5 137.5 L144.5 138.5 L138.5 138.5 L137.5 137.5 L136.5 137.5 L135.5 136.5 L135.5 135.5 L134.5 134.5 L134.5 132.5 L133.5 131.5 L133.5 127.5 L132.5 126.5 L132.5 122.5 L131.5 121.5 L131.5 117.5 L130.5 116.5 L130.5 113.5 L131.5 112.5 L131.5 111.5 L130.5 110.5 L130.5 102.5 L129.5 101.5 L129.5 100.5 L128.5 99.5 L128.5 98.5 L129.5 97.5 L129.5 96.5 L130.5 95.5 L131.5 95.5 L132.5 94.5 L133.5 94.5 L134.5 95.5 L135.5 94.5 L136.5 94.5 L137.5 93.5 L137.5 92.5 L138.5 91.5 L138.5 90.5 L139.5 89.5 L140.5 88.5 L140.5 86.5 L141.5 85.5 L141.5 84.5 L140.5 83.5 L139.5 82.5 L138.5 82.5 L137.5 83.5 L136.5 83.5 L135.5 84.5 L134.5 84.5 L133.5 85.5 L133.5 86.5 L132.5 87.5 L131.5 87.5 L130.5 86.5 L129.5 85.5 L128.5 84.5 L127.5 83.5 L125.5 83.5 L124.5 84.5 L123.5 85.5 L123.5 88.5 L122.5 89.5 L122.5 90.5 L121.5 91.5 L120.5 91.5 L119.5 92.5 L118.5 93.5 L118.5 94.5 L119.5 95.5 L120.5 96.5 L121.5 96.5 L122.5 97.5 L123.5 97.5 L124.5 98.5 L124.5 109.5 L123.5 110.5 L123.5 115.5 L124.5 116.5 L124.5 119.5 L123.5 120.5 L123.5 127.5 L122.5 128.5 L122.5 133.5 L121.5 134.5 L121.5 138.5 L120.5 139.5 L120.5 142.5 L119.5 143.5 L119.5 147.5 L118.5 148.5 L118.5 151.5 L117.5 152.5 L117.5 153.5 L116.5 154.5 L112.5 154.5 L111.5 153.5 L110.5 153.5 L109.5 154.5 L108.5 154.5 L107.5 155.5 L106.5 155.5 L105.5 156.5 L104.5 156.5 L103.5 155.5 L102.5 154.5 L101.5 153.5 L100.5 153.5 L99.5 152.5 L98.5 153.5 L97.5 153.5 L96.5 154.5 L95.5 155.5 L94.5 156.5 L91.5 156.5 L90.5 155.5 L89.5 154.5 L86.5 154.5 L85.5 155.5 L85.5 156.5 L84.5 157.5 L84.5 159.5 L83.5 160.5 L83.5 161.5 L82.5 162.5 L79.5 162.5 L78.5 161.5 L71.5 161.5 L70.5 162.5 L69.5 162.5 L68.5 163.5 L66.5 163.5 L65.5 164.5 L64.5 165.5 L63.5 166.5 L62.5 167.5 L62.5 169.5 L61.5 170.5 L61.5 171.5 L60.5 172.5 L59.5 172.5 L58.5 173.5 L57.5 174.5 L56.5 175.5 L55.5 176.5 L55.5 177.5 L54.5 178.5 L53.5 179.5 L52.5 180.5 L51.5 181.5 L50.5 182.5 L50.5 183.5 L49.5 184.5 L48.5 185.5 L47.5 185.5 L46.5 186.5 L45.5 187.5 L44.5 187.5 L43.5 188.5 L43.5 189.5 L42.5 190.5 L41.5 191.5 L41.5 192.5 L40.5 193.5 L39.5 193.5 L38.5 194.5 L37.5 195.5 L36.5 196.5 L35.5 197.5 L34.5 198.5 L33.5 199.5 L33.5 200.5 L32.5 201.5 L32.5 202.5 L31.5 203.5 L31.5 211.5 L32.5 212.5 L33.5 213.5 L33.5 214.5 L34.5 215.5 L35.5 216.5 L35.5 217.5 L34.5 218.5 L33.5 219.5 L32.5 220.5 L31.5 221.5 L30.5 222.5 L29.5 223.5 L28.5 224.5 L27.5 225.5 L26.5 225.5 L25.5 226.5 L24.5 227.5 L24.5 228.5 L23.5 229.5 L23.5 232.5 L24.5 233.5 L24.5 237.5 L23.5 238.5 L23.5 240.5 L24.5 241.5 L24.5 242.5 L25.5 242.5 L26.5 243.5 L27.5 244.5 L29.5 244.5 L30.5 245.5 L31.5 245.5 L32.5 246.5 L33.5 247.5 L34.5 247.5 L35.5 248.5 L37.5 248.5 L38.5 249.5 L39.5 250.5 L40.5 251.5 L40.5 253.5 L41.5 254.5 L41.5 255.5 L42.5 256.5 L43.5 257.5 L43.5 258.5 L44.5 259.5 L44.5 260.5 L45.5 259.5 L46.5 258.5 L47.5 258.5 L48.5 259.5 L49.5 259.5 L50.5 260.5 L51.5 261.5 L57.5 261.5 L58.5 262.5 L60.5 262.5 L61.5 263.5 L62.5 263.5 L63.5 264.5 L64.5 265.5 L65.5 266.5 L66.5 267.5 L66.5 269.5 L65.5 270.5 L65.5 271.5 L66.5 272.5 L67.5 273.5 L67.5 274.5 L68.5 275.5 L69.5 276.5 L69.5 277.5 L70.5 278.5 L76.5 278.5 L77.5 279.5 L78.5 279.5 L79.5 280.5 L83.5 280.5 L84.5 281.5 L86.5 281.5 L87.5 282.5 L89.5 282.5 L90.5 283.5 L92.5 283.5 L93.5 284.5 L97.5 284.5 L98.5 283.5 L101.5 283.5 L102.5 284.5 L111.5 284.5 L112.5 285.5 L113.5 285.5 L114.5 286.5 L114.5 288.5 L115.5 289.5 L127.5 289.5 L128.5 290.5 L129.5 289.5 L130.5 290.5 L131.5 291.5 L131.5 292.5 L132.5 293.5 L132.5 294.5 L133.5 295.5 L133.5 296.5 L134.5 296.5 L135.5 297.5 L141.5 297.5 L142.5 296.5 L143.5 297.5 L144.5 296.5 L145.5 296.5 L146.5 297.5 L146.5 303.5 L147.5 304.5 L149.5 304.5 L150.5 305.5 L161.5 305.5 L162.5 304.5 L163.5 303.5 L164.5 302.5 L163.5 301.5 L163.5 300.5 L162.5 299.5 L162.5 298.5 L163.5 297.5 L164.5 296.5 L165.5 297.5 L166.5 298.5 L166.5 299.5 L167.5 299.5 L168.5 300.5 L169.5 300.5 L170.5 301.5 L172.5 301.5 L173.5 302.5 L175.5 302.5 L176.5 303.5 L175.5 304.5 L174.5 304.5 L175.5 305.5 L176.5 306.5 L177.5 307.5 L178.5 307.5 L179.5 306.5 L182.5 306.5 L183.5 307.5 L186.5 307.5 L187.5 308.5 L189.5 308.5 L190.5 309.5 L191.5 310.5 L191.5 311.5 L194.5 311.5 L194.5 310.5 L195.5 309.5 L196.5 308.5 L203.5 308.5 L204.5 309.5 L210.5 309.5 L211.5 308.5 L211.5 305.5 L212.5 304.5 L211.5 303.5 L210.5 302.5 L210.5 300.5 L211.5 299.5 L213.5 299.5 L214.5 300.5 L214.5 301.5 L214.5 300.5 L215.5 299.5 L219.5 299.5 L220.5 300.5 L220.5 301.5 L220.5 300.5 L221.5 299.5 L222.5 298.5 L223.5 298.5 L224.5 297.5 L225.5 296.5 L226.5 296.5 L227.5 295.5 L228.5 294.5 L229.5 294.5 L230.5 293.5 L231.5 292.5 L232.5 291.5 L232.5 289.5 L233.5 288.5 L232.5 287.5 L231.5 286.5 L230.5 285.5 L229.5 284.5 L228.5 283.5 L227.5 282.5 L227.5 281.5 L226.5 280.5 L225.5 279.5 L225.5 278.5 L224.5 277.5 L225.5 276.5 L226.5 275.5 L227.5 274.5 L229.5 274.5 L230.5 275.5 L232.5 275.5 L233.5 276.5 L233.5 280.5 L232.5 281.5 L233.5 282.5 L235.5 282.5 L235.5 281.5 L236.5 280.5 L238.5 280.5 L239.5 281.5 L240.5 281.5 L241.5 282.5 L243.5 282.5 L244.5 283.5 L246.5 283.5 L247.5 284.5 L249.5 284.5 L250.5 285.5 L251.5 285.5 L252.5 286.5 L253.5 286.5 L254.5 287.5 L255.5 287.5 L256.5 288.5 L257.5 288.5 L258.5 289.5 L260.5 289.5 L261.5 290.5 L262.5 290.5 L263.5 291.5 L265.5 291.5 L266.5 290.5 L272.5 290.5 L273.5 291.5 L274.5 291.5 L275.5 292.5 L277.5 292.5 L278.5 293.5 L282.5 293.5 L283.5 292.5 L284.5 292.5 L285.5 291.5 L286.5 291.5 L287.5 290.5 L288.5 290.5 L289.5 289.5 L290.5 289.5 L291.5 288.5 L292.5 288.5 L293.5 287.5 L294.5 287.5 L295.5 286.5 L295.5 285.5 L296.5 284.5 L297.5 284.5 L298.5 283.5 L299.5 282.5 L300.5 282.5 L301.5 281.5 L302.5 280.5 L304.5 280.5 L305.5 279.5 L308.5 279.5 L309.5 278.5 L310.5 278.5 L311.5 277.5 L312.5 277.5 L313.5 276.5 L314.5 276.5 L315.5 275.5 L316.5 274.5 L317.5 274.5 L318.5 273.5 L319.5 272.5 L320.5 272.5 L321.5 271.5 L322.5 270.5 L323.5 270.5 L324.5 269.5 L326.5 269.5 L327.5 268.5 L329.5 268.5 L330.5 267.5 L332.5 267.5 L333.5 266.5 L335.5 266.5 L336.5 265.5 L337.5 265.5 L338.5 264.5 L339.5 264.5 L340.5 263.5 L341.5 262.5 L342.5 261.5 L343.5 260.5 L344.5 259.5 L345.5 258.5 L346.5 257.5 L347.5 256.5 L347.5 255.5 L348.5 254.5 L349.5 253.5 L350.5 252.5 L351.5 251.5 L352.5 250.5 L353.5 249.5 L354.5 248.5 L355.5 247.5 L356.5 247.5 L357.5 246.5 L358.5 245.5 L359.5 245.5 L360.5 244.5 L361.5 244.5 L362.5 243.5 L364.5 243.5 L365.5 242.5 L368.5 242.5 L369.5 241.5 L370.5 240.5 L371.5 240.5 L371.5 239.5 L372.5 238.5 L372.5 237.5 L373.5 236.5 L373.5 234.5 L374.5 233.5 L374.5 232.5 L375.5 231.5 L375.5 230.5 L376.5 229.5 L376.5 228.5 L377.5 227.5 L378.5 226.5 L378.5 225.5 L379.5 224.5 L379.5 223.5 L380.5 222.5 L380.5 221.5 L381.5 220.5 L382.5 220.5 L383.5 219.5 L384.5 219.5 L385.5 218.5 L390.5 218.5 L391.5 217.5 L396.5 217.5 L397.5 216.5 L398.5 215.5 L399.5 215.5 L400.5 214.5 L400.5 208.5 L399.5 208.5 L398.5 207.5 L397.5 206.5 L396.5 206.5 L395.5 205.5 L394.5 205.5 L393.5 204.5 L392.5 204.5 L391.5 203.5 L390.5 202.5 L390.5 201.5 L389.5 200.5 L389.5 197.5 L388.5 196.5 L387.5 195.5 L386.5 194.5 L386.5 193.5 L385.5 192.5 L385.5 189.5 L384.5 188.5 L383.5 187.5 L383.5 186.5 L382.5 185.5 L382.5 184.5 L381.5 183.5 L380.5 182.5 L380.5 177.5 L379.5 176.5 L378.5 176.5 L377.5 175.5 L376.5 176.5 L375.5 176.5 L374.5 175.5 L373.5 175.5 L372.5 174.5 L371.5 173.5 L370.5 172.5 L369.5 171.5 L368.5 170.5 L367.5 169.5 L366.5 168.5 L365.5 167.5 L364.5 166.5 L363.5 165.5 L362.5 164.5 L361.5 163.5 L360.5 162.5 L360.5 161.5 L359.5 160.5 L359.5 159.5 L358.5 158.5 L357.5 157.5 L356.5 156.5 L356.5 155.5 L355.5 155.5 L354.5 154.5 L353.5 154.5 L352.5 153.5 L350.5 153.5 L349.5 154.5 L345.5 154.5 L344.5 153.5 L340.5 153.5 L339.5 152.5 L337.5 152.5 L336.5 151.5 L335.5 151.5 L334.5 152.5 L333.5 151.5 L332.5 151.5 L331.5 150.5 L329.5 150.5 L328.5 149.5 L327.5 148.5 L326.5 147.5 L325.5 147.5 L324.5 146.5 L321.5 146.5 L320.5 145.5 L319.5 144.5 L318.5 144.5 L317.5 143.5 L316.5 143.5 L315.5 142.5 L314.5 141.5 L313.5 140.5 L312.5 140.5 L311.5 139.5 L308.5 139.5 L307.5 140.5 L306.5 139.5 L305.5 139.5 L304.5 138.5 L303.5 138.5 L302.5 137.5 L302.5 136.5 L301.5 135.5 L300.5 134.5 L299.5 133.5 L298.5 132.5 L298.5 128.5 L297.5 127.5 L297.5 124.5 L296.5 123.5 L296.5 117.5 L295.5 116.5 L295.5 106.5 L294.5 105.5 L294.5 94.5 L295.5 93.5 L296.5 92.5 L297.5 91.5 L298.5 91.5 L299.5 90.5 L300.5 89.5 L301.5 88.5 L302.5 87.5 L302.5 86.5 L303.5 85.5 L304.5 84.5 L304.5 79.5 L299.5 79.5 L298.5 80.5 L297.5 81.5 L297.5 82.5 L296.5 83.5 L295.5 83.5 L294.5 84.5 L293.5 83.5 L292.5 82.5 L292.5 81.5 L293.5 80.5 L292.5 79.5 L291.5 78.5 L290.5 78.5 L289.5 79.5 L289.5 84.5 L288.5 85.5 L287.5 86.5 L286.5 85.5 L285.5 86.5 L284.5 86.5 L283.5 87.5 L282.5 88.5 L282.5 90.5 L283.5 91.5 L284.5 92.5 L285.5 92.5 L286.5 93.5 L287.5 94.5 L288.5 95.5 L288.5 106.5 L287.5 107.5 L287.5 119.5 L286.5 120.5 L286.5 123.5 L285.5 124.5 L285.5 126.5 L284.5 127.5 L284.5 130.5 L283.5 131.5 L283.5 132.5 L282.5 133.5 L281.5 134.5 L280.5 135.5 L276.5 135.5 L275.5 136.5 L273.5 136.5 L272.5 137.5 L270.5 137.5 L269.5 136.5 L268.5 135.5 L267.5 135.5 L266.5 134.5 L265.5 134.5 L264.5 133.5 L263.5 133.5 L262.5 134.5 L261.5 134.5 L260.5 133.5 L259.5 132.5 L258.5 131.5 L257.5 130.5 L256.5 130.5 L255.5 129.5 L254.5 129.5 L253.5 130.5 L252.5 131.5 L250.5 131.5 L249.5 132.5 L247.5 132.5 L246.5 131.5 L245.5 132.5 L242.5 132.5 L241.5 131.5 L240.5 131.5 L239.5 130.5 L234.5 130.5 L233.5 129.5 L232.5 129.5 L231.5 128.5 L230.5 127.5 L230.5 124.5 L231.5 123.5 L231.5 122.5 L232.5 121.5 L233.5 121.5 L234.5 120.5 L235.5 119.5 L235.5 114.5 L234.5 113.5 L234.5 105.5 L233.5 104.5 L233.5 98.5 L232.5 97.5 L232.5 91.5 L231.5 90.5 L231.5 89.5 L230.5 88.5 L230.5 86.5 L231.5 85.5 L231.5 83.5 L230.5 82.5 L229.5 81.5 L228.5 81.5 L227.5 82.5 L226.5 83.5 L226.5 85.5 L225.5 86.5 L224.5 87.5 L223.5 87.5 L222.5 86.5 L221.5 85.5 L221.5 84.5 L220.5 83.5 L220.5 81.5 L221.5 80.5 L221.5 79.5 L220.5 78.5 L220.5 70.5 L219.5 69.5 L218.5 68.5 L217.5 67.5 L217.5 66.5 L216.5 65.5 L216.5 57.5 L215.5 56.5 L215.5 48.5 L214.5 47.5 L214.5 33.5 L213.5 32.5 L213.5 23.5 L212.5 22.5 L212.5 11.5 L211.5 10.5 L211.5 8.5 L210.5 7.5 L210.5 4.5 L211.5 3.5 L211.5 2.5 L210.5 1.5 L210.5 0.5 Z M224.5 93.5 L225.5 92.5 L226.5 93.5 L227.5 94.5 L227.5 96.5 L226.5 97.5 L225.5 98.5 L224.5 98.5 L223.5 97.5 L222.5 96.5 L223.5 95.5 L224.5 94.5 Z M235.5 285.5 L235.5 288.5 Z M235.5 294.5 L234.5 295.5 L233.5 295.5 L233.5 296.5 L234.5 295.5 Z"/>
    </g>
  </g>
</svg>
