<?xml version="1.0" encoding="UTF-8" standalone="no"?>
<!-- Created with PhotoLine 23.53 (www.pl32.de) -->
<!DOCTYPE svg PUBLIC "-//W3C//DTD SVG 1.1//EN" "http://www.w3.org/Graphics/SVG/1.1/DTD/svg11.dtd">
<svg width="1456" height="816" viewBox="0 0 1456 816" version="1.1" xmlns="http://www.w3.org/2000/svg" xmlns:xlink="http://www.w3.org/1999/xlink">
  <g id="shape">
    <g id="guard" transform="matrix(1 0 0 1 487 577)">
      <path fill="#bb4" stroke-linejoin="bevel" stroke-miterlimit="10" fill-rule="evenodd" stroke="#ffffff" d="M142.5 0.5 L144.5 0.5 L145.5 1.5 L144.5 2.5 L143.5 3.5 L142.5 2.5 L141.5 3.5 L141.5 7.5 L140.5 8.5 L140.5 12.5 L139.5 13.5 L139.5 14.5 L138.5 15.5 L137.5 16.5 L136.5 17.5 L135.5 18.5 L134.5 19.5 L134.5 20.5 L133.5 21.5 L132.5 22.5 L131.5 22.5 L130.5 23.5 L130.5 24.5 L129.5 25.5 L128.5 26.5 L127.5 26.5 L126.5 27.5 L125.5 28.5 L124.5 28.5 L123.5 29.5 L121.5 29.5 L120.5 30.5 L119.5 30.5 L118.5 31.5 L118.5 37.5 L117.5 38.5 L116.5 38.5 L115.5 39.5 L114.5 39.5 L113.5 40.5 L112.5 41.5 L111.5 40.5 L111.5 29.5 L110.5 28.5 L108.5 28.5 L108.5 41.5 L107.5 42.5 L106.5 43.5 L105.5 44.5 L105.5 45.5 L104.5 46.5 L103.5 46.5 L102.5 47.5 L102.5 48.5 L103.5 47.5 L104.5 48.5 L104.5 49.5 L103.5 50.5 L102.5 51.5 L103.5 52.5 L105.5 52.5 L106.5 53.5 L108.5 53.5 L109.5 54.5 L108.5 55.5 L108.5 59.5 L107.5 60.5 L105.5 60.5 L104.5 61.5 L99.5 61.5 L98.5 62.5 L92.5 62.5 L91.5 61.5 L90.5 60.5 L89.5 60.5 L88.5 59.5 L87.5 58.5 L87.5 57.5 L86.5 56.5 L85.5 55.5 L82.5 55.5 L81.5 56.5 L79.5 56.5 L78.5 57.5 L77.5 57.5 L76.5 58.5 L75.5 58.5 L74.5 59.5 L73.5 59.5 L73.5 60.5 L72.5 61.5 L72.5 63.5 L71.5 64.5 L68.5 64.5 L67.5 65.5 L66.5 66.5 L65.5 66.5 L64.5 67.5 L63.5 68.5 L62.5 69.5 L61.5 70.5 L60.5 71.5 L60.5 73.5 L61.5 74.5 L61.5 75.5 L60.5 76.5 L54.5 76.5 L53.5 75.5 L52.5 75.5 L51.5 76.5 L50.5 77.5 L49.5 78.5 L48.5 78.5 L47.5 79.5 L47.5 81.5 L46.5 82.5 L47.5 83.5 L47.5 88.5 L46.5 89.5 L46.5 90.5 L45.5 91.5 L43.5 91.5 L42.5 92.5 L43.5 93.5 L43.5 94.5 L44.5 95.5 L45.5 96.5 L44.5 97.5 L44.5 99.5 L46.5 99.5 L47.5 100.5 L46.5 101.5 L45.5 101.5 L44.5 102.5 L44.5 103.5 L43.5 104.5 L42.5 105.5 L41.5 106.5 L40.5 107.5 L37.5 107.5 L36.5 108.5 L31.5 108.5 L30.5 109.5 L29.5 109.5 L28.5 110.5 L26.5 110.5 L25.5 109.5 L24.5 110.5 L23.5 109.5 L22.5 109.5 L21.5 108.5 L20.5 108.5 L19.5 107.5 L18.5 108.5 L17.5 109.5 L15.5 109.5 L14.5 110.5 L13.5 110.5 L12.5 111.5 L12.5 117.5 L11.5 118.5 L10.5 119.5 L9.5 120.5 L8.5 121.5 L8.5 122.5 L7.5 123.5 L6.5 124.5 L5.5 125.5 L5.5 127.5 L6.5 128.5 L6.5 129.5 L7.5 130.5 L6.5 131.5 L6.5 132.5 L5.5 133.5 L4.5 134.5 L3.5 135.5 L2.5 136.5 L1.5 137.5 L0.5 138.5 L0.5 139.5 L1.5 140.5 L1.5 147.5 L2.5 148.5 L2.5 150.5 L3.5 151.5 L4.5 152.5 L5.5 153.5 L6.5 154.5 L7.5 154.5 L8.5 155.5 L11.5 155.5 L12.5 156.5 L13.5 157.5 L14.5 158.5 L14.5 161.5 L15.5 162.5 L15.5 163.5 L16.5 164.5 L20.5 164.5 L21.5 165.5 L27.5 165.5 L28.5 164.5 L29.5 164.5 L30.5 165.5 L32.5 165.5 L33.5 166.5 L34.5 166.5 L35.5 167.5 L36.5 167.5 L37.5 168.5 L40.5 168.5 L41.5 169.5 L48.5 169.5 L49.5 170.5 L54.5 170.5 L55.5 169.5 L59.5 169.5 L60.5 168.5 L66.5 168.5 L67.5 169.5 L68.5 169.5 L69.5 170.5 L83.5 170.5 L84.5 171.5 L86.5 171.5 L87.5 172.5 L88.5 172.5 L89.5 173.5 L93.5 173.5 L94.5 174.5 L100.5 174.5 L101.5 175.5 L100.5 176.5 L98.5 176.5 L97.5 177.5 L95.5 177.5 L94.5 176.5 L91.5 176.5 L90.5 175.5 L88.5 175.5 L90.5 175.5 L91.5 176.5 L94.5 176.5 L95.5 177.5 L97.5 177.5 L98.5 176.5 L101.5 176.5 L102.5 175.5 L104.5 175.5 L105.5 176.5 L104.5 177.5 L106.5 177.5 L107.5 176.5 L110.5 176.5 L111.5 175.5 L112.5 175.5 L113.5 174.5 L114.5 174.5 L115.5 173.5 L116.5 172.5 L117.5 172.5 L118.5 171.5 L119.5 171.5 L120.5 170.5 L121.5 170.5 L122.5 169.5 L123.5 169.5 L124.5 168.5 L125.5 168.5 L126.5 167.5 L127.5 167.5 L128.5 166.5 L129.5 166.5 L130.5 165.5 L140.5 165.5 L141.5 166.5 L151.5 166.5 L152.5 165.5 L154.5 165.5 L155.5 164.5 L156.5 164.5 L157.5 163.5 L158.5 163.5 L159.5 162.5 L160.5 162.5 L161.5 161.5 L162.5 162.5 L162.5 163.5 L163.5 164.5 L164.5 163.5 L165.5 163.5 L166.5 162.5 L168.5 162.5 L169.5 161.5 L170.5 161.5 L171.5 160.5 L172.5 159.5 L173.5 159.5 L174.5 158.5 L175.5 157.5 L176.5 157.5 L177.5 156.5 L178.5 155.5 L179.5 154.5 L180.5 153.5 L181.5 152.5 L181.5 151.5 L182.5 150.5 L183.5 149.5 L184.5 148.5 L184.5 147.5 L185.5 146.5 L185.5 144.5 L186.5 143.5 L187.5 142.5 L188.5 141.5 L189.5 140.5 L190.5 139.5 L191.5 138.5 L192.5 137.5 L193.5 136.5 L194.5 136.5 L195.5 135.5 L195.5 134.5 L196.5 133.5 L195.5 132.5 L196.5 131.5 L196.5 130.5 L195.5 129.5 L196.5 128.5 L197.5 127.5 L198.5 126.5 L199.5 126.5 L200.5 125.5 L201.5 124.5 L202.5 124.5 L202.5 123.5 L203.5 122.5 L204.5 121.5 L205.5 120.5 L206.5 120.5 L206.5 119.5 L207.5 118.5 L208.5 118.5 L209.5 117.5 L210.5 116.5 L211.5 115.5 L211.5 114.5 L212.5 113.5 L212.5 109.5 L211.5 108.5 L211.5 103.5 L212.5 102.5 L212.5 98.5 L213.5 97.5 L213.5 96.5 L214.5 95.5 L214.5 94.5 L215.5 93.5 L216.5 92.5 L217.5 91.5 L218.5 90.5 L219.5 89.5 L219.5 86.5 L220.5 85.5 L220.5 83.5 L221.5 82.5 L222.5 81.5 L221.5 80.5 L220.5 79.5 L219.5 78.5 L217.5 78.5 L216.5 79.5 L213.5 79.5 L212.5 80.5 L210.5 80.5 L209.5 81.5 L208.5 81.5 L207.5 80.5 L206.5 79.5 L205.5 78.5 L203.5 78.5 L202.5 77.5 L202.5 75.5 L201.5 74.5 L200.5 73.5 L199.5 72.5 L199.5 68.5 L200.5 67.5 L201.5 67.5 L202.5 66.5 L204.5 66.5 L204.5 64.5 L205.5 63.5 L205.5 61.5 L206.5 60.5 L205.5 59.5 L199.5 59.5 L198.5 58.5 L197.5 58.5 L196.5 57.5 L195.5 56.5 L194.5 56.5 L193.5 55.5 L192.5 55.5 L191.5 54.5 L188.5 54.5 L187.5 53.5 L186.5 53.5 L185.5 54.5 L182.5 54.5 L181.5 53.5 L180.5 52.5 L179.5 51.5 L178.5 50.5 L178.5 49.5 L177.5 48.5 L177.5 46.5 L176.5 45.5 L175.5 44.5 L175.5 42.5 L174.5 41.5 L174.5 39.5 L173.5 38.5 L172.5 37.5 L171.5 36.5 L171.5 35.5 L170.5 34.5 L170.5 24.5 L169.5 24.5 L168.5 23.5 L167.5 23.5 L166.5 24.5 L165.5 24.5 L164.5 23.5 L163.5 22.5 L162.5 22.5 L161.5 21.5 L157.5 21.5 L156.5 20.5 L155.5 20.5 L154.5 19.5 L153.5 18.5 L152.5 17.5 L151.5 16.5 L150.5 15.5 L149.5 14.5 L149.5 13.5 L148.5 12.5 L148.5 11.5 L147.5 10.5 L147.5 8.5 L146.5 7.5 L146.5 4.5 L145.5 3.5 L145.5 1.5 L144.5 0.5 Z M142.5 4.5 L143.5 3.5 L144.5 4.5 L143.5 5.5 Z M101.5 174.5 L102.5 173.5 L103.5 174.5 L102.5 175.5 Z M118.5 176.5 L117.5 177.5 L116.5 177.5 L117.5 177.5 Z"/>
    </g>
  </g>
</svg>
