<?xml version="1.0" encoding="UTF-8" standalone="no"?>
<!-- Created with PhotoLine 23.53 (www.pl32.de) -->
<!DOCTYPE svg PUBLIC "-//W3C//DTD SVG 1.1//EN" "http://www.w3.org/Graphics/SVG/1.1/DTD/svg11.dtd">
<svg width="1456" height="816" viewBox="0 0 1456 816" version="1.1" xmlns="http://www.w3.org/2000/svg" xmlns:xlink="http://www.w3.org/1999/xlink">
  <g id="shape">
    <g id="witch" transform="matrix(1 0 0 1 558 124)">
      <path fill="#bb4" stroke-linejoin="bevel" stroke-miterlimit="10" fill-rule="evenodd" stroke="#ffffff" d="M78.5 1.5 L77.5 2.5 L76.5 2.5 L75.5 3.5 L74.5 3.5 L73.5 4.5 L72.5 4.5 L71.5 5.5 L70.5 5.5 L69.5 6.5 L67.5 6.5 L66.5 7.5 L65.5 8.5 L63.5 8.5 L62.5 9.5 L61.5 10.5 L59.5 10.5 L58.5 11.5 L57.5 12.5 L55.5 12.5 L54.5 13.5 L53.5 13.5 L52.5 14.5 L50.5 14.5 L49.5 15.5 L48.5 15.5 L47.5 16.5 L44.5 16.5 L43.5 17.5 L41.5 17.5 L40.5 18.5 L36.5 18.5 L35.5 19.5 L34.5 19.5 L33.5 18.5 L30.5 18.5 L29.5 17.5 L29.5 15.5 L28.5 15.5 L27.5 14.5 L25.5 14.5 L24.5 15.5 L23.5 15.5 L23.5 21.5 L22.5 22.5 L22.5 29.5 L21.5 30.5 L21.5 32.5 L20.5 33.5 L19.5 34.5 L17.5 34.5 L16.5 33.5 L15.5 33.5 L15.5 34.5 L14.5 35.5 L15.5 36.5 L15.5 40.5 L16.5 41.5 L16.5 47.5 L15.5 48.5 L14.5 49.5 L13.5 50.5 L12.5 50.5 L11.5 51.5 L11.5 52.5 L10.5 53.5 L9.5 52.5 L10.5 53.5 L10.5 54.5 L9.5 55.5 L8.5 56.5 L7.5 57.5 L7.5 59.5 L6.5 60.5 L7.5 61.5 L7.5 66.5 L6.5 67.5 L6.5 69.5 L5.5 70.5 L5.5 72.5 L4.5 73.5 L3.5 74.5 L2.5 75.5 L1.5 76.5 L1.5 78.5 L3.5 78.5 L4.5 79.5 L4.5 80.5 L3.5 81.5 L3.5 85.5 L4.5 86.5 L3.5 87.5 L2.5 88.5 L2.5 89.5 L1.5 90.5 L2.5 89.5 L2.5 88.5 L3.5 87.5 L4.5 88.5 L4.5 92.5 L5.5 93.5 L5.5 94.5 L6.5 95.5 L7.5 95.5 L8.5 96.5 L10.5 96.5 L11.5 97.5 L12.5 97.5 L13.5 98.5 L18.5 98.5 L19.5 99.5 L20.5 99.5 L21.5 98.5 L22.5 99.5 L27.5 99.5 L28.5 100.5 L29.5 101.5 L30.5 102.5 L30.5 104.5 L31.5 105.5 L31.5 106.5 L41.5 106.5 L42.5 107.5 L43.5 108.5 L44.5 109.5 L45.5 110.5 L46.5 111.5 L48.5 111.5 L49.5 112.5 L50.5 111.5 L53.5 111.5 L54.5 112.5 L55.5 112.5 L56.5 111.5 L59.5 111.5 L60.5 112.5 L62.5 112.5 L63.5 111.5 L65.5 111.5 L66.5 110.5 L68.5 110.5 L69.5 109.5 L70.5 110.5 L70.5 109.5 L71.5 108.5 L72.5 108.5 L73.5 107.5 L77.5 107.5 L78.5 108.5 L79.5 108.5 L80.5 107.5 L81.5 107.5 L82.5 106.5 L83.5 106.5 L83.5 105.5 L84.5 104.5 L84.5 103.5 L85.5 102.5 L86.5 101.5 L87.5 101.5 L88.5 100.5 L89.5 100.5 L90.5 101.5 L91.5 101.5 L92.5 100.5 L94.5 100.5 L95.5 101.5 L97.5 101.5 L98.5 100.5 L102.5 100.5 L103.5 99.5 L104.5 98.5 L104.5 96.5 L105.5 95.5 L106.5 95.5 L106.5 94.5 L107.5 93.5 L107.5 91.5 L108.5 90.5 L108.5 89.5 L109.5 88.5 L109.5 87.5 L108.5 86.5 L107.5 85.5 L108.5 84.5 L108.5 80.5 L107.5 79.5 L108.5 78.5 L109.5 77.5 L109.5 74.5 L108.5 73.5 L108.5 72.5 L107.5 71.5 L107.5 70.5 L106.5 69.5 L106.5 68.5 L105.5 67.5 L105.5 66.5 L104.5 65.5 L104.5 64.5 L103.5 63.5 L102.5 62.5 L102.5 60.5 L101.5 59.5 L101.5 58.5 L100.5 57.5 L99.5 56.5 L99.5 53.5 L98.5 52.5 L98.5 50.5 L97.5 49.5 L97.5 48.5 L98.5 47.5 L99.5 47.5 L100.5 46.5 L101.5 45.5 L100.5 45.5 L99.5 44.5 L97.5 44.5 L96.5 43.5 L95.5 42.5 L94.5 42.5 L93.5 41.5 L93.5 39.5 L92.5 38.5 L92.5 37.5 L91.5 36.5 L90.5 35.5 L90.5 34.5 L89.5 33.5 L89.5 31.5 L88.5 30.5 L88.5 29.5 L87.5 28.5 L87.5 26.5 L86.5 25.5 L86.5 23.5 L85.5 22.5 L85.5 20.5 L84.5 19.5 L84.5 16.5 L83.5 15.5 L83.5 14.5 L82.5 13.5 L82.5 11.5 L81.5 10.5 L81.5 7.5 L80.5 6.5 L80.5 3.5 L79.5 2.5 L79.5 1.5 Z M108.5 68.5 L109.5 68.5 Z M111.5 69.5 L111.5 70.5 Z M51.5 113.5 Z"/>
    </g>
  </g>
</svg>
