<?xml version="1.0" encoding="UTF-8" standalone="no"?>
<!-- Created with PhotoLine 23.53 (www.pl32.de) -->
<!DOCTYPE svg PUBLIC "-//W3C//DTD SVG 1.1//EN" "http://www.w3.org/Graphics/SVG/1.1/DTD/svg11.dtd">
<svg width="759" height="708" viewBox="0 0 759 708" version="1.1" xmlns="http://www.w3.org/2000/svg" xmlns:xlink="http://www.w3.org/1999/xlink">
  <g id="shape" transform="matrix(1 0 0 1 -263 -61)">
    <path stroke-width="0" stroke-linejoin="bevel" stroke-miterlimit="10" stroke="#000000" d="M823.5 60.5 L822.5 61.5 L821.5 62.5 L820.5 62.5 L819.5 63.5 L816.5 63.5 L815.5 64.5 L814.5 65.5 L813.5 65.5 L812.5 66.5 L811.5 67.5 L810.5 68.5 L809.5 69.5 L809.5 70.5 L808.5 71.5 L807.5 72.5 L807.5 77.5 L808.5 78.5 L808.5 87.5 L809.5 88.5 L809.5 93.5 L808.5 94.5 L808.5 95.5 L807.5 96.5 L807.5 97.5 L806.5 98.5 L806.5 99.5 L805.5 100.5 L805.5 101.5 L804.5 102.5 L804.5 103.5 L803.5 104.5 L802.5 105.5 L801.5 106.5 L800.5 107.5 L799.5 108.5 L799.5 109.5 L798.5 110.5 L798.5 117.5 L797.5 118.5 L797.5 121.5 L798.5 122.5 L798.5 124.5 L797.5 125.5 L797.5 126.5 L796.5 127.5 L795.5 128.5 L794.5 129.5 L793.5 130.5 L792.5 130.5 L791.5 131.5 L790.5 132.5 L789.5 133.5 L788.5 134.5 L787.5 134.5 L786.5 135.5 L785.5 136.5 L784.5 137.5 L783.5 138.5 L782.5 138.5 L781.5 139.5 L780.5 140.5 L779.5 141.5 L779.5 142.5 L778.5 143.5 L778.5 144.5 L777.5 145.5 L777.5 146.5 L776.5 147.5 L776.5 150.5 L777.5 151.5 L778.5 152.5 L779.5 153.5 L780.5 153.5 L781.5 154.5 L782.5 154.5 L783.5 155.5 L784.5 156.5 L785.5 157.5 L785.5 162.5 L786.5 163.5 L786.5 164.5 L787.5 165.5 L787.5 166.5 L788.5 167.5 L788.5 171.5 L787.5 172.5 L786.5 173.5 L786.5 174.5 L785.5 175.5 L785.5 179.5 L784.5 180.5 L784.5 181.5 L783.5 182.5 L782.5 183.5 L781.5 184.5 L780.5 185.5 L780.5 186.5 L779.5 187.5 L779.5 189.5 L778.5 190.5 L778.5 192.5 L777.5 193.5 L777.5 194.5 L778.5 195.5 L778.5 200.5 L779.5 201.5 L780.5 202.5 L781.5 203.5 L782.5 204.5 L783.5 204.5 L784.5 205.5 L786.5 205.5 L787.5 206.5 L793.5 206.5 L794.5 205.5 L796.5 205.5 L797.5 206.5 L798.5 206.5 L799.5 207.5 L800.5 207.5 L801.5 208.5 L802.5 209.5 L803.5 209.5 L804.5 210.5 L805.5 211.5 L806.5 211.5 L807.5 212.5 L808.5 213.5 L809.5 213.5 L810.5 214.5 L810.5 215.5 L809.5 216.5 L808.5 217.5 L805.5 217.5 L804.5 218.5 L799.5 218.5 L798.5 219.5 L794.5 219.5 L793.5 220.5 L792.5 220.5 L791.5 221.5 L791.5 222.5 L790.5 223.5 L791.5 224.5 L791.5 226.5 L792.5 227.5 L792.5 229.5 L793.5 230.5 L793.5 232.5 L794.5 233.5 L794.5 235.5 L795.5 236.5 L795.5 237.5 L796.5 238.5 L796.5 240.5 L795.5 241.5 L795.5 242.5 L794.5 243.5 L793.5 244.5 L792.5 245.5 L791.5 245.5 L790.5 246.5 L789.5 247.5 L788.5 248.5 L787.5 249.5 L786.5 249.5 L785.5 250.5 L784.5 251.5 L783.5 252.5 L782.5 253.5 L781.5 253.5 L780.5 254.5 L779.5 255.5 L778.5 256.5 L777.5 257.5 L776.5 257.5 L775.5 258.5 L774.5 259.5 L774.5 260.5 L773.5 261.5 L772.5 262.5 L771.5 263.5 L770.5 263.5 L769.5 264.5 L768.5 264.5 L767.5 265.5 L766.5 266.5 L765.5 266.5 L764.5 267.5 L763.5 268.5 L762.5 268.5 L761.5 269.5 L759.5 269.5 L758.5 270.5 L757.5 270.5 L756.5 271.5 L755.5 272.5 L755.5 273.5 L754.5 274.5 L754.5 275.5 L753.5 276.5 L753.5 277.5 L752.5 278.5 L752.5 279.5 L751.5 280.5 L750.5 281.5 L750.5 282.5 L749.5 283.5 L749.5 289.5 L748.5 290.5 L748.5 291.5 L747.5 292.5 L746.5 292.5 L745.5 293.5 L744.5 293.5 L743.5 294.5 L742.5 294.5 L741.5 295.5 L740.5 295.5 L739.5 296.5 L738.5 297.5 L737.5 298.5 L736.5 299.5 L735.5 300.5 L734.5 301.5 L733.5 302.5 L732.5 303.5 L731.5 304.5 L730.5 305.5 L729.5 306.5 L728.5 307.5 L727.5 308.5 L726.5 309.5 L725.5 310.5 L725.5 311.5 L724.5 312.5 L724.5 313.5 L723.5 314.5 L723.5 316.5 L722.5 317.5 L722.5 318.5 L721.5 319.5 L721.5 320.5 L720.5 321.5 L720.5 328.5 L721.5 329.5 L721.5 334.5 L720.5 335.5 L720.5 336.5 L719.5 337.5 L718.5 338.5 L714.5 338.5 L713.5 337.5 L712.5 337.5 L711.5 336.5 L710.5 335.5 L709.5 334.5 L708.5 334.5 L707.5 333.5 L706.5 333.5 L705.5 332.5 L704.5 331.5 L703.5 331.5 L702.5 330.5 L701.5 329.5 L700.5 329.5 L699.5 328.5 L698.5 327.5 L697.5 327.5 L696.5 326.5 L695.5 325.5 L694.5 325.5 L693.5 324.5 L692.5 323.5 L691.5 323.5 L690.5 322.5 L689.5 321.5 L688.5 321.5 L687.5 320.5 L686.5 319.5 L685.5 319.5 L684.5 318.5 L683.5 317.5 L682.5 317.5 L681.5 316.5 L680.5 315.5 L679.5 315.5 L678.5 314.5 L677.5 313.5 L676.5 313.5 L675.5 312.5 L674.5 311.5 L673.5 310.5 L672.5 310.5 L671.5 309.5 L670.5 308.5 L669.5 308.5 L668.5 307.5 L667.5 306.5 L666.5 306.5 L665.5 305.5 L664.5 304.5 L663.5 304.5 L662.5 303.5 L661.5 302.5 L660.5 302.5 L659.5 301.5 L658.5 300.5 L657.5 300.5 L656.5 299.5 L655.5 298.5 L654.5 298.5 L653.5 297.5 L652.5 296.5 L651.5 296.5 L650.5 295.5 L649.5 294.5 L648.5 294.5 L647.5 293.5 L646.5 292.5 L645.5 292.5 L644.5 291.5 L643.5 290.5 L642.5 290.5 L641.5 289.5 L640.5 288.5 L639.5 288.5 L638.5 287.5 L637.5 287.5 L636.5 286.5 L635.5 285.5 L634.5 285.5 L633.5 284.5 L632.5 284.5 L631.5 283.5 L630.5 283.5 L629.5 282.5 L628.5 282.5 L627.5 281.5 L626.5 281.5 L625.5 280.5 L624.5 280.5 L623.5 279.5 L622.5 279.5 L621.5 278.5 L620.5 278.5 L619.5 277.5 L618.5 277.5 L617.5 276.5 L616.5 276.5 L615.5 275.5 L614.5 275.5 L613.5 274.5 L612.5 274.5 L611.5 273.5 L610.5 273.5 L609.5 272.5 L608.5 271.5 L607.5 271.5 L606.5 270.5 L605.5 269.5 L604.5 269.5 L603.5 268.5 L602.5 268.5 L601.5 267.5 L597.5 267.5 L596.5 268.5 L594.5 268.5 L593.5 269.5 L592.5 269.5 L591.5 270.5 L590.5 271.5 L589.5 271.5 L588.5 272.5 L587.5 272.5 L586.5 273.5 L585.5 274.5 L584.5 274.5 L583.5 275.5 L582.5 276.5 L581.5 276.5 L580.5 277.5 L579.5 278.5 L578.5 279.5 L577.5 279.5 L576.5 280.5 L575.5 281.5 L574.5 282.5 L573.5 283.5 L572.5 283.5 L571.5 284.5 L570.5 285.5 L569.5 286.5 L568.5 287.5 L567.5 288.5 L566.5 288.5 L565.5 289.5 L564.5 290.5 L563.5 291.5 L562.5 292.5 L561.5 293.5 L560.5 294.5 L560.5 295.5 L559.5 296.5 L559.5 297.5 L558.5 298.5 L558.5 299.5 L557.5 300.5 L557.5 301.5 L556.5 302.5 L555.5 303.5 L555.5 304.5 L554.5 305.5 L554.5 306.5 L553.5 307.5 L553.5 308.5 L552.5 309.5 L552.5 310.5 L551.5 311.5 L550.5 312.5 L550.5 313.5 L549.5 314.5 L549.5 315.5 L548.5 316.5 L548.5 317.5 L547.5 318.5 L546.5 319.5 L546.5 320.5 L545.5 321.5 L545.5 322.5 L544.5 323.5 L543.5 324.5 L543.5 325.5 L542.5 326.5 L541.5 327.5 L541.5 328.5 L540.5 329.5 L540.5 330.5 L539.5 331.5 L538.5 332.5 L538.5 333.5 L537.5 334.5 L536.5 335.5 L536.5 336.5 L535.5 337.5 L535.5 338.5 L534.5 339.5 L533.5 340.5 L533.5 341.5 L532.5 342.5 L531.5 343.5 L531.5 344.5 L530.5 345.5 L529.5 346.5 L529.5 347.5 L528.5 348.5 L527.5 349.5 L527.5 350.5 L526.5 351.5 L525.5 352.5 L525.5 353.5 L524.5 354.5 L523.5 355.5 L523.5 356.5 L522.5 357.5 L522.5 358.5 L521.5 359.5 L520.5 360.5 L520.5 361.5 L519.5 362.5 L518.5 363.5 L518.5 364.5 L517.5 365.5 L517.5 366.5 L516.5 367.5 L515.5 368.5 L515.5 369.5 L514.5 370.5 L514.5 371.5 L513.5 372.5 L512.5 373.5 L512.5 374.5 L511.5 375.5 L511.5 376.5 L510.5 377.5 L509.5 378.5 L509.5 379.5 L508.5 380.5 L507.5 381.5 L507.5 382.5 L506.5 383.5 L505.5 384.5 L505.5 385.5 L504.5 386.5 L504.5 387.5 L503.5 388.5 L502.5 389.5 L502.5 390.5 L501.5 391.5 L500.5 392.5 L500.5 393.5 L499.5 394.5 L498.5 395.5 L497.5 396.5 L496.5 397.5 L494.5 397.5 L493.5 398.5 L490.5 398.5 L489.5 399.5 L485.5 399.5 L484.5 400.5 L480.5 400.5 L479.5 401.5 L476.5 401.5 L475.5 402.5 L474.5 403.5 L473.5 404.5 L473.5 414.5 L474.5 415.5 L474.5 418.5 L475.5 419.5 L475.5 422.5 L476.5 423.5 L476.5 424.5 L477.5 425.5 L477.5 426.5 L478.5 427.5 L479.5 428.5 L479.5 429.5 L480.5 430.5 L480.5 431.5 L479.5 432.5 L479.5 434.5 L478.5 435.5 L478.5 437.5 L477.5 438.5 L477.5 439.5 L476.5 440.5 L476.5 441.5 L475.5 442.5 L474.5 443.5 L473.5 444.5 L472.5 445.5 L471.5 446.5 L470.5 447.5 L469.5 448.5 L469.5 449.5 L468.5 450.5 L467.5 451.5 L466.5 452.5 L465.5 453.5 L464.5 454.5 L463.5 455.5 L463.5 456.5 L462.5 457.5 L461.5 458.5 L460.5 459.5 L460.5 460.5 L459.5 461.5 L458.5 462.5 L457.5 463.5 L457.5 464.5 L456.5 465.5 L456.5 466.5 L455.5 467.5 L454.5 468.5 L454.5 469.5 L453.5 470.5 L452.5 471.5 L452.5 472.5 L451.5 473.5 L451.5 474.5 L450.5 475.5 L449.5 476.5 L449.5 477.5 L448.5 478.5 L447.5 479.5 L446.5 480.5 L446.5 481.5 L445.5 482.5 L445.5 489.5 L444.5 490.5 L444.5 500.5 L445.5 501.5 L445.5 505.5 L444.5 506.5 L443.5 507.5 L442.5 508.5 L441.5 509.5 L440.5 510.5 L439.5 511.5 L438.5 512.5 L437.5 513.5 L436.5 514.5 L435.5 514.5 L434.5 515.5 L433.5 516.5 L432.5 517.5 L431.5 518.5 L430.5 519.5 L429.5 520.5 L428.5 520.5 L427.5 521.5 L426.5 522.5 L425.5 522.5 L424.5 523.5 L404.5 523.5 L403.5 524.5 L402.5 525.5 L401.5 526.5 L400.5 527.5 L397.5 527.5 L396.5 526.5 L395.5 525.5 L394.5 524.5 L393.5 523.5 L392.5 522.5 L391.5 521.5 L390.5 520.5 L389.5 519.5 L388.5 519.5 L387.5 518.5 L386.5 518.5 L385.5 517.5 L384.5 517.5 L383.5 516.5 L378.5 516.5 L377.5 515.5 L370.5 515.5 L369.5 514.5 L360.5 514.5 L359.5 515.5 L358.5 515.5 L357.5 516.5 L356.5 517.5 L355.5 517.5 L354.5 518.5 L353.5 519.5 L352.5 520.5 L351.5 521.5 L350.5 522.5 L349.5 523.5 L348.5 523.5 L347.5 524.5 L346.5 525.5 L345.5 526.5 L344.5 527.5 L343.5 528.5 L342.5 529.5 L341.5 530.5 L340.5 531.5 L339.5 532.5 L338.5 533.5 L337.5 534.5 L336.5 535.5 L335.5 536.5 L335.5 537.5 L334.5 538.5 L334.5 539.5 L333.5 540.5 L333.5 542.5 L334.5 543.5 L334.5 548.5 L335.5 549.5 L335.5 552.5 L336.5 553.5 L336.5 555.5 L337.5 556.5 L337.5 557.5 L338.5 558.5 L338.5 559.5 L339.5 560.5 L339.5 561.5 L340.5 562.5 L341.5 563.5 L341.5 564.5 L342.5 565.5 L343.5 566.5 L343.5 567.5 L344.5 568.5 L345.5 569.5 L346.5 570.5 L347.5 571.5 L348.5 572.5 L349.5 573.5 L350.5 574.5 L351.5 575.5 L352.5 576.5 L353.5 577.5 L354.5 578.5 L355.5 579.5 L356.5 580.5 L357.5 581.5 L358.5 582.5 L359.5 583.5 L360.5 584.5 L361.5 584.5 L362.5 585.5 L363.5 586.5 L364.5 587.5 L365.5 588.5 L366.5 588.5 L367.5 589.5 L368.5 590.5 L369.5 590.5 L370.5 591.5 L371.5 591.5 L372.5 592.5 L373.5 592.5 L374.5 593.5 L376.5 593.5 L377.5 594.5 L379.5 594.5 L380.5 595.5 L382.5 595.5 L383.5 596.5 L386.5 596.5 L387.5 597.5 L390.5 597.5 L391.5 598.5 L395.5 598.5 L396.5 599.5 L400.5 599.5 L401.5 600.5 L406.5 600.5 L407.5 601.5 L411.5 601.5 L412.5 602.5 L415.5 602.5 L416.5 603.5 L418.5 603.5 L419.5 604.5 L420.5 604.5 L421.5 605.5 L422.5 605.5 L423.5 606.5 L424.5 607.5 L425.5 608.5 L426.5 609.5 L427.5 610.5 L427.5 612.5 L426.5 613.5 L426.5 614.5 L425.5 615.5 L425.5 617.5 L424.5 618.5 L424.5 619.5 L423.5 620.5 L423.5 622.5 L422.5 623.5 L422.5 624.5 L421.5 625.5 L421.5 627.5 L420.5 628.5 L420.5 630.5 L419.5 631.5 L419.5 633.5 L418.5 634.5 L418.5 637.5 L417.5 638.5 L417.5 642.5 L416.5 643.5 L416.5 648.5 L415.5 649.5 L415.5 654.5 L414.5 655.5 L414.5 662.5 L413.5 663.5 L413.5 668.5 L414.5 669.5 L414.5 671.5 L415.5 672.5 L415.5 675.5 L414.5 676.5 L413.5 677.5 L412.5 678.5 L411.5 679.5 L410.5 680.5 L410.5 681.5 L409.5 682.5 L409.5 684.5 L408.5 685.5 L408.5 696.5 L407.5 697.5 L407.5 698.5 L406.5 699.5 L405.5 700.5 L404.5 700.5 L403.5 701.5 L402.5 701.5 L401.5 702.5 L392.5 702.5 L391.5 703.5 L390.5 703.5 L389.5 704.5 L388.5 705.5 L387.5 706.5 L386.5 707.5 L367.5 707.5 L366.5 706.5 L363.5 706.5 L362.5 707.5 L361.5 707.5 L360.5 708.5 L359.5 708.5 L358.5 709.5 L357.5 709.5 L356.5 710.5 L355.5 711.5 L354.5 712.5 L353.5 713.5 L352.5 714.5 L351.5 715.5 L351.5 716.5 L350.5 717.5 L349.5 718.5 L348.5 719.5 L348.5 720.5 L347.5 721.5 L347.5 722.5 L346.5 723.5 L346.5 724.5 L345.5 725.5 L344.5 726.5 L343.5 727.5 L342.5 728.5 L342.5 729.5 L341.5 730.5 L341.5 737.5 L342.5 738.5 L342.5 739.5 L343.5 740.5 L343.5 741.5 L344.5 742.5 L344.5 743.5 L345.5 744.5 L346.5 745.5 L347.5 746.5 L348.5 747.5 L349.5 748.5 L350.5 748.5 L351.5 749.5 L352.5 750.5 L353.5 750.5 L354.5 751.5 L355.5 752.5 L356.5 752.5 L357.5 753.5 L358.5 753.5 L359.5 754.5 L360.5 754.5 L361.5 755.5 L362.5 755.5 L363.5 756.5 L363.5 758.5 L362.5 759.5 L328.5 759.5 L327.5 760.5 L325.5 760.5 L324.5 761.5 L321.5 761.5 L320.5 762.5 L288.5 762.5 L287.5 763.5 L264.5 763.5 L263.5 764.5 L262.5 765.5 L263.5 766.5 L264.5 767.5 L329.5 767.5 L330.5 766.5 L380.5 766.5 L381.5 767.5 L426.5 767.5 L427.5 766.5 L498.5 766.5 L499.5 767.5 L547.5 767.5 L548.5 766.5 L550.5 766.5 L551.5 765.5 L552.5 765.5 L553.5 764.5 L557.5 764.5 L558.5 763.5 L559.5 762.5 L559.5 760.5 L558.5 759.5 L557.5 759.5 L556.5 758.5 L510.5 758.5 L509.5 757.5 L508.5 756.5 L507.5 755.5 L508.5 754.5 L508.5 746.5 L509.5 745.5 L510.5 744.5 L511.5 743.5 L533.5 743.5 L534.5 742.5 L537.5 742.5 L538.5 743.5 L542.5 743.5 L543.5 744.5 L546.5 744.5 L547.5 745.5 L554.5 745.5 L555.5 746.5 L559.5 746.5 L560.5 747.5 L560.5 749.5 L559.5 750.5 L548.5 750.5 L547.5 749.5 L543.5 749.5 L542.5 750.5 L537.5 750.5 L536.5 751.5 L536.5 752.5 L537.5 753.5 L595.5 753.5 L596.5 752.5 L604.5 752.5 L605.5 753.5 L625.5 753.5 L626.5 754.5 L650.5 754.5 L651.5 753.5 L668.5 753.5 L669.5 752.5 L678.5 752.5 L679.5 751.5 L688.5 751.5 L689.5 750.5 L697.5 750.5 L698.5 751.5 L701.5 751.5 L702.5 752.5 L705.5 752.5 L706.5 753.5 L708.5 753.5 L709.5 754.5 L711.5 754.5 L712.5 755.5 L715.5 755.5 L716.5 756.5 L719.5 756.5 L720.5 757.5 L724.5 757.5 L725.5 758.5 L725.5 760.5 L724.5 761.5 L703.5 761.5 L702.5 762.5 L692.5 762.5 L691.5 763.5 L690.5 764.5 L691.5 765.5 L692.5 766.5 L712.5 766.5 L713.5 767.5 L722.5 767.5 L723.5 768.5 L724.5 768.5 L725.5 769.5 L735.5 769.5 L736.5 768.5 L764.5 768.5 L765.5 767.5 L780.5 767.5 L781.5 766.5 L810.5 766.5 L811.5 765.5 L818.5 765.5 L819.5 764.5 L823.5 764.5 L824.5 765.5 L825.5 764.5 L828.5 764.5 L829.5 763.5 L839.5 763.5 L840.5 762.5 L842.5 762.5 L843.5 761.5 L846.5 761.5 L847.5 760.5 L852.5 760.5 L853.5 759.5 L929.5 759.5 L930.5 758.5 L931.5 757.5 L930.5 756.5 L930.5 755.5 L928.5 755.5 L927.5 754.5 L926.5 754.5 L925.5 755.5 L904.5 755.5 L903.5 754.5 L902.5 753.5 L901.5 752.5 L902.5 751.5 L903.5 751.5 L904.5 750.5 L905.5 749.5 L906.5 748.5 L909.5 748.5 L910.5 747.5 L914.5 747.5 L915.5 746.5 L916.5 745.5 L917.5 745.5 L918.5 744.5 L919.5 743.5 L920.5 742.5 L922.5 742.5 L923.5 741.5 L924.5 741.5 L925.5 740.5 L927.5 740.5 L928.5 739.5 L929.5 739.5 L930.5 738.5 L931.5 738.5 L932.5 737.5 L933.5 737.5 L934.5 736.5 L935.5 736.5 L936.5 735.5 L937.5 734.5 L937.5 733.5 L938.5 732.5 L938.5 731.5 L937.5 730.5 L936.5 729.5 L935.5 728.5 L933.5 728.5 L932.5 727.5 L929.5 727.5 L928.5 726.5 L924.5 726.5 L923.5 725.5 L910.5 725.5 L909.5 724.5 L888.5 724.5 L887.5 725.5 L883.5 725.5 L882.5 726.5 L878.5 726.5 L877.5 727.5 L873.5 727.5 L872.5 728.5 L869.5 728.5 L868.5 729.5 L864.5 729.5 L863.5 730.5 L859.5 730.5 L858.5 731.5 L854.5 731.5 L853.5 732.5 L848.5 732.5 L847.5 733.5 L842.5 733.5 L841.5 734.5 L838.5 734.5 L837.5 733.5 L836.5 732.5 L836.5 731.5 L837.5 730.5 L837.5 729.5 L838.5 728.5 L838.5 727.5 L839.5 726.5 L839.5 723.5 L840.5 722.5 L840.5 717.5 L841.5 716.5 L841.5 710.5 L842.5 709.5 L842.5 702.5 L843.5 701.5 L843.5 695.5 L844.5 694.5 L844.5 687.5 L845.5 686.5 L845.5 681.5 L846.5 680.5 L846.5 675.5 L847.5 674.5 L847.5 670.5 L848.5 669.5 L848.5 664.5 L849.5 663.5 L849.5 658.5 L850.5 657.5 L850.5 654.5 L851.5 653.5 L851.5 649.5 L852.5 648.5 L852.5 644.5 L853.5 643.5 L853.5 639.5 L854.5 638.5 L854.5 635.5 L855.5 634.5 L855.5 631.5 L856.5 630.5 L856.5 627.5 L857.5 626.5 L857.5 622.5 L858.5 621.5 L858.5 619.5 L859.5 618.5 L859.5 615.5 L860.5 614.5 L860.5 612.5 L861.5 611.5 L861.5 608.5 L862.5 607.5 L862.5 604.5 L863.5 603.5 L863.5 601.5 L864.5 600.5 L864.5 597.5 L865.5 596.5 L865.5 594.5 L866.5 593.5 L866.5 590.5 L867.5 589.5 L867.5 587.5 L868.5 586.5 L868.5 584.5 L869.5 583.5 L869.5 581.5 L870.5 580.5 L870.5 577.5 L871.5 576.5 L871.5 574.5 L872.5 573.5 L872.5 571.5 L873.5 570.5 L873.5 568.5 L874.5 567.5 L874.5 565.5 L875.5 564.5 L875.5 562.5 L876.5 561.5 L876.5 559.5 L877.5 558.5 L877.5 556.5 L878.5 555.5 L878.5 554.5 L879.5 553.5 L879.5 551.5 L880.5 550.5 L880.5 548.5 L881.5 547.5 L881.5 545.5 L882.5 544.5 L882.5 542.5 L883.5 541.5 L883.5 539.5 L884.5 538.5 L884.5 536.5 L885.5 535.5 L885.5 533.5 L886.5 532.5 L886.5 530.5 L887.5 529.5 L887.5 528.5 L888.5 527.5 L888.5 525.5 L889.5 524.5 L889.5 523.5 L890.5 522.5 L890.5 520.5 L891.5 519.5 L891.5 518.5 L892.5 517.5 L892.5 515.5 L893.5 514.5 L893.5 513.5 L894.5 512.5 L894.5 510.5 L895.5 509.5 L895.5 508.5 L896.5 507.5 L896.5 506.5 L897.5 505.5 L897.5 503.5 L898.5 502.5 L898.5 501.5 L899.5 500.5 L899.5 498.5 L900.5 497.5 L900.5 496.5 L901.5 495.5 L901.5 494.5 L902.5 493.5 L902.5 492.5 L903.5 491.5 L903.5 489.5 L904.5 488.5 L904.5 487.5 L905.5 486.5 L905.5 484.5 L906.5 483.5 L906.5 482.5 L907.5 481.5 L907.5 480.5 L908.5 479.5 L908.5 478.5 L909.5 477.5 L909.5 475.5 L910.5 474.5 L910.5 473.5 L911.5 472.5 L911.5 471.5 L912.5 470.5 L912.5 468.5 L913.5 467.5 L913.5 466.5 L914.5 465.5 L914.5 464.5 L915.5 463.5 L915.5 462.5 L916.5 461.5 L916.5 460.5 L917.5 459.5 L917.5 457.5 L918.5 456.5 L918.5 455.5 L919.5 454.5 L919.5 453.5 L920.5 452.5 L920.5 451.5 L921.5 450.5 L921.5 449.5 L922.5 448.5 L922.5 447.5 L923.5 446.5 L923.5 445.5 L924.5 444.5 L924.5 443.5 L925.5 442.5 L925.5 441.5 L926.5 440.5 L926.5 438.5 L927.5 437.5 L927.5 436.5 L928.5 435.5 L928.5 434.5 L929.5 433.5 L929.5 431.5 L930.5 430.5 L930.5 429.5 L931.5 428.5 L931.5 427.5 L932.5 426.5 L932.5 425.5 L933.5 424.5 L933.5 422.5 L934.5 421.5 L934.5 420.5 L935.5 419.5 L935.5 418.5 L936.5 417.5 L936.5 416.5 L937.5 415.5 L937.5 414.5 L938.5 413.5 L938.5 412.5 L939.5 411.5 L939.5 410.5 L940.5 409.5 L940.5 407.5 L941.5 406.5 L941.5 405.5 L942.5 404.5 L942.5 403.5 L943.5 402.5 L943.5 401.5 L944.5 400.5 L944.5 399.5 L945.5 398.5 L945.5 397.5 L946.5 396.5 L946.5 394.5 L947.5 393.5 L947.5 392.5 L948.5 391.5 L948.5 390.5 L949.5 389.5 L949.5 388.5 L950.5 387.5 L950.5 386.5 L951.5 385.5 L951.5 384.5 L952.5 383.5 L952.5 381.5 L953.5 380.5 L953.5 379.5 L954.5 378.5 L954.5 377.5 L955.5 376.5 L955.5 375.5 L956.5 374.5 L956.5 373.5 L957.5 372.5 L957.5 370.5 L958.5 369.5 L958.5 368.5 L959.5 367.5 L959.5 366.5 L960.5 365.5 L960.5 364.5 L961.5 363.5 L961.5 362.5 L962.5 361.5 L962.5 360.5 L963.5 359.5 L963.5 358.5 L964.5 357.5 L964.5 355.5 L965.5 354.5 L965.5 353.5 L966.5 352.5 L966.5 351.5 L967.5 350.5 L967.5 348.5 L968.5 347.5 L968.5 346.5 L969.5 345.5 L969.5 344.5 L970.5 343.5 L970.5 341.5 L971.5 340.5 L971.5 339.5 L972.5 338.5 L972.5 336.5 L973.5 335.5 L973.5 334.5 L974.5 333.5 L974.5 332.5 L975.5 331.5 L975.5 329.5 L976.5 328.5 L976.5 327.5 L977.5 326.5 L977.5 324.5 L978.5 323.5 L978.5 322.5 L979.5 321.5 L979.5 319.5 L980.5 318.5 L980.5 316.5 L981.5 315.5 L981.5 314.5 L982.5 313.5 L982.5 311.5 L983.5 310.5 L983.5 308.5 L984.5 307.5 L984.5 306.5 L985.5 305.5 L985.5 303.5 L986.5 302.5 L986.5 300.5 L987.5 299.5 L987.5 297.5 L988.5 296.5 L988.5 294.5 L989.5 293.5 L989.5 292.5 L990.5 291.5 L990.5 288.5 L991.5 287.5 L991.5 286.5 L992.5 285.5 L992.5 283.5 L993.5 282.5 L993.5 279.5 L994.5 278.5 L994.5 276.5 L995.5 275.5 L995.5 273.5 L996.5 272.5 L996.5 270.5 L997.5 269.5 L997.5 266.5 L998.5 265.5 L998.5 263.5 L999.5 262.5 L999.5 260.5 L1000.5 259.5 L1000.5 256.5 L1001.5 255.5 L1001.5 252.5 L1002.5 251.5 L1002.5 249.5 L1003.5 248.5 L1003.5 246.5 L1004.5 245.5 L1004.5 242.5 L1005.5 241.5 L1005.5 238.5 L1006.5 237.5 L1006.5 235.5 L1007.5 234.5 L1007.5 231.5 L1008.5 230.5 L1008.5 227.5 L1009.5 226.5 L1009.5 224.5 L1010.5 223.5 L1010.5 220.5 L1011.5 219.5 L1011.5 216.5 L1012.5 215.5 L1012.5 212.5 L1013.5 211.5 L1013.5 208.5 L1014.5 207.5 L1014.5 205.5 L1015.5 204.5 L1015.5 201.5 L1016.5 200.5 L1016.5 197.5 L1017.5 196.5 L1017.5 193.5 L1018.5 192.5 L1018.5 189.5 L1019.5 188.5 L1019.5 185.5 L1020.5 184.5 L1020.5 181.5 L1021.5 180.5 L1021.5 176.5 L1022.5 175.5 L1022.5 170.5 L1021.5 169.5 L1021.5 168.5 L1020.5 167.5 L1019.5 166.5 L1018.5 165.5 L1017.5 164.5 L1016.5 164.5 L1015.5 163.5 L1014.5 163.5 L1013.5 162.5 L1006.5 162.5 L1005.5 163.5 L1002.5 163.5 L1001.5 164.5 L1000.5 164.5 L999.5 165.5 L998.5 165.5 L997.5 166.5 L996.5 167.5 L995.5 168.5 L995.5 169.5 L994.5 170.5 L994.5 171.5 L993.5 172.5 L993.5 174.5 L992.5 175.5 L992.5 178.5 L991.5 179.5 L991.5 182.5 L990.5 183.5 L990.5 187.5 L989.5 188.5 L989.5 191.5 L988.5 192.5 L988.5 195.5 L987.5 196.5 L987.5 197.5 L986.5 198.5 L985.5 199.5 L984.5 199.5 L983.5 200.5 L979.5 200.5 L978.5 201.5 L970.5 201.5 L969.5 200.5 L966.5 200.5 L965.5 199.5 L963.5 199.5 L962.5 198.5 L961.5 198.5 L960.5 197.5 L959.5 197.5 L958.5 196.5 L957.5 196.5 L956.5 195.5 L955.5 195.5 L954.5 194.5 L923.5 194.5 L922.5 195.5 L921.5 195.5 L920.5 194.5 L919.5 193.5 L918.5 192.5 L918.5 189.5 L917.5 188.5 L916.5 187.5 L915.5 187.5 L914.5 186.5 L912.5 186.5 L911.5 185.5 L904.5 185.5 L903.5 184.5 L902.5 183.5 L901.5 182.5 L902.5 181.5 L902.5 180.5 L903.5 179.5 L904.5 178.5 L905.5 177.5 L905.5 176.5 L906.5 175.5 L906.5 174.5 L907.5 173.5 L907.5 171.5 L908.5 170.5 L909.5 169.5 L910.5 168.5 L911.5 167.5 L912.5 166.5 L913.5 166.5 L914.5 165.5 L915.5 165.5 L916.5 164.5 L917.5 163.5 L918.5 162.5 L919.5 161.5 L920.5 160.5 L921.5 159.5 L921.5 158.5 L922.5 157.5 L922.5 156.5 L923.5 155.5 L923.5 151.5 L924.5 150.5 L924.5 147.5 L923.5 146.5 L923.5 144.5 L922.5 143.5 L922.5 141.5 L921.5 140.5 L922.5 139.5 L923.5 138.5 L924.5 137.5 L925.5 138.5 L926.5 138.5 L927.5 137.5 L927.5 136.5 L926.5 135.5 L926.5 134.5 L925.5 133.5 L925.5 132.5 L924.5 131.5 L924.5 128.5 L925.5 127.5 L925.5 126.5 L926.5 125.5 L925.5 124.5 L924.5 123.5 L923.5 122.5 L922.5 121.5 L921.5 120.5 L920.5 119.5 L919.5 118.5 L918.5 117.5 L918.5 112.5 L919.5 111.5 L919.5 110.5 L918.5 109.5 L918.5 108.5 L917.5 107.5 L916.5 106.5 L916.5 105.5 L915.5 104.5 L914.5 103.5 L913.5 102.5 L913.5 101.5 L912.5 100.5 L911.5 99.5 L910.5 98.5 L910.5 94.5 L911.5 93.5 L911.5 89.5 L910.5 88.5 L909.5 87.5 L908.5 86.5 L907.5 85.5 L906.5 84.5 L905.5 84.5 L904.5 83.5 L903.5 82.5 L902.5 82.5 L901.5 81.5 L900.5 81.5 L899.5 80.5 L898.5 80.5 L897.5 79.5 L896.5 79.5 L895.5 78.5 L894.5 78.5 L893.5 77.5 L890.5 77.5 L889.5 76.5 L888.5 75.5 L887.5 75.5 L886.5 74.5 L885.5 73.5 L884.5 72.5 L882.5 72.5 L881.5 71.5 L879.5 71.5 L878.5 70.5 L875.5 70.5 L874.5 69.5 L869.5 69.5 L868.5 68.5 L867.5 67.5 L858.5 67.5 L857.5 66.5 L854.5 66.5 L853.5 67.5 L852.5 67.5 L851.5 68.5 L848.5 68.5 L847.5 69.5 L844.5 69.5 L843.5 68.5 L838.5 68.5 L837.5 67.5 L836.5 67.5 L835.5 66.5 L834.5 66.5 L833.5 65.5 L831.5 65.5 L830.5 64.5 L829.5 64.5 L828.5 63.5 L828.5 62.5 L827.5 61.5 L826.5 60.5 Z M894.5 752.5 L895.5 751.5 L900.5 751.5 L901.5 752.5 L901.5 753.5 L900.5 754.5 L899.5 755.5 L896.5 755.5 L895.5 754.5 L894.5 753.5 Z"/>
  </g>
</svg>
