<?xml version="1.0" encoding="UTF-8" standalone="no"?>
<!-- Created with PhotoLine 23.53 (www.pl32.de) -->
<!DOCTYPE svg PUBLIC "-//W3C//DTD SVG 1.1//EN" "http://www.w3.org/Graphics/SVG/1.1/DTD/svg11.dtd">
<svg width="1024" height="1024" viewBox="0 0 1024 1024" version="1.1" xmlns="http://www.w3.org/2000/svg" xmlns:xlink="http://www.w3.org/1999/xlink">
  <g id="shape">
    <path transform="matrix(1 0 0 1 155 74)" stroke-width="0" stroke-linejoin="bevel" stroke-miterlimit="10" stroke="#000000" d="M103.5 0.5 L103.5 9.5 L104.5 10.5 L104.5 12.5 L103.5 13.5 L103.5 24.5 L102.5 25.5 L102.5 35.5 L101.5 36.5 L101.5 50.5 L100.5 51.5 L100.5 63.5 L99.5 64.5 L99.5 81.5 L98.5 82.5 L98.5 101.5 L97.5 102.5 L97.5 127.5 L96.5 128.5 L96.5 143.5 L95.5 144.5 L95.5 159.5 L96.5 160.5 L96.5 161.5 L97.5 162.5 L98.5 163.5 L99.5 164.5 L100.5 165.5 L101.5 166.5 L101.5 167.5 L102.5 168.5 L103.5 169.5 L104.5 170.5 L105.5 171.5 L106.5 172.5 L106.5 173.5 L107.5 174.5 L107.5 182.5 L106.5 183.5 L106.5 184.5 L105.5 185.5 L104.5 186.5 L104.5 187.5 L103.5 188.5 L103.5 199.5 L104.5 200.5 L104.5 201.5 L105.5 202.5 L105.5 203.5 L106.5 204.5 L106.5 205.5 L107.5 206.5 L108.5 207.5 L109.5 208.5 L109.5 209.5 L110.5 210.5 L111.5 211.5 L111.5 212.5 L112.5 213.5 L112.5 214.5 L113.5 215.5 L113.5 220.5 L112.5 221.5 L112.5 222.5 L111.5 223.5 L111.5 224.5 L110.5 237.5 L111.5 238.5 L111.5 239.5 L113.5 251.5 L114.5 253.5 L114.5 254.5 L114.5 260.5 L114.5 261.5 L114.5 274.5 L114.5 275.5 L115.5 279.5 L115.5 284.5 L117.5 306.5 L117.5 308.5 L117.5 312.5 L116.5 313.5 L116.5 314.5 L115.5 315.5 L115.5 324.5 L116.5 325.5 L116.5 326.5 L117.5 327.5 L117.5 328.5 L118.5 334.5 L119.5 337.5 L120.5 338.5 L120.5 343.5 L119.5 344.5 L119.5 364.5 L120.5 365.5 L120.5 366.5 L121.5 367.5 L121.5 370.5 L120.5 371.5 L119.5 372.5 L118.5 373.5 L110.5 373.5 L109.5 374.5 L108.5 375.5 L107.5 376.5 L106.5 377.5 L106.5 378.5 L105.5 379.5 L105.5 380.5 L104.5 381.5 L104.5 385.5 L103.5 386.5 L103.5 395.5 L104.5 396.5 L104.5 408.5 L105.5 409.5 L105.5 411.5 L106.5 412.5 L106.5 415.5 L107.5 416.5 L107.5 417.5 L108.5 418.5 L109.5 419.5 L109.5 420.5 L110.5 421.5 L110.5 424.5 L111.5 425.5 L111.5 426.5 L112.5 427.5 L112.5 428.5 L113.5 429.5 L114.5 430.5 L114.5 431.5 L115.5 432.5 L116.5 433.5 L117.5 434.5 L118.5 434.5 L119.5 435.5 L120.5 436.5 L121.5 437.5 L121.5 450.5 L122.5 451.5 L122.5 452.5 L123.5 453.5 L124.5 454.5 L124.5 455.5 L125.5 456.5 L125.5 468.5 L126.5 469.5 L126.5 470.5 L127.5 471.5 L127.5 477.5 L126.5 478.5 L126.5 479.5 L125.5 480.5 L125.5 489.5 L126.5 490.5 L126.5 494.5 L127.5 495.5 L127.5 496.5 L128.5 497.5 L128.5 498.5 L129.5 499.5 L129.5 513.5 L128.5 514.5 L128.5 522.5 L129.5 523.5 L129.5 528.5 L130.5 529.5 L130.5 547.5 L131.5 548.5 L131.5 555.5 L132.5 556.5 L132.5 562.5 L131.5 563.5 L131.5 565.5 L130.5 566.5 L130.5 574.5 L131.5 575.5 L131.5 576.5 L132.5 577.5 L133.5 578.5 L133.5 579.5 L134.5 580.5 L134.5 586.5 L133.5 587.5 L133.5 602.5 L134.5 603.5 L134.5 605.5 L135.5 606.5 L134.5 607.5 L134.5 616.5 L135.5 617.5 L135.5 618.5 L136.5 619.5 L136.5 624.5 L137.5 625.5 L137.5 626.5 L136.5 627.5 L136.5 628.5 L135.5 629.5 L135.5 630.5 L134.5 631.5 L134.5 640.5 L135.5 641.5 L135.5 643.5 L136.5 644.5 L136.5 646.5 L137.5 647.5 L137.5 650.5 L138.5 651.5 L138.5 664.5 L137.5 665.5 L137.5 674.5 L138.5 675.5 L138.5 677.5 L139.5 678.5 L139.5 692.5 L140.5 693.5 L140.5 696.5 L141.5 697.5 L141.5 700.5 L142.5 701.5 L142.5 720.5 L141.5 721.5 L141.5 723.5 L140.5 724.5 L140.5 735.5 L141.5 736.5 L141.5 738.5 L142.5 739.5 L142.5 741.5 L143.5 742.5 L143.5 744.5 L144.5 745.5 L144.5 750.5 L145.5 751.5 L145.5 754.5 L144.5 755.5 L144.5 756.5 L143.5 757.5 L143.5 770.5 L144.5 771.5 L144.5 772.5 L145.5 773.5 L145.5 777.5 L146.5 778.5 L146.5 784.5 L147.5 785.5 L147.5 798.5 L146.5 799.5 L146.5 810.5 L147.5 811.5 L147.5 812.5 L148.5 813.5 L148.5 815.5 L149.5 816.5 L149.5 818.5 L148.5 819.5 L147.5 820.5 L146.5 821.5 L145.5 822.5 L144.5 823.5 L144.5 831.5 L145.5 832.5 L145.5 833.5 L146.5 834.5 L146.5 840.5 L145.5 841.5 L144.5 842.5 L143.5 843.5 L142.5 844.5 L140.5 844.5 L139.5 845.5 L137.5 845.5 L136.5 846.5 L129.5 846.5 L128.5 845.5 L120.5 845.5 L119.5 844.5 L113.5 844.5 L112.5 843.5 L88.5 843.5 L87.5 842.5 L79.5 842.5 L78.5 843.5 L38.5 843.5 L37.5 842.5 L7.5 842.5 L6.5 843.5 L2.5 843.5 L1.5 844.5 L0.5 844.5 L0.5 854.5 L1.5 855.5 L25.5 855.5 L26.5 856.5 L41.5 856.5 L42.5 857.5 L52.5 857.5 L53.5 858.5 L63.5 858.5 L64.5 857.5 L66.5 857.5 L67.5 858.5 L76.5 858.5 L77.5 857.5 L107.5 857.5 L108.5 858.5 L122.5 858.5 L123.5 859.5 L131.5 859.5 L132.5 860.5 L147.5 860.5 L148.5 861.5 L152.5 861.5 L153.5 862.5 L157.5 862.5 L158.5 863.5 L164.5 863.5 L165.5 864.5 L169.5 864.5 L170.5 865.5 L173.5 865.5 L174.5 866.5 L175.5 866.5 L176.5 867.5 L177.5 868.5 L178.5 869.5 L179.5 870.5 L181.5 870.5 L182.5 871.5 L185.5 871.5 L186.5 872.5 L189.5 872.5 L190.5 873.5 L197.5 873.5 L198.5 874.5 L209.5 874.5 L210.5 875.5 L229.5 875.5 L230.5 876.5 L242.5 876.5 L243.5 877.5 L252.5 877.5 L253.5 878.5 L286.5 878.5 L287.5 877.5 L299.5 877.5 L300.5 876.5 L312.5 876.5 L313.5 875.5 L322.5 875.5 L323.5 874.5 L330.5 874.5 L331.5 873.5 L336.5 873.5 L337.5 872.5 L346.5 872.5 L347.5 871.5 L356.5 871.5 L357.5 870.5 L365.5 870.5 L366.5 869.5 L381.5 869.5 L382.5 870.5 L391.5 870.5 L392.5 871.5 L400.5 871.5 L401.5 872.5 L411.5 872.5 L412.5 873.5 L423.5 873.5 L424.5 874.5 L431.5 874.5 L432.5 875.5 L439.5 875.5 L440.5 876.5 L445.5 876.5 L446.5 877.5 L454.5 877.5 L455.5 878.5 L472.5 878.5 L473.5 879.5 L476.5 879.5 L477.5 880.5 L482.5 880.5 L483.5 881.5 L485.5 881.5 L486.5 882.5 L501.5 882.5 L502.5 881.5 L503.5 880.5 L504.5 880.5 L505.5 879.5 L507.5 879.5 L508.5 878.5 L509.5 878.5 L510.5 877.5 L512.5 877.5 L513.5 876.5 L524.5 876.5 L525.5 875.5 L529.5 875.5 L530.5 874.5 L533.5 874.5 L534.5 873.5 L538.5 873.5 L539.5 872.5 L553.5 872.5 L554.5 871.5 L565.5 871.5 L566.5 870.5 L571.5 870.5 L572.5 869.5 L585.5 869.5 L586.5 868.5 L599.5 868.5 L600.5 869.5 L608.5 869.5 L609.5 868.5 L621.5 868.5 L622.5 869.5 L625.5 869.5 L626.5 870.5 L632.5 870.5 L633.5 871.5 L657.5 871.5 L658.5 872.5 L676.5 872.5 L677.5 873.5 L685.5 873.5 L686.5 872.5 L700.5 872.5 L701.5 871.5 L702.5 870.5 L702.5 864.5 L701.5 863.5 L701.5 862.5 L700.5 862.5 L699.5 861.5 L692.5 861.5 L691.5 860.5 L685.5 860.5 L684.5 859.5 L673.5 859.5 L672.5 858.5 L658.5 858.5 L657.5 857.5 L651.5 857.5 L650.5 856.5 L648.5 856.5 L647.5 855.5 L646.5 854.5 L645.5 853.5 L645.5 850.5 L644.5 849.5 L644.5 848.5 L643.5 847.5 L643.5 846.5 L642.5 845.5 L641.5 844.5 L640.5 843.5 L639.5 842.5 L638.5 841.5 L637.5 840.5 L636.5 839.5 L635.5 839.5 L634.5 838.5 L633.5 837.5 L632.5 836.5 L631.5 836.5 L630.5 835.5 L629.5 835.5 L628.5 834.5 L627.5 834.5 L626.5 833.5 L625.5 833.5 L624.5 832.5 L623.5 832.5 L622.5 831.5 L619.5 831.5 L618.5 830.5 L614.5 830.5 L613.5 829.5 L609.5 829.5 L608.5 828.5 L603.5 828.5 L602.5 827.5 L593.5 827.5 L592.5 828.5 L591.5 828.5 L590.5 829.5 L588.5 829.5 L587.5 830.5 L585.5 830.5 L584.5 831.5 L582.5 831.5 L581.5 832.5 L579.5 832.5 L578.5 833.5 L577.5 833.5 L576.5 834.5 L575.5 834.5 L574.5 835.5 L572.5 835.5 L571.5 836.5 L570.5 836.5 L569.5 837.5 L568.5 837.5 L567.5 838.5 L566.5 839.5 L565.5 839.5 L564.5 840.5 L563.5 840.5 L562.5 841.5 L561.5 841.5 L560.5 842.5 L558.5 842.5 L557.5 841.5 L554.5 841.5 L553.5 840.5 L549.5 840.5 L548.5 839.5 L543.5 839.5 L542.5 838.5 L536.5 838.5 L535.5 837.5 L525.5 837.5 L524.5 836.5 L520.5 836.5 L519.5 835.5 L518.5 834.5 L517.5 833.5 L517.5 832.5 L516.5 831.5 L515.5 830.5 L515.5 829.5 L514.5 828.5 L514.5 823.5 L513.5 822.5 L513.5 821.5 L512.5 820.5 L512.5 819.5 L511.5 818.5 L511.5 816.5 L510.5 815.5 L510.5 813.5 L509.5 812.5 L509.5 810.5 L508.5 809.5 L508.5 806.5 L509.5 805.5 L509.5 802.5 L510.5 801.5 L510.5 792.5 L509.5 791.5 L508.5 790.5 L507.5 789.5 L506.5 788.5 L505.5 787.5 L504.5 786.5 L503.5 785.5 L503.5 783.5 L502.5 782.5 L502.5 779.5 L501.5 778.5 L501.5 775.5 L500.5 774.5 L500.5 767.5 L499.5 766.5 L499.5 758.5 L498.5 757.5 L498.5 748.5 L497.5 747.5 L497.5 739.5 L496.5 738.5 L496.5 716.5 L497.5 715.5 L497.5 708.5 L498.5 707.5 L499.5 706.5 L500.5 705.5 L501.5 705.5 L502.5 706.5 L503.5 706.5 L504.5 707.5 L504.5 708.5 L505.5 709.5 L505.5 716.5 L506.5 717.5 L507.5 718.5 L508.5 718.5 L509.5 719.5 L513.5 719.5 L514.5 720.5 L516.5 720.5 L517.5 721.5 L520.5 721.5 L521.5 722.5 L523.5 722.5 L524.5 723.5 L525.5 723.5 L526.5 724.5 L528.5 724.5 L529.5 725.5 L530.5 725.5 L531.5 726.5 L533.5 726.5 L534.5 727.5 L535.5 727.5 L536.5 728.5 L537.5 728.5 L538.5 729.5 L539.5 729.5 L540.5 730.5 L542.5 730.5 L543.5 731.5 L551.5 731.5 L552.5 730.5 L553.5 730.5 L554.5 729.5 L555.5 728.5 L556.5 728.5 L557.5 727.5 L558.5 727.5 L559.5 728.5 L564.5 728.5 L565.5 729.5 L567.5 729.5 L568.5 730.5 L570.5 730.5 L571.5 731.5 L574.5 731.5 L575.5 732.5 L576.5 732.5 L577.5 733.5 L578.5 734.5 L579.5 735.5 L580.5 736.5 L581.5 737.5 L581.5 738.5 L582.5 739.5 L583.5 739.5 L584.5 740.5 L585.5 740.5 L586.5 741.5 L588.5 741.5 L589.5 742.5 L595.5 742.5 L596.5 743.5 L598.5 743.5 L599.5 744.5 L602.5 744.5 L603.5 745.5 L607.5 745.5 L608.5 746.5 L611.5 746.5 L612.5 747.5 L615.5 747.5 L616.5 748.5 L619.5 748.5 L620.5 749.5 L624.5 749.5 L625.5 750.5 L628.5 750.5 L629.5 751.5 L633.5 751.5 L634.5 752.5 L635.5 752.5 L636.5 753.5 L640.5 753.5 L641.5 754.5 L648.5 754.5 L649.5 753.5 L650.5 753.5 L651.5 754.5 L652.5 755.5 L653.5 756.5 L653.5 758.5 L654.5 759.5 L654.5 761.5 L655.5 762.5 L656.5 763.5 L657.5 764.5 L658.5 764.5 L659.5 765.5 L660.5 765.5 L661.5 766.5 L663.5 766.5 L664.5 767.5 L666.5 767.5 L667.5 768.5 L669.5 768.5 L670.5 769.5 L674.5 769.5 L675.5 770.5 L678.5 770.5 L679.5 771.5 L682.5 771.5 L683.5 772.5 L686.5 772.5 L687.5 773.5 L698.5 773.5 L699.5 772.5 L700.5 771.5 L701.5 770.5 L701.5 769.5 L702.5 768.5 L703.5 767.5 L704.5 766.5 L705.5 765.5 L706.5 764.5 L707.5 763.5 L707.5 762.5 L708.5 761.5 L709.5 760.5 L710.5 759.5 L711.5 758.5 L711.5 757.5 L712.5 756.5 L713.5 755.5 L714.5 754.5 L715.5 753.5 L715.5 752.5 L716.5 751.5 L718.5 751.5 L719.5 752.5 L720.5 753.5 L720.5 756.5 L721.5 757.5 L722.5 758.5 L728.5 758.5 L729.5 757.5 L730.5 756.5 L731.5 756.5 L732.5 755.5 L736.5 755.5 L737.5 756.5 L745.5 756.5 L746.5 757.5 L747.5 757.5 L748.5 758.5 L749.5 759.5 L750.5 760.5 L750.5 761.5 L751.5 762.5 L751.5 765.5 L752.5 766.5 L752.5 770.5 L753.5 771.5 L753.5 776.5 L752.5 777.5 L752.5 778.5 L751.5 779.5 L750.5 780.5 L749.5 780.5 L748.5 781.5 L743.5 781.5 L742.5 782.5 L735.5 782.5 L734.5 783.5 L729.5 783.5 L728.5 784.5 L727.5 785.5 L727.5 791.5 L728.5 792.5 L729.5 793.5 L739.5 793.5 L740.5 792.5 L747.5 792.5 L748.5 791.5 L754.5 791.5 L755.5 790.5 L758.5 790.5 L759.5 789.5 L761.5 789.5 L762.5 788.5 L765.5 788.5 L766.5 787.5 L767.5 787.5 L768.5 786.5 L769.5 785.5 L770.5 784.5 L770.5 773.5 L771.5 772.5 L771.5 771.5 L772.5 770.5 L772.5 769.5 L773.5 768.5 L774.5 767.5 L775.5 766.5 L775.5 765.5 L776.5 764.5 L777.5 763.5 L777.5 762.5 L778.5 761.5 L779.5 760.5 L780.5 759.5 L781.5 758.5 L781.5 757.5 L782.5 756.5 L783.5 755.5 L784.5 755.5 L784.5 744.5 L783.5 744.5 L782.5 743.5 L781.5 743.5 L780.5 742.5 L779.5 741.5 L778.5 741.5 L777.5 740.5 L776.5 739.5 L775.5 739.5 L774.5 738.5 L773.5 737.5 L772.5 736.5 L771.5 736.5 L770.5 735.5 L769.5 734.5 L768.5 733.5 L767.5 732.5 L766.5 732.5 L765.5 731.5 L764.5 730.5 L763.5 729.5 L762.5 728.5 L761.5 728.5 L760.5 727.5 L759.5 726.5 L758.5 725.5 L757.5 724.5 L756.5 723.5 L755.5 722.5 L754.5 721.5 L753.5 720.5 L752.5 719.5 L751.5 718.5 L750.5 717.5 L750.5 716.5 L749.5 715.5 L748.5 714.5 L748.5 713.5 L747.5 712.5 L747.5 710.5 L746.5 709.5 L746.5 708.5 L745.5 707.5 L745.5 706.5 L744.5 705.5 L744.5 704.5 L743.5 703.5 L743.5 702.5 L742.5 701.5 L742.5 700.5 L741.5 699.5 L741.5 698.5 L740.5 697.5 L739.5 696.5 L739.5 695.5 L738.5 694.5 L738.5 693.5 L737.5 692.5 L737.5 691.5 L736.5 690.5 L736.5 689.5 L735.5 688.5 L734.5 687.5 L734.5 686.5 L733.5 685.5 L733.5 684.5 L732.5 683.5 L731.5 682.5 L731.5 681.5 L730.5 680.5 L730.5 679.5 L729.5 678.5 L728.5 677.5 L728.5 676.5 L727.5 675.5 L726.5 674.5 L726.5 673.5 L725.5 672.5 L724.5 671.5 L723.5 670.5 L723.5 669.5 L722.5 668.5 L721.5 667.5 L721.5 666.5 L720.5 665.5 L719.5 664.5 L718.5 663.5 L718.5 662.5 L717.5 661.5 L716.5 660.5 L715.5 659.5 L714.5 658.5 L714.5 657.5 L713.5 656.5 L712.5 655.5 L711.5 654.5 L710.5 653.5 L709.5 652.5 L709.5 651.5 L708.5 650.5 L707.5 649.5 L706.5 648.5 L705.5 647.5 L704.5 646.5 L703.5 645.5 L702.5 644.5 L701.5 643.5 L700.5 642.5 L699.5 641.5 L698.5 640.5 L697.5 639.5 L696.5 638.5 L695.5 637.5 L694.5 636.5 L693.5 635.5 L692.5 634.5 L691.5 633.5 L690.5 632.5 L689.5 631.5 L688.5 630.5 L687.5 629.5 L686.5 628.5 L685.5 627.5 L684.5 626.5 L683.5 626.5 L682.5 625.5 L681.5 624.5 L680.5 623.5 L679.5 622.5 L678.5 621.5 L677.5 621.5 L676.5 620.5 L675.5 619.5 L674.5 618.5 L673.5 617.5 L672.5 617.5 L671.5 616.5 L670.5 615.5 L669.5 614.5 L668.5 614.5 L667.5 613.5 L666.5 612.5 L665.5 611.5 L664.5 611.5 L663.5 610.5 L662.5 609.5 L661.5 608.5 L660.5 608.5 L659.5 607.5 L658.5 606.5 L657.5 606.5 L656.5 605.5 L655.5 604.5 L654.5 603.5 L653.5 603.5 L652.5 602.5 L651.5 602.5 L650.5 601.5 L649.5 600.5 L648.5 600.5 L647.5 599.5 L646.5 598.5 L645.5 597.5 L644.5 596.5 L644.5 595.5 L643.5 594.5 L643.5 593.5 L642.5 592.5 L642.5 591.5 L641.5 590.5 L641.5 589.5 L640.5 588.5 L640.5 586.5 L639.5 585.5 L639.5 584.5 L638.5 583.5 L638.5 582.5 L637.5 581.5 L637.5 580.5 L636.5 579.5 L636.5 578.5 L635.5 577.5 L635.5 576.5 L634.5 575.5 L634.5 574.5 L633.5 573.5 L633.5 568.5 L632.5 567.5 L631.5 566.5 L630.5 565.5 L629.5 564.5 L628.5 563.5 L627.5 562.5 L626.5 561.5 L626.5 560.5 L625.5 559.5 L625.5 558.5 L624.5 557.5 L623.5 556.5 L623.5 555.5 L622.5 554.5 L622.5 553.5 L621.5 552.5 L620.5 551.5 L620.5 550.5 L619.5 549.5 L618.5 548.5 L618.5 547.5 L617.5 546.5 L616.5 545.5 L616.5 544.5 L615.5 543.5 L614.5 542.5 L614.5 541.5 L613.5 540.5 L612.5 539.5 L611.5 538.5 L611.5 537.5 L610.5 536.5 L609.5 535.5 L609.5 534.5 L608.5 533.5 L607.5 532.5 L606.5 531.5 L606.5 530.5 L605.5 529.5 L604.5 528.5 L604.5 527.5 L603.5 526.5 L603.5 525.5 L604.5 524.5 L604.5 521.5 L605.5 520.5 L605.5 516.5 L606.5 515.5 L606.5 510.5 L607.5 509.5 L607.5 505.5 L608.5 504.5 L608.5 499.5 L609.5 498.5 L609.5 494.5 L610.5 493.5 L610.5 488.5 L611.5 487.5 L611.5 482.5 L612.5 481.5 L612.5 476.5 L613.5 475.5 L613.5 469.5 L614.5 468.5 L614.5 462.5 L615.5 461.5 L615.5 454.5 L616.5 453.5 L616.5 445.5 L617.5 444.5 L617.5 431.5 L616.5 430.5 L615.5 429.5 L614.5 428.5 L613.5 427.5 L613.5 426.5 L612.5 425.5 L612.5 424.5 L611.5 423.5 L610.5 422.5 L610.5 421.5 L609.5 420.5 L609.5 419.5 L608.5 418.5 L608.5 417.5 L607.5 416.5 L607.5 415.5 L606.5 414.5 L606.5 413.5 L605.5 412.5 L605.5 411.5 L604.5 410.5 L604.5 409.5 L603.5 408.5 L602.5 407.5 L602.5 406.5 L601.5 405.5 L601.5 404.5 L600.5 403.5 L600.5 402.5 L599.5 401.5 L599.5 400.5 L598.5 399.5 L598.5 398.5 L597.5 397.5 L597.5 396.5 L596.5 395.5 L596.5 394.5 L595.5 393.5 L594.5 392.5 L594.5 391.5 L593.5 390.5 L593.5 389.5 L592.5 388.5 L592.5 387.5 L591.5 386.5 L591.5 385.5 L590.5 384.5 L590.5 383.5 L589.5 382.5 L588.5 381.5 L588.5 380.5 L587.5 379.5 L587.5 378.5 L586.5 377.5 L586.5 376.5 L585.5 375.5 L585.5 374.5 L584.5 373.5 L584.5 372.5 L583.5 371.5 L582.5 370.5 L582.5 369.5 L581.5 368.5 L581.5 367.5 L580.5 366.5 L580.5 365.5 L579.5 364.5 L578.5 363.5 L578.5 362.5 L577.5 361.5 L577.5 360.5 L576.5 359.5 L576.5 358.5 L575.5 357.5 L575.5 356.5 L574.5 355.5 L574.5 354.5 L573.5 353.5 L573.5 352.5 L572.5 351.5 L572.5 350.5 L571.5 349.5 L571.5 348.5 L570.5 347.5 L570.5 346.5 L569.5 345.5 L568.5 344.5 L567.5 344.5 L566.5 343.5 L565.5 342.5 L564.5 341.5 L564.5 336.5 L563.5 335.5 L563.5 334.5 L562.5 333.5 L561.5 332.5 L561.5 331.5 L560.5 330.5 L560.5 329.5 L559.5 328.5 L559.5 327.5 L558.5 326.5 L558.5 325.5 L557.5 324.5 L556.5 323.5 L556.5 322.5 L555.5 321.5 L555.5 320.5 L554.5 319.5 L554.5 318.5 L553.5 317.5 L553.5 316.5 L552.5 315.5 L551.5 314.5 L551.5 313.5 L550.5 312.5 L550.5 311.5 L549.5 310.5 L549.5 309.5 L548.5 308.5 L547.5 307.5 L547.5 306.5 L546.5 305.5 L546.5 304.5 L545.5 303.5 L544.5 303.5 L543.5 302.5 L536.5 302.5 L535.5 303.5 L534.5 303.5 L533.5 304.5 L533.5 305.5 L532.5 306.5 L532.5 307.5 L531.5 308.5 L530.5 309.5 L530.5 310.5 L529.5 311.5 L529.5 312.5 L528.5 313.5 L528.5 314.5 L527.5 315.5 L526.5 316.5 L526.5 317.5 L525.5 318.5 L525.5 319.5 L524.5 320.5 L524.5 321.5 L523.5 322.5 L522.5 323.5 L522.5 324.5 L521.5 325.5 L520.5 326.5 L519.5 327.5 L519.5 328.5 L518.5 329.5 L518.5 333.5 L517.5 334.5 L517.5 335.5 L516.5 336.5 L516.5 337.5 L515.5 338.5 L514.5 338.5 L513.5 337.5 L512.5 336.5 L512.5 335.5 L511.5 334.5 L511.5 333.5 L510.5 332.5 L510.5 331.5 L509.5 330.5 L509.5 329.5 L508.5 328.5 L508.5 327.5 L507.5 326.5 L507.5 325.5 L506.5 324.5 L506.5 316.5 L507.5 315.5 L508.5 314.5 L509.5 314.5 L510.5 313.5 L511.5 312.5 L512.5 312.5 L513.5 311.5 L514.5 311.5 L515.5 310.5 L516.5 309.5 L517.5 309.5 L518.5 308.5 L519.5 307.5 L520.5 307.5 L521.5 306.5 L522.5 305.5 L523.5 304.5 L524.5 303.5 L525.5 302.5 L526.5 301.5 L527.5 300.5 L528.5 299.5 L529.5 298.5 L529.5 297.5 L530.5 296.5 L530.5 295.5 L531.5 294.5 L531.5 286.5 L530.5 285.5 L529.5 284.5 L519.5 284.5 L518.5 283.5 L517.5 283.5 L516.5 282.5 L514.5 282.5 L513.5 281.5 L512.5 281.5 L511.5 280.5 L510.5 280.5 L509.5 279.5 L508.5 279.5 L507.5 278.5 L506.5 278.5 L505.5 277.5 L504.5 276.5 L503.5 275.5 L503.5 265.5 L502.5 264.5 L502.5 262.5 L501.5 261.5 L501.5 259.5 L500.5 258.5 L500.5 256.5 L499.5 255.5 L499.5 254.5 L498.5 253.5 L498.5 252.5 L497.5 251.5 L497.5 250.5 L496.5 249.5 L496.5 248.5 L495.5 247.5 L494.5 246.5 L494.5 245.5 L493.5 244.5 L492.5 243.5 L492.5 242.5 L491.5 241.5 L490.5 240.5 L489.5 239.5 L488.5 238.5 L488.5 237.5 L487.5 236.5 L486.5 235.5 L485.5 234.5 L484.5 233.5 L483.5 232.5 L482.5 231.5 L481.5 230.5 L480.5 229.5 L479.5 229.5 L478.5 228.5 L477.5 227.5 L476.5 226.5 L475.5 226.5 L474.5 225.5 L473.5 224.5 L472.5 224.5 L471.5 223.5 L470.5 223.5 L469.5 222.5 L463.5 222.5 L462.5 221.5 L461.5 220.5 L460.5 219.5 L460.5 215.5 L461.5 214.5 L461.5 210.5 L462.5 209.5 L462.5 204.5 L463.5 203.5 L463.5 192.5 L462.5 192.5 L461.5 191.5 L461.5 190.5 L462.5 189.5 L463.5 188.5 L463.5 182.5 L462.5 181.5 L461.5 180.5 L453.5 180.5 L452.5 181.5 L451.5 181.5 L450.5 182.5 L449.5 183.5 L448.5 183.5 L447.5 184.5 L446.5 184.5 L445.5 185.5 L444.5 185.5 L443.5 186.5 L442.5 186.5 L441.5 187.5 L440.5 188.5 L439.5 188.5 L438.5 189.5 L437.5 190.5 L436.5 190.5 L435.5 191.5 L434.5 192.5 L433.5 193.5 L432.5 193.5 L431.5 194.5 L430.5 195.5 L429.5 196.5 L428.5 197.5 L427.5 198.5 L426.5 198.5 L425.5 199.5 L424.5 200.5 L423.5 201.5 L422.5 202.5 L421.5 203.5 L420.5 204.5 L417.5 204.5 L416.5 203.5 L415.5 202.5 L414.5 202.5 L413.5 201.5 L412.5 200.5 L411.5 200.5 L410.5 199.5 L408.5 199.5 L407.5 198.5 L406.5 198.5 L405.5 197.5 L404.5 197.5 L403.5 196.5 L402.5 195.5 L401.5 194.5 L400.5 193.5 L400.5 186.5 L399.5 185.5 L399.5 184.5 L397.5 184.5 L396.5 183.5 L396.5 179.5 L397.5 178.5 L397.5 174.5 L396.5 173.5 L396.5 167.5 L397.5 166.5 L398.5 165.5 L398.5 157.5 L397.5 156.5 L397.5 155.5 L396.5 154.5 L396.5 143.5 L395.5 142.5 L395.5 140.5 L394.5 139.5 L394.5 138.5 L393.5 137.5 L392.5 136.5 L391.5 135.5 L391.5 134.5 L390.5 133.5 L390.5 130.5 L389.5 129.5 L389.5 128.5 L388.5 127.5 L388.5 126.5 L387.5 125.5 L386.5 124.5 L385.5 123.5 L384.5 122.5 L383.5 121.5 L382.5 120.5 L381.5 119.5 L380.5 118.5 L379.5 118.5 L378.5 117.5 L377.5 116.5 L376.5 115.5 L376.5 114.5 L375.5 113.5 L375.5 112.5 L374.5 111.5 L373.5 111.5 L372.5 110.5 L370.5 110.5 L369.5 109.5 L368.5 109.5 L367.5 108.5 L366.5 108.5 L365.5 107.5 L364.5 106.5 L363.5 105.5 L363.5 104.5 L362.5 103.5 L362.5 102.5 L361.5 101.5 L361.5 100.5 L360.5 99.5 L359.5 99.5 L358.5 98.5 L357.5 97.5 L356.5 96.5 L355.5 95.5 L354.5 94.5 L353.5 93.5 L352.5 92.5 L352.5 91.5 L351.5 90.5 L351.5 89.5 L350.5 88.5 L350.5 87.5 L349.5 86.5 L349.5 84.5 L348.5 83.5 L348.5 79.5 L347.5 78.5 L347.5 75.5 L346.5 74.5 L346.5 68.5 L345.5 67.5 L345.5 61.5 L344.5 60.5 L344.5 50.5 L343.5 49.5 L343.5 48.5 L342.5 47.5 L341.5 46.5 L341.5 45.5 L340.5 44.5 L338.5 44.5 L337.5 45.5 L336.5 46.5 L336.5 47.5 L335.5 48.5 L334.5 48.5 L334.5 58.5 L333.5 59.5 L333.5 74.5 L332.5 75.5 L332.5 80.5 L331.5 81.5 L331.5 86.5 L330.5 87.5 L330.5 91.5 L329.5 92.5 L329.5 95.5 L328.5 96.5 L328.5 97.5 L327.5 98.5 L327.5 99.5 L326.5 100.5 L325.5 101.5 L325.5 102.5 L324.5 103.5 L324.5 104.5 L323.5 105.5 L323.5 106.5 L322.5 107.5 L321.5 108.5 L320.5 109.5 L319.5 110.5 L318.5 110.5 L317.5 111.5 L317.5 112.5 L316.5 113.5 L316.5 114.5 L315.5 115.5 L315.5 116.5 L314.5 117.5 L313.5 118.5 L312.5 119.5 L311.5 120.5 L310.5 121.5 L309.5 122.5 L308.5 123.5 L308.5 124.5 L307.5 125.5 L306.5 126.5 L306.5 127.5 L305.5 128.5 L304.5 129.5 L304.5 130.5 L303.5 131.5 L302.5 132.5 L302.5 133.5 L301.5 134.5 L301.5 135.5 L300.5 136.5 L300.5 137.5 L299.5 138.5 L299.5 139.5 L298.5 140.5 L298.5 142.5 L297.5 143.5 L297.5 145.5 L296.5 146.5 L296.5 149.5 L295.5 150.5 L295.5 177.5 L296.5 178.5 L296.5 194.5 L295.5 195.5 L293.5 195.5 L292.5 194.5 L292.5 193.5 L291.5 192.5 L290.5 191.5 L290.5 190.5 L289.5 189.5 L288.5 188.5 L288.5 187.5 L287.5 186.5 L286.5 185.5 L286.5 184.5 L285.5 183.5 L284.5 182.5 L283.5 181.5 L282.5 180.5 L281.5 179.5 L280.5 178.5 L279.5 177.5 L278.5 176.5 L277.5 176.5 L276.5 175.5 L264.5 175.5 L263.5 176.5 L262.5 176.5 L261.5 177.5 L260.5 178.5 L260.5 179.5 L259.5 180.5 L259.5 191.5 L259.4 197.13 L258.5 202.5 L259.5 203.5 L259.5 217.5 L260.5 218.5 L260.5 224.5 L259.5 225.5 L258.5 226.5 L257.5 227.5 L256.5 228.5 L255.5 228.5 L254.5 229.5 L253.5 230.5 L252.5 230.5 L251.5 231.5 L250.5 232.5 L249.5 233.5 L248.5 234.5 L247.5 235.5 L246.5 236.5 L245.5 237.5 L244.5 238.5 L243.5 239.5 L242.5 240.5 L241.5 241.5 L240.5 242.5 L239.5 243.5 L239.5 244.5 L238.5 245.5 L237.5 246.5 L236.5 247.5 L236.5 248.5 L235.5 249.5 L234.5 250.5 L234.5 251.5 L233.5 252.5 L232.5 253.5 L232.5 254.5 L231.5 255.5 L231.5 256.5 L230.5 257.5 L230.5 258.5 L229.5 259.5 L229.5 260.5 L228.5 261.5 L228.5 262.5 L227.5 263.5 L227.5 264.5 L226.5 265.5 L226.5 266.5 L225.5 267.5 L225.5 269.5 L224.5 270.5 L224.5 271.5 L223.5 272.5 L222.5 272.5 L221.5 273.5 L217.5 273.5 L216.5 272.5 L215.5 272.5 L214.5 271.5 L213.5 270.5 L212.5 269.5 L211.5 268.5 L211.5 267.5 L210.5 266.5 L209.5 265.5 L202.5 265.5 L201.5 266.5 L200.5 267.5 L200.5 278.5 L201.5 279.5 L201.5 285.5 L202.5 286.5 L202.5 289.5 L203.5 290.5 L203.5 291.5 L204.5 292.5 L204.5 293.5 L205.5 294.5 L205.5 295.5 L206.5 296.5 L207.5 297.5 L207.5 298.5 L208.5 299.5 L208.5 300.5 L209.5 301.5 L210.5 302.5 L210.5 306.5 L209.5 307.5 L208.5 308.5 L207.5 309.5 L207.5 310.5 L206.5 311.5 L205.5 312.5 L204.5 313.5 L204.5 314.5 L203.5 315.5 L203.5 318.5 L202.5 319.5 L202.5 320.5 L201.5 321.5 L200.5 322.5 L199.5 323.5 L198.5 324.5 L197.5 325.5 L196.5 325.5 L195.5 324.5 L194.5 323.5 L193.5 322.5 L193.5 321.5 L192.5 320.5 L192.5 319.5 L191.5 318.5 L190.5 317.5 L189.5 317.5 L188.5 316.5 L180.5 316.5 L179.5 317.5 L178.5 317.5 L177.5 318.5 L176.5 319.5 L175.5 320.5 L175.5 322.5 L174.5 323.5 L174.5 326.5 L173.5 327.5 L173.5 330.5 L172.5 331.5 L172.5 335.5 L171.5 336.5 L171.5 340.5 L170.5 341.5 L170.5 346.5 L169.5 347.5 L168.5 348.5 L168.5 349.5 L167.5 350.5 L166.5 351.5 L165.5 352.5 L164.5 353.5 L163.5 354.5 L162.5 355.5 L161.5 356.5 L160.5 357.5 L159.5 358.5 L159.5 359.5 L158.5 360.5 L157.5 361.5 L156.5 362.5 L155.5 363.5 L154.5 364.5 L153.5 365.5 L152.5 366.5 L151.5 367.5 L150.5 368.5 L149.5 369.5 L148.5 369.5 L147.5 370.5 L145.5 370.5 L144.5 369.5 L143.5 368.5 L142.5 367.5 L142.5 357.5 L141.5 356.5 L141.5 350.5 L142.5 349.5 L142.5 331.5 L141.5 330.5 L141.5 329.5 L140.5 328.5 L140.5 327.5 L139.5 326.5 L139.5 301.5 L138.5 300.5 L138.5 286.5 L139.5 285.5 L139.5 283.5 L140.5 282.5 L140.5 278.5 L141.5 277.5 L142.5 276.5 L143.5 276.5 L144.5 277.5 L145.5 278.5 L146.5 279.5 L147.5 280.5 L148.5 281.5 L149.5 282.5 L150.5 283.5 L151.5 283.5 L152.5 284.5 L165.5 284.5 L166.5 283.5 L169.5 283.5 L170.5 282.5 L171.5 282.5 L172.5 281.5 L173.5 281.5 L174.5 280.5 L175.5 279.5 L176.5 279.5 L177.5 278.5 L178.5 277.5 L179.5 276.5 L180.5 275.5 L181.5 274.5 L182.5 273.5 L183.5 272.5 L184.5 271.5 L185.5 270.5 L185.5 269.5 L186.5 268.5 L187.5 267.5 L188.5 266.5 L189.5 265.5 L190.5 264.5 L191.5 263.5 L192.5 262.5 L193.5 261.5 L193.5 256.5 L192.5 255.5 L191.5 254.5 L182.5 254.5 L181.5 255.5 L178.5 255.5 L177.5 256.5 L176.5 256.5 L175.5 257.5 L173.5 257.5 L172.5 258.5 L171.5 258.5 L170.5 259.5 L169.5 260.5 L168.5 260.5 L167.5 261.5 L166.5 262.5 L165.5 263.5 L164.5 264.5 L163.5 265.5 L162.5 266.5 L161.5 267.5 L160.5 268.5 L159.5 269.5 L157.5 269.5 L156.5 268.5 L155.5 267.5 L154.5 266.5 L154.5 264.5 L155.5 263.5 L155.5 262.5 L156.5 261.5 L156.5 255.5 L155.5 254.5 L154.5 253.5 L152.5 253.5 L151.5 252.5 L150.5 252.5 L149.5 251.5 L149.5 249.5 L148.5 248.5 L147.5 247.5 L144.5 247.5 L143.5 246.5 L142.5 245.5 L141.5 244.5 L141.5 236.5 L140.5 235.5 L140.5 234.5 L139.5 233.5 L139.5 230.5 L138.5 229.5 L138.5 228.5 L137.5 227.5 L136.5 226.5 L136.5 225.5 L135.5 224.5 L135.5 223.5 L134.5 222.5 L134.5 209.5 L135.5 208.5 L135.5 207.5 L136.5 206.5 L137.5 205.5 L137.5 204.5 L138.5 203.5 L138.5 202.5 L139.5 201.5 L139.5 200.5 L140.5 199.5 L140.5 187.5 L139.5 186.5 L139.5 185.5 L138.5 184.5 L137.5 183.5 L136.5 182.5 L136.5 181.5 L135.5 180.5 L135.5 174.5 L134.5 173.5 L134.5 171.5 L135.5 170.5 L135.5 169.5 L136.5 168.5 L137.5 167.5 L137.5 166.5 L138.5 165.5 L139.5 164.5 L139.5 163.5 L140.5 162.5 L141.5 161.5 L141.5 160.5 L142.5 159.5 L143.5 158.5 L143.5 147.5 L142.5 146.5 L142.5 143.5 L141.5 142.5 L141.5 137.5 L140.5 136.5 L140.5 132.5 L139.5 131.5 L139.5 127.5 L138.5 126.5 L138.5 123.5 L137.5 122.5 L137.5 118.5 L136.5 117.5 L136.5 114.5 L135.5 113.5 L135.5 109.5 L134.5 108.5 L134.5 105.5 L133.5 104.5 L133.5 100.5 L132.5 99.5 L132.5 95.5 L131.5 94.5 L131.5 91.5 L130.5 90.5 L130.5 86.5 L129.5 85.5 L129.5 81.5 L128.5 80.5 L128.5 77.5 L127.5 76.5 L127.5 72.5 L126.5 71.5 L126.5 67.5 L125.5 66.5 L125.5 62.5 L124.5 61.5 L124.5 57.5 L123.5 56.5 L123.5 52.5 L122.5 51.5 L122.5 47.5 L121.5 46.5 L121.5 42.5 L120.5 41.5 L120.5 37.5 L119.5 36.5 L119.5 32.5 L118.5 31.5 L118.5 27.5 L117.5 26.5 L117.5 24.5 L116.5 23.5 L116.5 19.5 L115.5 18.5 L115.5 13.5 L114.5 12.5 L114.5 8.5 L113.5 7.5 L113.5 2.5 L112.5 1.5 L112.5 0.5 Z M133.5 261.5 L134.5 260.5 L136.5 260.5 L137.5 261.5 L137.5 262.5 L138.5 263.5 L138.5 265.5 L137.5 266.5 L136.5 266.5 L135.5 265.5 L134.5 264.5 L133.5 263.5 Z M512.5 345.5 L513.5 344.5 L514.5 344.5 L515.5 345.5 L515.5 348.5 L514.5 349.5 L513.5 350.5 L511.5 350.5 L510.5 349.5 L509.5 348.5 L509.5 346.5 L510.5 345.5 Z M253.5 364.5 L254.5 363.5 L256.5 363.5 L257.5 364.5 L258.5 365.5 L258.5 366.5 L259.5 367.5 L259.5 369.5 L260.5 370.5 L260.5 371.5 L261.5 372.5 L261.5 376.5 L262.5 377.5 L262.5 379.5 L263.5 380.5 L263.5 384.5 L264.5 385.5 L264.5 387.5 L265.5 388.5 L265.5 395.5 L266.5 396.5 L266.5 398.5 L267.5 399.5 L267.5 402.5 L266.5 403.5 L265.5 404.5 L264.5 405.5 L263.5 406.5 L263.5 407.5 L262.5 408.5 L262.5 419.5 L261.5 420.5 L261.5 422.5 L260.5 423.5 L260.5 424.5 L259.5 425.5 L259.5 438.5 L258.5 439.5 L257.5 440.5 L257.5 441.5 L256.5 442.5 L255.5 443.5 L254.5 444.5 L254.5 445.5 L253.5 446.5 L252.5 447.5 L252.5 448.5 L251.5 449.5 L250.5 450.5 L250.5 451.5 L249.5 452.5 L248.5 453.5 L248.5 454.5 L247.5 455.5 L246.5 456.5 L246.5 457.5 L245.5 458.5 L245.5 459.5 L244.5 460.5 L244.5 461.5 L243.5 462.5 L242.5 463.5 L242.5 464.5 L241.5 465.5 L241.5 470.5 L240.5 471.5 L240.5 472.5 L239.5 473.5 L239.5 474.5 L238.5 475.5 L238.5 477.5 L237.5 478.5 L237.5 480.5 L236.5 481.5 L236.5 483.5 L235.5 484.5 L235.5 491.5 L234.5 492.5 L234.5 494.5 L233.5 495.5 L233.5 497.5 L232.5 498.5 L232.5 501.5 L231.5 502.5 L231.5 505.5 L230.5 506.5 L230.5 514.5 L229.5 515.5 L229.5 517.5 L228.5 518.5 L228.5 519.5 L227.5 520.5 L227.5 522.5 L226.5 523.5 L226.5 524.5 L225.5 525.5 L225.5 526.5 L224.5 527.5 L224.5 528.5 L223.5 529.5 L223.5 530.5 L222.5 531.5 L222.5 532.5 L221.5 533.5 L221.5 534.5 L220.5 535.5 L219.5 536.5 L218.5 537.5 L217.5 538.5 L217.5 539.5 L216.5 540.5 L216.5 549.5 L217.5 550.5 L217.5 551.5 L218.5 552.5 L219.5 553.5 L220.5 554.5 L221.5 554.5 L222.5 555.5 L223.5 555.5 L224.5 556.5 L225.5 556.5 L226.5 557.5 L228.5 557.5 L229.5 558.5 L231.5 558.5 L232.5 559.5 L234.5 559.5 L235.5 560.5 L237.5 560.5 L238.5 561.5 L240.5 561.5 L241.5 562.5 L243.5 562.5 L244.5 563.5 L245.5 563.5 L246.5 564.5 L247.5 565.5 L248.5 566.5 L248.5 568.5 L247.5 569.5 L247.5 573.5 L246.5 574.5 L246.5 577.5 L245.5 578.5 L245.5 616.5 L244.5 617.5 L244.5 619.5 L243.5 620.5 L243.5 628.5 L242.5 629.5 L242.5 630.5 L241.5 631.5 L241.5 632.5 L240.5 633.5 L240.5 634.5 L239.5 635.5 L238.5 636.5 L238.5 637.5 L237.5 638.5 L236.5 639.5 L236.5 640.5 L235.5 641.5 L235.5 642.5 L234.5 643.5 L234.5 644.5 L233.5 645.5 L233.5 646.5 L232.5 647.5 L232.5 649.5 L231.5 650.5 L231.5 662.5 L232.5 663.5 L232.5 664.5 L233.5 665.5 L234.5 666.5 L235.5 667.5 L236.5 668.5 L237.5 669.5 L238.5 670.5 L239.5 671.5 L240.5 672.5 L240.5 673.5 L241.5 674.5 L241.5 684.5 L242.5 685.5 L242.5 686.5 L243.5 687.5 L244.5 688.5 L245.5 689.5 L246.5 690.5 L247.5 691.5 L248.5 692.5 L249.5 692.5 L250.5 693.5 L251.5 694.5 L252.5 695.5 L253.5 696.5 L254.5 697.5 L255.5 698.5 L255.5 701.5 L256.5 702.5 L256.5 706.5 L257.5 707.5 L257.5 711.5 L258.5 712.5 L258.5 715.5 L259.5 716.5 L259.5 719.5 L260.5 720.5 L260.5 722.5 L261.5 723.5 L261.5 725.5 L262.5 726.5 L262.5 727.5 L263.5 728.5 L263.5 729.5 L264.5 730.5 L264.5 736.5 L265.5 737.5 L265.5 738.5 L266.5 739.5 L266.5 740.5 L267.5 741.5 L267.5 750.5 L268.5 751.5 L268.5 762.5 L269.5 763.5 L269.5 777.5 L268.5 778.5 L267.5 779.5 L266.5 780.5 L265.5 781.5 L264.5 781.5 L263.5 782.5 L262.5 782.5 L261.5 783.5 L260.5 784.5 L259.5 785.5 L258.5 786.5 L258.5 796.5 L259.5 797.5 L259.5 801.5 L260.5 802.5 L259.5 803.5 L259.5 804.5 L258.5 805.5 L257.5 806.5 L256.5 806.5 L255.5 807.5 L254.5 808.5 L253.5 809.5 L252.5 810.5 L251.5 811.5 L251.5 812.5 L250.5 813.5 L249.5 814.5 L248.5 814.5 L247.5 815.5 L246.5 815.5 L245.5 816.5 L243.5 816.5 L242.5 817.5 L241.5 817.5 L240.5 818.5 L239.5 818.5 L238.5 819.5 L232.5 819.5 L231.5 820.5 L230.5 820.5 L229.5 821.5 L228.5 822.5 L227.5 823.5 L226.5 823.5 L225.5 824.5 L224.5 825.5 L223.5 826.5 L222.5 827.5 L221.5 827.5 L220.5 828.5 L219.5 829.5 L218.5 829.5 L217.5 830.5 L216.5 830.5 L215.5 831.5 L214.5 832.5 L213.5 832.5 L212.5 833.5 L211.5 833.5 L210.5 834.5 L209.5 834.5 L208.5 835.5 L207.5 835.5 L206.5 836.5 L205.5 836.5 L204.5 837.5 L202.5 837.5 L201.5 838.5 L200.5 838.5 L199.5 839.5 L176.5 839.5 L175.5 838.5 L174.5 837.5 L173.5 836.5 L173.5 835.5 L174.5 834.5 L174.5 833.5 L175.5 832.5 L175.5 821.5 L174.5 820.5 L173.5 819.5 L172.5 818.5 L171.5 817.5 L170.5 816.5 L170.5 813.5 L169.5 812.5 L169.5 796.5 L170.5 795.5 L170.5 785.5 L169.5 784.5 L169.5 781.5 L168.5 780.5 L168.5 774.5 L167.5 773.5 L167.5 767.5 L166.5 766.5 L166.5 756.5 L167.5 755.5 L167.5 752.5 L168.5 751.5 L168.5 739.5 L167.5 738.5 L167.5 737.5 L166.5 736.5 L165.5 735.5 L164.5 734.5 L164.5 720.5 L163.5 719.5 L163.5 693.5 L162.5 692.5 L162.5 687.5 L161.5 686.5 L161.5 684.5 L162.5 683.5 L162.5 674.5 L161.5 673.5 L161.5 666.5 L160.5 665.5 L160.5 662.5 L161.5 661.5 L161.5 660.5 L162.5 659.5 L162.5 658.5 L163.5 657.5 L163.5 647.5 L162.5 646.5 L161.5 645.5 L160.5 644.5 L160.5 643.5 L159.5 642.5 L159.5 638.5 L158.5 637.5 L158.5 618.5 L157.5 617.5 L157.5 605.5 L156.5 604.5 L156.5 601.5 L155.5 600.5 L155.5 596.5 L156.5 595.5 L156.5 594.5 L157.5 593.5 L157.5 583.5 L156.5 582.5 L155.5 581.5 L154.5 580.5 L154.5 579.5 L153.5 578.5 L153.5 565.5 L154.5 564.5 L154.5 550.5 L153.5 549.5 L153.5 548.5 L152.5 547.5 L152.5 537.5 L153.5 536.5 L153.5 535.5 L154.5 534.5 L154.5 525.5 L153.5 524.5 L153.5 523.5 L152.5 522.5 L152.5 521.5 L151.5 520.5 L150.5 519.5 L150.5 518.5 L149.5 519.5 L148.5 518.5 L148.5 514.5 L149.5 513.5 L150.5 513.5 L150.5 512.5 L151.5 511.5 L151.5 509.5 L152.5 508.5 L152.5 497.5 L151.5 496.5 L151.5 495.5 L150.5 494.5 L150.5 490.5 L149.5 489.5 L149.5 451.5 L150.5 450.5 L150.5 437.5 L149.5 436.5 L149.5 435.5 L148.5 434.5 L148.5 433.5 L147.5 432.5 L147.5 430.5 L148.5 429.5 L149.5 428.5 L150.5 427.5 L151.5 426.5 L151.5 425.5 L152.5 424.5 L153.5 423.5 L154.5 422.5 L155.5 421.5 L156.5 420.5 L157.5 420.5 L158.5 419.5 L159.5 419.5 L160.5 418.5 L161.5 418.5 L162.5 417.5 L163.5 417.5 L164.5 416.5 L166.5 416.5 L167.5 415.5 L169.5 415.5 L170.5 414.5 L173.5 414.5 L174.5 413.5 L177.5 413.5 L178.5 412.5 L181.5 412.5 L182.5 411.5 L185.5 411.5 L186.5 410.5 L191.5 410.5 L192.5 409.5 L196.5 409.5 L197.5 408.5 L199.5 408.5 L200.5 407.5 L201.5 407.5 L202.5 406.5 L203.5 405.5 L204.5 405.5 L205.5 404.5 L206.5 404.5 L207.5 403.5 L209.5 403.5 L210.5 402.5 L211.5 401.5 L212.5 400.5 L213.5 399.5 L214.5 398.5 L216.5 398.5 L217.5 397.5 L218.5 397.5 L219.5 396.5 L220.5 396.5 L221.5 395.5 L222.5 394.5 L222.5 393.5 L223.5 392.5 L223.5 391.5 L224.5 390.5 L225.5 389.5 L226.5 388.5 L227.5 387.5 L228.5 386.5 L229.5 386.5 L230.5 385.5 L231.5 385.5 L232.5 384.5 L233.5 384.5 L234.5 383.5 L235.5 382.5 L236.5 381.5 L237.5 380.5 L240.5 380.5 L241.5 379.5 L242.5 379.5 L243.5 378.5 L244.5 377.5 L245.5 376.5 L245.5 375.5 L246.5 374.5 L246.5 373.5 L247.5 372.5 L248.5 371.5 L248.5 370.5 L249.5 369.5 L249.5 367.5 L250.5 366.5 L251.5 365.5 L252.5 364.5 Z M324.5 663.5 L325.5 662.5 L326.5 663.5 L327.5 663.5 L328.5 664.5 L329.5 665.5 L329.5 666.5 L330.5 667.5 L331.5 668.5 L331.5 669.5 L332.5 670.5 L333.5 671.5 L333.5 672.5 L334.5 673.5 L335.5 674.5 L335.5 675.5 L336.5 676.5 L337.5 677.5 L338.5 678.5 L338.5 679.5 L339.5 680.5 L340.5 681.5 L341.5 682.5 L341.5 683.5 L342.5 684.5 L342.5 685.5 L343.5 686.5 L343.5 689.5 L344.5 690.5 L344.5 691.5 L345.5 692.5 L346.5 693.5 L347.5 694.5 L347.5 695.5 L348.5 696.5 L349.5 697.5 L350.5 698.5 L351.5 699.5 L352.5 700.5 L353.5 701.5 L354.5 702.5 L355.5 703.5 L356.5 704.5 L357.5 705.5 L358.5 706.5 L359.5 707.5 L360.5 708.5 L361.5 708.5 L362.5 709.5 L363.5 710.5 L364.5 711.5 L365.5 711.5 L366.5 712.5 L367.5 713.5 L368.5 713.5 L369.5 714.5 L370.5 714.5 L371.5 715.5 L373.5 715.5 L374.5 716.5 L375.5 716.5 L376.5 717.5 L377.5 718.5 L378.5 718.5 L379.5 719.5 L380.5 719.5 L381.5 720.5 L382.5 721.5 L383.5 722.5 L384.5 723.5 L385.5 724.5 L391.5 724.5 L392.5 723.5 L393.5 722.5 L394.5 721.5 L395.5 721.5 L396.5 720.5 L397.5 721.5 L409.5 721.5 L410.5 722.5 L411.5 723.5 L412.5 724.5 L413.5 725.5 L413.5 727.5 L414.5 728.5 L414.5 730.5 L415.5 731.5 L415.5 732.5 L416.5 733.5 L417.5 734.5 L418.5 735.5 L419.5 736.5 L420.5 736.5 L421.5 737.5 L421.5 738.5 L422.5 739.5 L423.5 739.5 L424.5 740.5 L424.5 741.5 L425.5 742.5 L426.5 743.5 L426.5 744.5 L427.5 745.5 L427.5 746.5 L428.5 747.5 L429.5 748.5 L429.5 749.5 L430.5 750.5 L430.5 751.5 L431.5 752.5 L432.5 753.5 L432.5 755.5 L433.5 756.5 L433.5 761.5 L434.5 762.5 L434.5 763.5 L435.5 764.5 L435.5 765.5 L436.5 766.5 L437.5 767.5 L437.5 768.5 L438.5 769.5 L438.5 770.5 L439.5 771.5 L439.5 772.5 L440.5 773.5 L440.5 774.5 L441.5 775.5 L441.5 777.5 L442.5 778.5 L442.5 779.5 L443.5 780.5 L443.5 781.5 L444.5 782.5 L444.5 783.5 L445.5 784.5 L445.5 786.5 L446.5 787.5 L446.5 789.5 L447.5 790.5 L447.5 791.5 L448.5 792.5 L449.5 792.5 L450.5 793.5 L451.5 793.5 L452.5 794.5 L453.5 795.5 L453.5 802.5 L452.5 803.5 L452.5 818.5 L453.5 818.5 L454.5 819.5 L454.5 820.5 L455.5 821.5 L456.5 820.5 L457.5 821.5 L457.5 827.5 L456.5 828.5 L455.5 828.5 L454.5 829.5 L453.5 830.5 L452.5 830.5 L451.5 829.5 L448.5 829.5 L447.5 830.5 L444.5 830.5 L443.5 829.5 L436.5 829.5 L435.5 828.5 L435.5 827.5 L398.5 827.5 L397.5 828.5 L395.5 828.5 L394.5 829.5 L379.5 829.5 L378.5 830.5 L370.5 830.5 L369.5 829.5 L364.5 829.5 L363.5 828.5 L360.5 828.5 L359.5 827.5 L342.5 827.5 L341.5 828.5 L335.5 828.5 L334.5 829.5 L329.5 829.5 L328.5 830.5 L325.5 830.5 L324.5 831.5 L322.5 831.5 L321.5 832.5 L320.5 832.5 L319.5 831.5 L318.5 830.5 L318.5 828.5 L319.5 827.5 L319.5 826.5 L320.5 825.5 L321.5 824.5 L321.5 823.5 L322.5 822.5 L322.5 821.5 L323.5 820.5 L323.5 819.5 L324.5 818.5 L324.5 810.5 L323.5 809.5 L323.5 808.5 L322.5 808.5 L321.5 807.5 L320.5 806.5 L319.5 805.5 L318.5 805.5 L317.5 804.5 L317.5 801.5 L316.5 800.5 L316.5 790.5 L317.5 789.5 L317.5 780.5 L318.5 779.5 L319.5 780.5 L319.5 779.5 L320.5 778.5 L320.5 777.5 L321.5 776.5 L321.5 765.5 L322.5 764.5 L322.5 763.5 L323.5 762.5 L323.5 760.5 L324.5 759.5 L324.5 745.5 L325.5 744.5 L325.5 742.5 L326.5 741.5 L326.5 738.5 L327.5 737.5 L327.5 734.5 L328.5 733.5 L328.5 728.5 L329.5 727.5 L329.5 723.5 L330.5 722.5 L330.5 715.5 L331.5 714.5 L331.5 696.5 L330.5 695.5 L330.5 693.5 L329.5 692.5 L329.5 691.5 L328.5 690.5 L328.5 688.5 L327.5 687.5 L327.5 685.5 L326.5 684.5 L326.5 683.5 L325.5 682.5 L325.5 680.5 L324.5 679.5 L324.5 677.5 L323.5 676.5 L323.5 673.5 L322.5 672.5 L322.5 671.5 L321.5 670.5 L321.5 665.5 L322.5 664.5 L323.5 664.5 Z M2.5 849.5 L3.5 848.5 L4.5 849.5 L3.5 850.5 Z"/>
  </g>
</svg>
