<?xml version="1.0" encoding="UTF-8" standalone="no"?>
<!-- Created with PhotoLine 23.53 (www.pl32.de) -->
<!DOCTYPE svg PUBLIC "-//W3C//DTD SVG 1.1//EN" "http://www.w3.org/Graphics/SVG/1.1/DTD/svg11.dtd">
<svg width="200" height="200" viewBox="0 0 200 200" version="1.1" xmlns="http://www.w3.org/2000/svg" xmlns:xlink="http://www.w3.org/1999/xlink">
  <defs>
    <clipPath id="clip0">
      <path clip-rule="evenodd" d="M556.5 2.5 L555.5 3.5 L555.5 4.5 L554.5 5.5 L554.5 6.5 L553.5 7.5 L552.5 8.5 L552.5 9.5 L551.5 10.5 L550.5 11.5 L549.5 12.5 L549.5 13.5 L548.5 14.5 L547.5 15.5 L546.5 16.5 L545.5 17.5 L544.5 18.5 L542.5 18.5 L542.5 19.5 L541.5 20.5 L541.5 21.5 L540.5 22.5 L539.5 23.5 L538.5 24.5 L538.5 25.5 L537.5 26.5 L536.5 27.5 L535.5 27.5 L534.5 28.5 L534.5 29.5 L533.5 30.5 L531.5 30.5 L530.5 31.5 L529.5 31.5 L528.5 32.5 L527.5 33.5 L525.5 33.5 L524.5 34.5 L524.5 35.5 L523.5 36.5 L523.5 37.5 L522.5 38.5 L522.5 39.5 L521.5 40.5 L521.5 41.5 L520.5 42.5 L520.5 44.5 L519.5 45.5 L518.5 46.5 L517.5 46.5 L516.5 47.5 L515.5 48.5 L515.5 50.5 L514.5 51.5 L514.5 54.5 L513.5 55.5 L513.5 59.5 L512.5 60.5 L511.5 59.5 L510.5 60.5 L509.5 59.5 L508.5 58.5 L508.5 55.5 L505.5 55.5 L505.5 56.5 L504.5 57.5 L504.5 58.5 L503.5 59.5 L502.5 60.5 L501.5 61.5 L501.5 62.5 L500.5 63.5 L499.5 64.5 L499.5 65.5 L498.5 66.5 L498.5 67.5 L497.5 68.5 L497.5 69.5 L496.5 70.5 L495.5 71.5 L494.5 72.5 L494.5 73.5 L493.5 74.5 L493.5 75.5 L492.5 76.5 L491.5 77.5 L489.5 77.5 L488.5 78.5 L487.5 79.5 L486.5 80.5 L486.5 82.5 L485.5 83.5 L485.5 84.5 L484.5 85.5 L484.5 86.5 L483.5 87.5 L483.5 88.5 L482.5 89.5 L481.5 88.5 L481.5 87.5 L480.5 86.5 L479.5 86.5 L478.5 85.5 L477.5 85.5 L476.5 84.5 L476.5 82.5 L475.5 81.5 L474.5 80.5 L473.5 79.5 L472.5 78.5 L471.5 77.5 L471.5 76.5 L470.5 75.5 L469.5 74.5 L467.5 74.5 L466.5 73.5 L464.5 73.5 L463.5 74.5 L461.5 74.5 L460.5 73.5 L460.5 72.5 L459.5 71.5 L459.5 70.5 L458.5 69.5 L458.5 67.5 L457.5 67.5 L456.5 66.5 L455.5 65.5 L454.5 65.5 L453.5 64.5 L452.5 63.5 L449.5 63.5 L448.5 62.5 L448.5 61.5 L447.5 60.5 L446.5 59.5 L446.5 57.5 L445.5 57.5 L444.5 56.5 L444.5 55.5 L443.5 54.5 L442.5 53.5 L442.5 52.5 L441.5 51.5 L441.5 48.5 L439.5 48.5 L439.5 56.5 L438.5 57.5 L437.5 57.5 L437.5 58.5 L436.5 59.5 L435.5 60.5 L435.5 62.5 L434.5 63.5 L433.5 64.5 L432.5 65.5 L433.5 66.5 L432.5 67.5 L432.5 68.5 L431.5 69.5 L431.5 70.5 L430.5 71.5 L429.5 72.5 L428.5 73.5 L427.5 74.5 L427.5 75.5 L426.5 76.5 L426.5 77.5 L425.5 78.5 L424.5 79.5 L423.5 80.5 L423.5 81.5 L422.5 82.5 L420.5 82.5 L419.5 83.5 L418.5 83.5 L417.5 84.5 L417.5 86.5 L416.5 87.5 L415.5 88.5 L415.5 89.5 L414.5 90.5 L414.5 92.5 L413.5 93.5 L412.5 94.5 L410.5 94.5 L410.5 95.5 L409.5 96.5 L408.5 96.5 L408.5 97.5 L407.5 98.5 L406.5 99.5 L405.5 100.5 L405.5 101.5 L404.5 102.5 L403.5 103.5 L402.5 102.5 L401.5 101.5 L401.5 100.5 L400.5 99.5 L400.5 98.5 L399.5 97.5 L398.5 96.5 L398.5 95.5 L397.5 94.5 L396.5 94.5 L395.5 95.5 L394.5 94.5 L393.5 94.5 L392.5 93.5 L392.5 91.5 L391.5 90.5 L390.5 89.5 L389.5 88.5 L388.5 88.5 L387.5 87.5 L387.5 84.5 L386.5 84.5 L385.5 83.5 L386.5 82.5 L385.5 81.5 L385.5 80.5 L384.5 80.5 L383.5 79.5 L383.5 78.5 L382.5 77.5 L382.5 76.5 L381.5 75.5 L380.5 74.5 L379.5 75.5 L378.5 74.5 L378.5 71.5 L377.5 71.5 L376.5 70.5 L376.5 69.5 L375.5 68.5 L375.5 65.5 L374.5 64.5 L374.5 63.5 L373.5 63.5 L372.5 62.5 L369.5 62.5 L368.5 63.5 L367.5 62.5 L366.5 62.5 L365.5 61.5 L364.5 62.5 L363.5 61.5 L363.5 60.5 L362.5 60.5 L361.5 59.5 L361.5 58.5 L360.5 57.5 L360.5 56.5 L359.5 55.5 L358.5 54.5 L358.5 53.5 L357.5 52.5 L357.5 49.5 L356.5 48.5 L356.5 47.5 L355.5 46.5 L354.5 45.5 L354.5 44.5 L353.5 44.5 L352.5 45.5 L351.5 46.5 L350.5 47.5 L349.5 47.5 L348.5 48.5 L347.5 48.5 L346.5 47.5 L346.5 46.5 L345.5 45.5 L344.5 44.5 L343.5 43.5 L343.5 42.5 L342.5 41.5 L342.5 40.5 L341.5 39.5 L340.5 38.5 L339.5 39.5 L337.5 39.5 L336.5 38.5 L335.5 38.5 L334.5 37.5 L333.5 36.5 L333.5 35.5 L331.5 35.5 L330.5 36.5 L328.5 36.5 L327.5 37.5 L326.5 36.5 L324.5 36.5 L323.5 35.5 L323.5 34.5 L320.5 34.5 L319.5 33.5 L318.5 32.5 L317.5 31.5 L316.5 31.5 L315.5 30.5 L314.5 30.5 L313.5 29.5 L307.5 29.5 L306.5 30.5 L305.5 30.5 L304.5 31.5 L303.5 32.5 L303.5 34.5 L302.5 35.5 L302.5 36.5 L303.5 37.5 L302.5 38.5 L302.5 40.5 L303.5 40.5 L304.5 41.5 L304.5 43.5 L303.5 44.5 L303.5 47.5 L304.5 48.5 L304.5 54.5 L305.5 54.5 L306.5 55.5 L305.5 56.5 L306.5 57.5 L306.5 59.5 L305.5 60.5 L305.5 63.5 L304.5 64.5 L305.5 65.5 L305.5 66.5 L306.5 67.5 L306.5 69.5 L307.5 70.5 L308.5 71.5 L308.5 72.5 L309.5 73.5 L309.5 75.5 L310.5 76.5 L311.5 76.5 L312.5 77.5 L313.5 78.5 L312.5 79.5 L313.5 80.5 L313.5 83.5 L312.5 84.5 L311.5 84.5 L310.5 85.5 L309.5 85.5 L309.5 86.5 L308.5 87.5 L309.5 88.5 L309.5 91.5 L310.5 92.5 L310.5 94.5 L311.5 95.5 L311.5 97.5 L312.5 98.5 L312.5 100.5 L313.5 101.5 L312.5 102.5 L312.5 103.5 L311.5 104.5 L311.5 106.5 L310.5 107.5 L310.5 108.5 L311.5 109.5 L310.5 110.5 L311.5 110.5 L312.5 111.5 L312.5 116.5 L311.5 117.5 L310.5 118.5 L310.5 119.5 L309.5 120.5 L308.5 121.5 L304.5 121.5 L303.5 120.5 L302.5 120.5 L301.5 119.5 L300.5 119.5 L299.5 118.5 L298.5 117.5 L297.5 117.5 L296.5 116.5 L295.5 115.5 L294.5 114.5 L293.5 113.5 L292.5 112.5 L292.5 110.5 L291.5 109.5 L291.5 108.5 L290.5 107.5 L289.5 107.5 L288.5 108.5 L287.5 109.5 L287.5 110.5 L288.5 111.5 L288.5 112.5 L287.5 113.5 L287.5 116.5 L288.5 117.5 L288.5 124.5 L289.5 125.5 L288.5 126.5 L289.5 127.5 L289.5 128.5 L288.5 129.5 L287.5 129.5 L286.5 130.5 L286.5 133.5 L287.5 134.5 L287.5 137.5 L286.5 138.5 L285.5 139.5 L285.5 141.5 L286.5 142.5 L287.5 143.5 L287.5 145.5 L288.5 146.5 L288.5 148.5 L287.5 149.5 L287.5 150.5 L286.5 151.5 L285.5 152.5 L284.5 152.5 L283.5 153.5 L282.5 153.5 L281.5 154.5 L279.5 154.5 L278.5 155.5 L272.5 155.5 L271.5 154.5 L270.5 153.5 L265.5 153.5 L264.5 152.5 L263.5 151.5 L262.5 150.5 L261.5 150.5 L260.5 151.5 L259.5 151.5 L258.5 150.5 L256.5 150.5 L255.5 149.5 L254.5 150.5 L253.5 149.5 L252.5 149.5 L251.5 148.5 L250.5 147.5 L249.5 146.5 L248.5 146.5 L247.5 145.5 L246.5 144.5 L244.5 144.5 L243.5 143.5 L242.5 142.5 L240.5 142.5 L240.5 144.5 L239.5 145.5 L236.5 145.5 L235.5 146.5 L229.5 146.5 L228.5 145.5 L227.5 144.5 L226.5 145.5 L220.5 145.5 L219.5 144.5 L217.5 144.5 L216.5 143.5 L215.5 143.5 L214.5 142.5 L213.5 142.5 L212.5 141.5 L211.5 141.5 L210.5 140.5 L209.5 140.5 L208.5 139.5 L206.5 139.5 L205.5 138.5 L204.5 137.5 L203.5 136.5 L202.5 136.5 L201.5 135.5 L200.5 136.5 L200.5 137.5 L201.5 138.5 L201.5 141.5 L202.5 142.5 L202.5 145.5 L203.5 146.5 L203.5 148.5 L204.5 149.5 L204.5 150.5 L205.5 151.5 L205.5 152.5 L206.5 153.5 L206.5 154.5 L207.5 155.5 L207.5 157.5 L208.5 158.5 L208.5 159.5 L209.5 160.5 L210.5 161.5 L210.5 162.5 L211.5 163.5 L212.5 164.5 L212.5 169.5 L213.5 170.5 L214.5 171.5 L213.5 172.5 L214.5 171.5 L215.5 172.5 L216.5 173.5 L216.5 174.5 L217.5 175.5 L216.5 176.5 L217.5 177.5 L217.5 178.5 L218.5 179.5 L217.5 180.5 L217.5 181.5 L218.5 182.5 L219.5 183.5 L219.5 184.5 L220.5 184.5 L221.5 185.5 L221.5 186.5 L223.5 186.5 L224.5 187.5 L225.5 188.5 L226.5 189.5 L226.5 192.5 L228.5 192.5 L229.5 193.5 L230.5 193.5 L231.5 194.5 L231.5 195.5 L230.5 196.5 L229.5 197.5 L228.5 197.5 L228.5 198.5 L227.5 199.5 L221.5 199.5 L220.5 198.5 L220.5 199.5 L219.5 200.5 L215.5 200.5 L214.5 201.5 L211.5 201.5 L210.5 202.5 L208.5 202.5 L207.5 201.5 L207.5 200.5 L206.5 201.5 L205.5 201.5 L204.5 200.5 L203.5 200.5 L202.5 199.5 L201.5 198.5 L200.5 198.5 L199.5 199.5 L198.5 199.5 L197.5 198.5 L196.5 198.5 L195.5 197.5 L194.5 196.5 L193.5 195.5 L193.5 194.5 L192.5 195.5 L191.5 194.5 L190.5 194.5 L189.5 195.5 L189.5 197.5 L190.5 198.5 L190.5 199.5 L191.5 200.5 L191.5 207.5 L190.5 208.5 L190.5 211.5 L189.5 212.5 L188.5 213.5 L187.5 212.5 L187.5 213.5 L186.5 214.5 L185.5 213.5 L186.5 214.5 L185.5 215.5 L184.5 215.5 L183.5 216.5 L182.5 216.5 L181.5 217.5 L180.5 218.5 L177.5 218.5 L177.5 220.5 L176.5 221.5 L175.5 222.5 L174.5 222.5 L173.5 223.5 L172.5 224.5 L169.5 224.5 L168.5 223.5 L167.5 223.5 L166.5 222.5 L165.5 221.5 L163.5 221.5 L162.5 220.5 L159.5 220.5 L158.5 219.5 L157.5 219.5 L156.5 218.5 L155.5 217.5 L154.5 216.5 L153.5 215.5 L152.5 214.5 L151.5 213.5 L150.5 212.5 L149.5 211.5 L148.5 210.5 L148.5 209.5 L147.5 208.5 L147.5 206.5 L146.5 205.5 L145.5 205.5 L144.5 206.5 L144.5 215.5 L145.5 216.5 L145.5 219.5 L146.5 220.5 L146.5 223.5 L147.5 224.5 L147.5 225.5 L146.5 226.5 L145.5 227.5 L145.5 230.5 L144.5 231.5 L144.5 232.5 L145.5 233.5 L145.5 234.5 L146.5 235.5 L146.5 236.5 L147.5 237.5 L147.5 238.5 L148.5 239.5 L149.5 240.5 L149.5 241.5 L150.5 242.5 L150.5 243.5 L151.5 244.5 L152.5 245.5 L152.5 246.5 L153.5 247.5 L152.5 248.5 L151.5 249.5 L152.5 250.5 L152.5 252.5 L153.5 253.5 L154.5 254.5 L155.5 255.5 L156.5 256.5 L156.5 257.5 L157.5 258.5 L157.5 259.5 L158.5 260.5 L158.5 261.5 L159.5 262.5 L158.5 263.5 L158.5 264.5 L159.5 265.5 L159.5 266.5 L158.5 267.5 L154.5 267.5 L153.5 266.5 L149.5 266.5 L148.5 267.5 L146.5 267.5 L145.5 266.5 L141.5 266.5 L140.5 265.5 L139.5 264.5 L138.5 265.5 L138.5 267.5 L139.5 268.5 L140.5 269.5 L140.5 270.5 L141.5 271.5 L141.5 273.5 L142.5 274.5 L142.5 277.5 L141.5 278.5 L140.5 278.5 L141.5 278.5 L142.5 279.5 L142.5 282.5 L141.5 283.5 L142.5 284.5 L141.5 285.5 L140.5 285.5 L139.5 286.5 L138.5 287.5 L137.5 287.5 L136.5 286.5 L133.5 286.5 L132.5 287.5 L132.5 288.5 L131.5 289.5 L130.5 290.5 L116.5 290.5 L115.5 291.5 L115.5 293.5 L114.5 294.5 L106.5 294.5 L105.5 293.5 L102.5 293.5 L101.5 294.5 L100.5 295.5 L97.5 295.5 L97.5 301.5 L96.5 302.5 L95.5 303.5 L94.5 304.5 L93.5 305.5 L92.5 306.5 L91.5 305.5 L92.5 306.5 L91.5 307.5 L90.5 307.5 L89.5 308.5 L88.5 308.5 L87.5 309.5 L86.5 308.5 L85.5 308.5 L84.5 309.5 L83.5 309.5 L82.5 310.5 L81.5 310.5 L80.5 311.5 L77.5 311.5 L77.5 313.5 L78.5 313.5 L79.5 314.5 L80.5 315.5 L79.5 316.5 L80.5 317.5 L81.5 318.5 L82.5 317.5 L83.5 318.5 L84.5 319.5 L85.5 320.5 L85.5 323.5 L86.5 324.5 L87.5 325.5 L88.5 326.5 L90.5 326.5 L91.5 327.5 L91.5 328.5 L92.5 328.5 L93.5 327.5 L94.5 328.5 L95.5 328.5 L96.5 329.5 L96.5 330.5 L97.5 331.5 L98.5 332.5 L98.5 333.5 L99.5 333.5 L100.5 334.5 L101.5 335.5 L102.5 335.5 L103.5 336.5 L102.5 337.5 L103.5 336.5 L104.5 337.5 L105.5 338.5 L106.5 339.5 L107.5 339.5 L108.5 340.5 L109.5 340.5 L110.5 341.5 L111.5 342.5 L111.5 344.5 L110.5 345.5 L109.5 346.5 L108.5 346.5 L107.5 347.5 L106.5 347.5 L105.5 348.5 L103.5 348.5 L102.5 349.5 L101.5 350.5 L101.5 351.5 L100.5 352.5 L99.5 352.5 L99.5 353.5 L98.5 354.5 L97.5 354.5 L96.5 355.5 L96.5 358.5 L95.5 359.5 L94.5 359.5 L93.5 360.5 L92.5 360.5 L91.5 361.5 L90.5 361.5 L89.5 362.5 L88.5 363.5 L84.5 363.5 L83.5 362.5 L82.5 362.5 L81.5 361.5 L80.5 360.5 L79.5 359.5 L76.5 359.5 L76.5 360.5 L75.5 361.5 L76.5 362.5 L77.5 363.5 L78.5 363.5 L79.5 364.5 L79.5 365.5 L78.5 366.5 L77.5 366.5 L76.5 367.5 L72.5 367.5 L71.5 368.5 L64.5 368.5 L63.5 369.5 L46.5 369.5 L45.5 370.5 L44.5 371.5 L42.5 371.5 L41.5 372.5 L40.5 372.5 L39.5 373.5 L38.5 374.5 L38.5 375.5 L39.5 376.5 L42.5 376.5 L43.5 377.5 L42.5 378.5 L42.5 379.5 L41.5 380.5 L40.5 380.5 L40.5 382.5 L41.5 382.5 L42.5 381.5 L43.5 382.5 L44.5 383.5 L45.5 383.5 L46.5 382.5 L49.5 382.5 L49.5 381.5 L50.5 380.5 L51.5 381.5 L52.5 380.5 L53.5 379.5 L54.5 379.5 L55.5 378.5 L56.5 377.5 L57.5 376.5 L58.5 375.5 L59.5 375.5 L60.5 374.5 L62.5 374.5 L63.5 373.5 L67.5 373.5 L68.5 372.5 L83.5 372.5 L84.5 373.5 L87.5 373.5 L88.5 374.5 L89.5 375.5 L90.5 376.5 L90.5 377.5 L89.5 378.5 L88.5 379.5 L88.5 380.5 L87.5 381.5 L87.5 386.5 L86.5 387.5 L85.5 387.5 L84.5 388.5 L83.5 388.5 L82.5 389.5 L81.5 389.5 L80.5 390.5 L79.5 390.5 L78.5 391.5 L77.5 391.5 L76.5 392.5 L75.5 392.5 L74.5 393.5 L73.5 394.5 L72.5 395.5 L68.5 395.5 L68.5 396.5 L67.5 397.5 L66.5 397.5 L65.5 398.5 L65.5 399.5 L64.5 400.5 L63.5 401.5 L62.5 402.5 L61.5 403.5 L60.5 402.5 L59.5 401.5 L59.5 398.5 L60.5 397.5 L60.5 395.5 L59.5 395.5 L58.5 394.5 L53.5 394.5 L53.5 396.5 L52.5 397.5 L52.5 398.5 L51.5 399.5 L50.5 400.5 L49.5 401.5 L45.5 401.5 L44.5 400.5 L42.5 400.5 L41.5 399.5 L41.5 398.5 L40.5 397.5 L39.5 396.5 L37.5 396.5 L36.5 397.5 L33.5 397.5 L32.5 398.5 L31.5 397.5 L31.5 399.5 L30.5 400.5 L29.5 401.5 L29.5 402.5 L28.5 403.5 L27.5 404.5 L27.5 407.5 L28.5 407.5 L29.5 408.5 L28.5 409.5 L28.5 410.5 L27.5 411.5 L26.5 412.5 L26.5 414.5 L27.5 415.5 L28.5 415.5 L29.5 416.5 L30.5 417.5 L29.5 418.5 L29.5 424.5 L28.5 425.5 L27.5 426.5 L26.5 427.5 L26.5 428.5 L25.5 429.5 L26.5 430.5 L25.5 431.5 L25.5 433.5 L24.5 434.5 L23.5 433.5 L23.5 434.5 L22.5 435.5 L22.5 442.5 L23.5 443.5 L23.5 444.5 L24.5 445.5 L25.5 446.5 L26.5 446.5 L27.5 447.5 L28.5 448.5 L27.5 449.5 L27.5 450.5 L28.5 451.5 L29.5 452.5 L30.5 452.5 L31.5 453.5 L32.5 453.5 L33.5 454.5 L35.5 454.5 L36.5 455.5 L40.5 455.5 L40.5 454.5 L41.5 453.5 L43.5 453.5 L44.5 454.5 L49.5 454.5 L50.5 453.5 L52.5 453.5 L53.5 452.5 L54.5 453.5 L57.5 453.5 L58.5 454.5 L60.5 454.5 L61.5 453.5 L62.5 453.5 L63.5 452.5 L64.5 452.5 L65.5 453.5 L64.5 454.5 L64.5 457.5 L65.5 458.5 L65.5 460.5 L64.5 461.5 L63.5 462.5 L62.5 463.5 L60.5 463.5 L59.5 464.5 L58.5 464.5 L57.5 465.5 L56.5 465.5 L55.5 466.5 L53.5 466.5 L52.5 467.5 L51.5 468.5 L51.5 469.5 L52.5 470.5 L53.5 470.5 L54.5 471.5 L61.5 471.5 L62.5 470.5 L63.5 470.5 L64.5 469.5 L66.5 469.5 L67.5 468.5 L71.5 468.5 L72.5 467.5 L73.5 468.5 L73.5 469.5 L74.5 468.5 L75.5 469.5 L76.5 468.5 L80.5 468.5 L81.5 469.5 L81.5 470.5 L82.5 471.5 L81.5 472.5 L80.5 473.5 L79.5 473.5 L78.5 474.5 L75.5 474.5 L75.5 475.5 L74.5 476.5 L73.5 477.5 L73.5 479.5 L76.5 479.5 L77.5 480.5 L78.5 480.5 L79.5 481.5 L80.5 482.5 L79.5 483.5 L78.5 484.5 L77.5 485.5 L76.5 485.5 L75.5 486.5 L74.5 487.5 L73.5 486.5 L73.5 487.5 L72.5 488.5 L71.5 489.5 L70.5 490.5 L69.5 491.5 L68.5 492.5 L68.5 493.5 L67.5 494.5 L66.5 494.5 L65.5 495.5 L64.5 494.5 L61.5 494.5 L60.5 495.5 L59.5 496.5 L61.5 496.5 L62.5 497.5 L61.5 498.5 L60.5 498.5 L59.5 499.5 L58.5 500.5 L57.5 500.5 L57.5 501.5 L56.5 502.5 L55.5 501.5 L55.5 502.5 L54.5 503.5 L53.5 503.5 L53.5 504.5 L52.5 505.5 L50.5 505.5 L49.5 506.5 L48.5 507.5 L48.5 508.5 L47.5 509.5 L47.5 510.5 L46.5 511.5 L46.5 513.5 L47.5 514.5 L47.5 515.5 L48.5 516.5 L49.5 517.5 L50.5 517.5 L51.5 518.5 L58.5 518.5 L59.5 517.5 L60.5 517.5 L61.5 516.5 L62.5 517.5 L63.5 517.5 L64.5 518.5 L71.5 518.5 L72.5 517.5 L75.5 517.5 L76.5 516.5 L77.5 516.5 L78.5 515.5 L79.5 514.5 L80.5 514.5 L81.5 513.5 L82.5 512.5 L83.5 512.5 L84.5 511.5 L85.5 512.5 L85.5 514.5 L84.5 515.5 L84.5 518.5 L83.5 519.5 L82.5 520.5 L82.5 522.5 L81.5 523.5 L81.5 524.5 L80.5 525.5 L79.5 526.5 L79.5 527.5 L78.5 528.5 L77.5 529.5 L76.5 530.5 L76.5 533.5 L77.5 534.5 L78.5 535.5 L79.5 535.5 L80.5 534.5 L84.5 534.5 L85.5 533.5 L92.5 533.5 L93.5 534.5 L92.5 535.5 L91.5 535.5 L92.5 535.5 L93.5 536.5 L93.5 537.5 L92.5 538.5 L90.5 538.5 L89.5 539.5 L88.5 539.5 L87.5 540.5 L85.5 540.5 L84.5 541.5 L82.5 541.5 L82.5 544.5 L83.5 544.5 L84.5 545.5 L85.5 546.5 L87.5 546.5 L88.5 547.5 L89.5 547.5 L90.5 548.5 L91.5 549.5 L92.5 549.5 L93.5 550.5 L94.5 551.5 L93.5 552.5 L94.5 551.5 L95.5 552.5 L96.5 551.5 L98.5 551.5 L99.5 550.5 L100.5 551.5 L100.5 552.5 L101.5 552.5 L102.5 553.5 L112.5 553.5 L113.5 554.5 L113.5 556.5 L112.5 557.5 L112.5 558.5 L111.5 559.5 L111.5 561.5 L110.5 562.5 L109.5 563.5 L108.5 564.5 L108.5 565.5 L107.5 566.5 L106.5 567.5 L105.5 568.5 L106.5 569.5 L109.5 569.5 L110.5 568.5 L111.5 567.5 L113.5 567.5 L114.5 566.5 L117.5 566.5 L118.5 567.5 L119.5 567.5 L120.5 568.5 L120.5 579.5 L119.5 580.5 L118.5 581.5 L118.5 584.5 L119.5 585.5 L118.5 586.5 L117.5 587.5 L116.5 588.5 L115.5 589.5 L114.5 589.5 L113.5 590.5 L112.5 591.5 L111.5 591.5 L110.5 590.5 L107.5 590.5 L106.5 589.5 L104.5 589.5 L103.5 588.5 L102.5 587.5 L101.5 587.5 L100.5 586.5 L99.5 586.5 L98.5 585.5 L97.5 585.5 L96.5 584.5 L96.5 583.5 L95.5 582.5 L94.5 581.5 L92.5 581.5 L91.5 580.5 L90.5 580.5 L89.5 579.5 L88.5 580.5 L87.5 580.5 L86.5 581.5 L85.5 581.5 L84.5 580.5 L83.5 581.5 L74.5 581.5 L73.5 580.5 L73.5 577.5 L72.5 576.5 L72.5 575.5 L71.5 574.5 L70.5 573.5 L69.5 572.5 L68.5 571.5 L67.5 570.5 L66.5 569.5 L65.5 569.5 L64.5 568.5 L63.5 568.5 L62.5 567.5 L62.5 563.5 L61.5 562.5 L60.5 562.5 L59.5 561.5 L60.5 560.5 L60.5 559.5 L59.5 558.5 L58.5 557.5 L59.5 556.5 L59.5 553.5 L58.5 552.5 L59.5 551.5 L58.5 550.5 L59.5 549.5 L58.5 548.5 L57.5 547.5 L56.5 546.5 L55.5 546.5 L54.5 545.5 L54.5 544.5 L53.5 543.5 L53.5 542.5 L52.5 541.5 L52.5 540.5 L51.5 539.5 L51.5 538.5 L50.5 538.5 L49.5 537.5 L48.5 537.5 L47.5 538.5 L44.5 538.5 L43.5 537.5 L42.5 537.5 L41.5 538.5 L40.5 537.5 L39.5 536.5 L38.5 535.5 L38.5 534.5 L34.5 534.5 L33.5 533.5 L32.5 534.5 L28.5 534.5 L27.5 535.5 L26.5 534.5 L23.5 534.5 L23.5 535.5 L22.5 536.5 L20.5 536.5 L19.5 535.5 L18.5 535.5 L17.5 536.5 L15.5 536.5 L14.5 537.5 L11.5 537.5 L10.5 538.5 L9.5 538.5 L8.5 539.5 L8.5 541.5 L7.5 542.5 L6.5 543.5 L5.5 544.5 L5.5 545.5 L7.5 545.5 L8.5 546.5 L8.5 547.5 L7.5 548.5 L6.5 549.5 L7.5 550.5 L7.5 553.5 L8.5 554.5 L8.5 556.5 L9.5 557.5 L9.5 562.5 L10.5 563.5 L10.5 565.5 L11.5 566.5 L12.5 567.5 L13.5 568.5 L14.5 569.5 L14.5 570.5 L15.5 571.5 L16.5 571.5 L17.5 572.5 L18.5 573.5 L19.5 574.5 L20.5 575.5 L21.5 576.5 L22.5 576.5 L23.5 577.5 L24.5 578.5 L25.5 578.5 L26.5 579.5 L27.5 580.5 L28.5 581.5 L29.5 582.5 L30.5 583.5 L31.5 584.5 L32.5 583.5 L33.5 584.5 L33.5 585.5 L37.5 585.5 L38.5 586.5 L39.5 586.5 L40.5 587.5 L41.5 587.5 L42.5 588.5 L43.5 589.5 L44.5 590.5 L45.5 590.5 L46.5 591.5 L47.5 591.5 L48.5 592.5 L49.5 593.5 L52.5 593.5 L53.5 594.5 L54.5 594.5 L55.5 595.5 L56.5 596.5 L57.5 595.5 L58.5 594.5 L61.5 594.5 L62.5 595.5 L63.5 595.5 L64.5 596.5 L65.5 597.5 L66.5 598.5 L67.5 598.5 L68.5 599.5 L69.5 599.5 L70.5 600.5 L70.5 601.5 L71.5 602.5 L72.5 603.5 L73.5 604.5 L74.5 605.5 L75.5 606.5 L76.5 607.5 L77.5 608.5 L78.5 608.5 L79.5 609.5 L79.5 610.5 L82.5 610.5 L83.5 611.5 L84.5 611.5 L85.5 612.5 L89.5 612.5 L90.5 611.5 L91.5 611.5 L92.5 610.5 L96.5 610.5 L97.5 609.5 L101.5 609.5 L102.5 608.5 L102.5 606.5 L103.5 605.5 L103.5 604.5 L104.5 603.5 L104.5 602.5 L103.5 601.5 L102.5 600.5 L101.5 599.5 L102.5 598.5 L103.5 598.5 L104.5 597.5 L105.5 596.5 L106.5 596.5 L107.5 595.5 L109.5 595.5 L110.5 596.5 L112.5 596.5 L113.5 597.5 L118.5 597.5 L119.5 598.5 L127.5 598.5 L128.5 599.5 L128.5 600.5 L127.5 601.5 L126.5 601.5 L126.5 602.5 L125.5 603.5 L124.5 603.5 L123.5 604.5 L122.5 604.5 L121.5 605.5 L120.5 605.5 L119.5 606.5 L118.5 606.5 L117.5 607.5 L116.5 607.5 L115.5 608.5 L114.5 608.5 L114.5 609.5 L113.5 610.5 L112.5 611.5 L111.5 612.5 L110.5 613.5 L109.5 613.5 L108.5 614.5 L107.5 615.5 L106.5 615.5 L105.5 616.5 L104.5 617.5 L103.5 617.5 L102.5 618.5 L101.5 618.5 L100.5 619.5 L98.5 619.5 L97.5 620.5 L96.5 620.5 L95.5 621.5 L93.5 621.5 L92.5 622.5 L91.5 622.5 L90.5 623.5 L89.5 623.5 L88.5 624.5 L87.5 624.5 L86.5 625.5 L85.5 625.5 L84.5 626.5 L83.5 627.5 L82.5 627.5 L81.5 628.5 L80.5 629.5 L79.5 629.5 L78.5 630.5 L77.5 630.5 L76.5 631.5 L75.5 632.5 L74.5 632.5 L73.5 633.5 L72.5 634.5 L72.5 636.5 L73.5 637.5 L75.5 637.5 L76.5 638.5 L77.5 637.5 L78.5 636.5 L79.5 635.5 L80.5 635.5 L81.5 634.5 L82.5 634.5 L83.5 633.5 L84.5 633.5 L85.5 632.5 L86.5 632.5 L87.5 631.5 L89.5 631.5 L90.5 630.5 L91.5 629.5 L92.5 629.5 L93.5 628.5 L97.5 628.5 L98.5 627.5 L99.5 626.5 L100.5 625.5 L101.5 624.5 L102.5 625.5 L104.5 625.5 L105.5 624.5 L106.5 623.5 L107.5 622.5 L108.5 623.5 L107.5 622.5 L108.5 621.5 L109.5 621.5 L110.5 620.5 L111.5 619.5 L110.5 618.5 L111.5 617.5 L112.5 617.5 L113.5 616.5 L114.5 615.5 L115.5 615.5 L116.5 614.5 L117.5 613.5 L118.5 613.5 L119.5 612.5 L120.5 611.5 L121.5 610.5 L122.5 609.5 L123.5 609.5 L124.5 608.5 L125.5 607.5 L126.5 607.5 L127.5 606.5 L128.5 605.5 L129.5 605.5 L130.5 604.5 L133.5 604.5 L134.5 603.5 L135.5 604.5 L139.5 604.5 L140.5 603.5 L143.5 603.5 L144.5 604.5 L146.5 604.5 L147.5 605.5 L148.5 605.5 L149.5 606.5 L150.5 606.5 L151.5 607.5 L150.5 608.5 L150.5 609.5 L151.5 609.5 L152.5 610.5 L153.5 610.5 L154.5 609.5 L155.5 610.5 L156.5 610.5 L157.5 611.5 L158.5 612.5 L162.5 612.5 L163.5 613.5 L164.5 614.5 L165.5 615.5 L173.5 615.5 L174.5 616.5 L175.5 617.5 L177.5 617.5 L178.5 616.5 L179.5 616.5 L180.5 615.5 L184.5 615.5 L185.5 614.5 L186.5 614.5 L187.5 615.5 L187.5 619.5 L186.5 620.5 L186.5 622.5 L185.5 623.5 L185.5 624.5 L184.5 625.5 L183.5 626.5 L183.5 628.5 L182.5 629.5 L182.5 630.5 L181.5 631.5 L180.5 632.5 L179.5 632.5 L179.5 633.5 L180.5 634.5 L182.5 634.5 L183.5 633.5 L186.5 633.5 L187.5 632.5 L188.5 631.5 L192.5 631.5 L193.5 630.5 L194.5 629.5 L200.5 629.5 L201.5 628.5 L204.5 628.5 L205.5 627.5 L206.5 627.5 L207.5 626.5 L208.5 626.5 L209.5 625.5 L210.5 624.5 L212.5 624.5 L213.5 623.5 L216.5 623.5 L217.5 622.5 L218.5 622.5 L219.5 621.5 L229.5 621.5 L230.5 620.5 L232.5 620.5 L233.5 619.5 L234.5 619.5 L235.5 618.5 L237.5 618.5 L238.5 617.5 L239.5 617.5 L240.5 616.5 L241.5 616.5 L242.5 615.5 L243.5 616.5 L243.5 617.5 L244.5 617.5 L245.5 616.5 L246.5 616.5 L247.5 615.5 L248.5 614.5 L249.5 614.5 L250.5 615.5 L250.5 616.5 L249.5 617.5 L249.5 618.5 L248.5 619.5 L247.5 618.5 L247.5 619.5 L246.5 620.5 L245.5 620.5 L244.5 619.5 L243.5 619.5 L243.5 620.5 L242.5 621.5 L241.5 620.5 L240.5 621.5 L240.5 623.5 L239.5 624.5 L240.5 624.5 L241.5 623.5 L243.5 623.5 L244.5 622.5 L245.5 623.5 L245.5 622.5 L246.5 621.5 L248.5 621.5 L249.5 620.5 L250.5 621.5 L251.5 620.5 L252.5 621.5 L253.5 622.5 L252.5 623.5 L251.5 623.5 L250.5 624.5 L249.5 624.5 L248.5 625.5 L247.5 625.5 L246.5 626.5 L245.5 626.5 L244.5 627.5 L243.5 626.5 L244.5 627.5 L243.5 628.5 L242.5 628.5 L243.5 629.5 L245.5 629.5 L245.5 628.5 L246.5 627.5 L247.5 626.5 L249.5 626.5 L250.5 627.5 L249.5 628.5 L250.5 628.5 L251.5 627.5 L250.5 627.5 L249.5 626.5 L250.5 625.5 L251.5 625.5 L252.5 624.5 L253.5 624.5 L254.5 623.5 L255.5 623.5 L256.5 624.5 L255.5 625.5 L254.5 626.5 L256.5 626.5 L257.5 625.5 L258.5 625.5 L259.5 624.5 L260.5 624.5 L261.5 623.5 L265.5 623.5 L266.5 622.5 L268.5 622.5 L269.5 623.5 L270.5 624.5 L271.5 624.5 L272.5 625.5 L273.5 625.5 L272.5 624.5 L272.5 623.5 L273.5 622.5 L274.5 622.5 L275.5 621.5 L276.5 621.5 L276.5 620.5 L277.5 619.5 L278.5 619.5 L279.5 618.5 L280.5 618.5 L281.5 619.5 L281.5 622.5 L282.5 623.5 L282.5 633.5 L281.5 634.5 L280.5 634.5 L279.5 635.5 L277.5 635.5 L276.5 636.5 L276.5 637.5 L275.5 638.5 L275.5 639.5 L276.5 640.5 L277.5 641.5 L276.5 642.5 L276.5 643.5 L277.5 644.5 L278.5 645.5 L279.5 645.5 L280.5 646.5 L279.5 647.5 L279.5 648.5 L278.5 649.5 L278.5 652.5 L277.5 653.5 L277.5 654.5 L276.5 655.5 L275.5 656.5 L274.5 656.5 L273.5 657.5 L272.5 657.5 L271.5 658.5 L270.5 659.5 L269.5 660.5 L269.5 664.5 L268.5 665.5 L267.5 666.5 L266.5 666.5 L265.5 667.5 L264.5 667.5 L263.5 668.5 L262.5 668.5 L261.5 669.5 L260.5 669.5 L259.5 670.5 L258.5 671.5 L257.5 671.5 L256.5 672.5 L254.5 672.5 L253.5 673.5 L252.5 673.5 L251.5 674.5 L250.5 674.5 L249.5 675.5 L247.5 675.5 L246.5 676.5 L244.5 676.5 L244.5 680.5 L246.5 680.5 L247.5 681.5 L248.5 681.5 L249.5 682.5 L249.5 684.5 L250.5 685.5 L251.5 685.5 L252.5 686.5 L251.5 687.5 L252.5 686.5 L253.5 686.5 L254.5 687.5 L253.5 688.5 L253.5 690.5 L252.5 691.5 L251.5 691.5 L250.5 692.5 L251.5 693.5 L251.5 694.5 L253.5 694.5 L254.5 693.5 L255.5 693.5 L256.5 692.5 L259.5 692.5 L260.5 691.5 L261.5 691.5 L262.5 690.5 L268.5 690.5 L269.5 689.5 L270.5 689.5 L271.5 688.5 L272.5 688.5 L273.5 687.5 L274.5 687.5 L275.5 686.5 L277.5 686.5 L278.5 685.5 L280.5 685.5 L281.5 684.5 L283.5 684.5 L284.5 683.5 L285.5 682.5 L286.5 682.5 L286.5 681.5 L287.5 680.5 L288.5 679.5 L287.5 679.5 L286.5 678.5 L287.5 677.5 L290.5 677.5 L290.5 676.5 L291.5 675.5 L292.5 675.5 L293.5 674.5 L294.5 673.5 L295.5 673.5 L296.5 672.5 L297.5 671.5 L298.5 671.5 L299.5 670.5 L300.5 670.5 L301.5 669.5 L302.5 668.5 L303.5 668.5 L303.5 667.5 L304.5 666.5 L305.5 665.5 L306.5 664.5 L308.5 664.5 L309.5 665.5 L308.5 666.5 L308.5 667.5 L309.5 667.5 L310.5 666.5 L314.5 666.5 L315.5 667.5 L314.5 668.5 L313.5 668.5 L312.5 669.5 L310.5 669.5 L309.5 670.5 L312.5 670.5 L313.5 669.5 L314.5 669.5 L315.5 668.5 L316.5 668.5 L317.5 667.5 L318.5 667.5 L319.5 668.5 L319.5 670.5 L318.5 671.5 L316.5 671.5 L315.5 672.5 L314.5 672.5 L313.5 673.5 L312.5 673.5 L311.5 674.5 L311.5 675.5 L312.5 674.5 L314.5 674.5 L315.5 673.5 L317.5 673.5 L318.5 672.5 L319.5 672.5 L320.5 671.5 L321.5 671.5 L322.5 670.5 L323.5 670.5 L324.5 669.5 L325.5 669.5 L326.5 670.5 L326.5 669.5 L327.5 668.5 L328.5 668.5 L329.5 669.5 L330.5 670.5 L329.5 671.5 L328.5 671.5 L327.5 672.5 L327.5 673.5 L326.5 674.5 L324.5 674.5 L323.5 675.5 L321.5 675.5 L320.5 676.5 L319.5 677.5 L320.5 678.5 L321.5 677.5 L322.5 677.5 L323.5 676.5 L325.5 676.5 L326.5 675.5 L327.5 675.5 L328.5 674.5 L329.5 674.5 L330.5 673.5 L331.5 673.5 L332.5 672.5 L333.5 672.5 L334.5 673.5 L334.5 672.5 L335.5 671.5 L336.5 671.5 L337.5 670.5 L338.5 671.5 L339.5 670.5 L340.5 670.5 L341.5 671.5 L341.5 672.5 L340.5 673.5 L340.5 674.5 L343.5 674.5 L344.5 675.5 L345.5 675.5 L346.5 676.5 L346.5 677.5 L347.5 678.5 L348.5 679.5 L349.5 680.5 L349.5 681.5 L350.5 682.5 L350.5 683.5 L349.5 684.5 L349.5 686.5 L348.5 687.5 L348.5 689.5 L347.5 690.5 L347.5 691.5 L346.5 692.5 L346.5 693.5 L345.5 694.5 L344.5 695.5 L344.5 703.5 L345.5 704.5 L345.5 705.5 L346.5 706.5 L347.5 706.5 L348.5 707.5 L349.5 708.5 L352.5 708.5 L352.5 700.5 L353.5 699.5 L354.5 698.5 L355.5 697.5 L356.5 696.5 L357.5 696.5 L357.5 695.5 L358.5 694.5 L357.5 693.5 L357.5 691.5 L358.5 690.5 L359.5 689.5 L360.5 688.5 L361.5 687.5 L362.5 686.5 L363.5 685.5 L363.5 684.5 L364.5 683.5 L365.5 682.5 L366.5 681.5 L368.5 681.5 L369.5 680.5 L370.5 679.5 L373.5 679.5 L374.5 678.5 L376.5 678.5 L377.5 677.5 L380.5 677.5 L381.5 676.5 L382.5 676.5 L383.5 675.5 L386.5 675.5 L387.5 674.5 L389.5 674.5 L390.5 673.5 L393.5 673.5 L394.5 672.5 L396.5 672.5 L397.5 671.5 L398.5 670.5 L399.5 670.5 L400.5 669.5 L401.5 668.5 L402.5 668.5 L403.5 669.5 L404.5 668.5 L405.5 669.5 L406.5 669.5 L407.5 668.5 L409.5 668.5 L408.5 668.5 L407.5 667.5 L408.5 666.5 L410.5 666.5 L411.5 665.5 L414.5 665.5 L414.5 664.5 L415.5 663.5 L411.5 663.5 L410.5 664.5 L405.5 664.5 L405.5 665.5 L404.5 666.5 L403.5 665.5 L402.5 666.5 L401.5 667.5 L400.5 666.5 L398.5 666.5 L397.5 667.5 L396.5 668.5 L393.5 668.5 L392.5 667.5 L393.5 666.5 L394.5 666.5 L395.5 665.5 L396.5 665.5 L397.5 664.5 L399.5 664.5 L400.5 663.5 L401.5 663.5 L402.5 662.5 L405.5 662.5 L406.5 661.5 L408.5 661.5 L409.5 660.5 L411.5 660.5 L412.5 659.5 L414.5 659.5 L415.5 658.5 L418.5 658.5 L419.5 657.5 L422.5 657.5 L423.5 656.5 L428.5 656.5 L429.5 655.5 L431.5 655.5 L432.5 654.5 L435.5 654.5 L436.5 653.5 L437.5 652.5 L438.5 652.5 L439.5 651.5 L445.5 651.5 L446.5 652.5 L447.5 652.5 L448.5 653.5 L449.5 654.5 L450.5 655.5 L452.5 655.5 L453.5 656.5 L452.5 657.5 L453.5 658.5 L454.5 657.5 L455.5 658.5 L455.5 659.5 L456.5 659.5 L457.5 660.5 L458.5 659.5 L459.5 659.5 L460.5 660.5 L461.5 659.5 L462.5 660.5 L463.5 661.5 L462.5 662.5 L461.5 663.5 L461.5 664.5 L460.5 665.5 L459.5 665.5 L458.5 666.5 L457.5 666.5 L456.5 667.5 L455.5 667.5 L454.5 668.5 L452.5 668.5 L451.5 669.5 L449.5 669.5 L448.5 670.5 L442.5 670.5 L441.5 671.5 L441.5 672.5 L442.5 673.5 L446.5 673.5 L447.5 674.5 L447.5 675.5 L446.5 676.5 L445.5 676.5 L444.5 677.5 L441.5 677.5 L440.5 678.5 L439.5 679.5 L436.5 679.5 L435.5 680.5 L434.5 680.5 L433.5 681.5 L432.5 682.5 L431.5 682.5 L430.5 683.5 L429.5 683.5 L428.5 684.5 L427.5 684.5 L427.5 685.5 L426.5 686.5 L424.5 686.5 L423.5 687.5 L422.5 688.5 L422.5 691.5 L423.5 692.5 L424.5 693.5 L425.5 693.5 L426.5 694.5 L427.5 694.5 L428.5 693.5 L437.5 693.5 L438.5 692.5 L441.5 692.5 L442.5 691.5 L443.5 691.5 L444.5 692.5 L444.5 693.5 L448.5 693.5 L449.5 694.5 L448.5 695.5 L448.5 697.5 L453.5 697.5 L454.5 696.5 L455.5 696.5 L456.5 695.5 L458.5 695.5 L459.5 694.5 L460.5 694.5 L461.5 693.5 L461.5 692.5 L462.5 691.5 L463.5 690.5 L464.5 689.5 L465.5 689.5 L466.5 688.5 L468.5 688.5 L469.5 687.5 L470.5 687.5 L471.5 686.5 L471.5 684.5 L470.5 683.5 L471.5 682.5 L473.5 682.5 L474.5 681.5 L475.5 681.5 L476.5 680.5 L477.5 679.5 L478.5 678.5 L479.5 677.5 L480.5 676.5 L481.5 675.5 L482.5 674.5 L483.5 674.5 L484.5 673.5 L485.5 672.5 L486.5 672.5 L487.5 671.5 L488.5 670.5 L489.5 669.5 L491.5 669.5 L492.5 668.5 L493.5 667.5 L493.5 666.5 L494.5 665.5 L495.5 664.5 L496.5 663.5 L497.5 662.5 L497.5 661.5 L498.5 660.5 L498.5 658.5 L497.5 658.5 L496.5 657.5 L496.5 654.5 L497.5 653.5 L496.5 653.5 L495.5 652.5 L494.5 651.5 L494.5 650.5 L495.5 649.5 L496.5 648.5 L497.5 647.5 L498.5 648.5 L498.5 650.5 L499.5 651.5 L500.5 652.5 L501.5 651.5 L503.5 651.5 L504.5 652.5 L505.5 653.5 L508.5 653.5 L509.5 654.5 L510.5 655.5 L511.5 655.5 L512.5 656.5 L513.5 656.5 L514.5 657.5 L515.5 658.5 L516.5 659.5 L517.5 660.5 L522.5 660.5 L523.5 661.5 L524.5 661.5 L525.5 662.5 L527.5 662.5 L528.5 661.5 L529.5 662.5 L530.5 662.5 L531.5 661.5 L539.5 661.5 L540.5 662.5 L541.5 661.5 L546.5 661.5 L547.5 662.5 L548.5 663.5 L549.5 664.5 L550.5 665.5 L551.5 665.5 L552.5 666.5 L553.5 667.5 L554.5 668.5 L555.5 669.5 L557.5 669.5 L558.5 670.5 L560.5 670.5 L561.5 669.5 L560.5 668.5 L561.5 667.5 L562.5 667.5 L563.5 668.5 L564.5 669.5 L568.5 669.5 L569.5 670.5 L570.5 669.5 L571.5 669.5 L572.5 670.5 L576.5 670.5 L577.5 671.5 L576.5 672.5 L575.5 673.5 L576.5 673.5 L577.5 674.5 L577.5 678.5 L576.5 679.5 L576.5 680.5 L577.5 681.5 L578.5 682.5 L579.5 683.5 L580.5 682.5 L581.5 683.5 L581.5 685.5 L580.5 686.5 L580.5 687.5 L581.5 687.5 L582.5 686.5 L583.5 686.5 L584.5 687.5 L583.5 688.5 L584.5 689.5 L583.5 690.5 L579.5 690.5 L580.5 691.5 L586.5 691.5 L587.5 692.5 L587.5 693.5 L588.5 694.5 L588.5 695.5 L589.5 696.5 L589.5 697.5 L590.5 698.5 L590.5 700.5 L591.5 701.5 L591.5 704.5 L592.5 705.5 L591.5 706.5 L591.5 707.5 L592.5 708.5 L592.5 710.5 L593.5 711.5 L593.5 712.5 L594.5 713.5 L594.5 714.5 L595.5 715.5 L595.5 719.5 L596.5 719.5 L597.5 720.5 L599.5 720.5 L600.5 719.5 L605.5 719.5 L606.5 718.5 L607.5 718.5 L608.5 717.5 L609.5 717.5 L610.5 716.5 L611.5 715.5 L612.5 714.5 L612.5 713.5 L613.5 712.5 L614.5 711.5 L615.5 710.5 L616.5 709.5 L617.5 708.5 L619.5 708.5 L619.5 706.5 L620.5 705.5 L621.5 704.5 L623.5 704.5 L624.5 703.5 L625.5 702.5 L626.5 702.5 L627.5 701.5 L629.5 701.5 L629.5 700.5 L630.5 699.5 L631.5 698.5 L632.5 697.5 L633.5 696.5 L634.5 695.5 L636.5 695.5 L636.5 694.5 L637.5 693.5 L638.5 692.5 L638.5 685.5 L639.5 684.5 L639.5 679.5 L640.5 678.5 L641.5 677.5 L642.5 676.5 L642.5 674.5 L643.5 673.5 L644.5 672.5 L649.5 672.5 L649.5 670.5 L648.5 671.5 L647.5 670.5 L646.5 670.5 L645.5 669.5 L646.5 668.5 L646.5 667.5 L647.5 666.5 L647.5 665.5 L648.5 664.5 L648.5 662.5 L649.5 661.5 L652.5 661.5 L653.5 660.5 L655.5 660.5 L656.5 659.5 L657.5 659.5 L658.5 658.5 L661.5 658.5 L662.5 659.5 L663.5 659.5 L664.5 658.5 L665.5 657.5 L666.5 657.5 L667.5 656.5 L667.5 655.5 L666.5 654.5 L666.5 651.5 L665.5 651.5 L664.5 650.5 L664.5 649.5 L665.5 648.5 L666.5 649.5 L667.5 649.5 L667.5 648.5 L668.5 647.5 L669.5 648.5 L670.5 648.5 L671.5 647.5 L672.5 647.5 L672.5 646.5 L673.5 645.5 L674.5 645.5 L675.5 644.5 L673.5 644.5 L672.5 643.5 L673.5 642.5 L674.5 641.5 L675.5 640.5 L677.5 640.5 L678.5 639.5 L681.5 639.5 L682.5 638.5 L681.5 637.5 L680.5 638.5 L677.5 638.5 L676.5 639.5 L675.5 638.5 L672.5 638.5 L671.5 637.5 L672.5 636.5 L673.5 635.5 L674.5 635.5 L675.5 634.5 L676.5 635.5 L676.5 634.5 L677.5 633.5 L677.5 631.5 L678.5 630.5 L682.5 630.5 L683.5 629.5 L684.5 629.5 L685.5 628.5 L688.5 628.5 L689.5 627.5 L691.5 627.5 L692.5 628.5 L700.5 628.5 L701.5 627.5 L701.5 625.5 L696.5 625.5 L695.5 624.5 L694.5 625.5 L692.5 625.5 L691.5 626.5 L688.5 626.5 L687.5 625.5 L685.5 625.5 L684.5 624.5 L683.5 623.5 L683.5 622.5 L682.5 621.5 L683.5 620.5 L683.5 619.5 L684.5 618.5 L683.5 617.5 L682.5 617.5 L681.5 616.5 L673.5 616.5 L672.5 617.5 L667.5 617.5 L666.5 616.5 L667.5 615.5 L668.5 615.5 L669.5 614.5 L680.5 614.5 L681.5 613.5 L684.5 613.5 L685.5 612.5 L693.5 612.5 L694.5 611.5 L700.5 611.5 L701.5 610.5 L702.5 610.5 L701.5 610.5 L700.5 609.5 L699.5 608.5 L700.5 607.5 L701.5 606.5 L702.5 606.5 L703.5 607.5 L704.5 606.5 L707.5 606.5 L708.5 605.5 L712.5 605.5 L713.5 606.5 L716.5 606.5 L717.5 605.5 L718.5 605.5 L719.5 604.5 L720.5 604.5 L721.5 605.5 L725.5 605.5 L726.5 606.5 L726.5 607.5 L727.5 608.5 L728.5 607.5 L729.5 607.5 L730.5 608.5 L731.5 609.5 L731.5 610.5 L732.5 609.5 L733.5 610.5 L735.5 610.5 L736.5 611.5 L737.5 611.5 L738.5 612.5 L739.5 612.5 L740.5 613.5 L741.5 614.5 L741.5 615.5 L742.5 615.5 L743.5 616.5 L744.5 617.5 L745.5 618.5 L744.5 619.5 L742.5 619.5 L741.5 620.5 L739.5 620.5 L738.5 621.5 L735.5 621.5 L734.5 622.5 L733.5 622.5 L733.5 623.5 L732.5 624.5 L730.5 624.5 L729.5 623.5 L728.5 622.5 L726.5 622.5 L725.5 623.5 L723.5 623.5 L722.5 624.5 L721.5 625.5 L720.5 626.5 L719.5 627.5 L719.5 628.5 L718.5 629.5 L718.5 632.5 L717.5 633.5 L717.5 636.5 L716.5 637.5 L717.5 638.5 L716.5 639.5 L715.5 639.5 L714.5 640.5 L714.5 642.5 L715.5 643.5 L716.5 644.5 L716.5 645.5 L715.5 646.5 L716.5 647.5 L716.5 649.5 L715.5 650.5 L715.5 651.5 L716.5 652.5 L717.5 653.5 L719.5 653.5 L720.5 652.5 L721.5 651.5 L723.5 651.5 L724.5 650.5 L725.5 650.5 L726.5 649.5 L728.5 649.5 L729.5 648.5 L736.5 648.5 L737.5 647.5 L738.5 647.5 L739.5 646.5 L743.5 646.5 L744.5 645.5 L745.5 644.5 L746.5 644.5 L747.5 643.5 L747.5 639.5 L748.5 638.5 L749.5 637.5 L750.5 636.5 L750.5 634.5 L749.5 633.5 L749.5 629.5 L750.5 628.5 L751.5 627.5 L750.5 626.5 L751.5 625.5 L752.5 625.5 L753.5 624.5 L755.5 624.5 L755.5 623.5 L756.5 622.5 L755.5 621.5 L754.5 621.5 L753.5 620.5 L753.5 619.5 L754.5 618.5 L755.5 619.5 L758.5 619.5 L759.5 620.5 L760.5 619.5 L759.5 618.5 L760.5 617.5 L761.5 617.5 L761.5 616.5 L760.5 615.5 L759.5 615.5 L758.5 614.5 L756.5 614.5 L755.5 613.5 L756.5 612.5 L757.5 611.5 L755.5 611.5 L754.5 610.5 L753.5 610.5 L752.5 609.5 L749.5 609.5 L748.5 608.5 L746.5 608.5 L745.5 607.5 L744.5 607.5 L743.5 606.5 L740.5 606.5 L739.5 605.5 L738.5 604.5 L738.5 603.5 L737.5 603.5 L736.5 604.5 L735.5 603.5 L734.5 603.5 L733.5 602.5 L731.5 602.5 L730.5 601.5 L728.5 601.5 L727.5 600.5 L727.5 599.5 L728.5 598.5 L730.5 598.5 L731.5 597.5 L733.5 597.5 L733.5 596.5 L734.5 595.5 L733.5 594.5 L734.5 593.5 L734.5 591.5 L735.5 590.5 L735.5 589.5 L736.5 588.5 L737.5 587.5 L738.5 586.5 L738.5 585.5 L735.5 585.5 L734.5 584.5 L734.5 583.5 L735.5 582.5 L736.5 581.5 L736.5 580.5 L735.5 579.5 L732.5 579.5 L731.5 578.5 L730.5 577.5 L729.5 576.5 L728.5 575.5 L728.5 573.5 L727.5 572.5 L728.5 571.5 L729.5 570.5 L731.5 570.5 L732.5 569.5 L733.5 570.5 L734.5 569.5 L733.5 568.5 L732.5 568.5 L731.5 567.5 L732.5 566.5 L733.5 566.5 L733.5 564.5 L731.5 564.5 L730.5 565.5 L729.5 564.5 L727.5 564.5 L726.5 563.5 L724.5 563.5 L723.5 562.5 L721.5 562.5 L720.5 561.5 L720.5 559.5 L721.5 558.5 L720.5 557.5 L721.5 556.5 L721.5 555.5 L720.5 554.5 L720.5 553.5 L719.5 552.5 L720.5 551.5 L719.5 550.5 L718.5 549.5 L717.5 548.5 L718.5 547.5 L718.5 546.5 L717.5 545.5 L716.5 544.5 L717.5 543.5 L721.5 543.5 L722.5 542.5 L730.5 542.5 L731.5 541.5 L737.5 541.5 L738.5 540.5 L745.5 540.5 L746.5 541.5 L747.5 541.5 L748.5 542.5 L749.5 542.5 L750.5 543.5 L751.5 544.5 L752.5 545.5 L752.5 548.5 L753.5 549.5 L752.5 550.5 L752.5 551.5 L758.5 551.5 L759.5 550.5 L763.5 550.5 L764.5 549.5 L766.5 549.5 L767.5 548.5 L767.5 547.5 L768.5 546.5 L767.5 545.5 L767.5 544.5 L766.5 543.5 L765.5 542.5 L762.5 542.5 L761.5 541.5 L760.5 541.5 L759.5 540.5 L757.5 540.5 L756.5 539.5 L755.5 539.5 L754.5 538.5 L753.5 538.5 L752.5 537.5 L751.5 536.5 L750.5 535.5 L749.5 534.5 L748.5 535.5 L747.5 535.5 L746.5 534.5 L747.5 533.5 L745.5 533.5 L744.5 532.5 L743.5 532.5 L742.5 533.5 L741.5 532.5 L741.5 531.5 L740.5 531.5 L739.5 530.5 L738.5 530.5 L737.5 529.5 L738.5 528.5 L740.5 528.5 L741.5 527.5 L742.5 526.5 L748.5 526.5 L749.5 525.5 L757.5 525.5 L758.5 524.5 L759.5 524.5 L760.5 525.5 L761.5 524.5 L769.5 524.5 L770.5 523.5 L774.5 523.5 L775.5 522.5 L776.5 521.5 L780.5 521.5 L781.5 520.5 L783.5 520.5 L784.5 519.5 L785.5 519.5 L786.5 518.5 L787.5 519.5 L788.5 518.5 L788.5 517.5 L789.5 516.5 L779.5 516.5 L778.5 515.5 L779.5 514.5 L782.5 514.5 L783.5 513.5 L792.5 513.5 L793.5 512.5 L794.5 511.5 L795.5 510.5 L795.5 509.5 L796.5 508.5 L796.5 504.5 L795.5 503.5 L795.5 502.5 L794.5 501.5 L793.5 500.5 L792.5 500.5 L791.5 499.5 L790.5 498.5 L788.5 498.5 L787.5 497.5 L786.5 496.5 L785.5 495.5 L784.5 494.5 L783.5 493.5 L782.5 492.5 L782.5 490.5 L781.5 489.5 L780.5 488.5 L780.5 485.5 L779.5 485.5 L778.5 484.5 L777.5 483.5 L778.5 482.5 L777.5 482.5 L776.5 481.5 L777.5 480.5 L778.5 479.5 L780.5 479.5 L780.5 477.5 L779.5 476.5 L779.5 475.5 L778.5 474.5 L779.5 473.5 L782.5 473.5 L783.5 472.5 L786.5 472.5 L787.5 471.5 L788.5 470.5 L788.5 467.5 L787.5 466.5 L785.5 466.5 L784.5 465.5 L781.5 465.5 L780.5 464.5 L781.5 463.5 L781.5 462.5 L782.5 461.5 L782.5 460.5 L783.5 459.5 L783.5 453.5 L784.5 452.5 L785.5 452.5 L786.5 451.5 L787.5 451.5 L788.5 450.5 L789.5 450.5 L790.5 449.5 L794.5 449.5 L795.5 448.5 L796.5 449.5 L797.5 448.5 L798.5 448.5 L798.5 447.5 L799.5 446.5 L796.5 446.5 L795.5 447.5 L792.5 447.5 L791.5 448.5 L786.5 448.5 L785.5 447.5 L785.5 446.5 L786.5 445.5 L785.5 444.5 L785.5 443.5 L786.5 442.5 L788.5 442.5 L789.5 443.5 L790.5 443.5 L791.5 442.5 L794.5 442.5 L795.5 441.5 L796.5 441.5 L797.5 440.5 L799.5 440.5 L800.5 439.5 L806.5 439.5 L807.5 438.5 L808.5 438.5 L809.5 439.5 L810.5 438.5 L811.5 438.5 L812.5 437.5 L813.5 437.5 L814.5 438.5 L814.5 437.5 L815.5 436.5 L816.5 437.5 L817.5 438.5 L821.5 438.5 L822.5 437.5 L823.5 438.5 L824.5 437.5 L825.5 437.5 L825.5 436.5 L826.5 435.5 L826.5 433.5 L824.5 433.5 L823.5 432.5 L823.5 431.5 L822.5 430.5 L823.5 429.5 L822.5 428.5 L823.5 427.5 L823.5 426.5 L822.5 425.5 L823.5 424.5 L824.5 424.5 L825.5 423.5 L825.5 422.5 L826.5 421.5 L828.5 421.5 L828.5 418.5 L829.5 417.5 L828.5 416.5 L827.5 415.5 L826.5 414.5 L826.5 413.5 L827.5 412.5 L829.5 412.5 L830.5 411.5 L831.5 410.5 L832.5 409.5 L832.5 406.5 L833.5 405.5 L834.5 405.5 L835.5 404.5 L840.5 404.5 L841.5 403.5 L845.5 403.5 L846.5 402.5 L847.5 402.5 L848.5 401.5 L849.5 401.5 L850.5 400.5 L857.5 400.5 L858.5 401.5 L863.5 401.5 L864.5 400.5 L869.5 400.5 L870.5 399.5 L871.5 398.5 L872.5 397.5 L873.5 396.5 L874.5 395.5 L875.5 395.5 L876.5 394.5 L877.5 393.5 L877.5 391.5 L876.5 390.5 L876.5 387.5 L875.5 387.5 L874.5 386.5 L873.5 386.5 L872.5 385.5 L873.5 384.5 L874.5 383.5 L875.5 382.5 L876.5 381.5 L877.5 380.5 L877.5 378.5 L878.5 377.5 L878.5 363.5 L877.5 363.5 L876.5 362.5 L876.5 360.5 L877.5 359.5 L873.5 359.5 L872.5 358.5 L871.5 359.5 L865.5 359.5 L864.5 358.5 L865.5 357.5 L866.5 357.5 L867.5 356.5 L868.5 355.5 L868.5 354.5 L866.5 354.5 L865.5 353.5 L864.5 352.5 L860.5 352.5 L859.5 351.5 L858.5 350.5 L857.5 350.5 L856.5 349.5 L851.5 349.5 L850.5 348.5 L849.5 347.5 L838.5 347.5 L837.5 346.5 L832.5 346.5 L831.5 345.5 L830.5 345.5 L829.5 344.5 L825.5 344.5 L824.5 343.5 L825.5 342.5 L827.5 342.5 L828.5 341.5 L829.5 340.5 L830.5 340.5 L830.5 339.5 L831.5 338.5 L832.5 337.5 L833.5 337.5 L833.5 336.5 L822.5 336.5 L821.5 335.5 L820.5 336.5 L815.5 336.5 L814.5 335.5 L814.5 334.5 L815.5 333.5 L816.5 332.5 L817.5 332.5 L817.5 329.5 L816.5 328.5 L816.5 327.5 L815.5 327.5 L814.5 326.5 L815.5 325.5 L816.5 324.5 L816.5 323.5 L815.5 323.5 L814.5 322.5 L815.5 321.5 L815.5 320.5 L816.5 319.5 L816.5 318.5 L817.5 317.5 L817.5 313.5 L816.5 312.5 L817.5 311.5 L817.5 308.5 L818.5 307.5 L818.5 306.5 L819.5 305.5 L820.5 304.5 L820.5 303.5 L821.5 302.5 L822.5 301.5 L822.5 300.5 L823.5 299.5 L823.5 298.5 L824.5 297.5 L823.5 297.5 L822.5 296.5 L823.5 295.5 L823.5 293.5 L822.5 292.5 L821.5 292.5 L820.5 293.5 L819.5 294.5 L818.5 294.5 L817.5 295.5 L816.5 296.5 L815.5 296.5 L814.5 297.5 L813.5 297.5 L812.5 298.5 L810.5 298.5 L809.5 299.5 L808.5 299.5 L807.5 300.5 L805.5 300.5 L804.5 301.5 L803.5 300.5 L802.5 300.5 L801.5 301.5 L799.5 301.5 L798.5 302.5 L797.5 302.5 L796.5 303.5 L794.5 303.5 L793.5 304.5 L790.5 304.5 L789.5 305.5 L788.5 305.5 L787.5 306.5 L785.5 306.5 L784.5 307.5 L781.5 307.5 L780.5 306.5 L779.5 305.5 L775.5 305.5 L774.5 306.5 L773.5 307.5 L772.5 307.5 L771.5 308.5 L770.5 307.5 L768.5 307.5 L769.5 308.5 L768.5 309.5 L767.5 309.5 L766.5 310.5 L765.5 310.5 L765.5 311.5 L764.5 312.5 L763.5 311.5 L762.5 312.5 L761.5 311.5 L761.5 310.5 L760.5 310.5 L759.5 309.5 L755.5 309.5 L754.5 308.5 L755.5 307.5 L756.5 306.5 L757.5 305.5 L758.5 304.5 L759.5 304.5 L760.5 303.5 L761.5 302.5 L763.5 302.5 L764.5 301.5 L765.5 300.5 L766.5 300.5 L767.5 299.5 L768.5 298.5 L769.5 297.5 L772.5 297.5 L773.5 296.5 L774.5 296.5 L775.5 295.5 L776.5 295.5 L776.5 294.5 L774.5 294.5 L773.5 293.5 L769.5 293.5 L768.5 292.5 L768.5 291.5 L767.5 290.5 L763.5 290.5 L762.5 289.5 L761.5 288.5 L759.5 288.5 L758.5 287.5 L758.5 286.5 L757.5 285.5 L756.5 285.5 L755.5 284.5 L755.5 282.5 L754.5 281.5 L749.5 281.5 L748.5 282.5 L747.5 282.5 L746.5 283.5 L745.5 282.5 L744.5 282.5 L743.5 283.5 L742.5 283.5 L741.5 282.5 L741.5 280.5 L742.5 279.5 L742.5 277.5 L743.5 276.5 L744.5 275.5 L745.5 274.5 L745.5 270.5 L746.5 269.5 L747.5 268.5 L748.5 267.5 L747.5 266.5 L746.5 265.5 L743.5 265.5 L742.5 264.5 L742.5 263.5 L741.5 264.5 L740.5 264.5 L739.5 263.5 L740.5 262.5 L740.5 261.5 L739.5 260.5 L739.5 259.5 L738.5 258.5 L738.5 256.5 L737.5 255.5 L737.5 254.5 L738.5 253.5 L739.5 252.5 L740.5 252.5 L741.5 251.5 L745.5 251.5 L746.5 250.5 L749.5 250.5 L749.5 249.5 L748.5 248.5 L749.5 247.5 L749.5 246.5 L747.5 246.5 L746.5 245.5 L747.5 244.5 L750.5 244.5 L751.5 243.5 L752.5 242.5 L752.5 241.5 L750.5 241.5 L749.5 240.5 L750.5 239.5 L751.5 239.5 L752.5 238.5 L753.5 237.5 L754.5 237.5 L754.5 236.5 L755.5 235.5 L756.5 234.5 L757.5 233.5 L758.5 232.5 L759.5 231.5 L760.5 230.5 L760.5 228.5 L759.5 227.5 L759.5 225.5 L760.5 224.5 L760.5 222.5 L761.5 221.5 L762.5 221.5 L763.5 220.5 L764.5 219.5 L764.5 218.5 L765.5 217.5 L764.5 216.5 L765.5 215.5 L765.5 210.5 L764.5 211.5 L763.5 211.5 L762.5 212.5 L761.5 212.5 L760.5 213.5 L759.5 214.5 L756.5 214.5 L755.5 215.5 L753.5 215.5 L752.5 214.5 L752.5 213.5 L751.5 212.5 L752.5 211.5 L753.5 211.5 L753.5 210.5 L754.5 209.5 L755.5 208.5 L756.5 207.5 L757.5 206.5 L758.5 206.5 L759.5 205.5 L761.5 205.5 L761.5 203.5 L762.5 202.5 L763.5 202.5 L764.5 201.5 L763.5 200.5 L763.5 196.5 L764.5 195.5 L763.5 194.5 L763.5 192.5 L764.5 191.5 L764.5 190.5 L765.5 189.5 L765.5 188.5 L766.5 187.5 L766.5 186.5 L767.5 185.5 L767.5 184.5 L768.5 183.5 L769.5 182.5 L768.5 181.5 L769.5 180.5 L769.5 179.5 L770.5 178.5 L770.5 177.5 L771.5 176.5 L772.5 175.5 L772.5 174.5 L771.5 173.5 L771.5 171.5 L772.5 170.5 L772.5 168.5 L773.5 167.5 L773.5 161.5 L774.5 160.5 L775.5 159.5 L774.5 159.5 L773.5 158.5 L773.5 157.5 L774.5 156.5 L774.5 152.5 L775.5 151.5 L775.5 149.5 L776.5 148.5 L776.5 146.5 L777.5 145.5 L777.5 144.5 L776.5 143.5 L775.5 144.5 L774.5 144.5 L773.5 145.5 L772.5 146.5 L771.5 145.5 L770.5 146.5 L769.5 147.5 L767.5 147.5 L766.5 148.5 L765.5 149.5 L763.5 149.5 L762.5 150.5 L761.5 150.5 L760.5 151.5 L758.5 151.5 L757.5 152.5 L756.5 151.5 L756.5 150.5 L755.5 149.5 L754.5 148.5 L752.5 148.5 L751.5 149.5 L750.5 149.5 L749.5 150.5 L748.5 150.5 L747.5 151.5 L746.5 152.5 L745.5 152.5 L744.5 151.5 L743.5 150.5 L743.5 149.5 L738.5 149.5 L737.5 150.5 L735.5 150.5 L734.5 151.5 L733.5 151.5 L732.5 152.5 L731.5 152.5 L730.5 153.5 L728.5 153.5 L727.5 154.5 L725.5 154.5 L724.5 155.5 L723.5 155.5 L722.5 156.5 L721.5 157.5 L717.5 157.5 L717.5 158.5 L716.5 159.5 L715.5 159.5 L714.5 158.5 L713.5 158.5 L712.5 157.5 L711.5 157.5 L710.5 158.5 L705.5 158.5 L704.5 159.5 L703.5 158.5 L702.5 159.5 L701.5 160.5 L700.5 161.5 L699.5 162.5 L698.5 163.5 L697.5 163.5 L696.5 164.5 L695.5 164.5 L694.5 165.5 L693.5 165.5 L692.5 166.5 L691.5 166.5 L690.5 165.5 L690.5 164.5 L689.5 164.5 L688.5 163.5 L687.5 162.5 L685.5 162.5 L684.5 161.5 L683.5 162.5 L682.5 161.5 L682.5 160.5 L681.5 159.5 L680.5 158.5 L679.5 157.5 L678.5 156.5 L677.5 155.5 L676.5 154.5 L675.5 153.5 L674.5 152.5 L673.5 151.5 L672.5 150.5 L671.5 149.5 L670.5 148.5 L669.5 147.5 L669.5 146.5 L668.5 145.5 L667.5 145.5 L666.5 146.5 L665.5 147.5 L665.5 148.5 L664.5 149.5 L664.5 150.5 L663.5 151.5 L663.5 152.5 L662.5 153.5 L662.5 154.5 L661.5 155.5 L661.5 156.5 L660.5 157.5 L659.5 158.5 L658.5 159.5 L657.5 159.5 L657.5 161.5 L656.5 162.5 L655.5 162.5 L655.5 164.5 L656.5 165.5 L655.5 166.5 L655.5 167.5 L656.5 168.5 L655.5 169.5 L654.5 169.5 L654.5 173.5 L653.5 174.5 L653.5 176.5 L652.5 177.5 L651.5 178.5 L651.5 181.5 L650.5 182.5 L649.5 183.5 L647.5 183.5 L646.5 182.5 L645.5 183.5 L644.5 182.5 L643.5 181.5 L643.5 180.5 L642.5 181.5 L641.5 180.5 L641.5 179.5 L640.5 178.5 L640.5 177.5 L639.5 176.5 L639.5 174.5 L638.5 173.5 L638.5 172.5 L637.5 171.5 L637.5 168.5 L636.5 167.5 L636.5 164.5 L635.5 163.5 L634.5 162.5 L635.5 161.5 L634.5 160.5 L633.5 159.5 L633.5 157.5 L632.5 156.5 L632.5 154.5 L631.5 153.5 L631.5 152.5 L630.5 151.5 L630.5 149.5 L629.5 148.5 L629.5 145.5 L628.5 144.5 L628.5 143.5 L627.5 142.5 L627.5 140.5 L626.5 139.5 L626.5 138.5 L625.5 137.5 L625.5 134.5 L624.5 133.5 L623.5 132.5 L623.5 131.5 L622.5 130.5 L620.5 130.5 L620.5 133.5 L621.5 134.5 L621.5 136.5 L622.5 137.5 L622.5 138.5 L621.5 139.5 L620.5 139.5 L621.5 140.5 L620.5 141.5 L619.5 142.5 L618.5 142.5 L617.5 143.5 L616.5 144.5 L615.5 143.5 L614.5 143.5 L614.5 145.5 L613.5 146.5 L612.5 145.5 L610.5 145.5 L609.5 144.5 L608.5 144.5 L607.5 145.5 L606.5 144.5 L606.5 145.5 L605.5 146.5 L604.5 146.5 L603.5 147.5 L600.5 147.5 L599.5 148.5 L596.5 148.5 L595.5 149.5 L594.5 148.5 L591.5 148.5 L590.5 149.5 L589.5 148.5 L588.5 148.5 L587.5 149.5 L585.5 149.5 L584.5 148.5 L583.5 148.5 L582.5 147.5 L582.5 146.5 L581.5 147.5 L580.5 147.5 L579.5 146.5 L579.5 141.5 L580.5 140.5 L579.5 139.5 L579.5 136.5 L578.5 135.5 L577.5 134.5 L575.5 134.5 L574.5 133.5 L573.5 132.5 L574.5 131.5 L573.5 130.5 L574.5 129.5 L575.5 128.5 L575.5 124.5 L576.5 123.5 L576.5 122.5 L577.5 121.5 L577.5 120.5 L578.5 119.5 L577.5 118.5 L578.5 117.5 L578.5 115.5 L579.5 114.5 L579.5 111.5 L580.5 110.5 L580.5 107.5 L581.5 106.5 L580.5 105.5 L580.5 97.5 L579.5 96.5 L579.5 95.5 L580.5 94.5 L580.5 93.5 L581.5 92.5 L581.5 91.5 L582.5 90.5 L582.5 89.5 L583.5 88.5 L583.5 87.5 L584.5 86.5 L585.5 85.5 L585.5 83.5 L586.5 82.5 L586.5 80.5 L584.5 80.5 L583.5 81.5 L579.5 81.5 L578.5 82.5 L577.5 81.5 L576.5 80.5 L575.5 79.5 L575.5 77.5 L574.5 76.5 L573.5 75.5 L572.5 74.5 L573.5 73.5 L573.5 72.5 L574.5 71.5 L574.5 67.5 L575.5 66.5 L575.5 63.5 L576.5 62.5 L576.5 60.5 L577.5 59.5 L577.5 58.5 L578.5 57.5 L578.5 56.5 L579.5 55.5 L579.5 53.5 L577.5 53.5 L576.5 54.5 L575.5 55.5 L574.5 55.5 L573.5 56.5 L572.5 55.5 L571.5 55.5 L570.5 54.5 L570.5 53.5 L569.5 52.5 L569.5 51.5 L568.5 50.5 L568.5 49.5 L569.5 48.5 L569.5 46.5 L568.5 45.5 L568.5 42.5 L567.5 41.5 L566.5 40.5 L566.5 37.5 L565.5 36.5 L565.5 33.5 L564.5 32.5 L564.5 27.5 L563.5 26.5 L563.5 23.5 L562.5 22.5 L562.5 21.5 L561.5 20.5 L560.5 19.5 L560.5 17.5 L559.5 16.5 L559.5 14.5 L558.5 13.5 L558.5 3.5 L557.5 2.5 Z M94.5 612.5 Z M773.5 664.5 L772.5 665.5 L771.5 665.5 L770.5 666.5 L769.5 665.5 L768.5 665.5 L767.5 666.5 L765.5 666.5 L764.5 667.5 L763.5 666.5 L764.5 667.5 L763.5 668.5 L762.5 669.5 L758.5 669.5 L757.5 670.5 L756.5 670.5 L756.5 675.5 L757.5 676.5 L758.5 676.5 L759.5 677.5 L760.5 678.5 L761.5 679.5 L762.5 680.5 L763.5 681.5 L763.5 682.5 L764.5 683.5 L765.5 684.5 L766.5 685.5 L767.5 685.5 L768.5 686.5 L769.5 686.5 L770.5 687.5 L771.5 688.5 L772.5 688.5 L773.5 689.5 L775.5 689.5 L776.5 690.5 L777.5 690.5 L778.5 691.5 L781.5 691.5 L782.5 690.5 L786.5 690.5 L787.5 689.5 L788.5 689.5 L789.5 690.5 L797.5 690.5 L798.5 689.5 L799.5 689.5 L800.5 688.5 L801.5 687.5 L802.5 686.5 L802.5 685.5 L803.5 684.5 L803.5 679.5 L802.5 678.5 L801.5 677.5 L800.5 677.5 L799.5 676.5 L799.5 675.5 L798.5 675.5 L797.5 674.5 L798.5 673.5 L797.5 672.5 L797.5 671.5 L796.5 671.5 L795.5 670.5 L794.5 669.5 L793.5 669.5 L792.5 668.5 L791.5 668.5 L790.5 669.5 L789.5 668.5 L789.5 667.5 L788.5 668.5 L787.5 667.5 L786.5 666.5 L786.5 665.5 L785.5 664.5 L779.5 664.5 L778.5 665.5 L777.5 665.5 L776.5 664.5 Z"/>
    </clipPath>
  </defs>
  <g id="shape" transform="matrix(0.2015 0 0 0.2015 12.649691 25.747192)" fill="red">
    <g clip-path="url(#clip0)">
      <rect stroke-width="0" stroke-linejoin="bevel" stroke-miterlimit="10" stroke="#000000" x="0.5" y="0.5" width="878" height="723"/>
    </g>
  </g>
</svg>
