<?xml version="1.0" encoding="UTF-8" standalone="no"?>
<!-- Created with PhotoLine 23.53 (www.pl32.de) -->
<!DOCTYPE svg PUBLIC "-//W3C//DTD SVG 1.1//EN" "http://www.w3.org/Graphics/SVG/1.1/DTD/svg11.dtd">
<svg width="400" height="150" viewBox="0 0 400 150" version="1.1" xmlns="http://www.w3.org/2000/svg" xmlns:xlink="http://www.w3.org/1999/xlink">
  <defs>
    <clipPath id="clip0">
      <path clip-rule="evenodd" d="M30 0 L370 0 C386.55 0 400 26.89 400 60 L400 240 C400 273.11 386.55 300 370 300 L30 300 C13.45 300 0 273.11 0 240 L0 60 C0 26.89 13.45 0 30 0 Z"/>
    </clipPath>
    <clipPath id="clip1">
      <path clip-rule="evenodd" d="M30 0 L370 0 C386.55 0 400 26.89 400 60 L400 240 C400 273.11 386.55 300 370 300 L30 300 C13.45 300 0 273.11 0 240 L0 60 C0 26.89 13.45 0 30 0 Z"/>
    </clipPath>
  </defs>
  <g id="shape">
    <g id="abgerundetes Quadrat/Rechteck" transform="matrix(1.000007 0 0 0.5 0 0)">
      <path clip-path="url(#clip0)" fill="#7f7f00" fill-rule="evenodd" d="M30 0 L370 0 C386.55 0 400 26.89 400 60 L400 240 C400 273.11 386.55 300 370 300 L30 300 C13.45 300 0 273.11 0 240 L0 60 C0 26.89 13.45 0 30 0 Z"/>
      <path clip-path="url(#clip1)" transform="matrix(0.999993 0 0 2 0 0)" stroke-width="28" stroke-linejoin="bevel" stroke-miterlimit="10" fill="none" stroke="#000000" d="M30 0 L370 0 C386.55 0 400 13.45 400 30 L400 120 C400 136.55 386.55 150 370 150 L30 150 C13.45 150 0 136.55 0 120 L0 30 C0 13.45 13.45 0 30 0 Z"/>
    </g>
  </g>
</svg>
