<?xml version="1.0" encoding="UTF-8" standalone="no"?>
<!-- Created with PhotoLine 23.53 (www.pl32.de) -->
<!DOCTYPE svg PUBLIC "-//W3C//DTD SVG 1.1//EN" "http://www.w3.org/Graphics/SVG/1.1/DTD/svg11.dtd">
<svg width="1456" height="816" viewBox="0 0 1456 816" version="1.1" xmlns="http://www.w3.org/2000/svg" xmlns:xlink="http://www.w3.org/1999/xlink">
  <g id="shape">
    <g id="home" transform="matrix(1 0 0 1 754 31)">
      <path fill="#bb4" stroke-linejoin="bevel" stroke-miterlimit="10" fill-rule="evenodd" stroke="#ffffff" d="M39.5 0.5 L38.5 1.5 L36.5 1.5 L35.5 2.5 L33.5 2.5 L33.5 3.5 L32.5 4.5 L20.5 4.5 L19.5 5.5 L18.5 5.5 L17.5 6.5 L16.5 7.5 L15.5 8.5 L15.5 9.5 L14.5 10.5 L13.5 11.5 L12.5 12.5 L11.5 13.5 L10.5 14.5 L9.5 15.5 L9.5 20.5 L8.5 21.5 L7.5 22.5 L6.5 22.5 L5.5 23.5 L4.5 23.5 L3.5 24.5 L2.5 24.5 L1.5 25.5 L0.5 26.5 L0.5 58.5 L1.5 59.5 L2.5 60.5 L3.5 61.5 L4.5 62.5 L5.5 63.5 L7.5 63.5 L8.5 64.5 L9.5 65.5 L9.5 76.5 L8.5 77.5 L7.5 78.5 L7.5 79.5 L6.5 80.5 L6.5 84.5 L5.5 85.5 L5.5 86.5 L4.5 87.5 L4.5 88.5 L3.5 89.5 L4.5 90.5 L4.5 91.5 L3.5 92.5 L2.5 93.5 L1.5 94.5 L1.5 95.5 L0.5 96.5 L0.5 97.5 L1.5 97.5 L2.5 98.5 L3.5 99.5 L3.5 101.5 L4.5 102.5 L4.5 104.5 L5.5 105.5 L6.5 106.5 L7.5 107.5 L8.5 107.5 L9.5 108.5 L10.5 109.5 L11.5 110.5 L12.5 111.5 L13.5 112.5 L14.5 113.5 L15.5 114.5 L16.5 115.5 L16.5 117.5 L17.5 117.5 L18.5 116.5 L20.5 116.5 L21.5 117.5 L22.5 118.5 L24.5 118.5 L25.5 119.5 L25.5 120.5 L26.5 121.5 L28.5 121.5 L29.5 122.5 L29.5 123.5 L30.5 124.5 L31.5 124.5 L32.5 125.5 L33.5 126.5 L34.5 126.5 L35.5 127.5 L40.5 127.5 L41.5 128.5 L46.5 128.5 L47.5 129.5 L53.5 129.5 L54.5 128.5 L55.5 129.5 L55.5 130.5 L56.5 129.5 L58.5 129.5 L59.5 130.5 L98.5 130.5 L99.5 129.5 L100.5 128.5 L101.5 127.5 L102.5 126.5 L104.5 126.5 L105.5 125.5 L106.5 124.5 L107.5 124.5 L108.5 123.5 L110.5 123.5 L111.5 122.5 L113.5 122.5 L114.5 121.5 L116.5 121.5 L117.5 120.5 L118.5 119.5 L119.5 119.5 L120.5 118.5 L121.5 117.5 L122.5 117.5 L123.5 116.5 L125.5 116.5 L126.5 115.5 L126.5 114.5 L127.5 113.5 L127.5 96.5 L128.5 95.5 L129.5 94.5 L129.5 91.5 L130.5 90.5 L131.5 90.5 L132.5 89.5 L133.5 89.5 L134.5 90.5 L137.5 90.5 L138.5 89.5 L140.5 89.5 L141.5 88.5 L143.5 88.5 L144.5 87.5 L146.5 87.5 L147.5 86.5 L148.5 86.5 L149.5 85.5 L150.5 84.5 L151.5 84.5 L152.5 85.5 L153.5 85.5 L154.5 86.5 L161.5 86.5 L162.5 87.5 L163.5 87.5 L164.5 88.5 L166.5 88.5 L167.5 89.5 L168.5 88.5 L169.5 87.5 L170.5 87.5 L171.5 86.5 L172.5 85.5 L173.5 84.5 L174.5 83.5 L175.5 82.5 L176.5 81.5 L177.5 80.5 L184.5 80.5 L185.5 79.5 L191.5 79.5 L192.5 78.5 L193.5 77.5 L194.5 77.5 L195.5 76.5 L195.5 75.5 L196.5 74.5 L197.5 73.5 L198.5 72.5 L199.5 71.5 L200.5 70.5 L201.5 69.5 L201.5 68.5 L202.5 67.5 L203.5 66.5 L204.5 65.5 L204.5 52.5 L203.5 51.5 L203.5 50.5 L202.5 49.5 L201.5 48.5 L201.5 46.5 L200.5 45.5 L200.5 35.5 L199.5 34.5 L199.5 33.5 L198.5 32.5 L197.5 31.5 L196.5 30.5 L195.5 29.5 L194.5 29.5 L193.5 28.5 L168.5 28.5 L167.5 27.5 L166.5 27.5 L165.5 26.5 L101.5 26.5 L100.5 27.5 L95.5 27.5 L94.5 28.5 L89.5 28.5 L88.5 27.5 L87.5 27.5 L86.5 26.5 L85.5 26.5 L84.5 25.5 L83.5 24.5 L82.5 24.5 L81.5 23.5 L80.5 22.5 L79.5 22.5 L78.5 21.5 L77.5 21.5 L76.5 20.5 L75.5 20.5 L74.5 19.5 L73.5 19.5 L72.5 18.5 L71.5 17.5 L71.5 14.5 L70.5 13.5 L69.5 12.5 L68.5 11.5 L67.5 10.5 L66.5 9.5 L65.5 8.5 L63.5 8.5 L62.5 7.5 L61.5 6.5 L60.5 5.5 L58.5 5.5 L57.5 4.5 L55.5 4.5 L54.5 3.5 L53.5 2.5 L52.5 2.5 L51.5 1.5 L50.5 1.5 L49.5 0.5 L41.5 0.5 L40.5 1.5 Z"/>
    </g>
  </g>
</svg>
