<?xml version="1.0" encoding="UTF-8" standalone="no"?>
<!-- Created with PhotoLine 23.53 (www.pl32.de) -->
<!DOCTYPE svg PUBLIC "-//W3C//DTD SVG 1.1//EN" "http://www.w3.org/Graphics/SVG/1.1/DTD/svg11.dtd">
<svg width="1456" height="816" viewBox="0 0 1456 816" version="1.1" xmlns="http://www.w3.org/2000/svg" xmlns:xlink="http://www.w3.org/1999/xlink">
  <g id="shape">
    <g id="peasants" transform="matrix(1 0 0 1 729 272)">
      <path fill="#bb4" stroke-linejoin="bevel" stroke-miterlimit="10" fill-rule="evenodd" stroke="#ffffff" d="M106.5 1.5 L105.5 2.5 L105.5 4.5 L104.5 5.5 L95.5 5.5 L94.5 4.5 L93.5 3.5 L88.5 3.5 L87.5 4.5 L85.5 4.5 L84.5 5.5 L83.5 5.5 L82.5 6.5 L81.5 7.5 L78.5 7.5 L77.5 8.5 L76.5 9.5 L75.5 10.5 L73.5 10.5 L72.5 11.5 L71.5 11.5 L70.5 12.5 L69.5 13.5 L69.5 14.5 L68.5 15.5 L68.5 16.5 L67.5 17.5 L66.5 18.5 L65.5 19.5 L65.5 21.5 L64.5 22.5 L64.5 24.5 L63.5 25.5 L62.5 25.5 L62.5 26.5 L61.5 27.5 L60.5 28.5 L60.5 29.5 L59.5 30.5 L58.5 31.5 L58.5 33.5 L57.5 34.5 L56.5 35.5 L55.5 36.5 L54.5 37.5 L53.5 38.5 L52.5 39.5 L51.5 40.5 L50.5 41.5 L49.5 42.5 L48.5 43.5 L47.5 43.5 L47.5 44.5 L46.5 45.5 L46.5 46.5 L45.5 47.5 L44.5 48.5 L44.5 51.5 L43.5 52.5 L42.5 53.5 L42.5 54.5 L41.5 55.5 L41.5 56.5 L40.5 57.5 L40.5 58.5 L41.5 59.5 L42.5 60.5 L43.5 61.5 L44.5 62.5 L45.5 62.5 L46.5 63.5 L47.5 64.5 L48.5 65.5 L49.5 65.5 L50.5 66.5 L51.5 67.5 L52.5 68.5 L53.5 68.5 L54.5 69.5 L55.5 69.5 L56.5 70.5 L57.5 70.5 L58.5 71.5 L60.5 71.5 L61.5 72.5 L62.5 73.5 L63.5 73.5 L64.5 74.5 L67.5 74.5 L68.5 75.5 L69.5 75.5 L70.5 76.5 L69.5 77.5 L69.5 78.5 L68.5 79.5 L69.5 79.5 L70.5 80.5 L70.5 81.5 L69.5 82.5 L68.5 82.5 L67.5 83.5 L66.5 84.5 L66.5 87.5 L65.5 88.5 L65.5 91.5 L66.5 92.5 L67.5 92.5 L68.5 93.5 L72.5 93.5 L73.5 94.5 L74.5 94.5 L75.5 95.5 L78.5 95.5 L79.5 96.5 L80.5 96.5 L81.5 97.5 L84.5 97.5 L85.5 98.5 L86.5 98.5 L87.5 99.5 L88.5 99.5 L89.5 100.5 L90.5 100.5 L91.5 101.5 L92.5 101.5 L93.5 102.5 L94.5 103.5 L95.5 104.5 L96.5 105.5 L97.5 106.5 L98.5 107.5 L99.5 108.5 L100.5 109.5 L101.5 110.5 L102.5 111.5 L102.5 112.5 L103.5 113.5 L104.5 114.5 L108.5 114.5 L109.5 115.5 L110.5 115.5 L111.5 116.5 L115.5 116.5 L116.5 117.5 L118.5 117.5 L119.5 118.5 L123.5 118.5 L124.5 119.5 L123.5 120.5 L123.5 121.5 L122.5 122.5 L121.5 123.5 L120.5 124.5 L120.5 125.5 L119.5 126.5 L118.5 127.5 L117.5 128.5 L116.5 129.5 L116.5 130.5 L115.5 131.5 L115.5 133.5 L116.5 134.5 L116.5 136.5 L117.5 137.5 L117.5 139.5 L118.5 140.5 L118.5 141.5 L119.5 142.5 L119.5 144.5 L120.5 145.5 L121.5 146.5 L122.5 147.5 L123.5 147.5 L124.5 148.5 L125.5 148.5 L126.5 149.5 L127.5 149.5 L128.5 150.5 L130.5 150.5 L131.5 151.5 L136.5 151.5 L137.5 152.5 L138.5 153.5 L138.5 154.5 L139.5 155.5 L140.5 156.5 L141.5 157.5 L142.5 158.5 L143.5 158.5 L144.5 159.5 L145.5 160.5 L145.5 161.5 L146.5 162.5 L146.5 165.5 L147.5 166.5 L147.5 169.5 L148.5 170.5 L148.5 171.5 L149.5 172.5 L150.5 173.5 L150.5 174.5 L151.5 175.5 L152.5 176.5 L152.5 177.5 L153.5 178.5 L154.5 179.5 L155.5 180.5 L155.5 181.5 L156.5 182.5 L157.5 183.5 L158.5 184.5 L159.5 185.5 L160.5 186.5 L160.5 190.5 L159.5 191.5 L158.5 191.5 L158.5 192.5 L157.5 193.5 L156.5 194.5 L156.5 195.5 L155.5 196.5 L155.5 198.5 L156.5 199.5 L156.5 201.5 L155.5 202.5 L155.5 203.5 L154.5 204.5 L153.5 204.5 L152.5 205.5 L151.5 205.5 L150.5 206.5 L149.5 206.5 L149.5 208.5 L150.5 209.5 L151.5 210.5 L151.5 211.5 L150.5 212.5 L149.5 213.5 L150.5 214.5 L149.5 215.5 L150.5 216.5 L151.5 217.5 L152.5 217.5 L153.5 218.5 L154.5 218.5 L155.5 219.5 L156.5 220.5 L157.5 221.5 L158.5 222.5 L158.5 223.5 L159.5 224.5 L161.5 224.5 L162.5 223.5 L163.5 224.5 L165.5 224.5 L166.5 225.5 L165.5 226.5 L164.5 227.5 L164.5 228.5 L165.5 228.5 L166.5 229.5 L167.5 230.5 L168.5 230.5 L169.5 231.5 L169.5 232.5 L170.5 232.5 L171.5 233.5 L174.5 233.5 L175.5 234.5 L176.5 234.5 L177.5 233.5 L178.5 233.5 L179.5 234.5 L183.5 234.5 L184.5 235.5 L189.5 235.5 L190.5 236.5 L190.5 237.5 L191.5 236.5 L194.5 236.5 L195.5 237.5 L197.5 237.5 L198.5 236.5 L199.5 237.5 L200.5 237.5 L201.5 238.5 L204.5 238.5 L205.5 237.5 L206.5 237.5 L206.5 236.5 L207.5 235.5 L208.5 236.5 L218.5 236.5 L219.5 237.5 L220.5 238.5 L225.5 238.5 L226.5 237.5 L226.5 236.5 L227.5 235.5 L228.5 234.5 L229.5 234.5 L230.5 233.5 L230.5 231.5 L231.5 230.5 L232.5 229.5 L232.5 228.5 L233.5 227.5 L234.5 226.5 L235.5 225.5 L236.5 224.5 L237.5 223.5 L238.5 222.5 L239.5 221.5 L240.5 220.5 L241.5 219.5 L242.5 218.5 L243.5 217.5 L244.5 216.5 L246.5 216.5 L247.5 215.5 L248.5 215.5 L249.5 214.5 L250.5 214.5 L251.5 213.5 L252.5 213.5 L253.5 212.5 L254.5 212.5 L255.5 211.5 L256.5 210.5 L257.5 210.5 L258.5 209.5 L259.5 209.5 L260.5 208.5 L261.5 208.5 L262.5 207.5 L262.5 206.5 L263.5 205.5 L263.5 204.5 L264.5 203.5 L265.5 203.5 L266.5 202.5 L266.5 199.5 L267.5 198.5 L267.5 197.5 L268.5 196.5 L268.5 195.5 L269.5 194.5 L270.5 193.5 L270.5 192.5 L271.5 191.5 L272.5 190.5 L272.5 189.5 L273.5 188.5 L273.5 181.5 L274.5 180.5 L274.5 172.5 L275.5 171.5 L276.5 171.5 L277.5 170.5 L282.5 170.5 L283.5 169.5 L289.5 169.5 L290.5 168.5 L291.5 167.5 L294.5 167.5 L295.5 166.5 L296.5 166.5 L296.5 165.5 L297.5 164.5 L298.5 164.5 L299.5 163.5 L300.5 163.5 L301.5 162.5 L303.5 162.5 L304.5 161.5 L306.5 161.5 L307.5 160.5 L307.5 159.5 L308.5 158.5 L308.5 157.5 L309.5 156.5 L309.5 154.5 L308.5 153.5 L307.5 152.5 L306.5 151.5 L307.5 150.5 L308.5 149.5 L309.5 148.5 L309.5 147.5 L308.5 147.5 L307.5 146.5 L306.5 146.5 L305.5 145.5 L304.5 144.5 L303.5 143.5 L302.5 142.5 L301.5 141.5 L300.5 141.5 L299.5 140.5 L298.5 139.5 L298.5 138.5 L297.5 137.5 L296.5 136.5 L295.5 135.5 L294.5 134.5 L294.5 133.5 L293.5 132.5 L292.5 131.5 L292.5 107.5 L293.5 106.5 L294.5 105.5 L295.5 104.5 L297.5 104.5 L298.5 103.5 L299.5 102.5 L299.5 99.5 L298.5 98.5 L298.5 95.5 L297.5 94.5 L298.5 93.5 L298.5 91.5 L297.5 90.5 L297.5 86.5 L296.5 85.5 L295.5 84.5 L294.5 83.5 L292.5 83.5 L291.5 82.5 L290.5 82.5 L289.5 81.5 L288.5 81.5 L287.5 80.5 L286.5 80.5 L285.5 79.5 L283.5 79.5 L282.5 78.5 L281.5 77.5 L281.5 76.5 L280.5 75.5 L279.5 74.5 L275.5 74.5 L274.5 73.5 L272.5 73.5 L271.5 72.5 L270.5 73.5 L269.5 72.5 L268.5 72.5 L267.5 71.5 L266.5 70.5 L265.5 69.5 L265.5 68.5 L264.5 67.5 L262.5 67.5 L261.5 66.5 L260.5 66.5 L260.5 67.5 L259.5 68.5 L258.5 69.5 L254.5 69.5 L253.5 68.5 L249.5 68.5 L248.5 67.5 L247.5 67.5 L246.5 66.5 L245.5 65.5 L244.5 64.5 L243.5 64.5 L242.5 63.5 L241.5 64.5 L240.5 63.5 L239.5 62.5 L238.5 62.5 L237.5 61.5 L236.5 61.5 L235.5 60.5 L233.5 60.5 L232.5 59.5 L231.5 58.5 L230.5 57.5 L229.5 57.5 L228.5 56.5 L227.5 55.5 L226.5 55.5 L225.5 54.5 L224.5 54.5 L223.5 53.5 L222.5 53.5 L221.5 52.5 L219.5 52.5 L218.5 51.5 L217.5 50.5 L216.5 49.5 L216.5 48.5 L215.5 47.5 L215.5 46.5 L214.5 45.5 L212.5 45.5 L211.5 44.5 L210.5 44.5 L209.5 43.5 L208.5 42.5 L207.5 41.5 L206.5 41.5 L205.5 40.5 L204.5 39.5 L203.5 38.5 L202.5 38.5 L201.5 37.5 L197.5 37.5 L196.5 36.5 L194.5 36.5 L193.5 35.5 L191.5 35.5 L190.5 34.5 L188.5 34.5 L187.5 33.5 L182.5 33.5 L181.5 32.5 L180.5 33.5 L179.5 32.5 L178.5 32.5 L177.5 31.5 L176.5 31.5 L175.5 30.5 L174.5 29.5 L173.5 28.5 L172.5 27.5 L168.5 27.5 L167.5 26.5 L166.5 26.5 L165.5 25.5 L160.5 25.5 L159.5 24.5 L158.5 23.5 L157.5 22.5 L156.5 21.5 L155.5 20.5 L154.5 19.5 L153.5 18.5 L152.5 17.5 L151.5 16.5 L150.5 15.5 L149.5 15.5 L148.5 14.5 L147.5 13.5 L145.5 13.5 L144.5 12.5 L142.5 12.5 L141.5 11.5 L140.5 10.5 L138.5 10.5 L137.5 9.5 L136.5 9.5 L135.5 8.5 L134.5 7.5 L133.5 7.5 L132.5 6.5 L131.5 5.5 L130.5 6.5 L128.5 6.5 L127.5 5.5 L127.5 4.5 L126.5 3.5 L125.5 3.5 L124.5 4.5 L116.5 4.5 L115.5 3.5 L113.5 3.5 L112.5 2.5 L110.5 2.5 L109.5 1.5 Z"/>
    </g>
  </g>
</svg>
