<?xml version="1.0" encoding="UTF-8" standalone="no"?>
<!-- Created with PhotoLine 23.53 (www.pl32.de) -->
<!DOCTYPE svg PUBLIC "-//W3C//DTD SVG 1.1//EN" "http://www.w3.org/Graphics/SVG/1.1/DTD/svg11.dtd">
<svg width="1456" height="816" viewBox="0 0 1456 816" version="1.1" xmlns="http://www.w3.org/2000/svg" xmlns:xlink="http://www.w3.org/1999/xlink">
  <g id="shape">
    <g id="church" transform="matrix(1 0 0 1 1124 242)">
      <path fill="#bb4" stroke-linejoin="bevel" stroke-miterlimit="10" fill-rule="evenodd" stroke="#ffffff" d="M93.5 29.5 L92.5 30.5 L91.5 30.5 L90.5 31.5 L89.5 31.5 L88.5 32.5 L87.5 32.5 L86.5 33.5 L85.5 34.5 L84.5 34.5 L83.5 35.5 L82.5 35.5 L81.5 36.5 L80.5 37.5 L79.5 38.5 L78.5 38.5 L77.5 39.5 L76.5 40.5 L75.5 40.5 L75.5 42.5 L77.5 42.5 L78.5 41.5 L79.5 41.5 L80.5 40.5 L81.5 39.5 L82.5 39.5 L83.5 38.5 L84.5 37.5 L85.5 38.5 L85.5 51.5 L84.5 52.5 L83.5 53.5 L82.5 53.5 L81.5 54.5 L80.5 54.5 L79.5 55.5 L78.5 56.5 L77.5 56.5 L76.5 57.5 L75.5 58.5 L74.5 58.5 L73.5 59.5 L72.5 59.5 L71.5 60.5 L70.5 60.5 L69.5 61.5 L68.5 61.5 L67.5 62.5 L66.5 62.5 L65.5 63.5 L64.5 63.5 L63.5 64.5 L62.5 64.5 L61.5 65.5 L60.5 66.5 L59.5 66.5 L58.5 67.5 L56.5 67.5 L55.5 68.5 L54.5 69.5 L52.5 69.5 L51.5 70.5 L50.5 71.5 L48.5 71.5 L47.5 72.5 L46.5 73.5 L45.5 73.5 L44.5 74.5 L42.5 74.5 L41.5 73.5 L41.5 69.5 L40.5 68.5 L40.5 66.5 L39.5 65.5 L37.5 65.5 L36.5 64.5 L35.5 65.5 L34.5 64.5 L31.5 64.5 L30.5 63.5 L27.5 63.5 L26.5 62.5 L25.5 62.5 L24.5 61.5 L23.5 61.5 L22.5 62.5 L22.5 65.5 L23.5 66.5 L23.5 75.5 L24.5 76.5 L23.5 77.5 L24.5 78.5 L23.5 79.5 L24.5 80.5 L24.5 89.5 L23.5 90.5 L22.5 91.5 L21.5 92.5 L20.5 92.5 L19.5 93.5 L18.5 94.5 L17.5 95.5 L16.5 96.5 L16.5 98.5 L17.5 99.5 L17.5 101.5 L18.5 102.5 L18.5 104.5 L17.5 105.5 L16.5 106.5 L15.5 106.5 L14.5 105.5 L13.5 104.5 L12.5 104.5 L11.5 103.5 L9.5 103.5 L8.5 104.5 L7.5 104.5 L7.5 107.5 L6.5 108.5 L6.5 111.5 L5.5 112.5 L4.5 112.5 L3.5 113.5 L2.5 114.5 L2.5 115.5 L1.5 116.5 L0.5 115.5 L0.5 112.5 L0.5 115.5 L1.5 116.5 L1.5 121.5 L2.5 122.5 L2.5 123.5 L3.5 124.5 L4.5 125.5 L5.5 126.5 L6.5 127.5 L8.5 127.5 L9.5 128.5 L11.5 128.5 L12.5 129.5 L13.5 129.5 L14.5 130.5 L15.5 130.5 L16.5 131.5 L17.5 131.5 L18.5 130.5 L19.5 130.5 L20.5 131.5 L24.5 131.5 L25.5 132.5 L26.5 132.5 L27.5 133.5 L28.5 133.5 L29.5 134.5 L31.5 134.5 L32.5 135.5 L34.5 135.5 L35.5 136.5 L37.5 136.5 L38.5 137.5 L40.5 137.5 L41.5 138.5 L43.5 138.5 L44.5 139.5 L45.5 139.5 L46.5 140.5 L49.5 140.5 L50.5 141.5 L52.5 141.5 L53.5 142.5 L54.5 142.5 L55.5 143.5 L56.5 143.5 L57.5 144.5 L62.5 144.5 L63.5 145.5 L67.5 145.5 L68.5 146.5 L69.5 147.5 L69.5 148.5 L70.5 149.5 L70.5 151.5 L71.5 152.5 L72.5 153.5 L73.5 154.5 L77.5 154.5 L78.5 155.5 L87.5 155.5 L88.5 154.5 L89.5 153.5 L92.5 153.5 L93.5 152.5 L96.5 152.5 L97.5 151.5 L98.5 152.5 L99.5 153.5 L102.5 153.5 L102.5 152.5 L103.5 151.5 L104.5 150.5 L105.5 151.5 L108.5 151.5 L109.5 150.5 L110.5 149.5 L111.5 148.5 L112.5 147.5 L113.5 146.5 L118.5 146.5 L119.5 147.5 L120.5 147.5 L121.5 146.5 L123.5 146.5 L124.5 145.5 L124.5 144.5 L123.5 143.5 L123.5 140.5 L124.5 139.5 L124.5 138.5 L125.5 137.5 L126.5 138.5 L129.5 138.5 L130.5 137.5 L130.5 135.5 L129.5 134.5 L130.5 133.5 L129.5 132.5 L128.5 131.5 L127.5 130.5 L126.5 129.5 L126.5 126.5 L125.5 125.5 L125.5 119.5 L124.5 118.5 L125.5 117.5 L126.5 116.5 L126.5 115.5 L127.5 114.5 L127.5 104.5 L126.5 103.5 L125.5 102.5 L125.5 98.5 L124.5 97.5 L124.5 96.5 L123.5 97.5 L122.5 98.5 L121.5 99.5 L120.5 98.5 L119.5 97.5 L118.5 96.5 L116.5 96.5 L115.5 95.5 L114.5 95.5 L113.5 94.5 L113.5 82.5 L114.5 81.5 L114.5 79.5 L113.5 79.5 L112.5 78.5 L111.5 77.5 L110.5 76.5 L109.5 75.5 L109.5 74.5 L108.5 73.5 L107.5 72.5 L106.5 71.5 L105.5 70.5 L104.5 69.5 L103.5 68.5 L102.5 67.5 L101.5 66.5 L100.5 65.5 L100.5 64.5 L99.5 63.5 L98.5 62.5 L97.5 61.5 L96.5 60.5 L95.5 59.5 L94.5 58.5 L93.5 57.5 L92.5 56.5 L91.5 55.5 L91.5 53.5 L90.5 52.5 L90.5 51.5 L89.5 50.5 L89.5 44.5 L88.5 43.5 L89.5 42.5 L89.5 39.5 L90.5 38.5 L91.5 38.5 L92.5 39.5 L93.5 40.5 L94.5 40.5 L95.5 41.5 L96.5 42.5 L97.5 43.5 L98.5 43.5 L99.5 44.5 L100.5 44.5 L101.5 45.5 L102.5 46.5 L109.5 46.5 L110.5 45.5 L111.5 45.5 L112.5 44.5 L113.5 43.5 L114.5 42.5 L115.5 42.5 L116.5 41.5 L115.5 40.5 L114.5 40.5 L113.5 39.5 L111.5 39.5 L110.5 38.5 L108.5 38.5 L107.5 37.5 L106.5 37.5 L105.5 36.5 L104.5 35.5 L103.5 35.5 L102.5 34.5 L101.5 34.5 L100.5 33.5 L99.5 32.5 L99.5 31.5 L98.5 30.5 L97.5 29.5 Z M208.5 57.5 L208.5 58.5 Z"/>
    </g>
  </g>
</svg>
